<mxfile host="app.diagrams.net" modified="2020-09-16T14:28:56.736Z" agent="5.0 (Windows)" etag="j-SIwpbKoEUr6EHzkld0" version="13.7.1" type="github">
  <diagram name="Page-1" id="5f0bae14-7c28-e335-631c-24af17079c00">
    <mxGraphModel dx="2522" dy="1613" grid="1" gridSize="10" guides="1" tooltips="1" connect="1" arrows="1" fold="1" page="1" pageScale="1" pageWidth="1100" pageHeight="850" background="#ffffff" math="0" shadow="0">
      <root>
        <mxCell id="0" />
        <mxCell id="1" parent="0" />
        <mxCell id="cp7yZlZRyXQYfkks4cQm-13" style="edgeStyle=orthogonalEdgeStyle;rounded=0;orthogonalLoop=1;jettySize=auto;html=1;entryX=0.5;entryY=1;entryDx=0;entryDy=0;" parent="1" source="nLoVxgrhlbPxmBjoQGfH-1" target="nLoVxgrhlbPxmBjoQGfH-2" edge="1">
          <mxGeometry relative="1" as="geometry" />
        </mxCell>
        <mxCell id="nLoVxgrhlbPxmBjoQGfH-1" value="" style="rounded=0;whiteSpace=wrap;html=1;" parent="1" vertex="1">
          <mxGeometry x="160" y="480" width="760" height="190" as="geometry" />
        </mxCell>
        <mxCell id="WCYd7PEhxb0Bcr4dKSGi-23" style="edgeStyle=orthogonalEdgeStyle;rounded=0;orthogonalLoop=1;jettySize=auto;html=1;entryX=0.5;entryY=1;entryDx=0;entryDy=0;" edge="1" parent="1" source="nLoVxgrhlbPxmBjoQGfH-2" target="WCYd7PEhxb0Bcr4dKSGi-4">
          <mxGeometry relative="1" as="geometry" />
        </mxCell>
        <mxCell id="nLoVxgrhlbPxmBjoQGfH-2" value="" style="rounded=0;whiteSpace=wrap;html=1;" parent="1" vertex="1">
          <mxGeometry x="160" y="250" width="760" height="190" as="geometry" />
        </mxCell>
        <mxCell id="nLoVxgrhlbPxmBjoQGfH-6" value="" style="shape=image;verticalLabelPosition=bottom;labelBackgroundColor=#ffffff;verticalAlign=top;aspect=fixed;imageAspect=0;image=data:image/png,iVBORw0KGgoAAAANSUhEUgAAANwAAABhCAYAAAC9Ds8qAAAgAElEQVR4nO2dd3gTR/rHN4RALgkkQBLIL4lIAXJHyl1yd0ku5S5Yl8ul3IVytNBCMSBhmnsDQg+EYst0Y4OpxlRjwJZkW5blJtmyLclFLnJRsWRpJRlyKZf2/f2xkixZK2MItkhYPc/nwdLOvPvO7Hz3nZmdHYjvvvsODAwMfQPxv//9DwwMDH0DIzgGhj6EERwDQx/CCI6BoQ8hvv32WzAwMPQNjOAYGPoQRnAMDH0I8c0334CBgaFvYATHwNCHMIJjYOhDGMExMPQhxNdffw0GBoa+gREcA0MfwgiOgaEPYQTHwNCHEF999RUYGBj6BkZwDLcVqampOHTokN/96C3ueMFZrVZUVlZCJBJBIBAgNzcXSqXS737dKRgMBpw+fRqBgYEYPXo0CIJAYGCg3/3qLYj//ve/uBPJyMjA9OnT8fTTT6Nfv34gCMLFPffcg5deegmfffYZWlpa/O7rrw21Wo0DBw7gP//5D0aMGOFR9wRBYPLkyX73sbe44wSnUqnw/vvve11kXzz++ONISUnxu9+/ZEwmE0QiEbZs2QI2m41BgwZ1W+f/+Mc//O5zb3FHCS43NxfDhw/vsdjc2bBhg9/9/6VSXFyMP/3pTz2u6zfeeMPvPvcWt73gSPs1NBjtqNFbUWuwQm2wwmS7dsN2GhoaaLsvN0JCQoLf6+OXitVqxfHjx/H222+jf//+3dbzn//8Z7/721sQX375JW4nGo02HC5uxcLUKrwRLwNrrQQPRolwf0QO7o/IwQPhOfi/zwrw0tZiTDlciW05TZBpzNe1O3nyZJ8XeNSoUXjvvfcwYcIEvPfee3j00Udp0w0YMABSqdTvdfRLJywsrFvBvfjii7h27Zrf/ewNbhvBZSgMmHqkCkNi80FEloCILgURUQQiTAIiVAwiJA9EqIOwfBDhhSCiZCCiZOgfKsKb8WXYI2lBu7XDy7ZMJvOaGHEOzvPy8mC1Wj3St7S0YP369bjvvvu88gQEBPi9rn7JXLp06bo9jZEjR6K9vd3vvvYGfhecoNqIcbvLKQFFyyhxrcy+MUJEICKLQUTJMGpzMRLymjzOERsb63VRQ0NDr+tbVlYW7QA/JyfHlUYqlWL8+PGYMGECxo8fjylTpkCj0fj9wt4K7HY7pkyZgtdee83Fvn37btreuXPn8Jvf/IZ2Yuqll15yfR86dCiamppuWTluJ4hr167BH5hIOxafUlECi5KCCM65caHR4RDuuN0VKGsy49q1a16zkqNHj8bVq1d75Of+/fu9GkhgYKDr+JkzZ7yOV1RU+KVObzVWqxWPP/64143qZmxdvnyZVmwjRoyAVCqF1WrFkiVLXL/X1NT4vfy9gV8EJ9e04+XtpSBi5FR0Wim8NWJzJ1qGIasLcbiwCS+//LLHRV6yZMkN+fvHP/7RI/+YMWNgt9tx7do1pKenexwbOHAgFAqF3y/srcBqtWLMmDEe5YuOjr5hOxkZGbj//vu9xDZkyBDk5+d7pD1z5gzGjBkDmUzm9/L3Bn0uuNyaNoxYV0KNv261yDwQUmPAFQIMHPZ/Hhc6Pj7+hnzetm2bR/57770XKpUK164xgrse6enptJFtyJAhyM3Npc2j1+vR1tbm9/L3Bn0qOIm6DUNWFVDjrRW9ENW8xna5lPCGsjwu9vjx42/I7+zsbK8Gc/nyZVeDYgRHj69u5LBhw3yK7dcOcfXqVfQFdXoST64tomYge6MLSUsOFeWefdProi9evBhGo7FHvldXV2PUqFF48sknwWKx8MQTT0AgEODq1au4cOGCV/RraWnpkzrtbUiSpBVcT/JmZWVh8ODBXvX+8MMPIy8vz+9l8xd9JriAXTIQMWW9K7blNLajpCDej6adfh47diwOHjwIkiSv67/ZbEZ7e7vrX7vdjqtXvQXXv39/rFq1CvHx8dclLi4OPB4Pra2t3Z5brSdxWWnAAUkTjpa0orDeBLPVfmPisdkhVhuxV6zB9uwG7M9vQr7aCEs3dm5WcGlpabSzu4888ggkEonfG70/6RPBbRM2OMR2i2Yi3QW2hA9iUSaIxVkgVmbjruAuaYJF1MTMiN/5fO4zduxYbNq0CTU1NTdctq6Cuxl8NcL0Ch0+PFCJwVH51PPIyGIqYgfnYtSmYkRl1KHFZO3WP6PFhrWZ9fjdFin1LDOyhHr8ElkCIkSE5z6XYkNWPa2Ab0ZwKSkptM88H374YeTn5/u9wfsboqOjA71JvcGCITGOBvNzBbbMIbDlQkpgy4UYtb4QM46okFRigKjBhqExYiqdx+RJIYj5x0DcP7Tbhj9o0CBMnToV6enpPS7f+fPnf5bY+vXrh8LCQg+bJtKGT4+pQIQXOJ5N5jkemzgIzqWOxcjBWl+CM6UttL5lV+nx289LqNng8EIqn8fNKJf6PUaOV3aUQlrf5pHfYrF4CS4qKspnXRw6dIhWbI888gjy8/Np80jUbVhySoWlaSrkVutRrTXjnFyL7TkaLE5VYv5xJcqb2nu1jfYlvS64FWeqqAv+cyLYQiqC3Reei7GfF2NwpAifC5tRpr2Kb7//Ee6f324uovJ42BJSd/S5R0A8OrpHQvj973+P7du3Q6fT9argnBHOac9gtuJtXimI2ApPgQTnUitsQsWePYWIItwdWYiDEo2HX3ylDoNiJFSX2n1MGyqmRNZ1gUG0DMPXFqGkwXhTgktOTqYV24gRI6BQKNDR0QG7vQP1egv252uwPrMOohoDJidVYM0lNVZl1OK9vWX4eH8ZPj2mQPTFWiQVNGH5GRW4p1R+F8ovQnDNRhJDo/NAhOZ3L6wVDlZmgwjOBrFUAGJRJu4Ozsbznxdj4akaHC81osn6Nexff4/H1kigbv8KdJ/3D1S4updeoosoBrFCAOIvs9FvoPeyLTqefPJJbNmyBTabrUeC69evH8aMGYMXX3wRzz//fLeMHTsWL7zwAsrKylz2JifJKbE5fQ7OdYgmByNWi/FgVC4VscMLHONhIYgwCfqHSyCqMaCjowN1egtGrJG4zQZTaYiIIgyLFuGFzYUYEuXoXobmd6aJkmLUhiJoTdYbElxiYiLuuusu2rorkclwVmlG9KUGzDxSiYkHyzHpoBxBp1R4dUcJJh2UQ9tuhc3egZJ6I3TtVo/2szuvEdMOVXicz2azYd++fZg+fTr279+Pjo4OVFdX48CBA4iPjwePx8PevXtRUlLi5atSqYRMJkNpaSnkcjnUajW2bNmCkJAQVFZW/rIFt1es6f55m0NYBCer8zFBEB9/2FqC5BIDqo3/xQ8//uQlqsc/k4CXr6UVXNjFehALr/g4p5Dqnq1R4e0NGYiNjcWTTz7ZI+G9+eabKC8vv67gBg4cCLlcDrvdDpvN1i1Wq9VDyKmyFseqG8fjjJA8EOEFmHNUAXFtG1qMJOr0FhwqasZvN5eAiJR2ii5Kile2FaOjowOzjlQ4ehWOYxFFeOyzAuzNb0KjgURHBxVpduQ0YmishBKwU3Sx5VicSkUUujFcV8Ht27ePtr5YLBZUKhX2ysx4b28ZtgrqcVmhR5ZSj915jejo6EBGpQ5LTqnQbCRhtNiQW2PAPrEG4RdqsChVhcWpSkw7XIHP+fUe51QoFJg4cSIyMzMxY8YMpKenY9q0aQgPD8fGjRuxadMmrFq1Cu+//z6uXLniyrd//35MnToVa9euxerVq7FmzRpMmDABK1aswObNmzFu3DgsWrQICxcudLFy5Ura637TgrPb7egtPthX5tmlWZENIqhTZMNixJh0SIFjciPG7ZaD4FITIP85pKQVk/Pz8jYpph1Ref1+7dsfEHKhnhJwdxE1NB+PflYCu90OrVaLXbt24c03vR8ddGX48OGQSCQeZTx37pyX4BQKxQ3XldVmwytfFDoem2S7xmk7hPW06VuMJF7dKaOimHPmNzQPoeeqMThC1LmCJ7wQT20ogqLZRGunqK4ND68uoG6M4QWOyZQ8KFotsNvtrm0P3AXnzLt7926fYisrK4PdbsfMlAocKmxy3ICofFHpNdifr6Hq30TCbrcjpagJi04qsTO7HllKHRr0ZrRZbFh3RY3oizWuczY3NyM8PByffPIJ7HY7ZsyYgbfeegu7d+92Xc+mJup8qampYLPZCAoKglAoxPz58xEXFweTyQSz2YzS0lLMnz8fzc3NsNvtEIlESE9Ph1AohFAoRGZmJrZu3YolS5bcMk30muBImx2PxOSBCBN7THiwPpNg9vEqnK5sh+na/1xiWXJWTY3VlvAxamMhvvvBO7I5PxMPKTF6UxEAoMn6NQ5LDZieosKjsWLKxlIB1TX1KbocEOGFOFPW6uGzQCDA3LlzMWzYMJ+ie+aZZ9DS0tKt4MrLy2+4vgQqPdXtc47bomSYf6yy2zzV2nY8FJPvNh7LoYTmtBGci7vC83GpUtutnaNFTXh2Syme3VCAZ9dLMHJzGQ4UttIKLiYmBna7HTwej7Z+nn32WchkMpftsHNV2J7dANJmw7LTVWgxkrii1OHD/aWIOF+NVofg3Mmp1iNRokGLkQRfpccnh6l6sFgsWLx4MRYsWIC0tDSQJIlDhw5h6dKlyMrKgtFoxMSJEzFu3DgUFhaiqKgI69evR0JCAubOnYtz585h9uzZeO+99xAQEICPP/4YIpEI1dXV2Lx5s+tmeuzYMezduxdVVVVQqVQIDAy8/QUnrDJQU/TBuSCCBHhqrQQCtRVffvsDrYg2CpupyLdMiIFhuWiyfu1TcJGXGnD3UgFeiyulJlZmXgQx5xIeihRhaooKozYWUqJzm1ggoqSdhElARMk87pzu1NXVYd26dT5fI1mxYsUtF1xsRi31StLKbBAhebg/UoQarRl2ux0mixVrLqnxr4MqBJ2pdf1ut9uxNE0FIqrUbXLFbUIlshh/jStxpc1S6jA+WYm/7qYmKixWm+tYu8WKdtKGdosVJsffFovFS3BbtmzBoUOHaOvlnXfegUaj8ShXokSDRSeVsNvtiE6vgbi2DaWNRkw7XIFZRyogUBnQZrbCaLFi0UklTBYrUoqaEHSqCtlVetTpLfhgnwxSjRkmkwnvvvsuhEKhy77JZML27dtx4sQJNDQ0gMPhYO7cubh06RKEQiH27NkDkiSxbNkySKVSzJ07F6+++iqWLVuG48ePY8+ePVi2bBm2bt2KiooK1NbWQiAQYMqUKThx4gR27dqFdevW3TrBXW+ccbOszqihZtUcY7VHVuXjmy4ziu6fk+UmarJjhRAEl48stdVn2j2FehCBV0AE8fHcxkIEnVHjUpUFtq++AwAsPVdHRTrnVPprM0A8904n70eDWK3Efw6Wd1sGtVpN++Lqo48+Cq1WC5vNRis4uVx+w/U1PlHe2Z2MKMZbccWw2WwgrTZ8fKAMxGol1e1brcCzGwpRp2uHzWbDxQotVc90b1tEybAxUw2bzYa8Gj0GRuRTY7vIEhCrlVhwQtGtT+3t7V6Ce+GFF3DPPfd41UlAQAAMBoOXDVG1HpOTy2GykNib14BEiQY2mw0W0orsKj3mHlOAk6qEyUwi8kI1tvLrYDSTWJ1Ri4TcBhjNVkRcqMa0wxVos9iQkpKCCRMmICIiAmazGWFhYdi9ezfV5lavRlhYGJYvX47ExEQYjUZoNBpUVVVh5syZmDp1KhISEtDa2oqWlhYkJiZiwoQJkMlkqKysBI/Hw/Lly5GTk4PKykqcOnUKHA4Hq1evvmW66DXB/ftAqefUMycLF1RmnyLKa7SBWCagBLcwE1+IWnymzaiygJhzCUvPqvHjT95dzwPFBipaBudSPnR9FPBbNoi1NXgjrqRHZZkxY4ZXA8vMzLylgvvLzmJqFtWtO2mz2ZBfa6Aicoiosy5jy7Ezux42mw3Vre24N4SKil6CiyzG8ZIm2Gw2LDxZCSK23G28l4+BYblQ68w3JDg6/va3v/m00WgwY9JBOSqbTBCq9K4bwOVKLRr01LlnHK6A0WJFqrQZsRdrUKttR3ObBToTCZvNBkWzCf/aX4aS+jbYbDbk5ORg6tSpMBqNiIiIwKZNm7Br1y6EhoaCw+Fg6dKliI2NxaZNm/DFF18gMDAQX3zxBZYuXYqEhAQkJSVh586d2LVrF8rLqZvumTNncPr0aWRnZyMlJQV6vR4kSeLixYv49NNPb3/B/ZUn9WwECzOx4nydTxHVmb/C3SE5VBdxUSbmnKj2mba4pQNE4BVM8jG5UtTc4RBvNnU3H/OOZyN5bCyImDL8YVvPBKdUKjFw4EAPG0ePHr2lgnt9R5GH4AId0Yev0lGTGa5nckIQMXJszKyFzWZDjdaMe0OEPgRXguMlzbDZbJh3rKKL4MToH5yNmtb2ny240aNHo7i42Ked2UcqcaasFTXadoScrYLJYsUXgjrMTClHxPkqXKnUeqRvM1uRUdGKC/JWkFYrEnIbMOcoJUqj0Yi1a9di1qxZsFqtKC0tdUUko9Homvk1Go1obGyEVCrFxIkTIZfLUVFRgUWLFmHq1Kmw2WwQiUQ4duwYUlJScPr0aZw+fRqnTp3CyZMn0dLSgosXL+Lvf/87UlJSbn/BvR1X4nlX5vLxh21S0AQkAIDt6+/x6Kp8auzF5ePVnTKfgmsiv8ZdK4R4fK0E33zn3U21ffUdhsWKKVtRMhBvfOrZSPrdDWL+cfwhvvsulZO6ujrce++9HjZOnDjhU3AVFRXd2mtubkZjYyMaGxvR0NAAs9mMfx+Qg4gqcUWmd3jUzcBotuIPW4tArFY4VpeU4b4IMcoajbDZqEhBhIq9V5E4Hmavv0JFFIFKh35hYhDRZdSYdo0KM1K697OngiMIajWJSCSitbM6oxYbM9Vot5AIOVsFtc4MvlKHFzYX4pPDlZCoDTCYrchUaLFNWA+jmUT4+WqEnqtCq9GC3aIGBJ5UgSRJLFiwAPPmzYNMJoPNZkNtbS14PB54PB7WrFmD4OBgcDgcLFu2DGKxGDabDdOmTUNpaSlsNhvKysowefJkWK1W8Pl8HD9+HKdOnfLgxIkT0Ol0SElJAYfDuaW6IKxWK3qDd3glnnfd5ULcE5KDBgv9A+vvf/wJz28pplaJLBVgcJQI5i//R5v22rc/4OFVYhBBAiiNX9KmeSO+lHo8EFEEYspO70by4of4056aHpXl7NmzXvkzMjJoj/Xv39/1BjMdarUajz/+OIYMGYKhQ4fiwQcfRE5ODjbl6jsnTULzMDgyD3VaE6xWKxRNRkw6pMToz6V4e5ccF8tbXPZCzqo683WdNIkoxuvbi1xpT8ua8e7eCvxxhwwrzlahrZ10HdPo29Gob4fGYEaDvh1aE9mt4Hytl8zOzvYqc0qhBvOPKWC1WrHhSi2yq3RQNBkx/5gCGeUtEFXrkaXQQlKrR1CaEpcrW6FvJzH/aCVyq/UQ1+jxl3g5VqUWYPLkySgrK4NGo4HFYsGcOXPw8ssvQ6VSQSwW4/XXX8dTTz2F6dOno729HVu3bgWXywVJUmWVSCSYNm0aSJLE+fPnsXPnTsTFxXmQkJDgEtzKlStvqS56TXDzjym8V5gsysQhWZvPyPXXhDIQszNALLyCe0NzoGqjF9OPP/2El74oATH3Mo6WGWnTLDpd65g4yaUa4bCRng3krn54a250j8ry1ltveeR94IEHUFtbC6vVivz8fK9VFnv37vVp6/jx414NNT8/nxrDhhd0CiZahqVpim79qtO14+FYiWc9h+R5PBYgwgtwStrcrZ19eQ0Yvk6GR2PzMHyVGEPXlGCfhMpDJ7ipU6eCz+d7bb9AENR+JAKBwMN+odqA8Yly6IwWJEk02JPXAJ3Jgg1X1KjQtOFypRYHxI2o17UjKE2JxScVUDWbIGtog6rZCJK0IkmiwZTDldi6bQemTJmCJUuWwGw2Y/bs2VixYgXmzJmD2tpaiMVibNy4EY2Njbh06RI++ugjNDd3lr+oqAjTpk2jbkCnT2Pbtm1ISEhwwePxsHPnTjQ1NeHo0aO/HMHtzWv0Xve3MBMzjlX5FFxwej0+2iPHwWI96s1f4XuaVSbOzz/2VYCYlYGgc/Tjwn2FemrixNF4ib+v8GocAwcORHh4OLRaLW0ZioqK8MEHH3jle/vtt11p2travFarjB49GvX19V72dDqdx2Y5BEG9jOk8/9iN1PIrSiwi9AvLx35xI61vepMF7+wqdSwscIzLwiRYdroKQ2PyOnsXYQUY/lkBJLV6WjsClQ6Dox3LwELzQUQW4+7QXFRrLbSCe/fdd2E2m2G1WlFcXIwnnnjCq34eeughZGVluc7RajTjPwfLUNZoRE6VHpHnq2EhSSw4XomqFhNSipqwTaCG1WpFhaYNrUYLWo0WVGiM0JkoPzZcqcXitBqYLRZwOBxMmTIFJEli5syZ2LRpE8aNG4dVq1a5zukU48cffwyBQOCKcEKhEBMmTIDBYIBEIsGVK1cgFotd5OTk4MqVK2htbUViYiIWLVp0awVHkiR6A0VTGwaE5HiO45bw8dSGQq8Fx84P3TIuX5+5J6tBzMnAm7wy2uPFLR2ds54hjpUXw+m7R08//TQWLFiAHTt2YOvWreBwOHjzzTdpp78JgkBSUpJHWd03v3Hy/PPP4+TJk1Cr1airq0NaWhpeeeUVr3QzZ8502TmY30DdHIJzHMvQxCBC88E9qYS03oB2swVN+nakSpvx+23SzscIjsXZz22UgCRJBJ5QdE6QrKDelngoJh+bMtUobzRAo29HaUMbYi7W4L6ofCqyOpfWxZYj6JQSJEnCZDJ5CW7NmjUeZS8pKQGLxfIq1+DBg3Hp0iVXuvnHK3G0SAO11oToC9UgSRLHijTQGc04VKDBmowaXKpoRWZlK7YL67BVUA9OqhLVLSboTBawE2QoarJix44dmD17Nng8HsxmM1auXIlly5YhPT0dbW1tqKurw5kzZ1BXVweNRoPk5GTMmDED0dHRSElJwccff4wlS5aAx+Ohra3NNRO5cOFCrFq1CmazGSRJQqVSYfv27Zg4cSI2bdp0y3TRa4IjSRLPbZRQK9PdV/8vE6JMe7XHwvL1ibnSCGLeZTwULQb53++8jpPuEyfOhcuzk0AM6NmiZV+88847XuWsrq7G0KH0r/4MHTrU58qV++67D3K53MPWB3tlDrE4hBQiAhElxYCQHDy3UYL/WyN2LUTuXB9Kvf6UUdEKkiRRrzNh5NoCKvo510iGikFEluA34bkYsUpM3QyjpNTaUueay2gZfre5EK1tVKMzGo1egouIiPAqf2lpKUaOHOlVvkGDBuHixYsgSRLrLtci7FwVbTsJSlXgbzwppiaXY1yCFNxUJfQmC0iSRE2rCTHp1Zh+qAIkSeKTTz5BUlISjEYjysvLERkZCZIkUVtbix07dmDy5MmYPXs2Jk2ahB07dqCxsREtLS2YNGkSXn/9daSmpkKr1UKhUCA1NRXBwcH497//jYSEBMyZMwezZs3C2rVrkZaWBpVKBYVC4Rrz3faCW5yq9BzQO7qV2/Naf7bg9roefguQr7F7Hf8JwGtxMrd1lVSDIiZtBdF/wE2JbezYsVCr1bRlTUtLw4ABPbd71113ITk52ctOk74dr2wrAREr95wACRFRkcjjIbeQ+i2iCDuFnn6Jq7UY/lmRd/2H5FE23HseK7NBRJfiyfXFKKnTu2z0VHAkSUIul+OZZ57xKucDDzwAPp+PglY7/p4gRUZFKw4XNGLd5VrUaY1oNZrx9wQpxDU6mC0kxNU6fLBPhmmHyjHrSCU+2l+KGYcrXH6dP38eEyZMQFBQEObNm4c5c+Zg8eLFmDJlCiIjI1FQUACSJFFQUICoqChMnz4dgYGBiIqKws6dO/Hpp58iKCgIs2bNwuLFi7F7927U1dWBJEkYDAZkZWUhPj7elcaZ/hchuExFq+f6wJXZIBZn4cPEyp8tuItVFmqxc2AmtonoBbwwzTFx0mX1BTF9NwY87D326I6PPvoI9fX13ZY3LS3N5zbpXcdtKSkpPu00G9ox/mA5Na6KdD5ecRNfcA4lmhg5hq0qwsH8Blo7hbU6vLK9lHrbPqLIsc7S+RJrTucGutFl+FuCHJUag0d+o9GIUaNGefgeHh7u0+/y8nKv9ARB4P7778e59IvgFRowLUWJ+SeUmHCgFEGnFFhxWoVZKRUwWzrtNOhMOC1rxrmyFpQ1GLzOo9frUV5eDqVSCaVSCbFYDK1WS+uTRqNBQUEBTCYTSJKEVCqFVCqFRqO5bvvVaDQoLCz0afumBGexWNCb/NF9BbxjmdewWDHsX39/XVE1W79Gg4V+TaW05SrVRV2YiSkp3m8OAMC+IreJE7dIMTBGBoFcjdjYWNpBv5MHH3wQ//znP3HkyJEel1ehUGDBggW06zBHjBiBefPmQS6X98jW0SIN3kwow4DwPMd6UJlrLejwNRIsOKlCRaOhWxsGowlb+XV4ZXsp7gkTuSIiEV6AAWF5+PPOUuwWNdDmbWtr85qJXLlyZbfnq6iowHPPPUdbn2lpaTCY2mGxWFDTYkTUhWqEnFVB0dTWq23wdqLXBXe4oNFzZ+UV1ORJdr3vtZI6+zeYfkSFQUsF4JyupU3Tav8GA8NyQSzOwphNRbQzmgVNHdQYzn1LvsgSzD9a6fKvubkZFy5cwObNmxEdHY3Vq1fj888/x9mzZ1FVVXXT5W5sbASfz0dycjKSkpKQlZWFxsbG6+bTtrXjbGkzZh5VYv7RclgsFpQ2GHCooBFb+bWIy67DpQotGrTGG/ZJWm9AqrQZB8QNSJM1o7ShU6wzDsuxmd+AIrXe9ZvZbEZaWhoSExORnJyMxMREFBUVXfc8tbW1SEpKQlJSEpKTk5GcnIw9e/bg1KlTfm/w/qbXBWexWPDGjmLHi6iOhr/wCmKvNPoUXLXpv1R3cd5lfHCggjbNtW9+wBNrJSC4fNwTSv9A/ctvf8AjztUrjq7YXREFSC3R+L3i6UiWNOKJDaVUN9C6CgcAAAnlSURBVDxGDiKiEKJqXa+f92B+A4g11Hh7QJgYr2wrhvw6kZPh5iDMZjN6m/waHQZE5Hc+oOVk4Q1eqU/B/e+HH/HMxkIQgVfwu8+LfT6Pe3WnDASHD4KThdOV7V7HtfZvMGZjIYggtz1OQvPw2NoinC9t6vVy3yiZlS3U29fOZ2hRMvxzT0mvn/eVrYWds56RJXgkVoQmvcnv9fFrpE8EZzab8XlmDTVjFpwLYpkA94WLoO/41qfo3t1bDiLwCgZFiWC85rnE65vvf0RWLYmn1xVQb5AvzET0ZSpiKgxfYntuC/6xR069+dx1r8oV1JYD90UX4rCkwe8XoCuTEksdM4tCqhseUYSUgt7zc6eg1rFVg6N+YsoQca7K7/Xwa6XPBGc2mzHnSLljr40cEIuzkFZh8im45efrqGn/pQIo277EDz/+BHGDDSvPqTF6fSG15nKZ483uZQKw1hXgzztluGtFtmuXL8/t8twRgggrwN0RBYjPVvv9Irgjq9djYJjIsUqHmvZ/dHUBFBr9LT9XYY0Wg6LzHe8tCkGE5ePBKBFqWtr8Xg+/VvpUcGazGRMOyinRLeJjcVqNT8GdLDdRM4zLhXhvXwW1dtK5Zd4SfucuXyuzO3f64vLpd1/2Kbp8EBGF+Cyj2u8Xwp3wcyq3rQUdGwRtL0Gz3njLzlHZqMeojcWe/89DjByx6Ux0602I9vZ29CUmkwlzjlSACC3B89vktC+QdnzzPQ4U6zsnO7hZDpHdwDbpwTmd/5OqL6Jk1JZ0a2sx50gFmnTGPq0LX+iNJuqVHPd1ktEyvMWTobrJ8LPti6taMWqju30hiCgZfr+lEHqj/8v/a6bPBedk06UaPBAlQZUdsHz1PfhqEuuymvD+vgo8tib/5/3vOuGFICKLMTmpDNsFtd3Dr8UXfDU2ZNZBqdH7/YI4KahpxeDoAsfSuE7RjdpYjPSyppu2u1OoxkMxErfdvqgx7ZDYQhRUt/q93L92/Ca49vZ2ZFc2Y/bxKjy8Xg5iZQGIRVnU2CtIcHOCc7yg+dT6YuwV1fu9cn8uJ4sa0D+iwG1xMSWOu8PzMe9YJYprtT2yYzCacLy4EX/llVJR3zlmW+mcQCrA+VKN38t7J0CYTCb4m8ScOry6Q0Y9f4ou7bKlQHfdRsf231FSEJFSsNYXIOpCNepb9H4v063ioLgOAyOci5UdIgkRgYiS4b4IMf61vww7hWoIFc2oaNChodWAqiY98qtbkVLQAM6JSozZ4IiUkSWOJWJC6t/oUjz2WRHSSxv9Xs47hdtCcE7OyjT49GglRm0sQr/gXGq6OkpGEe2Gc4lTqBgjVkvw0YFy7Bc3QKM1+L0MvcF5WSOeXFdMrYl07srsXIjs3PovOBeDI0UYsSoPQ6JE6Lcyu3M5mPuLrSuzqWd9UTK8u0cGeb3W7+W7k7itBOdEZzBCVNWKvaI6hJ9TYVZKOaYkyzElSY5pSWVYekqB7QI1Lsqb0NDa5nd/+wKVRocpyeWOXoDMe7W/c4cy53/44bXgOdexUFmGUZuLwcup83uZ7kRuS8Ex+OZ8WRM+PFCOgeFiqvvtHJN1fRPA2d12zNTeHZaHv8TJEJetRtOvtCfwS4AwGo1g+OVRWNOK9Zdr8OE+6qXRR2LFuDc0GwNCczAgNAdDo/Pw200F+HBfGdZeqkGOstnvPjMYGcExMPQljOAYGPoQoq2tDQwMDH0DIzgGhj6EERwDQx/CCI6BoQ8hDAYDGBgY+gZGcA54bO9dptg8x3EeGwSb12NbQq73pqgEwQbPlYYHtsf3Th9c5/RCCO7ILjZGciF0P852/+7mO0GAzeViJDESXB71L5vd6eNIrtAtT1ffhOCO7FKWkZ7n4bE9bXRfjjsbRnAu3Bowj42RXKEP4RAgiJHgCh15aEQl5I68TiO+CcEJuRjJ5kIoNLhE5HFj4LG9hCDkjvS4UbhuKm6/Xd/X6wndzTabR/npc09OZ73duRB6vR4Meuj1PLBZXAj0euh5bLC4Agi4LLB5eugFXLDYPFdaAZcNrsCRh2CDp/f8W8BlgcUVeNp2puOxQbDZlFBZXAi6iMdTSM78AnBZLHAFAnBZBNhstss+5aMAXBYbPFc6vesYrT0eF1xu53mdtryiPJvXpYxd6skDyjd3e3oBFyxHWgGX5bDn7+vsXxjBufCMVu6C82yIbHB7IDjaLqXeKUYulbaLkHlsT7G4BCLgguW04xCph+C4XY7rO210Cp8SBIvl2fC7vTno9a7I1Xm8U1iEh+/uNwhnHbAcwu4s150OIzgX9BGOaqBscLkCt9/dBedLVPSNmBJS16hB4VNwej2cDZ3No/zzjlyUL96N3i3qOMdzPJpjNL7qeWwPAfvCJTa3G4OnTTeR9sDerxlGcC666VLyeOByWa7GcvNdSmeXj05w3t1BD8Hx2CBYLKqL1jXCOQXEZnt099z96OzSObuf3mk6fXWKhtvlhkJ4i5THBovN7oywPmGinF6vB6HT6cCgg04X79ml5PDB57DAjqd+Z3H40PE5YLHjweewweE787ARr/P8m89hUek9bDvTuX+P99mgO8dR8dDp+OCwCLDj+eCwWOBwukS4+HiwCRY4fMdxvg66eN9jQ9rxYjx1DmekdvrqXRYd4tkE2PFudcfngMXigO+zbt388vt19i+M4FzEg+1sNPFsl+B83a27E1w8zSMGglZwbufnc6gowY6n981dHGy2SwR8DgtsDscjwrA4fFcZelJ26sbiy7cu3+PZ3j7yOT2KcIzgGMG5QS84qiHywWF33sE9I1xXUTmjTRfb1xEcFUnibyAS0IiWjm7FQJef3jeCHe+wRZOHiXA9htBqtWDQQquNQ0CXBhkQEABWQABYAXHI4rDA4mQ50gUgzpXH+TdFFocFgsVBlpdt93RdvscFdObJ4oBFZ/MGuodEQJzPclK2WOBkdVcPnufXarWICyBA0Pyudfncgwjn85x3DozgHMQFEAiIc3yPCwCLk0X9xuGAFRAHrTYOHE4W4gJYCAhgdaZ1Jy7AR8PyLThKAF0ask87WlfjZnE4CCACwKHLr81yG4/1ENdNoouvTjEFxDn8Ihw3ni4+ed1kuvrDCE6rZQRHT1yAq0HHZTkFpwXVcBy/eTUwqpG7C5GKCnRRJ65TLL4aqqOhO+25bNEKwy06/4yG74qkLA6ynEKjsedK51Emp8jd7LtFPi+R3qEwgqPDEeGo7126mt1013qLuAC6Bkvf9cvisLx89OyS+ugW/oy66kmX0ekDbc/gDoJobW0FAwND38AIjoGhD2EEx8DQhxAtLS1gYGDoGwh/O8DAcCdB+NsBBoY7CcLfDjAw3EkQzc3NYGBg6BsYwTEw9CGM4BgY+hBGcAwMfcj/AyIjaOpTlbjhAAAAAElFTkSuQmCC;" parent="1" vertex="1">
          <mxGeometry x="190" y="520" width="220" height="97" as="geometry" />
        </mxCell>
        <mxCell id="nLoVxgrhlbPxmBjoQGfH-7" value="" style="shape=image;verticalLabelPosition=bottom;labelBackgroundColor=#ffffff;verticalAlign=top;aspect=fixed;imageAspect=0;image=data:image/png,iVBORw0KGgoAAAANSUhEUgAAARgAAABCCAYAAACM7MmpAAAa3UlEQVR4nO1d7VdU173uP+FafMe1/Oxi8Zm1WKybvtFL6Uva0kppb5tL2kLvbUubW0rahqYNwSQkJgqJYmIqYsUYk4CiICgggqIwMOALKsOggKLOoCiiPvfD+Bx/s2efmTlnzgG051lrr6XMzNn77Jdn/972b39pcfE+vOIVr3jFjfKliYkAvOIVr3jFjfKlR48e4tGjR1EFZgWyeFgtCE4G0NrSvNLN8OAhBh7BPAOoqa5Cbk72SjfDg0BvTzfCodBKN2PF4RHMM4CC/DwU5OetdDM8PIZ/2If0tDWoqa5a6aasODyCeQaQm5P9TBNMa0sz0tPWwD/sW+mmJIX6ulqkp63x1FYsA8Hcu30DoZkLuHr2GIIjhzHlb8fU6BFcGevE1bPHMD8XwP2FZ1+UDIdCKC4qRHAy4Piz09PWoLKiHL093aiprnKljkQIh0JoamxAZUW540RQkJ+H9LQ16O3pdvS5bqGmugrpaWtcVZHCodBToYY5TjAPFhcwc74Ho+21OLHr9+j5+Nc4vvM36N1VhhO7X0LfnnL0730Zp/a9goH9r+L0F69hsGUjRto3Y2KwGXOTQ7h/b3653n/ZwEnntNgcnAwgPW2NsQjT09agqbHB0Tok/MM+1FRXoay0xFDNcnOyjbrT09Y4TnB8t/q6WsfJi6RckJ+H9evWIiszI2UiY3vZP26MR1lpidEnqxmOEcytK2MY69yGzq0/w9H6F9C1/UV0f/SrpAlm6OBb8B3ahJH2zfB3vI+gvx0Loenl7o+kUVlRbjq4nLBEU2ND1OLzD/tSlmZYBxf3+nVrXVvgBG0L6WlrDLWsID8PWZkZhkpgte54hFFcVIjiosKod6usKLfV9uBkwCCTyoryKEJWi1USC4dCxniwL1gK8vNcUZXYfjc3EyeQMsHMX5/Amf2v4khtITre/4ljBDN6rB5nu3cg6G/DQnh2pfrHFFzUKiipZGVmAHiij3Nx+Id9xoJJhQiKiwpjiMVtggEiO776fO6m6WlrUFxUmPSzKH2ZSQzqYi0rLUn62fV1tQYB6vpIlqzMjKi6rILEW5CfZ4wLx7umusoV1Y4Es9phm2CWFu/gXNdHaH/vBziy5UeuEcy54ztxoW83pi/04uGDpRXuricwm4yczJRg5OTmhE9lJyZo81AXoZPG0N6e7phnSXKR78ZFakVkJ/nqQJuVTtJIBCkxqqUgP88gRLr2/cO+mL9ZQXAygPq6WtTX1caMR25ONnp7uo3iFKiiyjZQMivIz1s19ipbBDN/7SK6P/wl2t793rIRzPjJvZgYasFCaGal+wwAoiaRJAtKMNzJg5OBmB3Uyk6sg3/YZyriV1aUo6mxwRHROSszI8pmFA6FsH7dWuPZWZkZUWpMbk62JaNjcVGh6YLu7enWkkMy5EkpQqqhVCWDkwGDTGhzSXVspLRE1bG4qBCVFeUxKl6qY09UVpQjNyfbqFvtq9XiIrdMMFf8bTj09rdx+J3vLjvBXDy9H5cHm3FrdnzZO4oSQ011VZQYLPXg3p5uw6VKvds/7IuZxKlKGFIlUXdmVYJKBepE5aLn32Q/ZGVmoKy0BFmZGUnVTbVi/bq1KC4qjOmTcCiEgvw81FRXob6u1lA3kiEwLrj169ZqxyueqmRlbGjXaWpsMCX89evWorKi3JgXVtSa3p7uKFKl56iyojyh2pcqwfCdiosKTaUhtiErM8N0Q7NEMBMD+9Fak7/iBDMx3IobV0ZT6kArCIdCMZ4Snc1BVRk46SgmU7pJT4tY/+26GDnRdOqRlZ0+EdSJStWjprrKlGwTGTVJ1OoCUScxCSg3Jzvqu8mgsqI8aUJhe62OhU4y5TN7e7qNfmH/kZytqGB8RlZmhimh5OZko6y0xDCwO0UwKmHq+ke2yey9kiaYiVOfovXNvFVDMJOj7bg5fTalTkwWqrielZmByoryGGOnunBUFYPfkYNixyBrZntxQjoipMeIC1snCVByorqzft3auG0ws1GoYJ9TzSkuKjQM58m0XUoxxUWFhiTU2tKM+rpa413sSnq6sACpHpmRmhUblbrIaeNi30jVnJ4spwhGSlzr163VEox/2Ge8sxlBJ0UwU8OHcPCNb6w6gpk6exSh65dT6shkEJwMoKa6CjXVVfAP+wzRmHq2BHebpsYGY9Cp63PhSU8SFxm/Hw860ZhqAP+eaIHHA2NcpOdF2jFYJ71h7IP169ZGLax49XOhyGfpoLPBpOLurawoN+ql7SgrM8O2UVfdRKSES8mI8UJU76xKrRwD+TsebCU50hajzgmrGxfnqmwfxzgVr2RCggnPjOPAxq+vWoK5cuE4Fuav2+4Aq6ChU+7g/LuZGqVTp1QJQf1chZR8ZLwFd09Zv50JJhf0+nVrjXeUUNUUkgojeNmmRFB3+ETxRLk52YbBlHVY2aHZ17T1hEMhtLY0J91eHeQcoJRE6YKGV2mjsAMpjdC+FW9+padFjMiJNhjaBSVh066XqndTRVyCWbo7j7ZNzyckmDP7X8VYxwe4fOpTXB7Yj4nTnyFw5gsEBptx4fhO+Ns2u0owMxMDWLq/4GjHmEGKjtLWIUVuuYAkGajiuH/YZ4jticK+aXfxD/sMsmEcDheMFKmtql/hUMhoi3xHuXNyAhOsjwZeElw8qAZq6VKlBCUlAkoDNJbSvmLFS0bylGMhPUh2JD5KsexjShLsC74HvWt2kIhMKDnSiJwMwqFQzOYERI+lk8cP4hLMwL5XcKD6azEE01G7Af7D7+LaxX5Lld2cGkFgsBmnP/+HowQzfakfN66OOdYp8UBRknENcqeim1Yad8OhUEJ1wErdcoHS9hFvEvKMkpU65E7J30oDLyEnuqzTDNI9rPsu6y0uKkRZaQnq62oNb4Yas2IFbHtZaYnhwpdG91RjRqQBl5sFJRmSgB3IsaWto6y0xOhHO3YWKQlLIpHzimqfEwGbpgQzNzGIlte/EkUwR7f9HFf8bVhavJ1yxXOBQYwcfs8xgpmZOL1sqpKMpZCLjDshd1k1ziKViUyDmhmR0K6gq5efJ7PrqxNN/bvcKeUuGo9ggpOBGKOoGomqGi7VZ6ZytILue6lmrF+3NsbtbhfSuMp4GNpgUlHDzJBKuymdqiStU9nZ7xxzStF8r2RUP1OC6awtNAim7d3v4cLxBriRrmH20kkMH37XEYK5fsWPR48eOtY2HaQLlAZWGmkJeTxATjw7CIdCMW5X/l+SSGtLszHRKyvKjUhYnY5uBlXCkG1mXdz1KJmpYfa6xSSJj5NVVacYDcvny4VAsrFyDEFCkgolI6qVKmnagbRfUDViVK0Tx0JUOEGMOjWotaU5JjAwkXScCFqCCQ4dREvVl9Hy+lfQ1/gH3L017Wo+mIdL93Cxf0/KBHMt6MPC/DVH26aC0kG8oC8agrm72xGTpQdKDqokMk402mLMDsAl4w2QuzDFaGnAppiu1i3Jlm5q3bPLSkui6pftVqGLY7FrG6DtiEbNpsYG4wgCiSFVFUmVLGkXkRKMk6H7OnXVSZjNPbN5GA9agumoLURL1Zcx2l7rSsKpoK9V+/eZ8b6UCebGzDnXpRjgidfGbFflogJgTDgr0BlD5QKVrm5OXn7XqtFS6uWcOJJgZEwKEZwMGAtL2oKStY/Ek+roPZJqkl0pQ+fulqpMqtKFNCADTwz30uPlNMG4lfpDh9aW5qjUHFbPOcUQzPWJM2iueg7BoVZXMtoNNVej+bX/wFBztfbzW1fPpkQw16+OYfFu2Hb7EkE1tJrp14xypdGUkZY0/iVCb0831q9ba7g+dZ/JiW0nFJ3gs0iClFhIFjqRXHqymIKCUlsi8PlmBCMNu7Kf7SxStl0udumZSvVIhZmRXT3J7WQem6cpAVcMwQw1VyM4dNCVlJkkFxZTkpk+lxLBzN+cst0hiaDaKcwWFHcZszMqdnZN1R4jDxeyXXbsFIwx4bNUQuH/pXTCd5fnZGgHSjTxdZGoEmqum9yc7JQWqNwQcnOyY4irrLTEtmtWF73NZ7FfnSaCp5pgJs3IJUWCUcklEcncmBqxTTA3Zi/g4UN3Ujtw11PtFIQa1Wm2u1lFb0931HO5uBllbFU3jge+GyewdLXTO8KFqnvXZAlGJ+JTyuvt6TaIgXXSdpLswlK9VyRkXToHu+qGVBVVgpfEpqq4qcANu45bWJak32bkkohkpsY6bBPMoktpN9WJKdUdM31fLhI7eVRVoyePHahRxXYjRlXo4kN0qoDMasdjFMmA6pxuUSfyYMQ79yKhkohqG3JC/VLHRU1XoXoTk1Efk4GTm4nbcJ1gRtu2xCUXlvNdO2J++/DBfVw6vd8WwSzcdicmJt6EkoZXq4suHuQuLMV5ldCcSs2oIxiZZDo4GUgp2pMLT7dAGM3LYDi7u740FOv6hZ6SVDLOSZLSqVnyxLXVZFzxwPmw2vPxAi4TTNDXmhS5sOi8SwvhGVsEE74ZdLSjCAYa2Tnibxdc8DoPDQ/TOWlEDIdCrl4RojtY97RCZ4R3G3QUPA395xrBWCWXeCQzNdZpmWBuzbl/yno5sRJXkXjwkCpcIRi75GJGMnfDs7YI5sHSPdc6zoMHD4nhOMGkSi6mJDN/DXfnr+Pe7Tncu3MD9+7cxOLCLSzeDeH+3TDu35vH/cXbWFpcwNL9uxFyeeRsxLEHDx6swVGCcYpc4qlLHjx4eHrgKMEcqsl3lGA6tmxYzr7w4MGDwzAIZun+XdwOz+B2aBq3Q1cxH7qC+VtTCN+cQvjGJEI3ApEyN4HQ9UsIXbuE0PWJqIeFZ8YdI5lDNfkIzyz/7QEePHhwDgbB3F+8g7npMVy/OorrV/y4NjWCa8FhzE4OYXZyEDOBM5iZGMDM5VOYvnQS05f6cfXiiZjTy+GZcY9cPHjwAEAQzMOHDzAzcRozEwOYvkwC6cPV8RO4Mn4cVy70YOp8N6bOdSF49iiCY50IjnXg6nhvzEOd9iJ58LAa4R/2uRov9CwgygYze3kAU+e6MHXu2GMS6UBw9Agm/e2Y9LchMHIIgeFWTAwfxITvAC4PteDyYDNuTp+LebCTcTCrBcnetxOvOBFtW19X69qdx1YhI2KtBH6l0odOHYmwA/+wLyrBuRMX3D3LiCKYuSk/AiOHMDHcignfQYNALg9+gUtnPsel05/h4sCnuHhqH8ZPfYLxk3txob8JF/r2YPHOzZiHOxHJu5rAQ47ywCMD4OTpX56x4QljZt5n4upUIO/0SU9z96L7ZCDvj7aTVKuyojwmTaeUCmQfyiRRKyE58IiDTP3gEUx8RBFMeC6AiwP7cXHgU4NAxvubcKF/Dy70/QvnT+zG+d5dON+7C+eO78S5nn/ibM/HONu9A+Mn9+Lhg8WYCpIlGSfJ5cH9u449S0LeU6NCJjDSHeJjXthUJyTTMaZySM9JqImhrIISULy+I2ReYqfueLYKJnqXJ709mCOKYB4sLeL8icbHBNKAc8d3GgRytusjjHV9iLFj2zF6tB6jR7fB37kV/o4P4O+ow8iRWoz379FWkohknCSXOzevYPzEbseeR/BgodkBs0QEAzw5kZxqO2SelJU+jyLVBbvSWbIEAzxJ+GV22+BygImwPYJJjJg4mCl/O0aPRQhktHMr/J0fwN/xPkaO1GGkvRYj7Vsw3LYZw4ffhe/wJvgObcJQ69sYaq3B0MG3MOk7qK3I7FS17hS1Xdy5EUTf7pcwO97n2DMJpkI0QzIEw906VbWGOVNWC1I1dlohGCD6ZPdKgPYvj2ASI4ZgQrMXIwTS9l6ERA5tgu/QOxESORghkcEDb2KwZSPOtGzEmebXceaL13H689dw+vPXMPDZ3zHWuVV7DijZjHZ2cPvGJHp3/hbHd/7WsWdaQTIE40GPZAimsqJ81eQ/8QgmeWgjeUc7t2HwwBsREmmujhDIF1WPSeQfGPjs7xjY/ypOffo3nPq0Eqf2vYKT+/6Kk5/8BSf3/hn9e1/GSNtmLNy6GlNhopy8djB9vgfdH5eic+vPcHlgv2PPtYJUCaa3p9u4mD0Z6YTXfOjAHZ4LkvcZW0ktoP4mkbTAGyftIBmC4RUxOjADnlqCk4GoDHny7zqw33jhm5lUZkYw/C3zLycCx8jumLPPrfxepjW1IknbmUOACcHMBYYiBLL/bxES2fcKTu57JUIgn/wF/XtfRn/Ty+hv+hP69vwJfXv+iL5//REndv8fTux+CSca/4DeXb/Hyb0v4+rY0djGOmRzWVq8g+HWt9FR92N01Baia/uLeLC4PFfIqrBLMLweglehZGVmGMmz1QnOCSYTHcnP1Ez2uTnZhjGSF73z32aTROb95VWozMamEppTLttEBJPoJkPZZzJ7HG9xZNvMMsHJd+bdSfIqVXUcVIKRY8hnxLNJyStlKyvKjbbr6lL7mIZ9NX1qPJsc78ji9+QFdLz+mO/M+7vlb6WXkL9T77Y2g+lZpJH2LehvqnhMIOWxBNL4e/TuKkPvrt/heENENTm+8zfo+ef/ouef/4Oej3+N7o9L0b2jBKf2/hkhTayMXSwt3sGl/iYc2/YC2jcXoP29H6DtvR/gYn+TY3VYhR2C4eVcMj6GE0qXoZ+LRUcwtO+oeXKZ0Y13V/PZZjE5/K0kk+KiQsNALf/OCae7qM0KJMEw4z8LiTdRvxYXFUbd5SO9TMVFhcYVM+oC1F31K9+PJKu2V2YTlLdO+od9UXNBJXLeYS1d7bwaRBfjw3fXkSfbT6Iy867Jz2UIhZwrvECP92rzO+qtCOyvZBOPmxJMeGYcvbsiJHK8gSQSTSA9H5eie0eERLo/+hW6Pvoluj78Bbo+fBHHtr+IY/XFOFb/3zi67QUc3fZznNr3V0yf67YtZdwNz+Ji3x4cff+naNv0PA5veh6H3/kuDr/zHXR/+Atbz3QKdgiG8THqwpU7qDqADLIzcwtzgpgteO64ZpNZd1k7s/jpSK8gP8+ID3GCYMpKS6LUGXl5Wbx+5YKReXCp2nHh6FBcVGgsPrWv5Tio7ZX3UauQfay2makzZX3qe+r6R465SpKyPeqYUiVSb+bk7/junIuUaPgeur6TkqHu/SXinqa+fPITDYFESOTY9hdxbPtjAql/wSCRo1t/hs6t/4XOD36Kzg9+go73f4KO94siakxdIY7UbsCR2g3wHXgLk4MtuDnlx9LiHW3j7oZnMTveh7NHt6O34Xc49Pa3I6XmW49LPlrf+iZa3/ombgSH476o27BDMJQq1O/H2yHkpe2JJqNuwXPCcWeS6gInFKUG9RpUXTb7RPUlg0QqEu9NTtSvjJNR1R2zRUDVwOyeZV47oqqGiYy88QhGN+YcUx2Zyc/jjbmUqNTPZAJ09TOz58obGdhelrLSkqjgyHiISzAPFu/g9P5Xo6SQJwQSIZFoAvkxjtQ+JpEtP8KRLT9C++YfPlZjqMp8H23vfi9SFCnk8NvfeUwikkBIInlofTMPB9/8z0h54xuPSy4uHN8Z9yWXA054kRjE5SbBmLVVd02IWZHGweUgGCAi5ifTr/V1tVFqSLx4GbttT4VgVNCe4hbBSGnDCsGwHyndJDsfVCTMB3P7+gS6PvolOuqKFALZIAjkhwqBfF9PIO98R5FC8qOkkCgSeUOQyMZcHNiYiwMbv44D1V/HgeqvPS5fxelPX4k7gMuFVAiGejt/uxwEw8nD78jnWrm8bbkIhndAJQNKHZTSzJ5JdWwlCIabCaUstwiGNhMSrpxPTBivG/Oa6ipDlUsl7CKphFPz1y7j2LafG8ZUKYUc3vQ8Dm/6rkEih7RSiIZAFCnkIAlkYzSBHKj+Klpe/8rj8uVIqYqU7g9fxNK927Zf3knYIRjVeyF1X7cJhkZbKcFwQlmJkl0uglFB9UUHee2utMfoniGvwLXyznYJhh4dOeZuqkhARC2T0d90OcvbSVXylgSTyuHSpDPaXfUfUaSQb+mlkDelFKISiF4KaXldIZEqlufQzPLac1FBel3bi1cNuQD2jby0a6i2ELcIhhOcE471qu5Qs8Wrm4jLTTAkBZ0bmHdT8ZmSwFUCUQ3mZm5l3TvbJZjcnOwY+5fbBCP7hd8h2VRWlGuJlfE1/K5ZzFUiqdJSysz5axdxZHNBYjVmo10CeS6pg5GrjVyAaFJI5kxOcDIQFY8gicRNgmlqbDB2UHVnys3JjtLX6eLmPUk0Dss4ieUmGHnQUxczQpWD7yrtMWr76HmSBsvKinJj0chredV3tkMwJHFVqnKbYHiSnyphMqBqJdsr79mmgTw9LdarJWE5J294dhw9O0riqDHJSyF2ipMRwE6BcQwyCCmZyFf5m9ycbMPDIAmGkaGyrniLTC54tR102TJ2Rf2tNDjKnU4W1WVZWVFufD+Ry1IHVYooyNdfDavG8ajkSBereoNiVmZGVH/pXK7FRYVRJKMWlfRo9DR7Z7kwZX29Pd1RcUg8NMkYHY65GkWcaMwrK8qjpA3Zf/LubKuR1vV1tVF2Gl1J9ExbSb+X7s1jtL3WFQKJl0Zz5tzqOeAHRJ8k1t2pTInADNIWIndQ9e+c4LpL29UcM6pngJ/LiS1jHVS0tjQbi5JxIGqeG0J38b0uGtXs3ePdQ60SLfuTdcp3liTNf9OVqqtDR05UF/jOJGJJ7jJdhPo8koKMuJXtZp+ogZB8F5KMunB1i1uOufSWqe0BnpCaWT+zr83mKSPHa6qrDBJkPFQyhJXSrQJzgUF0bNngGqlIqWW1qUQADANdvJJIR21qbDAMavyu2b3JunM1vT3dcVUWitesw8oF9fxdU2ODVqowe+dkjKWJ+i1RkXWY9Um88VERDoWMsaiprjK9zzreOMf7nO2V9cgxpzqmjrnZO3AcE807xrNQGpHELTcPlbQT9U2yBnFHri0J+lpdIZqh5mrMBQaTehEPEThhE/Hw7EB6KlVyoXucWRLVKG0n4Oi9SHOBQQw1V6d0dUnHlg0437UDC6Fpx1/23wEewXiQkCpZTXVVwgO0TsOVu6mBCNmc79qBU5/8BV3bi03tKicafoeh5moEfa0eqTgAj2A8EPRa0egcD7T7OQ3XCMbDykASjB2vjodnB3TDUyUyA6Oe3Uik7hHMMwTq0WrW+1RCvT083aBXkN4leYaIYRJqDhgn4RHMM4R4XhcP/96QRxLoCVqOeeERjAcPHlyDRzAePHhwDR7BePDgwTV4BOPBgwfX8P9mz7slPdiz2AAAAABJRU5ErkJggg==;" parent="1" vertex="1">
          <mxGeometry x="530" y="490" width="280" height="66" as="geometry" />
        </mxCell>
        <mxCell id="nLoVxgrhlbPxmBjoQGfH-8" value="" style="shape=image;verticalLabelPosition=bottom;labelBackgroundColor=#ffffff;verticalAlign=top;aspect=fixed;imageAspect=0;image=data:image/png,iVBORw0KGgoAAAANSUhEUgAAAaAAAABUCAYAAADEQuPiAAAT/klEQVR4nO2dv2scyRLH/RdcZnDi4MlP2YEE4iILoVSWUShu2XADnaJNhDCcMiEbBBdIeliPC+QNZAxGOsRxONj1JnYgWWDw+bG73N1zYEYOziA0/0G/QNS82t7qnu6ZnumeVQUfuJP3R09vd327qqurb8VxLBiGYRimbG75bgDDMAxzM2EBYhiGYbzAAsQwDMN4gQWIYRiG8QILEMMwDOMFFiCGYRjGCyxADMMwjBdYgBiGYRgvsAAxDMMwXmABYhiGYbzAAsQwDMN4gQWIYRiG8QILEMMwDOMFFiCGYRjGC8EK0OcvX8WTZ2/Eo73XwfD5y1fv/cIwDDMuBClAb99/Encf7olb3z0Oim+//5lFiGEYxhHBCdDb95/EN/M/eRcbFiGGYZhiCUqAQhcfFiGGYRh3BCNAVREfFiGGYRg3BCFANuLz7fc/i/uNVhA82nvtve8YhmGqincBshGfpy/fee8whmEYxg1eBSiL+Dx/9SG4UN04hOMuLy+9t4FhmJuFNwHKIj5PX77zLjbjKEIL83Pi3p3bYmpyQgz6Pe/tYRjmZuBFgMZNfKosQvu7O+LendsJ21ub3tvEMMzNoHQBGlfxqaoIbW9tDgnQ8tKi9zYxDHMzKFWAxl18sAj5/mFNYQ+IYRhflCZARYrPN/M/ieevPnjvzCoiC1BzdUVcRJH3djF+OT875XFQEhdRJLqdtvd2+KAUASpafN6+/yTi+DpDzvfZIMyD5ovgw3GzM9NDAgQ06rVgJ8X52alo1GtidmaaPbYCOGwdiHt3bovZmWkWoQK5iCJx2DoYmoONek0ctg68tWnQ74nzs9PSvq9wASpLfH54/Jv30JsqHBeKCH39+2+xsb4mNtbXxPbWZpL9pmJqcsJ7mymWlxaTNi7Mz3lvT14G/Z7odtrBGHu8Lzg7M12qQRpXzs9ORbfTFttbm2J7a1M0V1fE1OSEcu75EKHzs9OkTTYLu8PWgViYn8vU5kIFqCzxqf34i3ehqYII/efj71rBkZmdmRZXV1fe2y3TXF0Zaif21Ab9njg5Pkom+OzMdCGTedDvidmZadGo13IJx6DfSyZ9KAkgcmLK1D//MfTvsHBZXlr0JpoXUTTkBYd6fKDbaWuFRkWjXiu9P/GCdHZm2vh9+Plsf4fCBCiL+Ji+p0riE5II/fXnn8YToLm64rWtKs7PTpVhQx2uw4mNei357I31tcyfA+EuX94crMzx3wb93kj/YS/I90o9jkf3LkNNoNlYX7Meqz76VV7U3btzO9Pz2c6FQgSIxSdcETo5PjJake3v7nhtZxxfG8ftrU3RqNdSw4VlCyoWINOV36DfG3kdnvg+VvHY+8LeDA5zyntBIRj987NT8ncOzRPC/WiKqffhCkp8TIRE9pRthAtwLkChic/dh3tcNBQBISqTiXByfOSljRdRlGniqpianHDuAWHPxWTFCqGYqcmJIWOOvTn4fcoMa6lEGvc/DgfJnofPDXNqURKa555lHJfVpyfHR2Q0YWF+TjkGz89Oxcb6mnIRaxtGdipAoYkP9jievnxndO02Tuc2vaob2vXxj8jo9U+evfEyGV79+qu14S568E9NTowInWplpWN5aTHZ4MWTqrm6UtiqGBsX3cSTnwcMzEUUjbRzanKi1L0g1eoV9yH+ffAz+zb23U6bNJ7y63wmd8i//cL8nNjf3UnS3CkRLaq9OAlCFcaempwYCrdCpl6jXjOKnNgmrDgToJDFJ2v7ikyIqP34S+mT4d//2g1CgOSNSznkQBkWeF1zdUVsb22KbqctBv1eEj7AxhAmfdGGnDIu8uSlVsAgujiMd9g6GPIuyhoTsiECw6gyiPh5QsjaowwpLDi6nXbS3uWlRS8evTxGcJ9dRBHZftdtGPR7xiFs2fuiwnOm7zXBiQCFLj552jlOIkR5QAvzc2J5aVEsLy2K2Znp5L/3d3cK8xyoiScP3kG/NxLuadRr4uT4SGxvbSbtpSYuGPZBvycOWweFhDRUq1cs2iohpeh22slkLzMZQe7jbqc9EqLFRhOeOZT0d0rgF+bnyM1/OfxZBrIANeo1sbG+phUE120wGYdUJELVv67EJ44dCFBVxCdPe8dJhC6iSHz671/iIoqSKxiwUQcjX/RElfdQqI1XKhsrbQLg1TsIVNaU1v3dnaG+AEGTExAw2Osy3Wu7d+c66QPaW/bGvhxWk40jLEyw4Ps4IwaLEhirWdKbyz5cTWXr6SgiASFNgHQHjtOy+PLur+YSoKqJT552j4MIwQReXlpMdcnLWOHKHow8kFXuP5y/OTk+Et1Oe8hboyZ8llCcjfeiW0XiMJApZQjQRRSJ5upKppT2sow5jNU8bfQtQLbjqIh9NXzWjALE57B1IKYmJ4Yy4FT7sbCXlbdtmQWoquKTp/1VFiF8ytmUoicnFf6JYzq8hV8LYUL87zBpqAmTJfRic34DToFT35Elo6+MQ4hZz6dgiqyQkGUBkIaPg7PUc8ACivKkizr+oDs/d3J8NDIeYEEnz6eN9TWnv3smAaq6+OR5jqqKkBzywsaTCmeUEWLBQgMiARUGKGOnM5oQRgChmpqcGJrgth5dmmiAB0a9F9oJlRiotqZ5oJBwARlTrvs+b5p70V5alkxInfD4qmsoCxD2cKg5WaRAysklOqC/5N9B148XUSQ21tfE8tKi8Zi1FqBxEZ88z1NFEVKtxGDgYGNdxLkZHednp8mKS7VvAq/DBt0mNGMbW1dlr22sr40kZ0AtNzg0m9aWtGelAEE9bB04SQ4x9YA21teS0Izq34swmjZ9Y2pMfUBlSqrGSZ6KGqaY9hkIiGw3qL7sdtojZ4OmJieMEhOsBOjjH9FYiQ9wU0TIZNUrnwMom/Oz0xHvANKb93d3xP7uTmLsbQTIdh8Ie1Ib62sj3g4+HyELnc67wUYmLTav+43yGn3YA8IiQrUb9tl07Sxi30JV6UAGBDlNsHxdM2LqyZVRedw0rKnL5JydmRYnx0dJ4lLaHEyzJVYC9O33PxsZUKg8YGPYf3vTF3FsXtXadVkbm7bCYdVHe6+NRejjH9eD636jZfSeHx7/5nwAmqwqqdAKGHxwr5urK4We1na5+s0qQCoG/Z7yUB6I90UUKQ0PFM808ZR05Fkty5WZIassa1uKStfXnbinhM/EsIawB0SNiTIWfabzCo+tvHtxzgTo7ftPRobz1nePE2EwNdD3G63ke0wNdBHldWy/+/OXr8Z9AgL7/NUHY9HyMQjhDBCVjktNHFPjA0YP0mgb9Zpyw1W1XyUbE6h6nfY6IE+/yWHKtL4wXcFjQORNX2v7DN1O22lGGVC0UVf1Je4D0/2NssNxKmFv1Gtie2tzKHkFFgXN1ZVkfrjsW2pRBGKDxzbu1zwCZOIZW3lAdx/uGRlPKDVjamxvfffY+l6fB80XTgfK5y9fjZ8PPKAnz95Ye0APmi+M3lNEGA4fdnSFSdaO7jspT4oywhBqwUkL3U47VSThYGXe+LpOGORyP9SeCYTyGvVakgYP2XzyvpJJxmIWQ2oi7LKRBEOpu7+m6BW8qt147Jk+W5nhZdWYgcXQRRQNXR2i6ltXFRxkMcRRAdxW/H1ZzjEtLy0aR0isBKjovRLwnMreK/n85atxeDHP3papYOUNL+LwStYDe6akrcTTVqbU++UbIhv12lB5lTSjeX52muDKmMiew9TkxMi+Aj5MKoNr1cE+FgDxdDzxVWmzppu7qt/CpCTLwvwc6dnKJZSo39K1N6QTY7yokI3r/u7OyLOWdXjWJPXedk66GMtym2CuyEKJv8smVJxln62ULDhTEcKGtywRKkt8svSBDTYHHnHJHdjTAcMIxvCwdTBkJEHU5M9KW4mnCYb8fnnFRQkUZUSLvkIcNrqhb+Dv8DdXIi8bmsPWQSJcLvbdIHlCte+Tlq6eFlp0eQGgiVcD4Sr8N1jZy2n+ZdSCMxV5W1yMbZMxKou0/B44GkB9Vpa9wMLPAUG4KkQRGhfxiWPaKGOjAitwyjjIHpOp8TdJbdYVFk0TH8po6OrIgWEtY6P5/OzU6ZURLg2NKdSCQufRwjkPk+fAVZ9t25W23xZSH8pjPa/4LMzPkZ5v3mfKkoAgjw88NkZuzc3oXRZeCSGvIS5KhMZJfCgjD7F7MACQxgyZbAvzc8rBrhMYvJ9jOinwpNxYXyPfJ4uPvK8Cl9NBe+UzB2UYIKhgreszSLLIYnzKrK9GeRfwe8NYaa6uJF5yHg9PFdJTkWefsszL3HA/2SR3QOUMlfGn5nPeRZVJn+J7gKhwK15MyGM8a5ZpKbXgQhOhcRKfOB71frCXk2c1qTLkg37PamULackqIySHdajBbONtFLHRnBYOkq9ioMRlY31Nm+lWVg24vCngWbA5K0S9H+996TyNsqp0Zz3DBWIsi4zcbvl9eX9zXVvhaAAWOVlgZGFXhT1tKa0adigiNG7iIw9W2YiZGG7q8GRZl41RB0+pWL08gVQb9EV5P6p+VO15yK/D7aLErIz6b1Rf5wEOsJqMMdPfRVWxQ15U6ATAZeaYiixebqNeExdRRO4T4cWZ3Ad5z7BRbYVST1Q/UVXo0+yKNwGK4+qI0DiKTxzHQ2Ep2VVPmxTYeMplboqcwKqBrLoOeNDvJYkSMInlMFyRKbaDfi8JX+JrK+L4OjQnfzeVhq0KZZVxQFJXTsdkgUIJPk6D1u0N2SYlYOMMRjvtdSqDX9QhWUoopyYnkr1U3QJDXoDIRwRcChCVNJL2e8hzkhqfQQlQHIcvQuMqPnH8/7L1qlWfKnzUXF1J0oCpGHHRZyaoiap7BrwnId9NU3b5ILiNFYy6HEKxqTZdVA0wyHjL6/VQIaN7d0a9msPWQfK75E1CwPuXFKb7RCAKRQiRfI/SoN8jPUIcTZDTyqkK3dRFjFnHqLxwSPssylZQZ/2CCcFh3r7/JB7tvU4FDqrG8fVhVZP3QDZdHF+fpzF5D4jCOIuPCVk2dYv2gCgDrRvEKuMCB1QhA66IEkFggOE7VAYdv8fmGgbXxhHXeUszzCfHR0OXvKnEkcqi8lFbTZV9qPtd8PhyXV0Axgf0kWzwdeKjmmPy3MiyN0iF+dJS0VWhOqq/gkhCqAJPX74zrnAA4vP81YexER+bUhqwUV7kddy6++l14oENIs7sowytq7pvgGnoinqvbLghFAf/X8SmeVqSgcpjlI0nNpCuDE4eVHc9gVGlUvR14utKiFRepk587t2h98WohAHbRdXJ8RE5ZlX7uoN+T1n9XeWFyiIZlADZnBMKhTxVrkMVH5gcJsazrD0flYFIC0PhyXjYOkj1LlwlI6hi/Y16bUj8dEICxkm+swgbQ6iPl9copp33UJXNoc514D6URa2MQ52AKnmCMpC2V1xAGNq2TRAmVC1OsGjI4qNLlqFK39gsBnX3fsljK81T1glfcHtAMlUSoXEVHwAXAe122snV3PKAc3niPu/kkDE1KvhZXPWd/Nm4rWmTlcooKrLduuwslcBRz4hXy/IzuPZ+IMQJRtkk3Kk7W5Ql5GxzaZ0urRnK28BrKc9HNVZcZEeqklzkZ0ur2JA2DoMXoDiuhgiNu/jgAQdCtLG+lhqqKMIjor7TNAQlv3dhfm4ojVR3ajsPOgHC3wl/g4OJcN7HNvMsb7uprKflpUWlsVYtCsBbo84NuVygZElnNgmfZU28MDH4qhCnHOJS1bGT267a17JNrqG8P9Vn6BZGJn1QCQGK47BF6CaIj81muG4yuSDPd0C5IFy+Xv53/NkmVbpNvzetr6CCQd67U0w8QRMgGw1uUFU9VxZPwXW1BhuBtqm6nefAbVrIi/pcqjCt6tngkr+0e6FsQ4OUmJvsq8riYzIGKyNAcRyeCN19uGddo66K4gMTwdbA4I1+l+AJ6WK/AyOv/ly130RUYJKb3kmj6veiEj8AqHys837TPAdXwg6YJg1kzV6zKdJrOnZwQVc5ZJ3l+3RjygZZgNIWePICxGZBSJ0VyvL7j30WnI5xF584HjXMUCOOMjzdTrvQ1FqcOeOyYoFpemsWbK+ToF4zOzMtpiYnRow7VCUv6pwKJm0hgkM1OnEqu12uFipp14q7eEZXd21lDXHicKqpmBy2DjKJOyWyWdpcqgB9/vJVPGi+EPcbLe+YektVFh+AuhuHMpL4vhp86NNXdWHMyfEReYWE6kyIy++WU051Vz/g8v9phynL7Ls08cFZbSoRLepZ4MJAuJwP7kty/T1p3ix1KNQU1V4anFUzqZSd98oISI4oo6YgtYjN8jmle0ChhePGUXygbD422JgsJVnKGNS2A161Yi7i+yHkYhKe8XFAU0da4Ux5xU0ZyjLTrovuC3z9CBSIzZtYocoqk/tNtefjo5pHHijBzfI5XkJwVRChqoqPbpDnwcfBQ4zuAGve0MVNgMq0Ut2uio2L7VUKN53zs9PkqAP17zg5AgqCqhJrQkZe1FRuDyhkEaqy+MSx/ZkZE/EJYYKoyovIZy8YNXCIN23f6fzstJKGkSkP2L/L4715TUIIUYSqLj5XV1fKcAuE4CDsAPs9+Nrt0Fe7cAIdDtX6bg/D3GTy2owbnQWn48mzN5UTH+Dq6kpcXl6Ky8tLcXV15b09DMMwFMEIkGmF6zIwzZILUXwYhmGqQjACFGI4jsWHYRimOIIRoDiujgix+DAMw+QnKAGK4/BFiMWHYRjGDcEJUByHK0IsPgzDMO4IUoDi+FqEfJfrwTzae83iwzAM45BgBYhhGIYZb1iAGIZhGC+wADEMwzBeYAFiGIZhvMACxDAMw3iBBYhhGIbxAgsQwzAM4wUWIIZhGMYLLEAMwzCMF1iAGIZhGC/8D4q2A/IoCNSRAAAAAElFTkSuQmCC;" parent="1" vertex="1">
          <mxGeometry x="442" y="570" width="416" height="84" as="geometry" />
        </mxCell>
        <mxCell id="cp7yZlZRyXQYfkks4cQm-1" value="getRSVAndKD&lt;br&gt;&lt;div&gt;(計算KD值)&lt;/div&gt;" style="rounded=0;whiteSpace=wrap;html=1;" parent="1" vertex="1">
          <mxGeometry x="574" y="295" width="140" height="60" as="geometry" />
        </mxCell>
        <mxCell id="cp7yZlZRyXQYfkks4cQm-2" value="ReadDividend&lt;br&gt;&lt;div&gt;(讀取股利紀錄)&lt;/div&gt;" style="rounded=0;whiteSpace=wrap;html=1;" parent="1" vertex="1">
          <mxGeometry x="214" y="295" width="140" height="60" as="geometry" />
        </mxCell>
        <mxCell id="cp7yZlZRyXQYfkks4cQm-3" value="ReadEPS&lt;br&gt;&lt;div&gt;(讀取EPS紀錄)&lt;/div&gt;" style="rounded=0;whiteSpace=wrap;html=1;" parent="1" vertex="1">
          <mxGeometry x="214" y="365" width="140" height="60" as="geometry" />
        </mxCell>
        <mxCell id="cp7yZlZRyXQYfkks4cQm-4" value="ReadOperatingIncomes&lt;br&gt;&lt;div&gt;(讀取營收紀錄)&lt;/div&gt;" style="rounded=0;whiteSpace=wrap;html=1;" parent="1" vertex="1">
          <mxGeometry x="364" y="295" width="140" height="60" as="geometry" />
        </mxCell>
        <mxCell id="cp7yZlZRyXQYfkks4cQm-5" value="ReadProfit&lt;br&gt;&lt;div&gt;(讀取損益表)&lt;/div&gt;" style="rounded=0;whiteSpace=wrap;html=1;" parent="1" vertex="1">
          <mxGeometry x="364" y="365" width="140" height="60" as="geometry" />
        </mxCell>
        <mxCell id="cp7yZlZRyXQYfkks4cQm-6" value="&lt;div&gt;ReadTpexStockPrice&lt;/div&gt;&lt;div&gt;(讀取上櫃股票價格)&lt;br&gt;&lt;/div&gt;" style="rounded=0;whiteSpace=wrap;html=1;" parent="1" vertex="1">
          <mxGeometry x="574" y="365" width="140" height="60" as="geometry" />
        </mxCell>
        <mxCell id="cp7yZlZRyXQYfkks4cQm-7" value="&lt;div&gt;ReadTwesStockPrice&lt;/div&gt;&lt;div&gt;(讀取上市股票價格)&lt;br&gt;&lt;/div&gt;" style="rounded=0;whiteSpace=wrap;html=1;" parent="1" vertex="1">
          <mxGeometry x="726" y="365" width="140" height="60" as="geometry" />
        </mxCell>
        <mxCell id="WCYd7PEhxb0Bcr4dKSGi-2" value="" style="shape=image;verticalLabelPosition=bottom;labelBackgroundColor=#ffffff;verticalAlign=top;aspect=fixed;imageAspect=0;image=data:image/png,iVBORw0KGgoAAAANSUhEUgAAAOcAAACZCAYAAADU3C2RAAAgAElEQVR4nO2d119TWduwvz/hPXkPnoMpzjgqSlGf0bGi2Bs2lE4KRRCxoY4+6owKthGdsVBCE1CwoAiiCDo69oJiAQRRVAQpoQZCsjm8voOQAFbAkMTn3QfXz0JI9s5e177XXute9/p/bW1tiIiIWB7/z9wHICIi8mFEOUVELBRRThERC0WUU0TEQhHlFBGxUEQ5RUQsFFFOERELRZRTRMRCEeUUEbFQRDlFRCwUUU4REQtFlFNExEIR5RQRsVBEOUVELBRRThERC0WUU8SoCIKAIAhmP47/BkQ5RYzKh+QUZe0dopwiRqepqYmqqipqa2vRarVotVqzH9PXiCiniFERBIFr166xa9cukpKSKC0tpampyezH9TUiyiliVJqbm9mwYQP/8z//w6BBg5gzZw6pqak0NDSg0WjMfnxfE6KcIkalubmZbdu28d133zFs2DBsbGwYMmQIbm5uXLlypctrtVqt+Dz6CUQ5RYzKu3IOHTrUgK2tLYGBgeTn59Pa2mr2Y7V0RDlFjMq7curRy/nzzz8zfPhwtm7dSn5+Pi0tLWY/ZktFlFPEqHxMzs6SDhkyhNGjR+Po6Miff/5JcXGxGEk/gCiniFH5nJx67OzssLGxYfz48UgkElJSUnj79q3Zj9+SEOUUMSrdlbNzV9fW1pZZs2Zx6tQpMYJ2QpRTxKj0RM7OUXTAgAGEhYXR2Nho9nOwFEQ5RYxKb+QcNmwY/fv3Z8eOHdTW1pr9HCwFUU4RoyLKaTxEOUWMiiin8RDlFDEqopzGQ5RTxKiIchoPUU4RoyLKaTxEOUWMiiin8RDlFDEqopzGQ5RTxKiIchoPUU4RoyLKaTxEOUWMiiin8RDlFDEqopzGQ5RTxKiIchoPUU4RoyLKaTxEOUWMiiin8RDlFDEqopzGQ5RTxKiIchoPi5RTq9VSX19vKFnxtdU21R+v7s8PHfvH/t+y+dh16Pz/li7n19SWLEpOjUZDZWUlubm5nDhxgmvXrlFeXk5LS8tX9aXqiyVrtVpULU1U1VfwWvmSyrq3NLc00SaY/xh7iv58Wltbefv2LaWlpSiVSsNeKPrrY+lydj5WrVZLbW0tRUVFPHz4kBcvXljU1hEWIadWq6WhoYH8/Hz27NmDra0t3377Ld9++y3btm3j4cOH1NbWflXl/DXaVupUteQ+v0HkpV1sOrmcgxfCuF18lTpVLRrt11XISqPRUFNTQ25uLiEhIfj4+BATE0NxcTGNjY20trYiCILFy6mnqamJ0tJSkpKScHR0xNraGm9vb7KysqiurraIQmNmlVMQBNRqNa9fvyYhIYFJkybx3XffYWdnZ7hoP/74I6NGjWL//v2UlJSgVqstMIoKBgRBQK1p4Xl1PpEX97E+NYDgk1JWHZfiG++CLMqdg9lhPKt8jLq1BUHQ6n5Xa+5z+Pg1amlpoaSkhJ07d2JtbU2/fv2wsrLihx9+YOrUqaSkpFBeXk5ra6tBzu+//94i5dRqtTQ2NpKens7ChQuxsrJiyJAh2NnZYWVlha2tLatXr+bx48c0Nzebta2ZXM7O3Yq6ujoyMzNxcXHhxx9/ZOjQoR+8cHZ2dvzwww9Mnz6dlJQUlEpll8ZjEVvMtctV11TDibsJ/HZ+CevSPQhOlbDquJSVx6QEHZHgF+eGV4QTPtGepN48Sm1TTafft7xn0ZqaGpKTk7G3t6d///5dbpzDhg3D1taWfv364eHhQU5ODtXV1ezYsYOffvrJIuUsKCjA19fXsIfLu23Ozs6OIUOGMGzYMMLCwmhoaDDbd2+WyKnVarl79y6BgYHY2dkZapd+6uLZ2dkZChFLJBJycnJobm42e+Nta2tDEDQoGyvJfJJKSE4g6zO9WJfhSXCqhDWpUkPkXHVcyrIkD6SRi3EPX4ynYiHBR5aSnXcBZUMlWsECbjLt1NfXc/bsWdzd3bG2tsbW1vajN0/99Rs5ciQzZszAwcHhPYnNKacgCJSXl7NlyxZGjBiBnZ2dYf+WDx3L0KFDDe1y9OjRHDlyxCzPoiaX8/Hjx2zYsIEJEyYYvoSPfUkf+tJsbW0ZPnw4o0aNYunSpdy5c6fL+5s6iqpam7j56iK7Lq5ifY6E4Exn1qZ5se60lLWnZF3EXHlMyvJkKUsTPJFFLkYa5YS3wpnlCT78mrKGO0W3UalVugEjoaOrrPu3ac6nubmZK1eu4Ofnx/Dhww3yfe4add6wqLvXs6/l1Gq1VFZWEhERwfDhwxk+fHi3zuXdgPDvf/8bZ2dn0tPT3zu+D+3k/dXJWV5ezt69e3F0dOTf//43tra2Pb67fkjS2bNns23bNh49emT4svruPDreW6Vu5HHFHaJyt/PbP3JWnnNiVeYigs86szbdk3VpUtadlhkEXXlMyooUGStSZAQdkeAb64o8ajHyKGe8FV64RMxj7dFlHMjaS97LO6jUDe9I2rfXR6vV8vDhQ3777TdmzJjB8OHDsbGx6bFo5pJT/3ijv/5KpZJTp07h4uLCmDFjGDJkyGd7Zx9DL/TYsWNZtWoVt2/fRqVSvffZX52cKpWK5ORkJBIJ48ePN3SBenMBP3Rn03c9nJ2diYyM5M2bN316PmpNC89rCkh9omDnjWWsznFiedY8Vp1bxOrMxQRnuLA23cMg57rTMoJT35HzqJQl8e7tci5GHuWKV+RCZFGLkUe7sunkKo7fSKSk4inq1r7fhevVq1ccPHgQNzc3Ro8e/UU3zt5ijMgpCAJ1dXVcvnyZ4OBgpk6damgjX3p8Q4cOxdramhEjRuDo6EhYWBhPnjzp07n4PpNTpVJx6dIlli9fzsyZM40q5YfubLa2tkyePBmpVEpqair19fW9/MLejVQdfy+rLSWzKJl9d4P59fJigrJnE3RhDsvPL2B15uJuyRmULGXZEQnLkrzwjXHtJKgOr6jFeMe4EJTgw470LWTcP8MbZdknjq/3NDc3k5KSglwuZ+LEid169rdUOVtbW3n48CG7du3C0dGRESNG9Cryd6etWVtbY29vj1wuJz4+npcvX37wmL40mhpdzqamJu7cuUNISAiLFi367GCCsb+4gQMHMnfuXNauXculS5eor6+nra2nzwZdn/MqG99wrTQNRe4G1l92YmnOZAKzpxOUPYegrLk9knN5sm7UNjDJ653o2Y7CBe9oFyRRTkijFrMmOYjwnH1cKcihuq7aaNfowoULrF+/nlmzZmFlZdUnDdkUcgqCwNOnT4mMjEQqlTJmzBgGDRrU55FffyObOnUqwcHBpKWlUV1d/d6xWYSczc3NFBYWEhsbi7e3N7a2tlhZWZnlQtvY2DBw4EBcXV05cOAA9+7d61kkFXRy1rVUk1t+jSOPw9hy1Y2g7IkE5NgTmDOVoJxZBF1wZPn5BT2SU9+tDUjwxP+wBz4xLu8L2gnvaGf84txYf2IFSddiyHtxj3pVfa+lzM3NZd++fTg5OTFw4ECzS/klcpaVlZGamsqaNWsYP348AwYMMHnk1wefuXPnsnv3bm7evGm06RejyFlZWUlmZibBwcFMmDDBMJlr7gtuZWXFyJEj8fPz4/jx45SXlxvuaB8XVUDQChRVFHCmOIodN/wJypnC0hwHll2c3kHOjG5FzrWpMla/OyDULmdAgidL4j4QPTvhE+2Cb6wb0ujF+MW68Uf6b5y9n8bzipJuX5+WlhaKi4tJSkrC398fOzs7Bg0aZPbr01s5m5qauHbtGjt27GD69OnY2NiYtb3pn0eHDx+Ot7c3MTExFBUVmV9OtVrN2bNncXR0ZODAgRYhZWdsbW0ZMGAAkydP5vjx4zQ0NHx2dK307Qt2ZW4h8NxkXaS8OLWrmAY5P//MqZ9K+aic8e74ROuipzTS+cOSKlyQR7viG+PKknh3gpK8OZi1j5eVL7ol5u3bt1mzZg1jxoxhwIABFhEpv0TOjIwMPDw8sLGxwdra2mLOx87OziDp6tWrKS8v/6Ku7RfLqVQq2b59e49zKU3N999/z9q1a3n27Nlnnz8PX4rD8c/pSFOnEpg9430xjSyn/tnT85ALsshPd2+XxLsji3Fm0aF5JF6K/+z1KSsrY+PGjfzv//6vxd04eyOnIAg4OjpiY2Nj8hHl7mJtbc2//vUv0tPTvyhH94vlrKmpYfv27fz4449m/1I+hZWVFevWrePp06efPaetqZtZfGAe7rGO+J+daTI5vcKdPyqnXLEYnxgXlsS74xHlxOjQCexK3fHZc8nNzSUgIMBsz//GllOj0TBs2DBDip0lor9pxMfHo1arzSdnXV0du3fvNpqcnbOGepI99DkGDBjA2rVruyXnrjPbcNo/l3l/zsI7dSaBOdNYdnFa7+RM7Z6c3oqPdGk7PXsuiXPHJ9aVhX85mlVOY18bc8rZOVXPWOekzyxKTEz875Czc+qXjY0NI0eONHRdjPGl9VTORQd0cnrEOeKbMYWlF6f0Ss5PjdZ2lrM7gnpHO+MWsYDRIePMImfnhqx/1uttRpAlyKnPNNM/uxpr2u+/Ss6hQ4cyePBgBg4ciFwu59GjRwiCQFFREUFBQQwaNOiDKwj6Uk63qPksPjSHBX/NwfvkbJblzDS7nB7hC5gdNsMscg4dOpRBgwbxzTffsG3bNnJzc1m4cCE//PDDF18bc8hpbW3N999/j0wm4+rVqxQWFrJjxw5sbW2/eCT7v0ZOGxsbBg8ezNy5czlx4gQNDQ2GRdUajYaGhgays7Px8vIyvLY3DaE3cjqFz2LB/tk4hc/CO3VGn8r5OTHlUYtZvN+R8dsnmFRO/bSLtbU1QUFB5Obm0tTURGtrK3V1dZw5c4bZs2d/8fSZqeS0s7OjX79+uLi4kJaWRkVFBa2tajQaDbX1Sm7eucbq1av58ccfGTx48Hu/+39GzsGDBzNjxgyio6N59uzZRydvVSoVZWVlpKSkMH/+/F41gt7KuejQHJwOzcb7uCNB2XP6TM7OEjofmItnxML3ouacsBmMC7U3mZxDhgzB2toaNzc3zpw5w9u3bw2NTT8V1djYSHFxMX/++ScTJ07EysqqV6OoppCzf//+TJkyxTAP2djQqDuP9mwwQRBoaW6mrKzMsFzuu+++63Ew0Hf7v1o5Bw8ejKurKxkZGdTU1HQrD7G2tpZbt27h5+eHjY1Nn8rpopjDwvCZLDo0h4UH5uAcPQPvtL6LnHoJ3cLnsfCvOXiGL+gip9N+RybsmGgyOe3s7FiwYAFxcXEUFRV1uXG+W4dHX/vp6tWrbNq0qU/Xc/ZWziFDhrB582bu3r2LUqk09M5q6qvJeZjFkavx3H9+F301i8bGRgoLC0lMTMTKyqpHy8wGDhzI8OHDefLkyRfl15pNzkGDBrF161bq6up69HktLS2Eh4czfvz4HjWAnss5m4XhM3AKn43ToVnMPzADr5QZHc+efSSnJNIJp/2OOO13xDNcFz3dD81nVtg0xoXam0ROW1tbpk2bRlRUFNXV1e/NCXf+97uV94qKili5ciX9+/e3GDn1yQF5eXmGeUeVupEbT6+y//xego+uICjBj80n1pH4z2GKyop0kmoEqqqqmD59+mcHJYcOHYqVlRWDBw9m2bJlZGdnf3ExALNGzrCwsF5lUCQlJTFlypQedW97IufujI24KGa1yzkLp/BZLDw4i8UxM/A+NV0naB92axftd2T+n7NZ1C7owr/mMLE9appCThsbG+bNm8eZM2d6fG3q6+vZvHlznxX46q2cNjY2vH79GkEQUKkbOX0vlc2pG1gSK0em8MRb4YVPtCeBh33Yk7GL/NdPaBN0wWDRokUfHZUeOnSoYUDMw8ODqKgoHj16ZJQCYWaTc8iQIYSFhfUq7Pe1nH+c/RUXxUwWRExlYfhMg6ALDs7EOX4a3menmETOeftmsfCvOV2ipqXLqVQq2bhxo0XKWVpaqquJrFKyJ2MX8mgv5NFeeCuk+Chk+MZIkEe7EJSwhIv552lr+7Sc+pUp+vWdN27c6FLfSpSzD+VcGDWZhRFTWRA+Xceh6cyPmIpbimnknLtvJo57ZzAzbBpTdk9m0k4HUU4jyNnQVM+ejN14KyQGMX0UMnyjpXhHe7IyaRnn89I/Kqd+xdWkSZMIDg7m9OnTVFRUGE1KUc5uyOkUM5kFUZOZHzGZBZE6Zu1zwPGgA77pHes5V55z6lM59cwKm8bkXZOYuHMi9jsmiXL2Us7Gpnp2p+/AO6pDTD3eCgmrjgRx9s77curXC48dOxapVEpUVBSFhYVfNCIrytlTOc+txzVGJ+dChU5Qp+jJzAufzMSd4xm/fSzO8dMIuuBIUNZcQ4mSvpJzVtg0ZoZN6yLp1N3TRTl7IKe1tXVH5FTVEZaxC3mUBHmUpFMElSJXeLH6SBCX8i4Y5HR3d2fQoEGGEiW7du3iwYMHhrq2Flvg679SzqwNuCfMZFHs5A5ipjBz32TGh05kfOgEZv05Df8zcwjKmdXn3dqpuyczedcks8n5qcb37s8sVc7Bgwcb5GxubuZsbjrbUn9naZwfcoUHMoU7PtESViYFcfDCnzyryKetTVf+ZNeuXcyYMYM1a9Zw48YNGhsb+0RGUc7uyJm5Hpek6TjFTTLIOT9iGlP3TGZcqD3jQyfgsNOBBYrJhmoIfS2nw04HZodNN5mcjo6OnDp16rNrXzvPeba16Rber1+/nn79+lmMnPrXP3jwgNaWVvR1mArLCojNUbD+yEqWJ/rxe+p/OHM7jeq6qi43n8rKSu7du2dYC2wKMUU5Pybnhf/gckQnp1PcZJxiJzNt78SuI6ZbxzJhxziC0haw/Pz8PpdzXKg9k3Y6GOSctns6f5za1Sdy6oul7d+/nzdv3nRrvk6j0VBXV8fVq1fx8fHpcdJDX8o5dOhQBg4cSEhICE+ePKGurk6XhCC00dzSSG7JbS49vMDr6lef/Ox3b0SinGaUc37CROYnTGSeYhJT90xifGiHoONDJzBpuwML9k8k6IKjSeR02OnAnLDpzAqbxow9Mzlwfm+fyDlsWEfZUXd3dy5evEhjY+NHN5JSq9WUlpYSHh7OlClTepUqaIr0vYEDBzJ69GgOHTrEixcv2vfdeaf9tdePMpWAopy9kNPt+FTmJ07AKW4SU8O6Rk29nPYhk5i+ZyqrMxcburZ9KadeUMe9M3D6a26f59ba2dkxYMAAhgwZQlBQEIWFhR+UJSMjgzlz5nxR8rupEt9tbW357rvvcHJyIisry6x7oYhyfqGck/b9wvjt47tEzS6Chk5iatgkk0ROPRN3OphEzmHDOtZw6tfY7tmzx9Cgr1+/jkQiMUwzfMmyMVMuGdPPWdra2hIQEMCtW7cM7dBiNsYS5fy0nE6HHZgcZs/4kIkflNPQvd05GZ9jc1l1drFOzE7bMfSFnBN2TGTxgfkcONd33dqPSfrzzz9jb2+Pn58fI0eONHR/v7b1nPrzGTZsGGPGjGHVqlXcu3fP7EKKcnZTzql/TsB+x/tCdmUCE0InMS1sEivPLiI4w5V1fRw5x4SOx2H3FA5m7euWnEuXLjVaWQ+9jF+634255fzQ+cyePZvQ0FCePHlidjHNKqeVlRV79uyxSDlDz6/CJX46k3Y7MC50wmfkbO/ebp+A77F5rE537vNu7eiQcYzZPoGwtN3dkjMgIOC9hcNfirHLUZq7wJc+T3bUqFG4ubmRlJRETU3N/z05raysGDduHEeOHOnV0HROTg6Ojo5888033W4kPZEz8soeJoWNZVyIPeNDuieofagDM/dNYeVp1z7s1k5gfMhERm0bwy+ho4nPif3sueTl5REYGNjjzWxNTf/+/dmzZ89n98EUBIFZs2b1SWlM/XOofslcQEAAp0+f7rP0PIuSU5+bOGvWLA4ePMjz58979ZkVFRXEx8fj6OjIkCFDurXwesCAAfz6668UFxd/9v0Lyh+x7tgaJoZOZsy20YwLHdeN6Kl7JpXEzyP4tDvrzuj26FyTKmP1CWPJOY5RISMZu30MG46vpfjN00/2PPQT6AqFgpEjR9K/f3+LKcDcuU3079+f+fPnc+HChY9O13Tm+PHjODs7G4pzGfuc9EXmrK2tcXR0ZMOGDdy+fbvLfG9fpu2ZVE59HZpp06axdu1a0tLSDFsj9Jbq6mqysrLYtGkTc+fONVRO+5ScGzZs4NmzZ59/f6GNh6V5HMrej2+sFIcdDozYMprRIZ+XdHrYZJafcGNdmoR1p6U9qltrKFNy0JEFf3WV85dto5m4056l8X5E/H2QJ68etpfW+HT2jlarpaSkhPDwcNzc3Pj555+N3sXtrQCDBg3CwcGBwMBA0tPTu92NbGho4MKFC2zcuJEZM2b0qaRDhgxh0KBByGQywsPDefLkSZ/n1JpETv0FGD16NDKZjLi4OF6+fNmtu2N30Gg0hs1sli1bhoODw0dr2HRfzo5J6FpVFZfzL7L9dAgL9y1g1NbRjNw2Ste9bM+x/ZCgXjELWJ3q1eOi0h1yzjXIOTNsMtP3TMHlkAvbz4Rys/A6zeomw02k7TN5r/oGVF9fz/Xr1wkJCWH+/Plm219E3+B/+eUXJBKJYWVHS0vP9yF9+fIlycnJBAUFMWHChD6rAq+vcvDLL7+wcuVKTp48aUhi+Ork1HcLbG1tWbBgATt37uThw4dfXLbhY7S2thqig6urK6NHj36vXGOPIuc7lCtfcerWMVYmBjH9j+mM2jKWUdvGM3rb+A/K6bBjIkuPuvZKTq/IhSw+4Mj8fTNwDJuKe4QTG1N/JT03jcratx+9kfTkep07d47AwECmTp1qsk2nOncV58+fz5YtW7h///4XtwlBECgsLOTgwYO4u7szatSoXldo/Byd993ZuXMnBQUFX4+cnSejZ8yYgb+/P7dv325Pk+rbLoAgCKjVagoKCtiyZQuzZs0yDPcPHTq0l3J23aj2eUUJERci8IyQMPmPGQz7bSSjQ8a9F0F/3vwLblFzWXXSq8dyuoTPZfF+R6QRTqw5EkDK9QReVb/EmFvP63eAjouLY8GCBYwbN84kmxtPmTIFmUzGP//8Q0tLi1HbhFqtJjc3l02bNjF16lRGjhzZJ+ejz5qaNm0amZmZli/nzp07+fbbbxk6dCj29vZ4eXmRkZHRZbCiL5OG9VkdnT/v+vXr+Pv74+DgwLBhuo2M1q1bR0lJ97fO6yJne/lEdWszhWX57M/8C8ew+YwLncjYrRMMUxydJfU+vJjVJ6WsendAKFnK0kQv/BM88YvTySmJcsIrwgl5tCtBsb7EXYzgxduSPr+pvX79mrCwsC43M2N1DfX1W8eMGYOTkxMnTpzoMhrbF22ioaGBK1euEBQUhL29veHmYIzIb2try88//4yDgwN79uzp9YCmyeSsr69nz549/PTTT8ydO5fDhw+/t8OvuWhqaiI1NRVXV1cGDhzI5s2befXq0ysPPkmn3a4bmxu5VXiddQlrmbpjGhNCJ2L3+wjGhnR0dZ0PzWP5MV30XHlMZpBTHz39D3sij/HAJ84F10hH5NEe7D8fRt7L2zS19GCDXK3+7+/fTLr7Hnfv3mXNmjVMmDDhi7fA0GffDB8+nGnTprF3716qqqq6fz69pHPqXW1tLWlpabi7uzN8+PAvOh9bW1uGDx/OiBEjWL58Obdu3frslI8x+GI5tVotpaWl3Lx5k9LSUpNI11Oqq6u5ceMGL168MOKdWvc+TS2N/P0oE8mfzowKHc/YkPFdBPVULGBFivQ9MQMSPPFP8MAvzh0PxQL+k7ycmwXXULWoDN9r949VQCto0Go1CFqtTlZtW4+fR1UqFdnZ2Xh4eBi6oj2Novpny1GjRrFmzRry8vLMdt0FQaC+vp7ExERGjBjR45uOPgd34MCBSKVSrly5YlhobYrlY18k54cO0JISh01Ce9TSaNUkXY5m7O/22K3/N6O3jmVcqD1z9k3H77BLl27tyqNylidIkSfNJzA+gLO5GbRq1QaptBrtJ6dI3muEbVpeV7/i+dsSKuvKUbc29yhyajSaLtdRqVSSnJzMlClT+Oabb7rdLbSxseGnn35CKpVy8+ZNQ/swR3vo/Ll6Sf/44w/69+/PwIEDP3nT0d9g+vfvz+TJk8nMzOwycKUvpG3Rcoq00bkr2dLaQllNKWFpf+Cwaxp2v49k9DZ7PKIWsvKYrmu76riU5ckSVh/1J/laHOXK16g17WIa3qvrQNTHPk+j1fCg5D5bT6zBP8YbX4WMwDh/4i7H8LL6pe71Bkm735AEQaClpYXnz58THh6Ovb09/fr1+2iDtrW15YcffsDZ2ZmzZ8+iVCqNUrfVmAiCgEqloqioiLVr1xoSYjqfk377+J9++olJkyaRkJBAfX29SQY0P4Qop5HRClpqG5XcfXaHjUfXMy5kLFP22ON32IWgo16sSVlKzOWDPCm7R4OqHq2gpfvi6F6nbm2hsCyfsLM7WXEkkCXRcmQKD3xi3ZHHeOAXI2fLic3kPDyHsqmyx8+fbW26xqzfrOj+/fts3brVkM3TWcp+/foxffp0YmNjKS4uRqVSmaUhdxeNRkNNTQ3nz5/H19e3y0ZNVlZWTJw4kf3791NcXGz2tZ6inH2BoIuib2rKOJubQXDCcvyj3dh/IYRrhReprq9ErW7ucURr1ah5VfWCE9eTWXl0KUvi5HgrpMijPQk6vJT1R9fgq5Ahj3bDL1ZK4GFfdpzZwtX8S6hael+USq1WU1ZWRnZ2NsuWLeNf//oX3333Hba2tuzYseO9/UdMkT3zJWi1WhoaGnj+/DkpKSl4e3szf/58tm/fzq1bt6iurraIRzNRzj6ho+vZoGqg+M1THr96wKua5zQ21+t+Jnyk6yp0/v2On1fVVnEuN5PQU7+zMsEfaZQ7coUL3lGu7MvYw7XCKxSW5ZN66wTrUlbjrXBHGumKX4ycX5ODCb9wgHtFd2hqaXjvGLuDvlv49OlTzpw5Q2xsLJcuXaKsrMziurDdOStSpMwAAA9mSURBVBf9n0qlkoKCAh48eMDr16/NluT+IUQ5LQ2hKzX1NVzNv8KBrL8IPrICucINucKNJTESdp3eysXHmZSUF9PU0oggCFTVV3Hn2S0SLkezJmkFnhEueEY64x/rw7aTv3PkcgIlbwsNn9WbCKFWq7tESpG+QZTTEhHaqG+q51FpHkeuJrDpxK/4x8qQRrjjo/Bi8/ENnLp7hCcvH9HSquqaXyvour9val7z96OL/Hk+jKDDS5BEuuOtkLAszp+wszs5n3uOCuUbUTALRpTTEug0YNPSqqLozVNSb59gV9o2lsXrih77RktYfWQ5sX9HcrvoJrUqfaLHO11koaNLrFKreFZRRHruaXamheIf640k0g15lITVicuJyD7IjYJr1DYq2wem2uh2V1f48PGLGA9RTjNiGDRpb9xl1WVkP8jiQGYYQfH+yKLckEe5s+JwIHsz/yDrYSblyncznD409dL13w3NDTwszSPpWiKbTmxArvBCFu2BV6Qbm46v58iNOB6+yqOpuZFuJ9N3HswS2nqV9CDyaUQ5zYh+kr62UUneiwfEXIpiedwyvKPckUV5EHQ4gJ2ntnHyejJFbwroiJK9+7x6VT3XCq/y14Uw1qesQR6tk9QjYjG70kPIfpjF87fFOkk/IprQJtDSqqJcWc6bmjftz7paUcw+QJTTTAiCQFNLI0/fFJCRe4qNR9fjGbkYaaQHvjEy1h5dRdzfMeS/fkxLqz47Rejx9EtXdGl+yoYqLj7IZmf6NlYkBSJXeCKLciUwzo+/zv/B1YJLVCjLdckRbR0RXitoqVMpefwyj+tPrnEj/wb5rx5RVVtJq+brGrH9GhDlNANarYaahmr+KbjEltT/II9yRhrlgSzak6DDgew+s5MrTy6jbHx3I9aeTX98CkHQUqYs4eStZNYfX4VvrARZlCceEYtYFudP7KVo8sueoGpRGSK8St1E7vPrnLxxjKv5f3Pv2R3O3zvLpbwcquqqjHZsIjpEOc1AbaOS9Lun8YxwRRbtiVThjizGhbXJqziXe47axk9XoPtyukpU9KaIvZl7CEzwxSdago9CilekM6Gnf+Nx6SO0Wg0ajYbquipO30yluq6CkFObCcvYycMXDzh1M5Wisqdi9DQyopwmR6DwdT6/Jq1BHu2Jj0KGf4wvx6+mUKEsQ6PVYOi+9ulz3LsDSQK5z++xO30nAbEy5Ao3vKMkRGQdoEGlpFndzNOyQi7kZaGsVfJXZhgR5w+S/yyfvGcPyC2+R029ZSwV/G9BlNPEqFubufH0b+RRLvgoZCw/vIyysrJ30t2ETn8KnTbX+Xi38d1VEvoUOgNtHVkxurlNoWNpWaf3aWypJ+V6EsviApBGerLn7HYq6kpp1bZSpnzJhQc6OaMvRHL0ciL5Lx9z7ck1HpTkUvteN1zkSxDlNDGd5fSL9ua3ExvRaj+WCPCh6ZEPPHdqO/5sbK6j+M1T/nlyhawH58l6cJ6/H2fzoPQmr5XF1KuUHb+jff8zhDaBnLwM1h0NQhLpxu707bxuX+GibKgm+Wo8JVWPufv0NuXK19wruc6RK4cpqXhm0fm0XyOinCZG3drMlYIcnA/Mxy/am99PbuLTy8PaUDYoSb1znKD4AH5L3sCRa4ffe+2jl/c4kPUna4+uIig+gIBYX5bG+7EswZ+gRH+CEgNYnhjI5hMbOHrtMPVNyi6f0dbWZuhKX3yUxfrk1UgjPbvIqdFoqFCWk3r9OEf/ieP49QROXEriSWkejc2m3Vj2/wKinCZG3drM1cK/8Tjk0m05a+qrOHo9AUmUGwFxPkTk7Nf9vL2re+bOaVYdWYZ/jA9yhRdShXs7HsiiPZBEueMV4YZU4YF3jBfLEpbw28n/8LziWfszbteF8xcfZbEuZRWSSPcucupfV11fTVVdJVV1b6muraJF3dyjxeEi3UOU08SoW5u5VngZr3C3HsmZciMJWbQHAfEdcmo0rdwqusmqxOXIIj1xj3AiIM6XkNTNKHLCSbySQOKVBGJyogg7s4v1x4KRRXvirZAgV3gSenIrlbXlaAW9mO/K6faenCKmQ5TTxBhTTlWLit1nduKjkCGPcuM/x9aQlXeOwrJ8Xle/okJZQYWygrLq15RUFJNbcof4K9FIItyRRXsgPeTB348votIXqRbltChEOU2MseQUBAFlrZLAOH98FDI8IhaSeusYyoaajsXO7c+QgiAgaHWVDYrePGXbyd913d0IZ/Zl7kHZWNNlNFiU0zIQ5TQxxpSzpq4GH4UMH4UMz8jFpOemUdtU20lOoYucbUIbDap6Mu+lExi/hBWJS9h1OkQ3P6ltM+TtinJaBqKcJsaY3doGVQPLEwLxVciRRXuyIy2Ecw8yyHtxn5eVpdTUV6NqUXVE0TZ9qZNS0u6eIvP+Ga7mX6GpualdXlFOS0KU08QYU86W1mbiLivwbl9d4q2QsiJhGdtSfyMyO5xjN5LJvJ/B1YLL5JbcIv/1Y0rfvkBZX6Mrn9lpyZegFT4wWivKaU5EOU2MMeXUChpeV78kJG0TQQkByBWeyKM8kUTqpk68wt3xCnfHV+FFcGIgoad+JzxrP6dun+D60795XfWKllaVLntIfOa0OEQ5TYwx5dT//FVVKUevJLHxxBqCjwYSlOjP0ng/lsR446OQ4a2QIovSzX/Kot2RRznjG+3Owcy/ePIqrz2KdryfKKdlIMppYowuZ6d9UsqqX3Hr6Q2O30wmPPsvtp/eyn+O/crao6tZnhDIssNLCIj3Qa7wxFshxTPcld2nd1ChLG9PIhDltCREOU2M0UZr2wTUmhYaWxppbGlErX5/Sz1B0KJqaaSqroKiNwVceZJFbE44y6OXtq+I0Qn6T/7fNLU0IcppWYhymhhjyalSN3HlyXnCMnYQlrGDi48yqFfVvfO77yfLa7StPH9bzJJwH2TRuvS+5OtHUTYoEeW0LEQ5TYyx5KxX1ZP0dzw+Cle8Y7zYn7m3087XOhkNe5Yaim91JNJvProReZQz8qjFJF8/IsppgYhymhhjydmsbubK48vIot3xVkhZGruEO8W3aVZ3Htx5f42oVquhtPIZ/uHeyKJ1A0QZuSepU4lyWhqinCbGmBlCVXWV+EXIdbm10V6sSw7m9N1Unr4pRFmnbN9aQEAQtLS0NlNZW8a1govsSAtBHuWJLNoD3wg5D1/mota0IMppWYhymhhjjta2atRcfHwWzwhnZFFe+ChkrE4KZNOJX9ma+hs7z2zlj7Oh7MrYzvbTW9maupFfU4LwjZUhi/bA55CEE9eOoWxUiqO1Fogop4lRtzbzT8FFXA4s7OF6zkQkkW5d5BTaBBpaaknPTWPTiV/xi5UhiXRFEumGpL32rbfCC7lCgizSA2mkMzKFG9JId1YmBnHsn6NUKMs77ZciymlJiHKaGH0lhEX753WS82Ov7yTntQS8IlzfmefUUa+qJ/fFPVLvHOdQ9gG2n97G+uS1rDi8lIAYOf4xvqw4vIz1R1ex+8w24i5HcvPpdSqVbzttw9DxeaKcloEop6loX76li5yXcDu4CN9oOWuPrqas5t0CX210HtD5nJz6FSi1jUpeVD4n78UDbhRc59LDC5y7n07mg7NcfJTD9YKrPH75gDfKdtm07x9nY3MDqbdPsjIxCGmkhyinGRHlNBXtcmq0anKf3yUgxg+vSFeWxPqguBjJtfyrVNdV6Yp9CW3ty70+LGdk9sEu763V9nI7hE7lN9WaZorLi8jIPUPIqd9YEiPHO1LCwXN/iVX1zIQop6nQC9cm8EZZRlT2IWQK9/ZFzx6sOBxIyo2jPH75iPqm2g7hhDZeVb0gMvsgXhGuBMb7EXtR8YXH0pGYoFY380ZZxtWCy+w/v5fA+CVIo1yRR3mw/sgasu9nmf+7+z+KKKdJ0S3L0mhbeVH5jANZ+wg+ugJZpBfuEU5IFe7sTgvl/IN0Csqe8Lb2DW9qXnMuN531ycFIIt1ZkRRI6u3jX3Yc7QuwaxoquVdyi4R/YlmRGIS8vfr80nhftpzcxNl7Z6iprxar6pkJUU4TYqhQ0NaGRquhsraczLvpbD65gZUJQcgVnvjFueMTLWFb6iYSrihQ5Bxi7ZHVSCM98FZI2HjiV3Kf3/uiz29sbqSkooRTd1JYe2QVvgoPZFHu+MXICT66nMjsg+S9uK9bTiYI7aO5oqCmRpTTrOhkqW2q4eSN46w7upplCd54x3gii/LUlbOM1C2i9lZIWBrnR0TOQRqb63r8WVpBi6qliQrlGy4/vsiGI7/io5DirZDqtoSIl7PrdCg3i67Q0Cw+Y1oCopzmQL/ZrL7ievuo6Yu3JSguROqiaLRuntI3RoZfrJyg2AAiz4dTVvPu5rmfR6PVUNek5P6Lu4RlhOISPg9Ze01b/3hvViQGkZOXTV1TXcfxifttmh1RTnOgl9Pwf0KXf1coy7lVeIu0m6c4duUo5+6lkf/6AY3N9bRpu5YUeXdNZ+f3FNoEtIKW55UlROZEII+S4BXuhneUbqnYkhhvUu+k0tBc3+n3xe6rpSDKaYHoBo00tGpaadWoadW06go/twmo1A0UvLnP348vUddUY4i+Wq2mo5BX+yqUNzVlHLuezMqEIGTtubQShSuekU7sO7ubN8qXqDUthk2ORCwLUU6LpkOauqZabj+9ycHzfxEQ54NPtIT9GX/y6MVDNNrWLq+tanhD2p2TbExZz5JYb+TRnkii3PFVyPjj9C5yS+5Q11RLa6saMVJaLqKcFk1HN1PZoCQ77xwbUlYji3RBHuXF0tglBCX6knw1iQplGY1NDdzKv8Ef6TtYkbiEJbFSpJEeSCI92HhiHZcen+dtbYVhG3tBED6YJSRiGYhyfiW0atRU11dyr+QO4VkH8FFIddX2wr1YnrCUbWm/sevMdtYfW8uSGAmSSBfkUZ5sSF5LyrUjPHn9kIbmWsRI+fUgyvm10D6C2qJu4WXVS/5+fJFtqb8hPaSb//RWSNrXdXoiiXQlOGkFsZeiuV10i6rat7S2qjvtBCYK+jUgyvk1YZjiEGhWN5P34gHHb6awLnkV8igvPCIWs+ywH4dy9vJPwd+8rn7VURlBeGeE19znIvJZRDm/YoT2lShXC69w5t5pUu8cI/vROZ5XFdHSqjL78Yl8GaKc/y0IbQhabZfVLCJfN6KcXz3vlL/Ud33FDJ+vHlFOERELRZRTRMRCEeUUEbFQRDlFRCwUUU4REQtFlFNExEIR5RQRsVBEOUVELBRRThERC0WUU0TEQvn/Wi2Ejev9d+EAAAAASUVORK5CYII=;" vertex="1" parent="1">
          <mxGeometry x="-80" y="-421.5" width="231" height="153" as="geometry" />
        </mxCell>
        <mxCell id="WCYd7PEhxb0Bcr4dKSGi-3" value="" style="shape=image;verticalLabelPosition=bottom;labelBackgroundColor=#ffffff;verticalAlign=top;aspect=fixed;imageAspect=0;image=data:image/png,iVBORw0KGgoAAAANSUhEUgAAAWkAAAFYCAYAAACRXQ1GAAAgAElEQVR4nOyd53sTV973n39lw+beZDeEQApJAHcMpkNISO+bBAg1pICp7sbG2IBVLPdeJLl3G2PjhnvBFdu4964uzej7vJDJQoKNq2Y0Ot/r+ry4976YoNHMh6Nzfud3/h9ISEhISFib/8f0X4CEhISEZP4QSZOQkJCwOETSJCQkJCwOkTQJCQkJi0MkTWLS0dN6aORayMeUkI+poJHrQOv0gJ7pvxkJyeqESJrEJKLXA/JxFYYaxtGa1YPK0BYU3axFvmslsq+UI+NCKTIulCL7SjlynSpQcL0aDwKb0Jz2GH2VI5gZlIPS0kx/DBKSJYdImoS90QPyMRW6y4ZQHdGKu55VSD1XjLhv8xB6MB1Cu0TwLCXw3yb+G3xrKUL2pSL2qxwkny5CnnMFKkOa0VnYj+k+GfQUGWqTmEaIpElYF0pDYezRNJpTH6P4Vh2SThYieG/qvEJeDDwLMYJ2pUDyUwEKrlejQdKB4YcT0GloMjVCwuoQSZOwJjoVhYnOGbRmdiPftRJhh9LBs1ielBcUtqUEQXtSkXWpDE3JXRhpnoRWoYOeyJqEhSGSJmE8lIbCdL8cHXf7cNe9CqEH01ZdzPMRYJ+ErItlaM3sxuTjGehUFNO3g4TkmRBJkzAWPa2HclKNvqoRFN2sRdihdKPJ+a+IdiYj360K3aVDkI8pySIjCWtCJE3CSLRKHSZ7ZlEV1oLoz3MYk/NfCfsgHSV36jHcNAGNTAs9TeZASJgNkTSJUaOn9NAodGjJeIz47/PBt5YyLubnEf1ZNqojWyEbVoLWkVE1CXMhkiYxWvR6YKBmFMmniyDambwmi4KrBc9CDIFtIhK+z0dzejcoDRE1CTMhkiZZ89BaGuMd08h3rUTogTQIbKTwZ7Ggn4ZvLUXI/jSk/lKMnrJhUgFCYvQQSZOsWfSUHtO9MlQENSH2qxyIdiabjJyfwUIMoV0iIj/JQr5bJUZaJsnImsRoIZImWZPMDinQmNiJlLP3EXpwbeqdmZB1oEMyxD/cxYOgJkx2zYAmVSAkaxwiaZJVjXJSjY67fch3q0T059mGqQ2m5boGhH2QgfQ/StCY2ImZfjmpAiFZsxBJk6xKtEod+ipHUMpvgPiHuxDtSGJcpGsN30qC6C9yUOBZjY67/ZCPqZj+Gkg4GCJpkhVFT+kx2jqFuth2pJ67j6DdKYzL09gItydB/MNdlAc8RF/VCDQyLdNfCwmHQiRNsqzoaT1mBuR4lNeHXOcKhOxPW1EDJC4QuCsZKWfvo0HcgdG2KbJrkWRVQiRNsqTQ1NxW7uoRlPAaDE2QrMxbzs9gIUbQnhTkXHuAznsDmBmQgyZtUUlWECJpkkXlyQkoo22GqY2YL9mzlZuN8CwlCN6bivt+dRhsGIdyUk1kTbKsEEmTvDA6NYXZIQXasnuQdLIQPAsycl4K4R9moiaqDRNdM9AqdaQShGRJIZImmTd6Wg+tUofe8mFkXiiF0C6RceGZMgn/zUdLRjfkYyrSD4Rk0SGSJpk3o61TuOtRheB9qWT0vBpYiCG0TUTauWI8Lh4EpSa9q0leHCJpkr9ldkiB8oCHiPkyB8Lt858jSFgeAlspwj5IR55LJQZqx0g/EJIFQyRNYoge0Mh1qBd3QHr8HoL3poJPqjbWDJ6FBKKdyYj7Jg8ldxow0TXD9BNAwtIQSZt79IBGpkVHfh8yzpci4kgmZ7dysxG+lQTB+1KRdKoQtTHtUE6ooSdDa5KnQiRtxtHIteirGkGhTy3iv80jcmZS1tZSRBzJRNalcrRl9UA1pSHTICQAiKTNMjoVhZGWSVSFtSD5VCECHZIZlxTBAM9Kgvjv8nDfrw495cNQz2qYflxIGA6RtBmFpvSY7J5FU0oXsi+XM3rwK2FhAuyTkHy6CNURrRhumoBWoWP68SFhKETSZhLZiBKP7w+iyKcWUZ9mkYoNEyF4byqyLpWhOe0xJh/PkH4gZhgiaY5HPavBUOMEKkOaEfcNmXc2VcI/zMA97xp0lwxCNqIkuxbNKETSXIzesJV7qmcWzamPIfmpgOwW5AB8KwmiP8tGRVATRlunoJ4h89XmECJpjoXW0ZCPqdD7YBhpvxaTkTMHEdhIEfd1LpqSuyAbVUKnpgAysOZsiKQ5kid9NkZbp1DgWQ2BLRk5cx2+tRSSowV/VoHoSZc9ToZImiOZ7pehPOChofk+6bNhPlgYRtY5Vx8YTjEnC4ucC5G0iUc2qkRdfDsS/puPAPskUrVhpgjtEhH+QQZKbtdjonMGeuJqzoRI2kSjlmnRmtmDtF+LEbI/DXwy92z28CwkCNqdAvGPd1ET2YbpfhnTjynJKoRI2sRC6/ToLh1Cvmsloj/PRsB27p/KTVgafGspwj7IQMb5UjSnPoZigpxibsohkjaR6Ck9hpsmUMprgOSnAoh2JoNnwbwQCOxFuD0RMV/m4K5HFbqKBqBTkf7VphgiaZaH0tKY6plFbWw70n4rRtCeFDLvTFgSoh1JkB4rQLmwEYP14+RUGBMLkTRLQ1P6P88VzHerRNgHGfAnI2fCMuFZSBDokIz0P0rQIO7AROcMKA0ZWZtCiKTZFj2gmFChp3wYpbxGxH6dC39SUkdYRUL2p+GuexUe5fVhdkhBRtYsD5E0i6KWaTHaMonamHZIf75HdgsS1pToz3NQLnyIvqoRKCbVpB8IS0MkzYJQGgozA3K0Zvcg7bdiiHaQ/s4E48C3lEDy013UxbVj/NE0NHIt068DyV9CJM1g9LQeqmk1+qtHketUgeC9qYy/tATzRGiXiJQz99Ge0wv5mAqUhkyBsCVE0kxkrkvdzIAcxbfqELIvlSwKElhBoEMyMi+WYaB2DDqVjkyBsCBE0saOHlDPalEb046QA+ngkRO5CSyDZyFG0J4UFHrXQDasIGctMhwiaSNGNa1Ba2Y3xD/chWgH6bNBYC88CwkCtich4kgmqsJboJggC4tMhUjaCNHItHhcPIisS2UIPZROqjYIJgPPUoLgvamQHr+H5rTHUE6qmX6dzC5E0msYSkOjv3YURTdrEfNVLgJ2kD4bBNOEby1F5MdZyLn6AJ2F/VCRU2GMFiLpNYheD4y2TaEipBmJJwsNVRtkYZDAAUQ7khD/XT6Kb9Wjv3oUWtIPZM1DJL3KmRmU42FSJ7IulSPsgwzwycIggYME70tFytn7qI5sxWjbFDkVZg1DJL0KMdQ7a9Bxrx+FN2oQ9WkWmXcmcB6epQRhH6Qj59oDNKd1k/7VaxQi6RVErzcsCvbXjKIytBnx3+cTORPMDr61FJGfZKH4Vh0elwxBSbaYr2qIpJcZrVKH8UfTaEruQsrZ+2Rag2D28K2liP06FzVRbRhqHIdapiWyXoUQSS8xlIbC7JACnff6kXPtAemzQSD8BZ6FBMlnitCS2Y3J7lmyuLjCEEkvMnpKD9WMBoN1Yyi6WYvQg+mMvwwEApsR2iUi5+oDdJcOQTGhJieZLzNE0i+K3jB6nu6XoSKkGZGfZDH+8BMIpkTwvjQU3azDSPMkdGqKTIEsMUTSLwilpvAwqQuxX+eCb00WBQmEZWEhRuSRTFQEN0E2qmT6tTapEEnPEz2tR2fRABJPFCJodwpZGCQQVgjPUoKAHUlI+OEuGiSd0Ch0TL/mJhEi6b9Ep6Yw1DCOnKsPEP5hBgS2iWS3IIGwighspAg9lI7Uc8XovNdPju96QYik50JpaYw9mkYpvxFx3+ZBtCOJyJlAWCssDAuL0V/kIN+10tC/Wk2qQJ4Xs5e0ntZjqkeGurh2pJy9j5ADacw/wASCuWAhhmhnMiRHC/AgsAlj7VPkFPO/xKwlPTusQGtWD/KcKxD1SRbp70wgMEjowXRknC9Fg6QDUz2zoEk/EABmKmnVtAbdZUMovlOPuG/zILRLZPwBJRAIhsXFqM+yUXC9Go/y+yAbVjCtC8ZjVpKm1BSGmyZQG92GxBP3INpJdgsSCGxEYJuI+O/zUS56iP7qUaimzbd/tVlImtbpMdUzi/acXmQ6liFwVwrjDyGBQHgxoh1JSDpZiAZJB8bap8xycZHTkqZ1NORjKvRVjeKeVzUCd6WAZ0HmnQkEU0O0MxmZjqXoKhrAzKDcrMr2OClpPa2HRqY1nI4S3IzQQ6TPhllASia5zVwlyD3vGgw3TUA1pTaLxUVuSVpvqHeeHVTgYWIn4r7OY/7BIiwZnqUEAhspAuyTIHJIRuCuFATtnmPPE1IRvPcp9qUi9IP0Z/+3OYL2pBr+zO4UBO5KgcghGQE7kiDcngiBjZT8ujJBQvalojKkGVM9s6A0FPR67sqaU5LWqSh03utH0olCso3bROFbSxF2OAO51x6gLr4dvRXDGOuYxnS/HPJRFVTTGmjkWmhVFCgtDT0NQG84gEFP6wG94f8GDdCUHrSOhk5DQS3TYnZYgbH2KfRWDKM1oxsVwU3IvvIAIQfSwCPPi0kS80UOHiZ1QTnB3VPMOSFpPa1Hf+UIsi+XI2R/KmmEZAIE70tF1qUy1ES1oatwACPNk5gZkEMxYRCxWqaBVqUDpaVA6WjQ1By0Hvon6JcArQdN0aB0NCgtBZ1aB61SC7VMA9W0GvJxJSa7Z9FfNYqHSZ0o8KxC9OfZjN8nwsLwrCQQ7UhGytn76Mjvg5aD/UBMXtJjj6ZRdLMWMV/kIMA+CTwyL8k6eFYShB5Kxz3vWrRm92L44QQmu2chG1VCNaOGVmmQMU3RSxPvKkNTNHRqHdQyDeTjSkz3yTDaNoXu0iFUR7Qi9dx98K3JiJuNCO0SEf5RBnKdK9BbMQxax53pD5OUtJ7WQz6mQlVYC6THChC0J4X8XGURfGspor/IQeGNGjSndqH3wTCGH05gZkAOtUwLWsesjJckbloPrUoHxYQKE10zGKgbQ1fRAB4ENyHhv/kQbicbodgCz0IMkUMy4r/PR/Hteoy2TDKtqlWJaUl67uDX9pxeZJwvQfiHGWTumS1YipHwQz7KBI1ozexGX9UIJntmoZ7VMD5CXm10GgqzIwoM1I3hUV4vqiNakXGhlPR9YQk8KwmC96Ui5ex91Ma0QzWlhl5vuiNrk5G0Tk1htHUSZcJGxH+XT/pssISYuRFzbWw7usuGMDMo/3O13RygdTQUkyoMNY6jJbMb5aKHSDl3n4ywWQDfSoqII5kouF6N3ooR6Ez0rEWTkLRyUo2Ogn5kXylH8N5Uxr98c4ZvLUXER5nIvVaB8oCHaMvqwVTvrOFYJBZIk1FhUzSUU2r0VY+gKqIF97xqEP9dHvm1x/QzayNF8pn7aEzshHxUaXLHd7Fe0rJhBR4mdUF67B4ZPTNIgH0S4r/LQ8H1ajQkdGCic8ZQAscCObIRmqIhG1GgLacHRTdrkXymCEG7U8iGGwaJ/DgLVWEthg57JrRjkdWSnhmQoyaqDbFf5TL+BZsrgQ7JSPg+H3c9q9Ce2wvVjKHRDdMSNCUoLY3B+jEU365D8ukihB5KJwMOhgjZl4oS/waMPZo2mdPLWStp+ZgKFUHNCP8wg/Ev1hwJ3JWC2K9zcdejCt2lg9AqtIzLztShaRoTXTN4ENiExJ/vIewwWfhmgoAdSSi6WYvxzmnoTWBbOSslrZFpUR3ZisiPsxj/Qs2NQIdkRH6chYLr1RhqGCdzzWuEbESJuvh2xH+fb1hnIdMgRn/Oi2/XY2ZQDj3LPc06SdM6PZqSu8huL2NiYVgQDNqTgvu+tZjqlYEyoVpmU0Y2okBNdBtCDqaTihAjE7wvFeUBD6Ge1TKtvQXDOkkPN00g/lvSGMmYCO0SkXiyELNDCs7VNJsEtB6KcTXKRQ/JiNrIRH+WjUZpB9PaWzCskjSlopBxoRQB9kmMf3nmAM9Sgtgvc9B5r9+wE5AImjFoioZGocXMgBzZVx6Qd8BY74CVBMmnizDaOsW0/uYNqyRdF/cIoQfTSf8NIxD5cRYeBDVhqmcWWqWOcUkR/idr+ZgSXUUDiP+e1Fgbg+C9qSjyq2XtqS+skLRer4dyUo24b/NIB7s1JnBXCvLdKtFbMQL5mHLp3eQIRkGj0GK0bRLlwodkAX2N4FlKELgnGUGHkxD2VQra7nYzrcLnhhWSpjQUGqSd5GDYNSbx53toED/CRNcMdGa0ddtkofWYGZSjo6AfGRdKyan2q0jg7mSI9iXilm0MvN4PhdfWECT+kc/KTS6MS1qv10M+pkT89/nkp90aIbCRIs+lEo9LBqGcazZDMB20Kh2GGsdRfLuejKpXSMCORIj2JsJ/Rxx8toXD7c1AOL0mgPPrQvD2xqKnaohpJf4tjEtap6LQXTJEpjnWiLDDGSi+Xf/nSctMC4ewTGg9pvtkqE94hORTRYw/V6aGwEaKoP3J4NnHw88mCh5vB8HpNcEzeG0JQa5XGdNK/FsYl7RySo37fnWMf4lcg28lgfR4AWqi26CYUJG5Z46glmnRXTqE7MvlEDmQ6cEXwbOUGORsFw/+7nh4bg6G83rh3wTt9JoArhsDIDoigValMxzBxpIwK2k9MN0nQ9w3pDfHqjF3onLGhVI8Lh00q7ah5gJN0Zjuk6HQuwZhH2SQPiDPgWclgXBHIvjbEyD6QAqv90Pg/Prz5fzsaDoUg02joCn2zE0zKmlKS2OgbozMRa8SfCsJwg6lI9+9CrPDCsZlQlhbNHItKoNbEP15DpkunINnKYHAVgrhTikC9kvgaxvxQjE/jcc7QSgOrDWMplkSRiWtmtHgYVIn418sF+BbSxH1qaH2mbQQNSeAtuwexH+fD4GtGVd/WIjBt5ZAuFMK0X4p/HfHLknOf055bBIh/nQ21HINk2p8JoxKWjaqRCmvgfkv2MThW0kQ80UO6uMfGU7TZlwcBGMCAMPNE5AeL4DAxvxG1DxLCQR2UgR/kAL+3ni4vBGwLEE7vSaAywYh+PvjoJpRM6nGZ8KopKd6Zch0LGP8SzZ14r/LR1t2D+OyIDCLfFyJjD9KzGr6kGchQfiRdAj3i+Hxzt8rNpY7mpaNKVizeMiopMceTSP++3zGv2hTJvl0ER6XDILSkgVCc4emachGlchzrYTAlvsj6rDDaQg4KIHX+6Fw2SCE0/qVC9rpNQGc1wvR3zDCmkMBGJX0aOskIj8hxfnLJetSGfqrR6FVkd4bBAM0RWNmSI4i31puNmmyECNwdwpCP0nBjS1hcNsUuKiqjSWxXoDOkj7o1OxYPGRU0sNNEwg5kM78F2+CFHhWY6hxnDRHIvwNmqIx3S9DKb8RgVyppbaQQGifiLDP0nBjawSuvxcCl9WW81OSbs7tglZJJI2hxnHSr2MZFN6owUjLJNlBSJgXmjbUUpeLHiJwdwrjz+xKEG5PRPAHKbhlE4MbFuFw2bD8hcHFSro+uQ0aOTsOA2BU0oP1Y6S+c4nkXHuA0dZJ0iCJ8ELoua3kZcKHCNhhelMfwu2JEO1NAm9nPG5aRcL9rcC1lfNTkq6Ka4Jaxo4yPGYlXTcGnoX5rESvBL6VBCm/3MfQwwkygiYsmieivn+rzmQWE/k2Uoh2J0KwSww/myhcfy/EOHJ+StIV0Q+hmiWSJpJeJAIbKSRHC9BXOUKqOAhL5skcdb57JXgsLs/jWUoQuDsJ/B1i3NkRC+9tYatWsUEkvcwQSS9O0PHf5eHR3T7SJImwbGiKxsyAHBkXSsG3Yt+IOsAhCfztYgTsl8DHGPPORNKLC5H0wvCtpYj5MgcPkzoBgPEXnWDa0BQN2bAC0mMs2ZloIYbALhF8OwmCPkiCn20UXDeKmJMzkfTfQyQ9PzxLCSI/zkJVRCugJ4ImrA40rcdIyySzR9VZzHWps5ci8EAy+PsTVrSVm0h6DUMkPT8h+9NQym8gvTgIqw4AtGb2IOrTbKO3OX3SpU60LxlBnyQxO61BJP3iEEnP/yDnu1ZCIycbVQhrAwCUCRoRciDNqM918P4UhHySBI/Nq9Nng0h6jUMk/XwyHcsw2jpJFgoJa4pGoUO+a6VRto8H709F0OEk+FjOLQoyUbVBJL30EEn/nfjv89GW00t6QhOMwnS/DJkXStfseQ7cnYzgw4ZFQbdNgYZGSExLeDGSjmokkgaIpP9K0J4UVEe2QjWtYfzlJZgHNEXjcckgkk4UruqzLLRLROiRVNyyjcH1d0PgupGFc89E0i8OkfSz3Perw1SfjPEXl2BeqGVa1Ma0I+KjzBU/wzwrCcI+Tsdt21j4WEbAbZOI3VMbRNILh0j6f2ScL8VQ4zhoHZnmIBifqV4ZCn1ql10/zbeeO5V7Rzz8bKPg8XbQvKdysx4i6f+FSNpA9Oc56Czsh0ahZfxlJZgnNK1Hf+0o0n4rXrKcA3YlQrhHglu20fDeEmJ6I2ci6flDJG34eVgV1gL5mJLxF5Vg3miVOrTl9CDy4xcfxMGzlCBgRyKEu6W4sz0WvjaRzMuVSHr1QyQthuRYASYez5BNKwRWMD0gRym/ccFzEoX2iRDskEKwS4xb26NNo2KDSHp5MXdJB+xIQlfRAJnmILAHWo+hxgnEfZf3t+dVYCsF31YC0f5E3N4RY7z+zkTSzMWcJc23kiDjfClU02rmX0wC4SnUMg3acnr/3OTCt5KAbytB0IFk8PfEw2NzMPMiJZI2TsxV0jwLMYL3pWJmQA6aItUcBPYxMyBHxh+l4FtLINqdjJBPkuHJdTkTSf895irpQIdkVAQ3kwb+y4E2bMD4Ex0N6i888/+nacN8P5nzXxKUlsJYxxSivsuAx+Zg0y2nI5JeWcxR0jxLCaI/z4ZWoSPiWCTQA1qlDrNDCgw1jKM1sweVIc0oulmL3GsVSP2lGAk/5CP+2zyk/16CguvVKBc9RIO4A205veitGMZUz6zh9GfS9vWF6NQ69NYMIfTLZPb32SCSXtuYo6QjjmSis3CA8ReRzVAaCjODcnTc60O+axVivsxBxMeZCP8wA2GH0hG8LxWBu1Ig2pmMAPskCG0TwbeWgm8thdAuEQE7khC4KxlBe1IRsi8VoQfTEH44A5EfZyLh+3zc86pBW3YPxjumoVNR5B/LJ/ddR2OgcRSpVwrhazu3W5BpYRJJE0kbE4GtFKnn7kMjJ9Ucf0U9q0Vf1Qju+9VB8tNdxH+Xh8hPshDokLyqzwjfSoLAXSmIOJKJ2K9zIf7pLu5516C3YhiqGY3ZlkKOd03hnn8lhB8kwOt9Ix/8yjaIpP8Xc5N0zBc5aM/rZfyFZAtapQ5DjeOoCGpC+u8lSPhvPoL3phr9ewncnYL47/OReq4YJbwG9JQPmUWTKwCYHVXgQUQjon9Kh69thPlNbRBJLxxzkrTARoqM86VQTpl3yR0AqOVadNzrx32/OiSfLkLowXSjnxAyH8H7UiE9VoACzyq0ZnZDMa5i/J6tBRqFFg2p7Ui5dA93dsew6/gqpiGS/l/MSdLRnxsOlGX65WQKmjZ0W2vP6UWJfwPEP91FwI61bza/7H9UbaWI+yYXRTdr0ZLRzZlt+5SWQmdZH/J9HyDgsJi7G1KIpFcn5iJpnpUE2ZfLIRvhxou+VDQKHfprRlER1Iy4b/LYcVL1YmVtI0X0Fzko4zeiPbfXsJ5ggvPWOrUOw23jKAutR9SP6XAjciaSXkzMRdIRH2WiLrad8RfV+GKgMNk9g4fJnUg7t7TuamyDbyVBxEeZqI9/hLFHU9CpTaPGXaehMNk7g4bUNqRcvsfOg1/ZBpH0/2IOkuZZSJDrVIGp3lnGX1hjoprWoK9qBIU+NRBuT2T8e1hNcp0r8LhkEMopNWt3jNIUDdmYAl2lfci9UQavbaHMy89UIJL+X8xB0sH7UlET3WY2pV00RUM+pkRz6mOIf7jL+P1fK8I+SEeDpAPTfTLWjapVs2qMtI2jWFQD3t5Y5qVnahBJ/y/mIOlc5wqMP5pi/MU1BpSWxsygHCX+9Qjalcz4vTcGeS4VGGoch07DvKh1GgqyMQVqE1sR9KmUedmZKkTS/wvnJW0hRnVEq1mc/E3TNMbap5Z8sgcXSDpZiO7SIeZ+LdF60Doa3RUDCP0qhZTTrQIPIomkAXBf0rFf5aLjbh/jAl1rAKC/ehSJP99bsFk8V+FZSRD3bR5a0h5DTxu3NwgATPTOIO5EFry3hZKFQSLp1Q3XJV18ux7TA9w+/RsAHt3tg/iHuxDYcmuBcCnwraWI/jwb1ZGtRjlMmKZozI7IkeVWjNu7ouH+VqB5daojkjZOuCxpnoUEjYmdrJirXEtaMnsQ/10eBLamU/u8lqKOOJKJMkHj2oma1mN2RI6KqAaIPhLDa2sokTOR9NqFy5KW/HQXfVUjjEt0raC0NLpLhxD3bR741kTQT+BZShBxJBM1Ua2rvulFMalCY/ojxBzPxG2HaMZFxmWIpOfCZUk/CGrC7LCCcZmuBTq1DgN1Y5AcLTDLOegXwbc27FJsyehelfutVmjxqKgHGc73IfpQzMi8c45XKUqCalEaUvc3ioTVkP6ev6Trub8ViODPEp97vSekXSuC/54YImkm/+NclbTQNhEdBf2gODjVQWkojLZOmmUVx1IQ2EgR/30+esqHln0CD6Wl0FszhCJhNcK+ToHH5iBGhOX5bjCGW8ehlmmglmv/xtTALMpC65d0zRsWYcjzKX/u9Z7QlNWBwI+ZKSUkkp4LVyWd+PM9jLRMMi7U1Yam9ZjqmUWBRxXj99gU4FtLkXy6ECMtk0tbm6AN/Z2rE5oRdzIbNyzCGBGV02sCOK8XQnAoHrMj8nnf4+nBWeT5lC3pun72UahNbF3QD3VJrbi1M4pImsn/OFclXRvbDsUE91pcykaVqApvgYDMQS+JfLfKRR06TNN6yMeVaMntQqZrMXyswhmT85+S3iBEwtkcyCeU877Hox2TEP+Su6Tr8vbGortqcN5r6mk9ykLr4fEOM78eiKTnwlVJ91YMc+6QWbVci9bMboR/lMn4/TVFGhM7oZx+fi9xmqKhmlGjt3oIZaH18LGOgPPr7LHhnPcAACAASURBVKjYcHkjAHf9KqCaUc/7Hvc3jCDok6VNSwR8KMb0kGzea6rlGuT7PmDscxNJz4WLkg50SMZoK7emOmiKRn/NKFJNvJMdk4R/lIme8qFnpz1oQ/P9sc5J1CW2gr8/nnEp/xXXjQGoS26DRql9/kusB7rK+5c06nfZIETYNymgKXpeN0z0TCP1yj0iaRBJrzpZl8o4t4FFMa5CmaCR8Xtr6tz1qMJE5zT0tB46LQX5uBJtBY8R+UM64zKeD7dNIvTVD4PSPl+otI5Gc07nkmq1Pd8NRtL5/AXd0Fs7hNgTWUTSIJJedZrTuqGe5dD5eLQeD5O6EPZBBuP3lgs0SjugmtGgv34Eib/ns2ZaYz7c3w6EfNJwWMXzophSoTyiYUnXvGkTgYLbFQu6oSW3C8GfJxJJg0h61RlumuBUQ6WJxzPIc67g3PfEBHwrCRKO5SH8m1TcsAxjfSMklw0B4O+PhVapm/cdnuybQa730io7/PfGolbasqAbquKacGcXMzXSRNJPhWuS5ltLMTMgZ1ysqwVN0SgXPYTIwTzajq4l4UfSIdidAO+tYXDbJDKJrdxub4oQdyoLOjU17zs81DwG8bmlVXaIjkjQVd6/oBsKeVXwfC+YSBpE0qsGz1KCtN+KOVV6N9w8gdRfi+Fvwfz9NUV4FhIEH0iF6KAUN7aGw/3NQNZPbzyNx+Yg5PmUg9LML+nHFQMI+WJp0xJh36Rgond63mtqVTpkut5n9F4RSc+FS5IW2EjxMLkTGoWWcbmuyiiaplHKb0DwvlTG762pwbOUIMAhCcEfJuPGlnBcfy/EpOT8BK8tIahNbAGtm78KozX/MXy3Ry76ms6vCxF7Igta1fxTKFP9s5D+lsfoZyeSngunJG2biLH2Kc7UR090zSD5TBEZRS8FCzGEOxIReCAJvlZR8LEMZ+20xk2bCIR/m4LoYxnzIv0tD0PNo9DTz180hB7orhhAwpnsBa/zNPGnslEWVg/Mc0nAUH5XyK967p+P/CENbm+K4LSeSNoo4ZKkhXaJUE6pV73zGVNUBDcj7IN0xu+rqSC0T4RoTyL87ePgaxMJ143sXhSM+D4VDzMeobtycF766oahkWsXFKpsTLHgNf5Kb80QJnrmn+oAANWsBiNtE8/984+KeuBjHb7mv0yIpOfCFUnzLCQI3pcKrVLHuFxXA/WsBkknC8GzNP3vZq0R2CUiwCERgl1i3LKLhudm5ha7loL09zxM9c0w+fovK2qZBrd3RhFJGytckbTARgrp8XvQqrgh6Z7yIcR8kcP4fWUzfCuJQc4OEvjvjIP3llDGxUskTSS96uGKpEU7klDi38CNU1hoPQo8qxG4K4Xx+8pK5uad+dvFCDgggffWMJNcFCSSJpJeVLgi6aA9KWjN7gFlhLPt1hq1TIvoz7IZv6esw0IMgZ0UPBsxgj9Kho9lOOs3oxBJE0mvOFyRdMj+NAw3TbywFaUp0FsxgvDDZAv403LmWUkgsJMi5EgK/B2i4bLB9EbORNJE0ssKVyQdeigd8jElJyo7im/XI3AX2WH4RNACOymCD6VAdFjCuFhZJ2k9oF8iKw2RtJHDFUmHHc6ATm3689EAEHEkk1R1bDNs8Q8+mALR4US4mdhOQWNIWqfWQTauwFTf7KKZGZJBLVuZ+IikjRyuSDr8w8y5kQLzol02tB7qWS2C95r3DsMnW7kDDkjhvSUMrhvXfuMEE3htCYHgYDxEH4n/Rtg3ySjkVS747naV9yPhTA58bSMWTdSPaWjO6VzwuvcDahD2TfJz/16ij8QQHk6AixFq0Imk58IFSQvtEpFy9j7zkl0hlJbCQN2YWU91BO9PgeiAFL7WkXB/KwguHBs9P43zeiFcNgjh8kbA3/C1i8S9OwtLui65DfwDcUv6b4Z/k4KO+73zXlNP6xF/OhtubwU+9+/l8kaA0U5KJ5KeCxckLXJIRr5bJeOSXSlalQ61MW0IsE9i/J4a/TvcmYTgD5JxyyYa198NYf1uwbXmzq4Y1EgWbiVaGlIHb4ul1YYnnMnBUOv4vNeUjSkQ9nUKK365EEnPhQuSDtqTghL/BsYlu1LUMg2yLpZBYGM+h8zybaQI/SgVt6xjcNMyAm6bRIzLgQ0EHE5AV1nfvO8tpaWQ51MG1yWWIKZdK4R8fP4DbfsbRiA6wo4FWiLpuXBB0iH701AV1sK4ZFeKalqDsEMZZrFoyLeWIuhACu7YxuG2fQzc3gxkxeiNLYR8kYTJBVqJykYVSLm8tPMHXTeJcNfvASjt/G1PH2Z2gLc3lvHPTyT9VLgg6dCD6WiQPGJcsitFMaEy+e/ihXK2kSLAIRH8nQm4szPWZPpsGBPnDUJEH8tY8DSWwaZRxJ3MWtJ1b1iGoSy8fkEfFAfWwNdu8W1PiaSNEC5IOuxwBlozuxmX7EqgKRozA3LG7+VawbOSQGgvhXCXFP474+BjufiTrc0Nj81BSL5YsOB7217YjdCvkpd0XcGheDSkti943bRrhfDaEsL4PSCSfipckHTER5noLBxgXLQrgdLRGO+cZvxerrqcLcQQbpdCsEMCwW4x/OwiybTGC7hpG/HCyo4acfOSKzsivk9FR8nClR1RP6YbekWz4D4QSc+FC5KO/DgLfRUjjIt2RZLWUhhtnWT8Xq4mAlsp+LYSBB5MxC37aEO9MwtefrbD2x/3wsqOQn4VfKyW9mtE+nsehlrG5r2mWq6B8IMExj8/kfRfwgVJR32ahaGGccZFuxJ0GgqDDeOM38vVgGclAc9KjNAPU8HbFQf3t4IYf+FNieDPEtFRvPCIN8O5aMmVMNmeJZgZls973aHWcfjvYceiIZH0U+GCpKM/z8ZY+xTjol0JWrUOvRXDjN/LFWEhNsj5cBoCP5TC/e1Axl90UyTqx3SMdU7O+84qp1VLPh3cab0A90U10C1woG1zTif87NmxaEgk/VS4IOmYL3Iw1TPLuGhXJGmlDl1FA4zfy+XCs5RAuCcRgd8k4PauGDK1sQLEv+RCI59fTsMt44j6MX1J1/TaEoLqhOYFXVAcVIsblmGMf34i6b+EK5Ke7DZxSat06CkfYvxeLhkLMQQOEtw5HIXfNrrj1KtXceY/zrh1MBxeW0OMtoWYK7i/HYgMV0OLg/nSdq8bQZ9Kl3RdwYH4F/bsSL18D9ffY09JJJH0XLgg6ejPszH2aJpx0a4EnYbCYP0Y4/dyKQgcJLi9PwqXt/jizGtOOLbOET/94wKOvuSIM6854/xbXvBxCMX199nz4jPKegHc3wpE4MeSeYk+mo4a8cKLhjWSFggPJ8DtTdGiiTmWge7KgQWvm+VWjNAvk5779+IfiIPX+8YtzSOSngsXJB31WTZGWiYZF+1KoLQURtumGL+Xi5KzvRT+e2Lgas3DuQ1uOPGvy/jpHxf+xvH/u4Rzr7viyvt+8LIJNntZu2wQwn9vDPobRuZlqGUcs6OKBd/Z6UEZeqqH0FHSu2iGmsegmlEveN2xzkkMNI4+9+/VmNaO8G9TiKSZCCck/WkWBk28uoPW0ZjsnmX8Xi4E30YC/r54uFsH4PzbXjj9n2vPlfNfOfXvq/htowectt6Bt00IPMx0QdHljQCIPhIz+bovO8NtE0g4k0MkzUS4IOnIT7LQV2XaddKs3nFoIYZwnxjXrQJxdZsfzqx3xtGXHBcl6Kc585ozLr3rA+f3ebhhHWZ289VE0kTSywoXJB1xJBPdpUOMi3ZF0HrIRpWM38tnsBRDuFsKb5tQuNnycO4NFxz758Uly/lpjq5zxC+vu8LZ0h/O7/JxwyrMbHYgEkkTSS8rXJB0+IcZeJTXy7xoV4hiUgWBbSL8LZi9nzxLMfjbxbhlH4Xr2wPxx2bPFcv5b/PVL1/C7295wsNWCNf3hPB4N4hzx2MRSRNJr0q4IOnQg2moj29nXLIrRT2rQew3ueBbMfR9WIjBsxHjjn0svO1CcNXGd1XF/NyR9UuOuGrpC3dLITy2BMLtTRFnZU0kTSS9rHBB0kF7UlB8p45xya4UjVKLMkEjhNsTjX4PedZi3LGNg+/OCLjY++P4y5fWXNB/lbWbPQ8eFgFw3yzi5MksRNJE0ssKFyQdsD0J6edLGZfsSqE0FLrLhiByMN4ZhzwrMfytEuC/NxYeOwU4vX5xFRtrxalXr8HDXggv62C4bAqAywbujKpd3giA8FA8ZOPK56KWaUBT9ILvq2pGDfk8f/55yCeUoLQLXFMP6DTUC6/5+MEAYo5nEkkzES5ImmcpQcyXOYxLdqXQFI2ZITmC9qSs/X2zMCDcL4H3niCce9OVUTn/ld82ucPLIRA+duFwfl3AjcXF9UJ4bA5G5I/pz6U0tA7Tg7IF39e7fg8Qczxj3mv8lfjT2Qt2vtNpKPRUDSL62MLXDP480ehbxomk58IFSftvMyweMi3Z1RlN0wjem7rm90u0W4o7H0Xg97fccWzdRfz0EvNifoaXDFMgf7x9Hb77wnDDgj09JVaK8+vC55J9vRSy8fk3smgUWgR9Ip33zz8P/oE49NUOz3tNtUyD0pA6uG4UvfBaxv6Hkkh6LlyRdNjhDFBamnHJrhTogfjv8sC3XoPDaC3E4NtKIfgsDuff9sLJV6/+uZWbrRxbdxEnX7mKC2974c6haHi8zc22p86vC1EkrAatm39qYqRtfMmN/qN+TMfwAqeDKyZVSLtayMrFWiLpuXBG0ofSoZxUQ08zL9qVUi9+hOB9qzua5tmIIfwoAVe3+OGXDS44/vLqltStNcdfvoRfXnfFpXd9wDsYw7mFRW+LUFTFNS34rrbkd+G2Q/SSrpt2rRATPfMfaDs7qkDYNylwXk8kvVCIpFeBkANpGGubAk2Z/mh6ul+GyE+yVuW+8O3mtnLbCfHbJg+ceOX5fTZMgaMvOeLEK1fw+0YPuFjycHN7OGuOelopgoPxaMrqWPBdLQ2tx02biCVd976oBrIFeoFMD8zipm0EK+f8iaTnwhVJB+1JwaO8PlA605c0raORdLIQApvlT3nwrSXg7YqH945gXHjbG2ded2JcsqvJ2ded8cem6/CwCYCXRYjJ96+O/G8ausr7F3xXM1zuL/mQ2Mb0R1DP05uapvQYbh1n7a8SIum5cEXSoh1JKOU1QKehGJfsalAT2YawQ+lLvg88CzH4u8S4YR+Kq1tu4ddNbsvqs2Eq/PamBy69cxMelgG4vjWYlXOriyHxfP6CVRgAEPVTOtzfWnxzKpc3AtBdOTDvPLdWqUP7vW7GPzuR9AvCFUnzraWQHC2ATs0NSU90ziD+u/wl3QOhgwQ3bcPhZsPHH297mty883I5/s+LOP/OdThtvQO394Um2RI190YZpofmL7/TaSjwD8Qt6R+hmzbhGG6bf9FQOaXCg4gGxj87kfQLwhVJ+1uIEbgrBRqFjnHBrgY6DYXsqw8QYJ/0ws8u2C7BLbtoeNkHwfE9b5Oed14JJ1+9iovv3oCbpRBu7wXA4x3TqARxXi9EWWg9NArtc99Rvd4wd+xrt7T56NCvkjDRPf+i4cywHFnuxYx/fiLpF4Qzkt4mhtAuEfIxFWja9Oel9Xo92nJ6EPNV7rz/KPGsJfC3j4OPfSiu2dzCyVevMC5KNnD6P05wsroDD4sAeLwXCJc32Dnn+gSPd4JQn9wGvf75R2bpaT06y/rgY7W0WvHkiwULjs4neqaNvouQSHoZ4ZKkBbaJGKwf58y8tEauRa5ThaEz3lOfk2clBm97AnztouC9PwA/z3Myilnz0gWc+vc13NgTBNd3hXDfHMja+eo7e2LQdvfxvO8oTdGojHm45EXDIkEV5BPKea870j4B3v6l1V0TSTMQLkmaby1FTXQb1DIN44JdDQCgKaULMV/kGD6jpRj+1gm4vSMWNw+G4PRrV5mXIcs5+pIjfnndGX4HwuD2rgiumwJYJ+vwb1MWPH+Q0tHI9iiB5+alTd80prfPW9mh1wP99cPweIe9p+QQSc+FS5LmWUogPXYP8jEl44JdLdQzGtx1rzL0eN4lht/BcPy+2YNx+ZkiF7d4w29fOK6/b6gCYcsGDvG5XPTWDEEj1z4XxZQKUT+lL7kmvKu8H8pp1fOvOalCU3YH45+dSHoR4ZKkn4h6pl/GuFxXk+aMLkQcT8ZlCx8cXefIvj4bJsLRlxxx9CVHONvchuDjOPjaRTIuIqfXBHDeIITrxoVP+17O6N91YwDcNs1zzU0iuLJ8rp5Iei5ck7T/NjFGmidAabkxL63X66GYUkHilmX0Hs9cJeycBJ1VhhO0sz1L4fmu6ZXsmQNE0nPhoqSb0x5DPcuNeWm9Xg+aptFe3gXe9xGMC87UOf+eBypT66FRaUFpKcyOyNFe2IPE8/msmf4gEEk/Ey5KOu23Ekz1cWvKQyVXoyjqAc6/58m46EyZzDsFmBqeeebeapRajHZOoi6pFeHfpTIuJwKR9DPhoqQDd6VguHkCNAc64j3NaPc4ElzSGRedqXLnmzD0NA6A0j1nKozWQy3XoKdqEGWh9eDtjWP9nC3XIZKeCxcl7b9NjI6Cfs7sPnwCpaPQ/uAxfD8LYlx4psZvb7uhJvMhlDLVwveZ1kM1q0ZTVieyPUtxyz6KdSV75gKR9Fy4Kuni2/WYGZQzLtbVRjGtRGVKPa5tv8m4+EyCly7g5KtXkOabj9nxpU2BTQ3MojLmIRLO5iy5RSiBSHrVwlVJx3yZg8H6McaluhbMjM4iN6AIv7/jzrwEWc6JV64g8nwiZBPy5bULoPUYbBpDIb8KoV8lL3nXH4FIesXhqqT9t4nRntfLmS3izxO12CUdp/5zFUdJ3fRzOfnvK+B9HwH5pGLF/Vx0GgpdZf1IdyqC4GA8Zw4bYDNE0nPhsqTLhQ8xM8S9KY8nIzzZpAIBx6JxgjRW+hsnXr0Cn08CMdy1ur+mVLMatOR2IerHdPjZR5GyPSLptQ+XJR37VS66y4Y4ce7h86BpPVQyNbw/DMDJf18hOxGfCPqVy/D6UIjWks41u/fySSVqJC3w3xOL6++HEFkTSa9duCxp/21iNEo7ODvl8acwphS4+VkgEfU/LuD4yxdx40gAWks7AWBt7z2th2JahYJbFfC2CDO0RGXhWYGmCpH0XLgu6QKvakw8nlnbl5UFqGRqBJ2Kw+n11xgXJZP4fxuGvqZB4x1ITOtB6WhMD8ogOZdLtpgTSa9+uC7p0IPpaEnvZlyixpCFbEIOsUs6fjPDqo+j6xwR+ksCBttHoGOgbwtN0VBOq/D4wQCifkiH25vsbQFqKhBJz4XrkuZZSfAgsIlTvTwWYnpkBpn+BbhsfYNxcRqLk69eQbxTGoY7RxkR9NNoVTpM9s6gVtKCkC+SGBedKUMkPReuS9p/mxiJJ+6hu3SQcYEai6nhGVSl1uP216GMC3Stcdvrj7shpRjrmXj+dm+GUE6rMNAwgvvCaggPJTAuPFOESHou5iBp0c5kPAhq4sxJ4ouSxKwKHZXdELtm4Pz73GvKdPzlS4g8n4j6vBbDTkIWVvDQNG3osnevG9meJbhpHc64+EwJIum5mIOk/beJkf5HCYabJhh/cY0JRdEY7ZnAvfAy3PkmjHGxrgbH1jniqt1NpN+6i/7WIWjVWsbv8wu/By2FiZ5pVCc0I+n8XbhtIhthiKSXEHORdNihdFSFtRhv1Z9FqGRqtJR0IOZSMpwdbuHYPy8yLtsly/mfF3H+PU9E/C5FaUI1FDMqk+tyqNNQGG4ZR8HtCkR8l0oWF4mkFxdzkfST0fQ0x47WWiw0RUM2IUdJfBXCzonhtMMPJ15h/ynjx1++CMdtXhD9HINsfiHG+yYZv5crhdLR6CjpQ4bLfQgOxsP9LSJrIukFYk6Sjvo0C/UJj0xuBLbaKGdVKI6tRODJWFzd7ouT/2bfqePH/+8SHC28cOfbMGTy7mGsdxLAGm9OMTIapRa10haIf8nFLfsow2YYFsiRLRBJz8WcJO2/TYykk4WYHVYw/oKyAeWsCmXiagiPRsN1922cf9+T0dH1sXWO+O0dNzjv9IPfF8HIEd3HGAdGzgsBALOjCpQE1yL0yyTcsAgjuxaJpJ+NuUk6/HAGaiJbV9wVjUvotBRGusaQF1QCn08D4bjNC+fedMXP/7f2B98e++dFnH3DGRe2XIezgx9SfHLR3dAPjZL9C4KrzVjXFPJ8ynFrRxQ83gliXJJMQyQ9F3OTtP82MeK/y4NySs34S8lGKB2FsZ4J3Asrg+cBHs5scMLp16/h1H+u4sQrlw2LjsvsD3JsnSN+/tdlnPrPVZxefw1n33DGFesbSL6Ri/6WYeg03DpJZznQFI3Bh6NIPH8XHu8EwWWD+TZuIpKeizlKOnhvKsoEjYy/kKyFNshCp6WgVWkxOTiN5uIOpN+6C89DfJz6z9LnsI+/fAlOO/wQ75yO2qwmDHeNQSVXg9LRoCia/LJ5CprWQ6PQ4vGDAQQekTAuSyJpImmjw7eRIv5oLmTjClZugmAbNEVDq9ZBJVNDNiHH9MgsJgenMdYzgaGOUfQ2DaKzugetxR1outeOjopu9DQOYPDRCMZ6JjAxMIWp4RnMjsugnFVBo9IadgeSez8/tKFkb7RzEkFfSeCxOcjs2qESSc/FnCTNs5RAsEsMvwNhuLDZGyFnEhjv9WDK0LRhFKzTUtBqdNCotNAoNdCqddBpKVC6uREykfGyUM6qUJVaj19ed8HFzT64cyAa7m+bT7kekfRczEXSAgcJ/PZE4NJmH/zyuguO/fMifn3LDa2lHSaxa41gXtA0jb6WITjt9MNP/7iAE/+6jF/fcIeLpT9u2IWahayJpOfCdUkLd0rh5xAFZwt//LbJ/ZmKhWPrHHHjSACmhqbJnCiBVUwMTCHxejaOvuT4zNz+mfVO+H2jJ9ythfC2CoErh7eYE0nPhauSFmyX4M7uGLhbC3H+Ha95N2wcXeeIvMBiyCZJ7TSBHWiUWtTntuCipfe8C7G/vuGGS5tvws1CCG/LEDi/zr35aiLpuXBN0jwrMfh7E3DdOhBXLXxx+rUXn1TiZO+HRxWPoVWTEjAC8/Q+HEDQqbgXlzS+fBG/v+kB52134Pa+EN5bQxkXK5H0GoQzkrYUQ7BLDG+rELjb83H2dWccXef4wgf9CVGOSYaTpckiF4FBpoZmkH777pKOQTvxrytw3OwNdysB3N8PgOdmbmyEIZKei6lLmmcpBs9ODF/bSHjvCsKvb7rh2BLk/OeD/soV5AeXGHoTs+BlJZgfGqUWFcl1cN19e1mbhU68cgXO1rfhvk0Iz61BcN1k2gfjEknPxWQlbSEGz1qMO/ax8HEIxSWLlR8X5bTTDzWZD6FRkWoPgnGhaRqPa3sh+jlmxc/xz/93GTf2BcFtixAe7waabOMmIum5mKKkeVZi+NvFw29XJJy33/7bCvhKCD2bgJ7GflLtQTAqM2MyxF5JwfGXV6/X99nXXeCzNwSeWwPhuinA5LaYE0nPxaQkbSmGv1UC+Afi4LaThxOvXlm1B/oJR19yRLJ3DuRTpNqDYBwoLYUcYREct3mt+vP80z8uwPFdL/jsCoaXhaEKxNlEpkCIpOdiSpIOPCzF9V1CnN3gvOwmP4vh980eyA8uIaNpglF4eK8N3h8K1+x5fjL4uGLpC9+94bj+fgjjAiaSXkJMQdKi/VL47AvBb5vccfzlS6s6vfHcB3qdI9z3+eNBYi0AbjWaJ7CLka4x3P4mFMeN1Bb25CtXcW3bLdzZFwXXTezetUgkPRfWStpCDOEOCXhHovHHm9dx6t/XcGyd8c7mO/HKZdz5Ngzt5V2Mv8gEbqKcVSHgWPSyugoum5cMC4u/bnCDk8Ud+O+LYVzGRNIvCOskbSEG304C/uE4XHz7Bs5tdGXs4NQzrzsh+Ew8xnu5fToIwfjQOhqxV1JwbpMLI8/20XWOOPXqVfzx5nV42Anhuz2CdQuLRNJzYZOk+XYS+O+NhYslD3+8fd0oPwFfxK9vuSH2SipUMnJIAGF1oCga+UEl+OM9zyVtuFoLjq1zxLk3XHF+oxdu7AzB9S0hcNnAjpI9Ium5sEHSfFsJ/B3icN0uEBc331jUVm5j8vtmd6T75ZNueYQVo1Fp8SCpFlftbq5qud1KOfoPR1zY7IVL7/jC2y4YHu8y37+aSHouTEqabyUB3yEBN7aH4urWWzi30ZXxh/W5D/A6R/zxrgfyQ0qgJUc8EZaJWq5GXW4z3PbeYWwK70Wc+NdlXHrfB05b/OG5LRAeDG4xJ5KeCyOSthCDv1OMm7bhcLcV4Le33Bn/2bcoUb/ngTJJDdRyMvVBWBpquRrNRe24+WkQ48/yYjjzmhOubPGFu6UQHu8Hwu0t41eCEEnPxdiSFthL4GsTBe9dwTi/mR3zzosW9UuOOL/FAzUZjVDJVIy/+ATTQK3UoL28C4IfIxl/hpfKuY1ucLHyh/vWAHi8Z9wt5kTScxmsH4PAWrrmI2eejQS3bWNxa08Erlj64sS/LjP+AC6Xq3Y3UZ/bAiURNeEFaJQaPKp8jJAz8Yw/t8vl6EuO+G2jO7wdAuH6rtAwBbLWuxbXC1AZ2wS1jEgaQ43jCHRIXjtBW4rhb5eA27ti4LGXz9q5uKXi7HALdTnNpOqDMC8alRYdld2L6g1tChz/5yWcf+c6bh+KhPMmAVw3idZui/l6AeqT26CRa5nU459hVNIjzRMIPZi+NqNnazH8d8XhxqFg/GzCI+f5uGR1A1VpDdAoSdUH4VkoLYW2sk7wf4hg/DldbY6tu4hrtrdxe18U3N4WGU6FWW1ZrxegJbcLWqWOST3+GUYlPdo6ichPslZd0MK9EvgeCsMvG5kp1jcWF7Z4okxcDUpHTh0nGACA5qJH8P3cNBYJV8L1PSL47oyA+2ovLK4XoKO4Dzo1kTTGO6chOVawaoIO2COF3/5wXHjPGz8boc8G0xxb5wjHrddxN6QEOlKeZ/YA4GuL/gAAFZJJREFUQG1WE7yPBDxz6DFXOf7yJZz+txO8HALhYxe+eguL6wUYbp0AraOZ1OOfYVTS0/0y5DpXrFjOwp1S+B+MwpWtvjj172s4/jL3H9A/Rf3Pi3Dc6oU033woppWMi4LAELQehZEP4L5/bdrospWjLzni5CtX8fsmT1zfLsJN2/AVCdp5vQDX3wuGfFwJ6Jm04//CqKTlYyo8CGxatpz5NhIIDsfDadtt/LrRjZNzz4t6UOc2vMRcTsFo9zjzwiAYFa1ah2TvXFzd7mu278Dxf17Cmf844dK7PvCyC8INy7BlSdrljQCIPpKwpvwOYFjSGrkWbdk9y6raEB2WwM1SAMd3vXHy1Sucn9pYDL++5YqQswl4VPEYAGlzynVoisbshBzRF5Pwx3uenKleWgkn/nUZv77hjivv+uHmzrAl71p0e1OEZMe70CjYUdkBMCxpmtJjpHly0WV4PGsxBLsT4L09GFe2+uLMa06s3y1obE6vvwbe9+GoSmsATZGDA7iKTqNDT+MAws6JcXr9NTJI+QsnX7mCi+/dwJXNfvBziITrRtGiJO25OQi1khboNBSTanwmjEoaAGTDCiSdLFxYzlYS8OwT4LszAk5bb+O3t90ZfwjYzM+vXIbnQT7yAosxOyYjsuYYsgk5KlPqV+XgWC5z9CVHnPr3NThZ3YbTe/7wtgqB68b5Fxed1wtx0zoCkz3T0NMsmZAGCyStmtGgMqxl3nI6/nYx/Oyj4G4lhOMWbzJiWMIDem6jC1J8ctHT2E/qqTkApaMw3DWGHGER3PfzGH/GTIlfN7nB2fIO3LcFwPO9oOfK2u1NEcK/SWGVoAEWSJrS0hhsMOw85Fk8tShoJ8Et2xh42wfjssVNs10QWQ1CziagLqcZs+Ny6GnmZUNYOspZFTqquhF/LQ2/bHRm/JkyVS6+7w1XSx48torg/k6gYTPMnKRvWIShNKSOaSX+LYxLGjAsIKb/XgKBjRR8Gwlu28Ti1u5IOFnfwunXjHi8D4dxdriFgrAyjHaPQ6smNdWmAk3RmByaRnV6A/y/DWP8OeICx9Y54sq2m/C0FcH9XRHc3hLNVXWIMdkzw7QO/xZWSJrW0uguGULQgWT4746Fh4MAZ153YvzL5BonXrmCyPOJ6KjqhnxKQU4kZzlquRqDj0aQ6JGFC1uuM/78cI2Tr17BNctb8NkZCh/bMOR4lTGtwueGFZIGAD2lh/RaNs5tcsVPLzH/BXKZKzY3kC0oxMyYDDotGVWzDZqioZxVoTarCW57/Rl/XrjO2Q0uCD6egKGWUaY1+NywRtIA8KiiG47bvBj/0syBoy85wvvDAFJTzUJmxmQQ/BDJuqPcuMqFrdeRcaeAUfctFFZJmtJSkHpk4be33Rj/4syB4y9fwvn3PRH6ixgT/VMAiKwZg9ZDMaNEFr8Q59/3xM//uoyj5BflmnPilcsIOhmLmVEZw/abP6ySNABM9E2B930ETv7bfPoPMMnRdY44vf4artn7IsE5DVNDM6Su2sjMjstRFPUATvZ+OPemK9mgZUR8PhahqaiddWV3T4d1kqYpPdrLH8P382D8/C/zaZTENEdfcsS5N13heZCPbEEhxvuniKyNIOcySQ18PwvCxW1eZA+AkfHYz0OZpAYquZpp7S0Y1kkaALQqLWqzm3DjSADpR8AAFy28cPvrUOQFFWOoYxQ6LelXvZpMDs2gJL4KgSdj4bTDD8dfJs+4sblm74u7oaWYHWfvNMeTsFLSAKCcVaEiuQ4+H4vMojcuG7lkdQOCnyKR6V+AzuoeaFRk1+KyofUY6hhFfkgpQs4mwNnhFn5+hWzQYgLnnbeQF1SMiYEppjW3qLBW0gCgmFaiOuMh/L8Lx6n/kE0tTPH7ZnfwfohApv89NBW2Qz6lYF56JoJWpcXj+j7kiu4j9BcxLlp4k1+HDHF0nSOufyBAYUQ5JgenmdbbosNqSQOARqFBc9EjBJ+Kw+/vkMZKTHJmgxN8Pg1Emt9dlEtqMNg2DI1KC5psNX9WzGodRnsmUJPxEDkBRQg8EYuzbziT+n8GOfWfq7j1ZQgqU+ohm1QwrbUlhfWSBgyleX1Ng5C4Z8Jl120y/cEwR9c54twmF0RdSERxbCWa7z/CRP8UtCqt2fYG0WkpTI/OorO6B6XiaojdMnDFxofx78rcObbOERctvRF2Toz28sdQK9jTzH+xMQlJP4liWomq1Ab4fR6MX992I6VKLOGavS+SvXNQm9WErtpejPdNQiVXc746RKPSYmp4Br0PB9BY0IacgCLc/CyQTGewgGPrHHF2gxM8DvCRK7oP+aSC1WV2C8WkJA3A0HBmcAZSzyxc2+6L069dI7JmEZetbiD2Sipqs5rQ1zyIiYEpKGdVnDgol9JRUMnVmBqewdCjUTQX/f/27vytyjr/4/j/gkuFheVYtlmNafvUVN9qmqtvMzV9pwAFURHlsBwPIAgCIiiguACSKYq4gRIkIC4oKIIgBgjIjuyHcw5nfX5/IJvmuhrHBbjvc877cV2v3xXu++XtZ23ieGIxUe8mywoNlcTbQ4OfZzhhf0wgM/Aw7XVdSlfWI3O6kv6tjoZu9gQcZN0LMfjODZUdWipLgJeOrX/bS8UPl2m71slw7xj6YQMTBjNWi03VBzzZ7XZsFhtmoxnDqJHR/jG6bvZSdbKOzLWHJ8eYVfAzlvwrvnNCWLMgim1fZ1Jb0ojdro7bvh+VU5f0XfWlN0n6392yS1Hl8fbQEPVuCoUppTRXtTM2MI7N+ktRq2Es+5c/g91qxzBq5HZ9N6XZF0j++163uoHeGeMzK4SYD1O5cOgKE+PON+58Ly5R0laLjbE7es4dqCLu4zT5r6eK4zM7BL95WgLm61i9IJLAP0QR/cE2fgg/xoVDV2it6WCkbwyz0YLdNvklNF2FbJmwoh8y0NnYy5XC6+THnSb+0x2sfyGGNQsiWfV0BP5PavGViWpVR7sskaL0cvpa756VrnAhTTGXKGmYfJFN+gk6b/RwKrUM3ZtJij88kvuL79xQAubrCFoUjWZxHGF/TEC7NBHtskQ2vJFEyld72R96jKL0cs4fruZK4XXqfmqk8VwzzZfbaL3WQUdDD12NPbTXddJc3U7j+Raul97k6ul6KvOvUrL7HLmRJ0n9dh8b309Bu2wL2qWJhC9JIOTVzax7PobVz0T8crCRzHE4Q4IWRZMXXUhLdTuGEeOv/6i7Gpcp6btsVjujd/TcONdMbmQB61/cpPjDJHm0+D0RzupnIln/4iZCX9tM+JLJEte9kUTEW1uJfCeZqPdSiHovhch3k4l4eyu6N5PQLttC+OsJhL4WT/BLsQQujMJ/nhYfmWh23ngE4+cZzp6Ag9SVNDLUPYLVbFW6dqaVy5X0XVazlTvtg1SfrGNPwMHJs3llYlEicdr4eU5uSDmfW01XYy8Wk0XpmpkRLlvSd1kmrNy+3s2ZrAts/dse2V4ukThZ/OZpifkwlYLkMzRVtmI2Wlxu3PleXL6kAXCA2WThRkUz+XFFxPx5u5S1RKLyLH8sjA1vbGF/2DGunq5nbGBc6SZRhHuU9G+MDxmoOlFLdlAe2qWJrJCTyCQSVcVnVgiaxXHsXL6fs/sv0d82qHRtKMrtSvqugdtDlGVdJPX/sgl+KVa28kokKkjgwigSPs+gIOUMHQ09Lrti40G4bUkDOOwOuhp7OZFUQuxHaaxZECmTixKJAvF/UovuzSQOaI/TUjV5drmY5NYlfZfVbKX16m2+Dz1KyKubZeeiRDJD8Z0byroXYkj7LoeG8ibVX2WlBCnp35gwmLlxroVtX2cS4KWTIRCJZJriM0tDgJeO6D9t4+KRq/LlfA9S0r/DYrJwpaBu8v452RIskUxpfGaHEPLKZk6nlTFhdK1zNqaDlPTvcYDVbGNsYJwfd54lbEm8fFVLJFOQ9S9uIjeygJ7m/snNKG603vlhSUnfg8PBr6eh5UUXErI4TvGHXCJxxgQujGLvmkM0nG1CPziO3SqrNu6XlPR9sFntDHWPUFvSSGbgYYIWyV2LEsn9xH+elu3fZFGZd5X+tkEZe34IUtIPwGy00N3UR8WBKlL/mU2Al07xl0AiUWN8Zoew+ZMdFO+qoO1aB8ZRk9Kvr9OSkn4IhlETLdXtnEotI/6znTK5KJH8Eu9ZGjYs28KR2NNcL/2ZsYFxp71bUC2kpB+Sw+FAPzhObUkjuREniXgrCZ9ZMrkocc/4zgkh+KVYMgMPUXmkhuGeUdktOEWkpB+R3WZnpG+M87lV7PI/gOblWLlqSeI28ZmlYe2zG9n2dSbFOyvoae6XL+cpJiU9RRwOB/1tg5xKLSPpy92sfXajLNuTuHRWzY8g9qM08qJP0Xy5Tcp5mkhJT4PWmtvkRp4k+v1tBMzXyXVMEpeKn6eW8NcTyAw8TG1JI2ajrNiYTlLS08RmsVFf9jN7AnLRLI7D7wk5D0Ti3PGdE8raZzeS8tVeKo9cRT9oUPo1cwtS0tPMOGai6kQtSV/ulvNAJE4Zbw8N/vO0RLy9lZLd5xjqGVX6tXIrUtIzZPSOnvKcS2iXbcFbLkKVOEm8Z2lY5aXjyKbTDHYOy7izAqSkZ4jD4cAyYaWvbYATSSWs+UOUnF0tUXX852nZE5BL540eJsYnpKAVIiU9w+w2O+NDBtpqO8kJzmfV/AiZWJSoKiuf2kDyV3upLW5ktF+PzWpT+rVxa1LSCrFZ7Qx0DFNT1ED6dzmsejpC8ZdT4t7xeyKcuE/SKcu+SG9LP2aDHCOqBlLSCjMbLXQ0dFOadYHEv2aw8qkNir+sEveKz+wQot5N5nhiMc2XW9EPuuet3GolJa0S+iEDN8+3cCz+R6I/2Mbyx+QWc8n0J/S1eL4POcqVwusyMahSUtJq4oChrhGqT9aRo8lHuzRRVoJIpiWBCzeyw+d7yvZV0tPcj9Us485qJSWtQjarnb5bA5RlXyTtuxzWPR+j+Estcf7cXe+c8HkGJ5JKaKvtlN2CTkBKWsUsE1Y6Gno4nljM5k93EOAlW8wlDxGPYPw8w4l8J5kcTT4N5U1y+L4TkZJ2AtYJK82X28gOykP3VhL+nlopa8l9ZfljYYS8Ekf6dzlcyq/BYrIq/TiLByQl7UTsNjtXC6+z/R9ZBL+0SSYXJf8xvnNCWL0gks2f7qA4o4KxO3qlH1/xkKSknZBJP0F5TiWxH6ez8ik5D0Tyr3h7aPDzDGfDskTy407T23JH6cdVPCIpaSc21D1CQfIZwpckyCoQCd4eGlY9HUF2UB7ttZ04HLKczhVISTsxh33yPJDbdV0c1J0gcGGU4kUhUSY+s0NI/ec+Gs42YRg1ydVVLkRK2gXYLDbGBsZpONvEnoCD+HnK2dVuE49gYj9K49LRawzcHsIyYUU+oF2LlLSrcExuMe+9dYdLR2tI+nKPrABx4fjODSV8aSJF6eV01HdjHJNT6lyVlLSLcTgcmPQTtNZ0UJxRQdSfUmQViAvFZ3YImlfiOKg7QeO5Zkb79VLOLk5K2kU5HA70Qwaul97kUFQB2qWJLH9MbjF31nh7aFj3fAy7Vx6kMr+Gvlt3ZGLQTUhJu4H+9kEu5l1l7+rJ+xZ9ZsmSPWfKmgWRJP99Lz/uPEt7bSdWs2xIcSdS0m7CbrPT0dBN0Y6zJH+1l7XPblS8fCT3jp+nlk0fppIXXUjjuWaMYyalHyOhAClpN2M2Wmi61Mrh6EJi/rydAC85v1pt8ZkdgnZpIntW51JdUMfYgJzv7M6kpN2UYcRIbUkje1YdJHxJAsvnyni10vGZpSFoUTRbvthF2b6LjPSOyrizkJJ2d+PDBi4cvkLCXzJY++xG2WKuUDkHeOmIfCeZo/FFDHaNyGYU8SspafHrSpDTaWVolyay8skNss18BuLtoWHF42FoFseRHZRH181epR8FoUJS0uLfDHWPcEB7nKBF0VLU01zQAV46tn2TxY2KZqV/7ULFpKTFv7l7HkhLVRu7/H9g9TNyi/lUx3dOKPGf7aQyvwbDiFGGNsQ9SUmL32U12xjt11N9so6UrzLlPJApSuS7yZTsrqCnpZ8Jg1nO2RD/lZS0uCeTfoKum72cybpA3CfpMrH4kNEsjiM/roimS63ohwzy9Szum5S0+K8cdgf6wXFuXrjFsYRiNizbonjpOUO8PTSsmq8jOyiPmqIGBruG5VZu8cCkpMV9s1ltDHaNcKWgjhxNPmufk8nF/1TOK710bP8mi4ofLtPV2CtbucVDk5IWD8xqsdHT3E95diVp3+5j9TORUta/ZOWTG4j7n3RObv2Jpkutk+Us487iEUhJi4fmsDloqW7nWEIx8Z/tIMBLp3hJKpUVT4SjeyuJ/WFHqTldj2HEqPSvR7gIKWnxyMwGC7XFN8jR5BPxVhL+87SKl+ZMxXdOCCGvxLHD93sqDlxmsGtY6V+HcDFS0mLKjN3Rcz63mrRv9xH8ciy+rnweiEcwgQujiP9sB6e2l9LT1CfnbIhpISUtptyd9kGK0s8S+1EaqxdEutw1Xv5Pagl/PYGDESdor+vCZpEVG2L6SEmLaWG32+n+uY9DGwsIfjmWFU84/2YY37mhrFkQSbpPDk2XWjEbLUr/mIUbkJIW08pqttJe20nGiv0snxvqlF/V3h4a/DzDiX5/G9eKb2CZkOV0YuZISYtp57A7MI2ZqC/7mdiP05zqYlzfOSFolyVyJvM8xlETdqvsFBQzS0pazAiHAywmK0M9I5RmXSTi7a2qvmjA20ND6Kvx5McV0dXYh0k/IeudhSKkpMWMGx820Hatk/y4IsKWJKhuI8y6F2LICT5CfXkTI31jcs6GUJSUtFCE3WZnsHOYmqIGsoLyWPdCjOLlHDBfxw6f77mYd5W+1gEsJpkYFMqTkhaKspgsdN3spTynktRv97FmQeSMl/OKx8PY8sUufsyooPVax+TQhhAqISUtVMEwaqK5qo3TaWWkfJ3Jqqen97IBb49g/DzDSfg8g+OJxdSXNzE+bJANKUJ1pKSFqhj1E9y8eIvjicWkfJ1J6Kub8Z0zdROMvnNCCVoUTeJfM8iLKaTup0YMoyYcdilnoU5S0kKVLBNWbl1ppzijgj0BucR+nIZmcRz+87QPvNZ6xeNhBD0fQ/QH29m5Yj8nt/5EQ3mTbEYRTkFKWqieYcRIfdnPnNpeyt7Vh9jyxW42vr8N7dJEQl/dzPoXN7H2uWjWPhfN+hc3oVkcR/iSBKLeSyHhLzvZuXw/R+OLqClqYLhnVOm/jhAPREpaOBWHw8Fov57my21cOlpDadZFClPOcCTmFEdiT1GQcoaSXRWcz62i8VwLwz2jcraGcGpS0kIIoWJS0kIIoWJS0kIIoWJS0kIIoWJS0kIIoWJS0kIIoWL/D1ZQGxT6pBRvAAAAAElFTkSuQmCC;" vertex="1" parent="1">
          <mxGeometry x="-65" y="250.00000000000003" width="201" height="191.53" as="geometry" />
        </mxCell>
        <mxCell id="WCYd7PEhxb0Bcr4dKSGi-25" style="edgeStyle=orthogonalEdgeStyle;rounded=0;orthogonalLoop=1;jettySize=auto;html=1;" edge="1" parent="1" source="WCYd7PEhxb0Bcr4dKSGi-4" target="WCYd7PEhxb0Bcr4dKSGi-24">
          <mxGeometry relative="1" as="geometry" />
        </mxCell>
        <mxCell id="WCYd7PEhxb0Bcr4dKSGi-4" value="" style="rounded=0;whiteSpace=wrap;html=1;" vertex="1" parent="1">
          <mxGeometry x="160" y="21.5" width="760" height="190" as="geometry" />
        </mxCell>
        <mxCell id="WCYd7PEhxb0Bcr4dKSGi-7" value="" style="shape=image;verticalLabelPosition=bottom;labelBackgroundColor=#ffffff;verticalAlign=top;aspect=fixed;imageAspect=0;image=data:image/png,iVBORw0KGgoAAAANSUhEUgAAAnwAAAFlCAYAAABx3DWYAAAgAElEQVR4nOzdZ1TU19YG8GNNMzG9V01iYhdEQDpDrIldqVMRRCxo7L2X2Gusscfejb333rtgAQWkd5j+vB9G75voIKjgMPD81povyc3M+c/ctXjWOWfvLUBERERExZqw9AKIiIiIqHAx8BEREREVcwx8RERERMUcAx8RERFRMcfAR0RERFTMMfARERERFXMMfERERETFHAMfERERUTHHwEdERERUzDHwERERERVzDHxERERExRwDHxEREVExx8BHREREVMwx8BEREREVcwx8RERERMUcAx8RERFRMcfAR0RERFTMMfAREVGh0RsMyFJrkJCSioSkZCQkJSEhMQkJSclITE5FUloGstVaGIxGSy+VqFhj4CMiogL3IC4B+09exOzV29F78hL49p4O3+AJ8JX+AV+/MfCV/QHfLpPhN2gW+k3/G3+u/Afrdh/B8QvXcC86Dlk5aks/AlGxwsBHREQFQqPVIephAlbsOoKhk5fDp+dE2Mn64pNGIRB2UogqPhDftIX4sg3Et+0gavpBOCnw2a8dYePfCw07jYBi4HT0HbcEE/7ajDU7j+H89QjEJiRDo9WBm4BEL46Bj4iIXlq2WoNr4VGYsuQfVGrVBeWr+UDU9oVwlkF4KCEkKtPLK/D/X4//mbsCwkUO4SiFsPGF+KkdRDVv/NyiG7qMnoN5q3Zi75lrCI+KRUpaOjRaraUfl8jqMPAREdFLMRqNuBJ+F10Gz4H4rrUp5Hk+Ee6e9yVRQbjIIOr4QHzZAsJZCemgqdiw8xBu34+FXm/gvT+i58DAR0REL+V2VDQ6/j4TH9qoIJzlT+/kvUzoc1dCuCgg3JV4zysI33qFon7bfhg0bTEOn7mI5LR0Sz8+kVVg4CMiohdiMBqRrdaga/fZ+Lp+R4h60oILe+bCn5sCor4Mrzsr8H2rrvglYDB8+8/E9HW7EREZDYPBYOmvhKjIYuAjIqIXkpmVjWPnrqCKYyeI2v6FF/aefHmqIFzlELV8IRzlqOXfH7+PXYgZm/bjws27SMvMAg97if6LgY+IiJ6b0WjEnQcP0WXMLHz0SzCEqyLvkOamMB3PuihM/3t3pemfv0xQ9FRB2PlD1PBB+cYh6DZuAf45eAoR92ORnplt6a+JqMhg4CMiouem1uqw79x1CI/2/1+Fm0soK+WpQmkXOcrV8UO5at4o97M3ylX3QVn7AJR2kaGUh+JR8HvZI185RNW2+ErSHiHDZ+Lg6UtQa3UwGLjfR8TAR0REzy0lLQNrdh6D+NnbtFtnLqxJVBDOMlR0UaJRp2EYN28lFq/Zjr/X7cTc5ZvRZ9ICNO08HJ8262y6/1fDG6K+FMJT+RKhT4lyHiq8794elRp1hV33cdhz6iJS0zMt/ZURWRQDHxERPbeY+CTMXbUD4vvWpiNacwHMSYaqbXqg35QlOHjmMu5EReNhfCLiE5IQHRuPaxH3cOjMZSzbcQRjF25C15Fz0ajDYFRwUEDU9Te1d3mR416JytTXr74MZX8Jgrv3IAyevAz7T11EWkaWpb86Iotg4CMioucWGf0QkxdtgPihlfn7exIVhJMMbXpPxtXwe898L7VGi7ikFFy8EYH1Ow6i24gF+C10DL5v1AWimo9p189D+fxHvo+bOlf3QaWmneHdcyJmLt6KizduI1ut4eQOKlEY+IiI6Lndi36ISQvXQ/zY2nzgc1fg3Sah6DtnzXO/d0p6Jo6ev4pBIxehnls3fN+kM8p7BpqKPtxf8LjXVQ5Rxw9funZA97Hz8M/u07h1JxqpGZnQ6fWF8A0RFS0MfERE9Nyi4xIxe8VW05GuucDnJIVnyBCs3HHwhT/DCOBhUgr+Wr8Dldr1xGv1pChjH/ByBR6uCohaPhAftUJQr2nYeeQMYuKToNXqoNPrYTAYYOTWHxVDDHxERPTcklLTsOKfgxA/tDV/h89Vjp+8f8eUFf+81Ofo9Hokp2Xg/K17WLBuJ5qGjISo7QfhEPBi49seT+9wkuM9t/b41r0jXFr1xeDJ87Hin704dy0ccUmpyNHqCuibIioaGPiIiOi5ZWbnYOuR86bqWjczbVk8VajgqEDX4fORWgCFElqdHrHxSdhz7CKGz1qDJiFDUeEHPwibFw1+j3b7HKR4w1mJH1p2gb1fHzQMGoF2/aaj24y/sXDDLpy5eA137scgJSMLeu78kRVj4CMiouem1etx6tpt/OjdA69LAp8OXZJACBs/NA4agQOnLhXY52q0OtyPTcDGXYfRoct02LTuhXclgRD1ZS92xPsonAo3BYRjAISdP8q4KPBhs85wUg2Aqv9U9BgyH8PGr8LUxduxaNcxHL94HbfuPUBCcipy1BrodHpO9qAij4GPiIheSFRsPLqNmY2PG3QwBSYz9+UqNeuC3mP/Qo5aU6B34wxGI+5EP8TM5ZvRrOMIfOnRAcJWajqufZnJHY/Dq7vC1BbGxg/im9YQX7ZB+doyfOXbC4rB0zBs5gosWLkLW3aewp4z13Dj7n3ExCciNT0TGh4HUxHEwEdERC8kPSMT+46exg9enSAcpObvy9XxQ02PMNy4Ewm1RlPgazAagUs376DviL/wRoVWKGsnRamXDX253f3zVJqqfev5QVRtC/Fhc4gPW+KNBiGQ9ZuAKYvXY+fRs7gdFYsctQZanY5FIFRkMPAREdEL0en1iEtKRU3bzhDV/MyHLBc5PmkQgs6jZ+H+w8RCWUeORov7MQnYtf8smoaNwQe2cojq3qZduoIMff8Lfo8KP5wVEE4KlPJQoaJXe3wiCcbXnh1h07wHFP3GY8H6HTh7LRzJ6RmF8txEz4OBj4iIXojRaCqm6DlkPr5r1Nk03cLM/bjXXJX4zq49tuw+jpS09EJZi8FgQEZWNo5cuI5pCzejbfdx+LJJKER1H9P9Po8X7N/3PJW/j6Z7lHeW45MmHWDj2xsNWg9GcM+ZmLV6Oy7fiHjU989QKN8B0bMw8BER0UvZf/IifpEPM7VLMReIXBQo9aM32vaajEPnr0NvKNzAE5eYjF3Hz2PEnDXw7ToRTvJ++MC9PYStv+no2V1hCmkFfez7ZACsL4Wo4oOK9krYSvuiw8AZGDJrLbYdOoO7D2KRlaMu1O+B6N8Y+IiI6KWkZWSi+4B5+MBOaf4YVRJouv9WX47RCzciLjGl0NdkMBqRnpWNq+F3sWTddvh3nQi7Zr3xU5MwfNKkI8q4KSGcZKbdPye5aXfOVWEqPnk80cND+ajJ80sGQ08lhKPUdMxsG4CmnUdi3Py12H7oLCKiYpCZnVPoIZiIgY+IiF7a1gMn0TxsNEQ9/9yDT10/tOwyGtv2n4DhFQeczGw1rt+Jwopt+xE8bDo+9+qICjUD8FYVX7z5sy/erOWHN2wD8LqdFK/bS/FafRnKuchR1l2BUo+D38tM+Ph3+LP3h6jWDl+5BaPL6Nk4fv4aEpPToNXpWOBBhYaBj4iIXlpcUiqGz14LUcfPFGrMhR0PFSpUDUD7zlMRHhn9StdnMBqh0eqQlpmF2IRkhEfF4uTlcOw6ch7rdx7Fko17MXvVNkxcvAHDZi1H93Hz4NtnPFwUffGBiwrip3YQP7U1Tfh42SrgR0Uf5dyVeM+9Pb75QQqf0LFYuf3QK9n9pJKJgY+IiF6aTq/HvpOX0KbbONOsWvdcQp+dFF81CUOXaX9Do7XsjpZGq0N6VjaSU9MRl5iC6LhE3IuOQ3hkNK5GROL0lVvYe+Iilm05hEkLNqHX2AVo3n0M3mwYAlHNF6KGD4SL7MXDn0RlOkau6YuPvIJh17YPOvSZifU7DyE6LpH9/KhAMfAREVGBiEtKwaLN+yDsZaZ7cOaCkKcp5FT164sDpy4iIyvH0st+Jr3BiGy1BvFJKbgafg/bDp3CgPnrEdR3FpoHj0IN7x4QjjII+wDTPcAXGfPmFWi6+2gXgA9dAtEoZBh6jV+CbQdOIfphAu/3UYFg4CMiogJhMBpx+V406nUbgzfd25t2r8yFG1c5PvQIgqL7BNyIiIJWZ107WXq9ATHxSTh8+iLGzV8LF+Vw1GnZE1837YQKnoEQzvIXbwPjrjAdG9f0RbNOIzH9739w4lI4UtMzYOD9PnoJDHxERFRgstUaXL51B7UadkfZerLcd7zqyVCuYgssXLULsQlJll72C9MbDEjJyMLB05cweMoCOLTqgbdqBaC8s9w08eNFCz08VRB2/hC1feHgPxA7D51GSlqmaW4vgx+9AAY+IiIqMEajEWqNBvNW/APb1j1MoSWXAo5SDjJ82q4nlu09CY1Ob+mlvzCDwYjsHDUSk1Nx/tptLFy3C9Ke4/DWxy1MI9hc5C92z+9Rccfr9nJ8bxeMkKEzcOjsFaRlZln6kckKMfAREVGBi4yJQ/vhs/GOV1Dux5ueKghHGTqPmYfzV8MtveQCodZoEZuQjDOXb2Lh0p0IGjwTPzXvBlHb19Tz73nv+EkCIVwVKFNPii+ahsLVbyBGTl+F89cjLP2oZGUY+IiIqMAZjEas3X8SDYNHQfzsnfuxZn0pajYKw+SZ65BejHaujEYjMrJzcOLSDUxZvAWy3lPhIO2H8g5yU8Pn573jJwk0FcLY+KHqb93QecRsrN97HHFJKdBa8e4ovToMfEREVCiS0zIwc+4WfF1TZZpmYW53S6KCqNwOv/oPx5FzVy295EKRnaPG9duR+Gv1VjSUj0CVZmGo6BZoqmZ+7h0/FYRDACo6yeGsGoA5q3fh8q17yMjKtvRjUhHHwEdERIXmavg99J+0COWqtUMpt1yqdt0U+Oq3UHQZPatYFyXoDabq3rkrt8CreV+89Y0vyrorXmx8m4fSdERc0xdho+bixIVryFFriu13Ry+PgY+IiAqNWqvD6cu34CXvg7clgeaPMiUqlLWXom6zHjh58Tqyc9SWXnah0ekNSMvIxKXrdzFl0SbUbtcd5ap5m2btPu9un6cKwk2JivYKuAT0x9Tl/yAzR83QR2Yx8BERUaFKTEnHyq0H8K1HKISDzHx4cZHjfUkw2g6ahjsx8cU+tKg1WkTGxGPHkXMYNn0FvvfuZTr2ri99/rt9znK87RGIam17QjlwFi5cv42sYhya6cUw8BERUaHS6fR4mJgMVa+p+PyXEFObEjO7fGXclfjALQhbDpxCanqmpZf9Suj0etyOisHUtbvgN3A6ajTvDlHF29S0+nmOeT2UEE4yvO0SCFXYNGzdcxLxicmWfjwqQhj4iIio0BmNRuw+chqeQcNMo8jMhRlXBcrU8EHH4bNx9trtEjVZQqPV4cL1CIydugL2rt3xcYMOKOemzH0mcW4FHS4KiK/boE3H0Vi+eR/uRcdxNBsBYOAjIqJXRKPTI2TiUrzh1cH82LXHd/xsAvDn6j3IytEU6nrUajUyMzORlZWFnJwcaLVa6PWWLRrJzM7B2au3IOs/Ed96haC846Mxbc8zrUOigqjpjeq/dcHw2StwPz4ZOr0eJSg/kxkMfERE9EoYAZy4fBOKnlMhKrXJPazU8kHYqDm4dL3wmjEbDAZs3LgRo0aNwvjx47Fy5UocO3YMkZGRyMjIgF5vmd52RqMRaq0WD5NS8PfmvZD4DoT4sR2Em/z5Qp+HEuXdlHivQQc4hI7CtTv3kaMp3ABNRRsDHxERvTLpmVlYuHY3qjcLy33kmJMMlVp0w9hFm5Cj0RbKOoxGI8aMGQNHR0dUqVIFNjY2cHFxQcOGDaFSqTBjxgxcvXoVGguFJCOAuMRk7Dx4FmGjF+Cr3zqhjK0fhKuZ+4/PrOJV4E1JECSK4dh64DRS0jIs8jxkeQx8RET0Sl26dRc9xy+EqO5tmh5htrmwFN59puBqxL1CW8eqVasgkUgghPjP691334WtrS1CQkKwbt06xMTEWOyYNytHjfM372Lc4o34reNIfOjUHqLec7RwkZhCn7D1RzPZKCxZuQdRMXEWeRayLAY+IiJ6pTKzc7Dz8DlUcgpCeTel+fDiIEVd/76YtXor9AYDCiNuxcTEYPDgwXj33XefCn1CCJQvXx4SiQQrV67Ew4cPC2EF+ZeVo8aOw6chDZ2Ir37pDOGher6CDk8VxDdt4daiH2Yv24qomDgYDLzUV5Iw8BER0Sv34GEChk9fgk88g823afFU4i2vQDTpNhbJaRmFVmm6efNmeHp6mg18j18NGjTA+vXrodPpCmUNzyMqJg7dZ6/Ee8274jUnOUq5K/PfvkWigqjqg6quoZjw1xokpqRBr2cFb0nBwEdERK9cjkaDaxGR+LFGKER1f7OhpZSDFDV+647th04V2qzY6OhoTJ069ZmB74033kBISAhu3bpVKGt4Hjq9HjFJqVi39xiahwzBa1XamUas5buYQ4Vy9eX41j0Yw6Yvwb0Hlt25pFeHgY+IiF45g9GIzOwcDPtjKao0DYNwMhNa3BR42y0QLn6DcOd+4dw702g0OH36NHx8fFChQoVcQ5+NjQ2mTZtWKGt4XnqDAYkpaTh8+hK6j5yLrzxDIOyf416fhxLlnOWo3CgUoaPn4OjF68V+sgkx8BERkYUYjUacvnwDjTqPMe1SPbnL92hs2OvV/bD14BmkZWYVyjqSkpKwfv16fPbZZ7kGvooVKyIgIAAajabIhCONVovz1yIwdOoK1GrTG8JBan5WcW53+hwC8GXjjug6dh6OnrsKrc4yrWjo1WDgIyIii8nMzkGfGSvw+W9dzN/lc1WgXC1f/D5hIS5HRBZK8YZer0dMTAx+/fVXvPfee7mGPg8PDyQnJ8NQxCZXRMclYPxfm1CjbR9TIYfbc4xlqy/Ft007InTEnzh16SbUGm2RCbRUsBj4iIjIoo6dvQxZ38kQNn5mCw1KuSvxdbPOWLX7ODSFtAul1Wqxf/9+uLm5oUyZMmYDn6urKyIjI4tE8caTMrKysXT3cXzcpgfedFGg9POEPmcZPvVqD79ef+DK7fvIUmsKJViTZTHwERGRRSWnZWDEnHUQNv4QnmaOJD1VKFulHYZNWY57D2ILZQ1GoxFqtRo9evTA559/bjbwubm5ISYmxmJTOJ7FaDQiPVuNszfvQjVwMj51M7W2yW/1bhl3JSq4q1DZvw8OXLwJbRF8Rno5DHxERGRRer0B24+cRaNOIyEcA54uPpAEQtT1x69dRmHLgROFuvt0/Phx+Pv7PxX2ypYti6ZNm0KtVhfZI08jgByNFpdu3UX/yYtQtXFXiFpmdk1zudNXyk2BMi5y+A+cgn2nLkGrLXo7mfTiGPiIiMjiImPiMGnBBogvmpm/y+euwJeSEAydsgKpGYVTvAEAmZmZWLBgAerUqfOfwFe5cmUMHDiw0D63oF28EYFR05bD7tceEFW8TY2a89Onz1WOzxp1QIcRs3Dg9KVC639Irx4DHxERWZxGq8OhY5dQqWoAyjubuX8mUUFU90Xrjn/g7NXC7Yd348YNDBs2DBUrVkTp0qUhhEDz5s2xf//+Qv3cghYR+QBTZq1FTftQlKkthXDNZwWvkwxfNemIoGEzcfLyTWh1et7pKwYY+IiIqEiIionHgCmL8JFXMISrmRm7zjLY+PTE9AXrYCjkY9UzZ87Ay8sLH374Id5//30MGjQImZmZhfqZheFhYjL+XrcXX30jQzlbWf7btjjL8YFnIFp1G4V7MfHQ8HjX6jHwERFRkZCemY1DZy7jO9eOpkbCZo4cy1WXwrPhQKRmZRfqLNjs7GzcuHEDAwYMwIIFC3Djxo0ie3fvWQwGA5JS0rD2nwOoVr8zRHW//FXvSlQo7arAx57t0XHwZNy4E1Xk2tHQ82HgIyKiIkGnNyA+KRUtQobjfa/25it2bQNQs2F3HD57GVk56kJbi9FohEajQUREBGJjY5GTk1Non1XY9AYDEpNTsWD5Tjj/1g/iR5/8hT5PFcq6KfGFJAh9JyzAheu3Lf0o9BIY+IiIqMjQ6vQYN28VqrbpDuFsZtyaixxfNOqIPpMWIC4pxdLLtSoxcYmYs3Ar3JoPMIW+/BRyeKog6kvx06+dMXDKUpxn6LNaDHxERFRkGAwGHDh1EZ7KoRD1AswGkDc8VajVvCsu3rgDbRFsglyUxcQl4q8lO1C7fhjK1vI3f1fS3MvOHz83C8OQaX/jfmy8VR5vl3QMfEREVGQYjcDDpFT4dJ+MsnZS80ePznK8Uc0XK/45iITkVEsv2erEJSZj+Ya9+PobP5SzCTCNY8tP6Kvjh5pNwjBj6SakZ2TxTp+VYeAjIqIixWAwYtjc1fiuVZhpLuxTPfmUKO8gRdiY2bh8646ll2t1HhdyrNq8H1VtO0L85Ju/O30eKpS1l+Enj07YuOsIklPTLf0o9BwY+IiIqMg5cOoifHpMhKjla7aCtJSbAl+7dcDqf45Ao9FaerlWR683ICE5FQuW7YBzkz4QP/jkb5fPXYnXHRSobReKTduOITmNoc9aMPAREVGRExufiAETlkFU9Ta/++Spgvi5LYbPWInImDhLL9dqRcclYPrsjXBo2ss0hi0/O32uCojKbdFEORKb95xCtlpj6cegfGDgIyKiIket0WHe6j34+pdQU8AwN3nD1g+Nu47FxoOnLb1cq3YnMhoTZ6/F9y4hKO0oy3/1bk0/yAfMxInLtwq1JyIVDAY+IiIqkk5fvoEOw2ZA2PianxDhoYRwDUTY1BXQ6vSWXq5Vu3X3PoZOX4oPbeUo4yzP306fmwIfNQ5B5/ELkJCcxsrdIo6Bj4iIiqTE5FQsXr0H4oMWEM65tA/5vh2koRMRERlt6eVaNb3egHvRcQgbPRufewZB1Dcz6eSpu5SBKF1fihptfseEReug0zN0F2UMfEREVCRptDocPXsNtX8Lw+seKtMx4pOho14A6gf0x5INuyy9XKun0epw694DyAZMwacNO5hvfG1ml/UtJwXqN++FgyfOIz0jy9KPQblg4CMioiLJCODOg4foNeEvfOgZZL5JsIcSHzfoAHmfKUhMSYOeveFe2p4TFx6FvmDzbXHM9EV8x16BloEjceL8DRZxFFEMfEREVGSlZmRi19Gz+NY9BMIhl2NGRylqteqJgycvICvbemfeFhU6vR6b9x9Hs25jIJzyeZ/PVQHxQ1sMmr4cV29HwcD7fEUOAx8RERVZBoMRSWmZqPdrL5R3kJs/1nWV48vGHdF33DzExiexeKAApGVk4a8tB/Hxr11QKj+VuxIVhKsc3zXrhFmrdyCNR7tFDgMfEREVaRqtDpMXrkf1Nr+bv1cmUaG0swIf1lPhxMWbULMR80szGo14mJiCJev24vW3f4WwMzPX2EwRR5m6fmgdNgY7DrNVTlHDwEdEREWawWDEhRu30ch7GESVXMaAuSrwum0AJi/egMhoNmIuCFqdHnejYjFw9EJ86RiUv9DnpsBHNnJ07DoVUbHx3G0tQhj4iIioyMvIysaQMUtR2Ss01+KNMk4y1G/cA7v2nYWejYALhFqjxdWIe1D2mIQvfgnJXxFHHT/80DgMA+avQ7Zaw9BXRDDwERGRVdh16BRahY2BqOufa4sQ8UlzjJ+5DnFJKZZebrHyz/7j+KXTCNORel5FHJ4qCHclvvfpg3PXwpGVo7b08gkMfEREZCWiYuMxYOIyvF7L33zxhkQFUdcPbXqMx86jZznuqwBl5qjRf+5avNe4E4RjPvrzucjxkXt79Bs3H3eiYmBguxyLY+AjIiKrYDAYsX73MThI+0C45NIuxF2J8i5KdJu4BKkZmZZecrFhNBoRHhWDASOXQrzT3HzgNlNI88Z33liz9QhS0jMs/QglHgMfERFZjZt372PotL8hKrcxf59MEghhH4CmnUdj7/Fzll5usaLWaHHoxCVIu4xDWRu/vO/zeSghbP3RutsYHDh10dLLL/EY+IiIyGpkZmVjw75TEHVlEO5K87t8LnJ83aQzuo6aj7TMbB7tFqDElDSs330U3zXuhPK5jbv7d/h2V+JTNxVG/bkKkTGsnrYkBj4iIrIql+48gGuP8XjTWQXhkssun6MMtdv0xqFTF1k0UIAMRiOiHiYibMICfNawI4SzPB9Vu75wVwzG0i0HoNPrLf0IJRYDHxERWZX0zCwcPHkBPzqFoEw9qSngmekH91nDEHQaMAX3HjyEXs+igYKi0epwOzIGnr6D8bqjHMJTmXfVbj1/tO05GTEJyWzTYiEMfEREZFWMRiPSs3LQqud4vN+og+lo18wuX2l7Gd792gfLN+5DPNu0FCiDwYA5q7bCzr8PhGM+GjLXl8LWtzfmr9nGil0LYeAjIiKro9XpsW73UTi07gtRO5e+fO5KlLGXoWrz37Fy+xGkZ3K+a0F68DABip7TIar55F2166FEBUclvFoOwP3YeGh1Oksvv8Rh4CMiIqtjNBoRm5CEzoNn4VPPYFNFaG7HiQ5SeHYcheU7jiKHc3YLjMFoxKotR+AZMASipq/5o/V/vxxk+NwlGFOWbUJsQrKll1/iMPAREZHVWrPzEBqohkLU9Ht2exBHGZr3nIhD566CV8gKzsOEZMxYtAVfOwWiVG5V0//6Hd50V8Gu6e84euYa1BqNpZdfojDwERGR1YpNSMbQUcvx9je+zz5WdJXj40YdoBw8HYkp6dDzHlmBOXv5JlT9J6KsQ4D5+5T/ucsnh6jQDFPnb0RUTLyll16iMPAREZHVMhqN2H30LFp0HgFRL5eRa49epRyk+KlxZ8xduQWp6ZzCUVCS0zKwbucxvFbFB8IpjzYtniqI+jI4yvthy8FT4Gbrq8PAR0REVi0uMQVz1+2GqOsP4a7I/VjRXYk3HBSoWa8TDhy7yCKOAqLT6xERGY2g/pPxcYMOeU/g8FTh7bpSDJq8DHcfxFp6+SUGAx8REVk1nV6PKxFRCBo6C+/WUkDYy3IPG05yvF7NH73H/YXrt6MsvfRiIyMrG3uOnUU19zCIOvlo02LnDzfVYCzdso/H668IAx8REVm9rOwcnLtyC41aDsK79srcJ9LXofsAACAASURBVEB4qlDGTYmajbtgy56TUGvZHqQg6A0GpGVmQxY0CR87BeVrzu57noEIHjoTUbG8y/cqMPAREVGxoNXpsGLbfnj6DcBb9vLc7/O5qyA+bonJczYjPjnV0ssuVrbsPwFJ0DAI+/zt8tVr0wdL1u7hvONXgIGPiIiKDZ1ej7837YFH0GAIJ2nuhQM/tMbAycsQHhlt6SUXK5lZ2Qj5YyGEsyJfI9fK1AiArWN3ZKu1HLlWyBj4iIioWDl7LRyq/tMhanrnHviqtkOfCYtxjff4CpTBYMTmA6fwW9cxEHX98m7GbC/Fd24dsXnfcaSkZ1h6+cUaAx8RERUr4VEx6DJ8PsTP7XIPfFXaYMCkpbh174Gll1vsxMQlYuSctRB18uiN6BUI4aZABY/28Aobg4sRUSzgKEQMfEREVKzcioxG52Hznh34KrXGqJlrWDBQCPQGI7YdPod6/v1R2l6a+9g7r0BTCx13JYS9FCt3HEFSarqll19sMfAREVGxcunWXQQPnAlRLZfA56GCqNwW05dsQ1IajxELQ2xCEv5atwvlqvtCuORRseuuhKjRDp1GzsaZq+Ew8C5foWDgIyKiYuXoucvw7z0RwsbX/I6ShxKirhRLtx6BVse2LIVBrzfg9M17eK1xR1PAftbRrsQU+spK2mPKml3IVnPGbmFg4CMiomJl/e7DaBg6HMLBTGsQTyXKuynQqssInLhwjZWhhcQIIC4pFX8sWo+vvTpCOD6jGfbjIG7rh04j5+DSjQhLL79YYuAjIqJiZcDcNfiyZTcINzPNl90UeKOeFCNmLkVEJAs2CpNao8X125GoLR8E4abMfeTd/6agyPCzpCvGT14HjU5v6eUXOwx8RERUbOj0evj0mA5hJzUfMFzkeKuuDCu2HWTT5UJmNBqh1uoQOnUpvmgRlvv0k3/v8v3og5bysbh5l2G8oDHwERFRsWA0GpGUloFW3sMgKrUyGyjKuivxhVcoTl+JQI5Ga+kllwgnz19Fs9AxEHX9856+4RiA2t69MHPlVrZoKWAMfEREVCzoDQacvXoLvwQMgahtpmDDXYkPG4fAt/c4xCQkW3q5JUaOWosOYxZA1Jfla/pGKXcF6igHITUzm6GvADHwERFRsaDV6bBgw07Y+PQ2hYsnw0R9GX5u3g1LN+xEWkaWpZdbYhiMRvxz6DSahY2FsPXLe5fPSYZKTbpg456jnL5RgBj4iIjI6hkBZOVo8Pv4+fi2RRcINzO932z8UffXnjh39RbUPM59pWLikzBi9lqImj75m77h2R6e3cbgyp37MBhYSV0QGPiIiMjq6fUGxCWmokH7oXhH0v7po0OJCqKeDM5+Q5CQks6jwldMbzBg077TqN2mF0rVl+bRl09lquq1l2H93hNITc+09PKLBQY+IiKyetk5aly8fhvfeYRCOEjNTNdQ4s1GIWg19E9LL7XEunM/FuP+WosydfzM78A+scsnfmqL7qPn4+KNO5ZeerHAwEdERFYvKTUdG3YdxpfOQRCOZgKfswz15P0xZ812Sy+1xFJrtDh0/jrKuahMge5ZffkkpibZpar54c+/d3PcWgFg4CMiIqsXFROHETOX4iPPIAhXM7tHtn74LXQU9p08b+mlllhGoxGRMfHoNnYOPm0YYv53evJV1Ru9xy7C7choSy/f6jHwERGRVTMajbgYHokmYaNQwau9aVbuk8GhUlvIQychgsHBojKysrH/5AVUbdLN/NH7ky/7ADipBmHRln3Qs3jjpTDwERGRVdPq9Nh/5ho+bxiKsp4q80eFn7dGp7BZLACwML3egOS0DHh3GYcPJEHmw/l/+vIpUdEjEB1HzEFsQpKll2/VGPiIiMiqZWbnYN3OExCV25k/JvRUoexPfug1dDG0nNFaJCxavxMOvn0h6uVjl6+OHzykg7D94ElLL9uqMfAREZFVe5iYgjl/b4f4qBmEi5nA567AR827YOSSzdDp2Y6lKIiKiYe/bDzE523yDnzuSnzetCM6DJsB1m68OAY+IiKyanfvx2Dc3DUQVdqa+rc9We3pLIN78GCs2nGIgaGI0Gh1mLF4C2q17gHhYmYqyhN9+co5yGDb5HecvRqOrGy1pZdvlRj4iIjIql0Pv4OBkxaa5uc+eSdMEgjhEIA2Pf7AriNnLL1U+pfTl28ieOBMiJ/a5b3L5yzHh+5BUI6YhXsxCZZeulVi4CMiIqt28MwlePceD2Ef8PQEB4kKoq4fFAOn4si5K5ZeKv1LSloG5izbhs8cVKagLnn2Ll9ZVyU+tFXiwMkryFFrLL18q8PAR0REVm3J9sOo1K6H+Wa+EhVELW90HjUHZ6+FW3qp9C9GI3Do7BW06j4GpewD8q7YdZRDvNMMUxdsQlRMvKWXb3UY+IiIyKpNXLETwllpfpdIooKo6Y1eExbh2u1ISy+VnhATn4T5q3eidKXWEM7yPFq0qCCcpGgYOhR7T1yw9NKtDgMfERFZLb3BgPGLtkLYSJ8+zn0cEmr4YNC0FYiIirH0cukJWp0Oxy7dQpn8jlvzUOKd6v6YNGcDklLSLL18q8LAR0REViszR4ORM9dDVPUxHxY8VRA/t8Po2Wtx/yEv+xdF9+OT0HniQnwi6QDhlEfFrlcgRE0f+PeahIOnL1l66VaFgY+IiKxWYlomBk1YAVG5be6B74e2mPTXRsQnpVh6uWRGdo4aZ67eQrXWPSGc5M/e5fMKhHCRo0rTrhg7cw0ys3MsvXyrwcBHRERWKzYpBf1GL4H4pnXu974qt8GMRf8gJS3d0sslM4xGI9RaHVoMmIZ3GoWYjnbz6MsnfvZBS9UYXLl119LLtxoMfEREZLXuxyWi1/CFEF+3yj3w/dAGfy7dxjm6RdzuQyfxi2oIRF3/fPTlk6GOb0/8uWyDpZdtNRj4iIjIat2NfojuI/6C+CGXEV2eKoiaPpi1cifSMrIsvVx6hui4RPgPnAnhKMv7WNdThTfqyODZoC8SUzM4Mi8fGPiIiMhqhUdFo+uI+RBVc5nW4KGCsA3ArDW7kZ6ZXeCfn5GVjRt3oqDV6Qr8vUsajVaHuWt3oZ68P0R9ad67fHZSVHILxertB5CSlmHp5Rd5DHxERGS1bt69j87D50FU986ljYcKwk6K2Wv3ID2rYAOfTq/H+UsR6D1oPsLvRkOt0Rbo+5dEl2/dQdcRcyGqeue9y+euQEWvIPwWNhrX7tyHnrt8z8TAR0REVuvGnSh0Hj4XooZP7oGvnhSz1+0t8MAXl5SCP//6BxU/bYu/Vu9AbEJSgb5/SZSZrcbcpTvwQU0ZhHtefflUEO5KlHKQYcP+U7yjmQcGPiIislrXb0eh07A8Ap+9DLPXF2zgMxqN2H30LFp1GoXXavjg107DcPLyzQJ7/5Ls2IXr8OkzAaXs/fMet+amRKmaPug3eTGuRXCSyrMw8BERkdW6djsSnYbNeXbgqxtQ4Ee6tyOj0bP/PFT8wR+lnOV4p5o/Fq7eg5R03iV7WYkpaVixYT9KV/gNwj6PRswSFYSrHB/XD8KS9Qeg0+stvfwii4GPiIis1o0799F52Fzzd/i8TKO4RC1fzFq1C2mZL1+lazQCao0OQ2etxY9Nu0PUCTCFypo+6DxiDs5euVUAT1Wy6fR6XL5+Fw3a9Mc77oEQ7nns8klM4/N6jVuEW/fuW3r5RRYDHxERWa3wyMdVus8IfD9748+/tyMt4+XveGl1Opy6eB2uqmH/3z5EYpr+UKtdT8xdvRM5LN54aQkpaZi7Zhu+bdAJon4+xq3ZB8BBPhB/bdwHg9Fo6eUXSQx8RERkte48eIjuIxZAVGmbe+D7vi3+XLIVqS953Ko3GBCXmILeo+bi2yadIFzk/91lquOHDkPm4O6D2AJ6upJLo9XizoNYePgMxJtOClM/xTz68gl7GeSDZiEplRNVzGHgIyIiqxUZE48ewxdAVHr2aLXpC7cg+SWDQFpmFvaduIDPaigh7AKeriC1D0CD4CHYsPNgAT0djZ+3EtXbdv9vuM7tZeuHhqqh2HfsjKWXXSQx8BERkdWKTkhCn5GLIL55xmi1Ku0wft6Gl26bcuvuA4SNmY13XFQQrmbmvXooUcFOAZ/gichSa2Dk0eJLO3ctHM2koyB+9IbwymOXz1WBL5t1RujYudDo9Pz+n8DAR0REVis+JR0Dx/0N8V1r8z3bPFUQ1b0xYtYaRMbEvfDn5Kg12Lb7FCrXVqCsyzP6w9n6w6F1Pxy/eB0aLe/yvaz0zGwMnrgMX3uFmPry5VG88ZqLAo4+fXHp1h3kqDWWXn6RwsBHRERWKy0rB8OmrYGokstkBokKoqY3Bkz9G+GR0S/8OXcexGLMzNUQnzc3v7v3+OUsx5dNOyNs0iIkpmWAe0wvb8eRM2jZeSxEdd+8j3WdZPjSKwRj5q1EbGKypZdepDDwERGR1VJrdRgzbxNELf9nBr4e4xbgcvjdF/oMg9GIrYfPoEnX0RAO/s8uIPBUobS7Ep//1gWXIiKh0XLG7suKT0rFxJnr8d7PAabvXvLs4o03JYGwbRmGM1fC+f3/CwMfERFZtYlLt0PYySA8zfRrk6ggavug4/BZOP2CkzByNDoMWbARwlWZ9+SHR7t879aVY+GGXYhN4C5TQThw+hJ+6zoSwjEg74pdJzlKf94C81Zx3N2/MfAREZFVm7xpP0r/1vnR7FUzga+uHxQDpuLI2csv9P4RkQ8QOnQORE0z0zxyaQXzupsCzcJG4dTlW2DtwMuLjU/C/JU7ID5rCeGUR8Wuhwql7KXwCB6C3ScuWHrpRQYDHxERWbUtR8/BvctICCfp07s/kkAIhwC0/n0sdh45/ULvv2H3YTQMGQ5RLyB/gU+iQmk3JT6uJsWiVbuRlJpWwE9c8mi0Wpy7Eg4vvwF4R9L+2TutElPofq+uDFMXbkZiCr9/gIGPiIis3IVrt9B9zGwIW7+ng4AkEMJZBqfAAfh764HnmsJgBKDWatFn+t/4ukVXCLc8qkSf2GUSldvCp/dU7Dt3tfAevgRJTEnH4o278a1LEEQ9/7x/g+reUPSbhmPn+f0DDHxERGTlbkc+wJhZKyCqtjM/d9VdgS9+7YQ/Fm2CTm/I9/saDAbEJCShcdh4iPxMezDzue/90hGjF2xii5ACoNPrkZiajibNeuNtO2ne9yld5ajR+ndMXbQJao67Y+AjIiLr9iAuAdOXbIH4uqX5limeKojaAeg+eslzVW1qdTocPXcFLu36Q9Txe76w9/j1RRsEd5mO8HsPCvEbKFmWbd4NB/++EPZ5HLFLVBA/e8On4wTcvR9T4hsxM/AREZFVS8vMwqotRyC+bAXhksux6xet0Ln7n0jPzMr3+2bnqDF3+UbUbPs7hJPsxQKfoww2vr0x7e/NhfgNlCwxCcnwHTkHwjMw710+Jxmqt/0dI2cvx4O4JGh1eksv32IY+IiIyKqptTpsPXIRop7CdKRrrh/fD20h7zIZ4VH5a75sNBqRlJqBRsEjUdErOH/tWMy9PJV4xy0Q7cIm4P7DeOif40iZzNPp9Vh34BQadR4LUds396knj3Z3KzQIwk+tuqNF0FhMX7IJpy7dQEpahqUf45Vj4CMiIqtmMBhx4moEair643VJoPl+fHV80aLTGBw5dyVf76nR6nD9zgN85RwC4SB7drPfvF4OUtRq3RMrt+5DVra6kL+NkuFhYjJmLN2CHxqGQrjI8wx9wkmGUrX9YOPbC4reUzFh3gbsPHYe0fGJJWbXj4GPiIis3t0Hseg1YR4+8AoyX03rGAAn1SAs3rIvX++Xkp6JHYfP4jMbJYS99MXDnlcghLsSHzfoAP/OY3DvwUPoSkjAKGwXrkeg65g5ELb+5ot1zN3pc5ZBVPPGx06BaNJlFKYv2oLtJy4h/P5DZGRlP1cVt7Vh4CMiIqsXn5SCJRt34XP3YPP37dwV+LBZJ6j+mJ+v+bbRcYmY8fcmfOgWaNpBepnA5xUIUVeKD771x+pth5HAvnAFQqfX4+j5W3jLVoHSTvL8H7tLVBAeCoi6/hAfNYdwUiJk/AIcOXcVyemZ0Gp1xTL4MfAREZHVy8rOwemL1/GtfTCEXcDTR3yeKpRxlMMrcCSyNbo8KzYvh9+DT5/xqOAZmL/do3zs8pVzVqCavB8OXrjxir6V4s0IIDk1Axv3nkCl2sEQNXOZp2w29D066nUx3ft810mFKr+GoU2/ydi4+zAexCVCoytec3gZ+IiIyOrpdHrcf5iA+n798Ya7ynzPPFt/OLbqh7sPYvO8t3X4wnV827ILynoo89d/T6Iy3R3MLXBIAlHKXYnXqvvhz+XbEJeU8oq+meJNrzcgOS0DU2atR22v7hDV/fIf+v5z1CtHWVcFPmgcAgffvvit2wRMW/4PLt64jayc4tFDkYGPiIisntFoRHpWDjqMmoUvmnUyf4/PXooazbpjy76jyMzOyfW91FotNh44jbL1AlAqt6rfp3aLlPigcTDeadA+9x1BDxVENW9495yIvaculfi+cAXp3oNYjJ600hT6quVRufus4OemMPX3qy+DjX9fBPWZgWl/bsb56xFIy8iC3mC9VdYMfEREVCxodTos3LALNt69IRzNFFq4mSZudJ8wHw+TUnINXImp6Zi/bk/ukzueCAllPFX4slVXtOs9Hh7Bg1HBq33uu4LuCnzWMASj560tka1BClPEvQf4Y9IqVLHrCFFPagpvLxL8Hoc/JxnEj974rLoS3cbMwfKdR3E5IhJpGVn5ugda1DDwERFRsWAwGHDp5h009BsCUcPn6T/iniqU8wrEd949cOl2VK7HupHRcRg/fz3Ez23zDnzuSrzlqkTYH3NxKTwSy7Ydgp2sD4STNPewUd0bbTqNxaFTF8FNvoIVE5+E+St2ouJ3fijvIENptxcYiffky1UOUbMdRH0ZlMNmYs+J80jOzIJOr7eq4MfAR0RExYZao4W33xiIb9uYDVylnOV4p7YUq7cfQkJyqtn3OHctAl3HzIOo42s6hn1WGHCU4d1qAVi59RDik1MRFRuP8bPWQXzUAsI1l7DopkAFz2D4D56FjGw1j3YLkE6vR1JqOk6dvwWfvpPwqYPpGF245zKBJb+7fR5KCHcl3nFR4YsmndGk7yQcv3gN2TnW01eRgY+IiIqVmQs2w6Z1r1zasyjxmoMMqgGTcf5ahNkdmv0nL6Btz3EQDgF57w7Z+OPDL31x4codaLQ6aLRa7Dl6AXWb90B591wKPiQqiPoy2Pn3x/aDJ5GjKR5FAUWF0WiEWqPF6asRmL1sG9r2mICPG4VAVPWGqC8z35g7v8HPVQHhKkdFr2BIWgzA2D9X4PSlG0jPzLb0Y+eJgY+IiIqVM1duQtFnGkQ1M8e6EhVKuytRWdIBC9ftRuITPfF0egOWbj+EWrI++ZjgoMTbriq4Ne2NmNik/4XHu9EPMXLOKrxbUwrhmMsMXlcFPvHoAFnQeNyPTYCOI9cKRVxiMnYdP48hs1fDt/ME2Pn3xnv2Soiafqbf11P1/FNUJCoIJzlK/+yDai3DIOs3DX+t2Y2bd6KKdFEHAx8RERUryWnpGDdjLT6yeTxb9+m7fKKqN7zDJmD3kQv/+SOdrdZgzIJNeMslMO9Gvi5yVGreFcNnLUdKeua/3kON81ciUMchFG/Yy3PfJbSV4qPKcmzeewLJLOAoNAaDEWmZWbhwLQJzVmyGv+oP1G3QE9/81sV0ZO8kN+3cvchdPxc5hI0farfuicHTl2HnycuIS04tktNUGPiIiKjY2X/8HNp2GwXhIDX/h9xTBfGzNzoPmofkf4W1tPQMDBy6BOKT1nlXeNr5w7ZVT+w8egbZ6v8ey2ZkZWP4n8tQuXkX0zgvc/+9uxJvuSkh6zUOF65FwGDgXb5XITk9E8cuXMPg2SvwfvOuqGinwFsOMpRzVZhC/vPu+klUpp3cOn540yMIf/9zEA9iE6DV6opUUQcDHxERFTuRMXGYOH8DRKXWEG657NQ5SOEo648F63b+77+7de8+QgfOgqjSNu8/8rYBcPcbgqiYeOj0/93R0en1iIiKgWfHUabAZ/YuXyBKuSrx9k9+mLVsGx4mJr/qr6lEMhiMyFFrkJSWgYiYeOw8chYjZi2Hk29fiCrtIGp7m3b8nqeli6cKwl2J0q5KfPKdH4K7T8be4+eg1mot/bj/w8BHRETFTo5ag30nLqF2y+54zSOXyRseSrzrEohWQaNx804UtFodjp69DN+eE00Vus/6A++uwDdNQ9Fr9DyoNdqnKm2NRiPUWi0Wb9kPV+9BED+auU/4OCjY+kMSMgIbD5yy0LdVchkBpGVk4nZUDPYcvYBpi/9ByNCZeN+rA4SNn6kJ8/MUeXiqIOr44wuvEDToMByj56/B7ahoaIvAmDYGPiIiKpaiYhMweu5qfGSjhLDP5VjVQYYvJKHoNnExYhJS8PfW/fDsMNR84+Z/vxylcFUOwLKNu565huiHCZgwYw2qeXWGqJ9Lbz4PJd51U6HXhMW4+yD2FX079CStTo+E5FScunQDo/7aCGX/Gajt19d0D9Q+4NF90Hzu+rnI8YabAj+36o6uA+dg2/6TiEvMvdn3q8DAR0RExZJao8H18EjYu3XHG/VyKZ541GrjHc9gbDtyFr2nL8WPPj3Mj2b7T8GFH7x/n4iTF6/nuY4L18LRa/xfeMdZgdIeuYQGWz/U9+mH+St2FMkL/yWNVm/ArbtRmLxqG9y6/oGazbvj/QbBpnt+ror83fHzVEE4SFHuR2+0CB2JORv24Mq9aOSoLdOGh4GPiIiKrRy1BkNnrcAPLcPM9+V7VDzxurMcQYOnwLHDYFT8NfTZFZsSFcrUDUDYmIWISzLfvPnfdHoDDp+/DvfgwXjNVWF+eodEBVHVFw3bDsXDhGQYinB7j5JEZzAgJjEZ63YeRItuo/CNezBet5OaGjnnt6rXUwVh44vyXsFQjl+IK+GRZq8BFDYGPiIiKrYMBiOiYuPxa/Bo050sc7trkkCU8lThbUkgXpMEonRef8DdFPiuVRimr9qer75rRgBpmVnYd/IyPnIPNrUBMRcW6stQtUU3zFi6AZnZOYX/5VC+6A0GZGbnIPJhArYcOAXv7hMhfm4HUcs7//N6PVUo5a7E286B8PAfjM37j7/y35iBj4iIijWdTo8V/xyCRD4UopZv7sdx+WnJ4amCqO6N9oNn4EQ+jnMfMxgMSErNwPz1e1HdvQtEdZ+ng4KHEhVcVaj/W0+cOH8dmVkMfUWJwWBEcloGzl65jflr9kA1aDre9Qgy3e/Lq0n34//vuCjwtksg6rfpg+EzV+BKROQra7rNwEdERMVeTHwSpi7chGpNu+bemy8/L3clRFUfTF+6NddZvLkxGIxITE3HqHHLUaNBGETdgKff31mOt+vK8fsf83H9ThQMnLNbJKVnZuHo+asYOnsNWnT7A5WadjH9nnnt+EkCIVwVKFPXHz+1DEP7cQuw+fgFpGVk5v2hL4mBj4iISoRLN+9gwJTF+NhFiTIvMlnBVYGyNlLUbN0bO49dfOGdmfDIaAyZuAyV3DtC1HsifEpUKOuhxDeNgrFsy/6nRr9R0WE0AplZOdh/8gL6jF2Ieq364rPGISjrIM+7j58kEMJJilKSQDTqOQEbdh1HfFJKoY5mY+AjIqISwQjgSvg9+PUYjY9cVSjjLDeN1srtD7PkUTGFxNRUt0ydAHz+pR9WbdyL+KSUl1rLzduRGDp+CSp854NSLk9UfXqqIGr7wO/38dh//DwLOKxAWkYmDp25hKDBU/BVDSXK15WZrgjkdczrroSw8UPVRmH4e9NexCWmPNXEu6Aw8BERUYmh1mpx+34suo2ejW/qt4eo6m2ahPH4j/Pjl4cSwlVu+nd2/hCV26KybRBGz1heIFW0Wp0OV2/excBxC/B2VT/TaK4n7vO99Y03+g1aiFhO4CjyDAYj1Bot4hJTsG7nUTh0HGEqzrHzz3vn2EOJcg5yfFlTiaFTl+DmvfuFMpKNgY+IiEoMI0wNdq/fjsLC1bvRceifqCvvCyFpD2ETAFHTD8JOhje9gvBzu+74JWQIAvpNQv8JS7B83QHcuR9bYH3ysnPUuHj9NmQ9JuBT9/YQ9Z8IfTb+sPPrhz/X7OCcXSthNBqRmJKG/edvYOziTWisHArxSUtTS6Bn7fa5K1G6nhSVG4ZCNXgGdhw7V+DTORj4iIioRIp/NFVhydYD6DtvPfpMXI4+45ahz5SVGDp/A+as24mNe47i4OmLuH47EslpGQW+hhy1BntPnEfb7n/gY69gU7Xn/3Z+VHjHIxCtu43D5Zt3Cu2ojwqeTm9AVEw81m09DFXHyajYsKNpx+/fv+9TVwhUEA4B+LRhB7TpMwnLdx5FemZ2gRXuMPAREVGJZjAYkaPWIitHjazsHGTlqJGj0UKr1xfK0dqT9AYj1u46gpbdxuI9j/aPKj0fhQBHKSo36IQhYxcjLiEF+lfUwoMKRo5agxt370P+xwLYSQfgE0mw6fj+WQVDLnK84aGCY9AQLN96BNHxSQWy28fAR0REZGEGoxEb9h5Ho9DhKOcgfXSn8NGuT21/fPK1FNsPnkFKeuG376CCZzAasffYWQR0GY+KtWQo83hSx7N6QjpK8XY9BRau3Y37sQkvHfYZ+IiIiIqAzBw1/jl8BvWkvVHO8dH4rkf3u15zUcJBNQDHLt1kbz4rpdZocD0iCpOXbELlFp1Rzs7fVBj0jEbNpZ0VeP/HAEyatQ5RMXEv9fkMfEREREWAEUBCSho2HTgFZ9VAvOOuMgUCSSBKeShRwVGGkbNW4Nbd+5ZeKr0gtUaLezFx2HDgFBQDp+JLW4VpTJunmfnKj1v01JWiiktnDB2zDLfuPXjhz2bgIyIiKiKMRiPSMrOxcucR/Np1ND785VEhh6cKwkEKu8Y9MHfRNiSlplt6qfSCDEYjsnLUOHz2NRUgegAAIABJREFUCoaOXYK67fqa+vE551LJKwmEqOWPap5dMWjEQty8E/VCd/oY+IiIiIoYg9GIlTsOo1nXMXjfIxDicXPm79qhsXwUNh48U6hTGejVeBCXiJkb9sCtyxh817QTytnJTFM6zFXw1vBBJZtADPtjKcLv3Idao3muz2LgIyIiKoL0BiPW7z2OJqEj8KadFKXclaadIFcFGveciNjEZPbnKwY0Wh2uRtzDwMkL8V3VQLxmKzP9zuZ2+2ylePvDtpj452rcvhcN/XO06mHgIyIiKqIyc9Q4cPoSvLuPwes1fUzHfi5yfNe8K/pPXYTM7BxLL5FekhGATqdHUmo6Nu8+BvvWfSFq+kA4SSG8VE/d6SvlJEfFH/ww4c+1iHzwMN+fw8BHRERURBkBpGZk4vj5awgdPB1fuARB1PXH6y4K1GzSFRt3H0ZSSpqll0kFwGg0Iik1HQdPXcXQGStQX9Hv/+9vPlnIUU+KHx1CMfKPFYjMZ/UuAx8REVERp9ZocerCNXQdMhvfu4dCVPHGG/YyNJENxZ4j55GRlW3pJdJLMBiNUGt1SM/KRnxSKg6evojekxfhi986oezj+c5PFnJU90Mtye8YP3kdsnLUMObRroeBj4iIyEqcvnQDv/efg8r1QiBq+EF83w4dBs/G0fPXC3z2KhUcrU6PzBw1UtIzEZ+ciui4BNy69wDnr9/GiQvXceDURaw/cAoLNx/AnBU7MGnhJoSOnY/v23ZHucdFG+YKOar5wfaXnthz8gKy1c8u4mDgIyIisiLXIiIxZMwSvP+5D0o5SCFq+6Lz6IW4/SCOTZktwAjTDp1eb4BWp0N2jhqZWdlIScvAw8RURMYk4vKtKBw5cw1bD5zGiq0HMHvFFvSdvADefcbjl8D+qNumCz5oEIQydf0hqrSF+KkdRF1/08SN3BozewVCuCvw7i9BaNxxGO7FxD2zcpuBj4iIyIro9HrciYrFjCWbUaG2FMLWD295BSNg5DykZWXnebRHBUurNyAjOwexCcm4En4POw6exPIN/8feWUdHcbUPeJBCcKvbV/3qChS3QL+6QNEQT4jvBglSoECRUrwUikOhOBQtxb24UyhOZnZjG9lsbJPVeX5/TKj9oCVhosxzznvac6C7M/dud569977vu4WhUxfiGTqK+1uEcu+rgTR4xpt6z/Wk7pu+1GnqR81W/ni0DaBqu0DuaRdARc8ARfDaBSC0C/znfru/RyAVmvty3xu+LF67neTU9FtepyZ8GhoaGhoaZQy7w4EUb2LW8i0836U/QmNvXurcj2lL1mPNtZX05ZVb3LJMtjUXY4KJU+cvsWrzHobOXEbXz7+lnd9IWnw8kDc7xfBKp7488YmOWv8LQWjhh9DUF6GxD0ITH4QWSqa10MZfkTvP/DN6N9u2vZ1o60/VFn580mcsR85dueUqryZ8GhoaGhoaZRCXy40p1cz0Vdto4jeM2m/50apjf1Zt2U9KekZJX165weZwYExK4ZeT51mwcTfDpq8kbMhMvPpMxDN4GE937kPNDr0Q3vJBeLUHwlveitS19ldapt2JzP1btA9EaONPxabePPCJjo0HT+N03XxbVxM+DQ0NDQ2NMkxmtpVZa3bR0nsY/2kcyLs9PmfjjkNauZY7IM9uJzHFzNGzV1i2YT9ff7cav6FTec17ILVbByK83B3hte4IzXzyxa4Ipe5m/XXb+iM080Vo4UfNt3vxymd9eXfgN+w/d/WW5/g04dPQ0NDQ0CjjOJwuDp65SPc+X/PAI5/QPXgEW/YcIe9fMjc1/kBGOR+ZmZ3DyQvXmffjNt7vNQrh6S4Ij3REaNgDoZWvsg1bXHLXPl/w2gUgtFGigmcgtdsFcX8jfx7xDKeN/ivm/biZxBQzDuetO29owqehoaGhoVEOsDucGBJTGD9rGS+93hnfXsM4ePJcSV9WmcHpcmNITGbOsg288GFvajf1p0oLP2U1re2Ns3bFIHl/Fr22/ghNvRFe7obwWCeEZ7pTvXNfIsfOYtnGXZw4f4WE1HRybXbc/9JbWRM+DQ0NDQ2NcoLD6cKYmMwPyzfRw3c4vSImcFWK/8dyHRqKLK8/cJL3+43n+Q90VG0doCRWtP2XsihqnMFr66+8V3MfhDd7KHL3uhdCS3+qfhxFl/7jGTplETN++JmVmw+z7dRFLonxpJgtWPNstz23mvBpaGhoaGiUM5LT0ln5426+HLeIRet3YLM7SvqSSjXXjYkMnLIYjya+CE19/r3+XWHP3rX2R2juqyR2vOGF0NyPB94P462eMXiGDKdHzCTChs0kZsIPDJu7lvFrdrDr6GkuXpMwpaVjzbMXutaiJnwaGhoaGhrlkFybnTOXY1m6abcmfP/C8XOXCBzwDcLzXdTdkm3jryR2vObFPa0DefhjHW90G0Bzr8G87TOCD3tPJHrCfGYvWcfKzXs4fPo3LktxmMwWrCqfv9SET0NDQ0NDQ+Ou5ooUT+8v5yL8t7MKW7QBCG0DqNIukLptg3iwSSCPP+3Nqx0H0GvcXJZs2MHOw6e4FGskJd2CzV48iTWa8GloaGhoaGjc1TidLiZ/v0mpo9cuoHDJGe3zt2yf74rQ0JuXvQbSf/L3rN9xkItXjZjMGWRZ87DZHTgcTlwuN25Zprgao2jCp6GhoaGhoXHXc/zcVUKHz0J4totSAqWA5/M8OgTzXOfeDJu6hGVbDvDLmUtcMyZhzsjC7nCUeJ9jTfg0NDQ0NDQ07noys61s33+S1l36U6N1QMEydFv68cSHesYuWMNvVyWycnJLXWa0JnwaGhoaGhoaGkCK2cL81Zt59GO9knDheZsFllv48eT7eibN30BCshnXLdqblSSa8GloaGhoaGhoAG5ZJjPXxjvDplPrgwhF+m6nq0b7QIQWvlR/pSfL1u0jPjEVu8NZ0rfzFzTh09DQ0NDQ0NDIR5Zl4lPMdBo6HaF1AEJrv9tO2qjQyp+a93dn2JjFXBbjSvpW/oImfBoaGhoaGhoaf8LpcnHk/FX8R85GaOZ7+yt9noEIDX34T6swwgZOY9/R07hLNlfjdzTh09DQ0NDQ0ND4Gza7nX0nLxAwag5Cc7/bP9PXPgjhLR8e7xBO1z7jmbF6K8akVBwlvMWrCZ+GhoaGhoaGxk2wO5ycuBjLxzFTqPN+BBXaBtx+IkdLX6q18OPFrn0ZPW01x89cJivHWmL3orrwuWUZp8uF3enE7nBidziwO5w4nE6cLjdyCdehuduRAafLjcPpyg8nDqdLmxsNDQ0NDY2b4HS5SExN573BU7n3g0juaVMA6fNUkjmExzsTPug79h89iyUrB3cJ7POqLnxZuXnEp6Zz1ZjIJTGOC9cNXJLiuBZvItGcQZ7DiaYVJYMMOFxukswZGEypxCYkcz3ehJiUgik9k1xbyReG1NDQ0NDQKG24ZZnE1HRipizi8ffDERp7FayvbtsAqj7XnVaf9GfWik1kWfOK/XlbKOGTZRlrXh5XDQnsPnKKb5dvovuIGXj6DadltyE0++xz3vpkII0/6k/jD2N46+P+NOk4kGadP6d19yG0DR1DzJRFLN+8lzOXrmPOzNZWl1TE7ZbJzLby6xWRnYdOMmnxenyGTadtwJe07jaEZl0G0/Szz2nScRBNPh1Ik06DaN5lCK26DqFN4Eg6DZnGV/NXs3nfUc5fkzBnZJfIrxENjTtGdoPsQna7kN1OZKcD2Z6HOy8bd44FV1YaTksSzvQEnOZ4HGlxOFINOFIkHMmxOEzXcSRdw5F0FXvin+PKH5FwBXvC5dIX8Zewx13EnZsJbldJz0TBkGWQ3fnzlj93DhvuvBxcORZcmSk40xNxmm82byIOUyyOJGXu7EnXlHlMjsWRIuJIMeBIM+JIi8NpjldeJ8OEK8uM25qJ25arfE7czt/fH9xQhpcqZKcj/7Oq0ucq8QquzBRkl6Okb61YcbpcXIszMWPlZlr7DkZ4votyru92xa+FH7XaBPHsx9G8HTSa7YdOYcnKLrbrv23hc7pcJJstnPrtCqs37aXviO/x6f0NH4SN4Q3vQdR5L4wKTbwRGvVEaJgfb/ZEeNNL+WfDnsqfNfJCaOHHE5/qaR04jK6RE+jdfy4rNu7i10vXycjOKcr7LbfIskyqJYMT5y4xd+0OIsZ+T/eICXwQNppXvQZQ791QhKY+CA298ufhT/PUqCdCI2/lz5r5UuN/obzYvR/vhI6kR+Qk+oz+nplrtnPy3CXMGVk4nWXs4aFRPpHdyE4b7hwLzvQk7PGXybtyAuuvB8k6uZecw5vI3vM9WVtGk7G+D+mre2Ne0RvzMj3pSyOxLAkn/YdQzAuDMX8fhHlBIGnzA0mbF0DaXH/S5vqRNseX1Nm+pM7yIeXPMTs/ZvmQMsv7/8fMUhDf9SR1ihf2a8eQHXklPVsKslsRt9wsXBkp2JMl7NJ58i4dw/rrQXJO7SXn8E9k715A1pavydw4CMva/Llbpid9aRTpS8JJXxSC+ftgzAuClDmbH/C3efNT5i1/nlJn+5I2x0/583n+yt+dH4h5QSDm74NIX9iL9MVhWJZEYF6mw7wyGsua3mSs70vmz8PJ2vEt2fuXk3NsO9mnD5B77iC2KyewGy/iSDHiykzFnZuN7LSBXPq+H12ZyaTNDSFlhgqfq+k9SZ0TifXUNtw5lpK+tWJHlsGQmMLSDbvpFDqaWg39lISO2+292y4AoYUv9zT1473uI5j9wyYuXjfgKIbn6j8Knww4nC4STKlsPHyGiYt/ImrkLDoEDaXKK94IL3ZXhK6Fr9KCxDNQSVv+e+py+xuR/2eegYoVN1Veo/ozXrT1/5w+o+eydMNefrtmINdmL8O/p4oPh8NJcpqFw6cvMO2HTYR/+R2v9xyA0MRXaeDcqCdCS9/8ZtCBtxftAhBa+SE07onwfDeqv+XHy179ifxyBt8s2czBUxdITc/Qtn81ihkZ3C5cWenYE66Rd/kQ1hNrydo5jYxN4zCv+JyU+RGYvgsgYYo3SeM+InFEY+IHPkhc73uQIqoghlVBCq2KIawqxrCqGEP/CENoVQwhSkghf/r3XrcOsbRGcFXEwHsw9BDIPbEOOa/4VhH+MmMOG65sC46UeGziWfIu7CPn2HKy9s4gc8skzGu+JG1xX1LnhmL6LoDEb3qSNO5DEoc3ImHQY8T1q4VRfw+GyCpIoVUwhP513gx/jj/N283m6mZze+O/Nd543bCqSKFVkMKrYNDdQ1yfKsT3v5eEIc+ROKoNiRM7k/itP8kzAkldEIF52QDS140ic+tksvbNxHp8NXnn92CLPYPTJOHKNCPb80pcAp3J14iLqIsYVAkxuMqdfbYCKmMMf5jMrXNwWUwlel8liSUrm237j9E9ZBwPNg9BaOxz++f68rd4hSe60PSzAQyetpTtx86RnWMt0t20Wwqfw+kkxZLJiYuxzF6+iReDhiI09UV4pZsieLd7Y7d1qDFAkZLnu/Li+1HEjJ/HkRMXybbm4S5lvehKE9Y8G5euxfHDmp107j2GWq97I7zeowjmJ1CZn9e7I7zpTff+E1m5ZT+xiSk4nC4079MoSmS3S9nKsyTiiD9D9uF1pK0ahWlKZ+IHPY8hrBKGXpUQgyshhlRCCquEGF4JMbISYlQlRJ0Hor42or4ekr4+kr4Bkr4B4o2IboAYfe8/hlTmogFiVG2MvQRyT69HthWT8MluZIcdd7YFZ9o17NcPk3NsI5afZ5AyNxzT2HeIH/AQhqiKGEIq5QtIJaTQSkjhf5+3qoi6moi6Okj6en+dswLO263/ToM/Iv91lc9HPUR9XURdbURddcSoe5TrilCuUQpTPmticCWk4EoYQishRVYkYeBTJI15m+RZoVjWTyLr0FryLh/AmXgRlyVJWQV0OSnuL01n6jUSYuoi6aoh6uve2WcrshbGfg+TuWMBrozkYr2P0obb7eb8lVj8Aifx4BtBeLQLVETudlf7OgQhNPWmWptA2kaNYde+U6SaM4psF+2WwifGJfLVgrVUb9sLj1e9qNjiz6tEKonE/7PeQCq28afKS93573P+7D58hswSTGEu7ew//is+IePwuL8jlVv6UuHG/BTF3OTPj9AukMpveePRPIB3+kwizpSK01X6tjA0yg+uLDPW0ztImx9OnL46htBqiOFVEaMqK1Kgr/u7xEnRt4qSFrC7Q/jcNit240UyNs8ieex/idNVR+pVDTHMQ5GmqMp/CHh0/TIyb/9wfTd+PETXR9LXQdJVUWQ18h7E8KoYQ6thDKlO4uAXMc8PJfvIRpzmBGSnvVjm4wbO1Gsk9NeEryhwu92YUi3MWrmZhl36ILzcVZG+236uKtu8ld7oyb33dWP24p9JMKUVybX+RfhkWak5s2b7L/iEjueJxqEIbfK399oV0FrvRCpa+lH1TR9eeTOKFWv3kmK++84J/BNOl4s12/fT0X8U9zUKRHjL5w8ZL+r56RCkfJhb+1PHM4QOPb/k1G/XyM2zlfSwaJQjZEcejqTrZO5cSPI3XYkf/DLG/o8gRdVAiqqDpKujPGD1dUuRGJSmKF7hcyRLZP2yitQ54SQObYRx0DMY+tRA0tVAjKyjzJn+RtQrp3PWQPk83rhPXR2kqNpIkbWQ9LUxxjxA/JAXSRzaBPOi/uQc2YgjxUBxJINowle0OF0uklLT2XbgJL2GfkvdJ7shvOF1+8/k9oEIrf2p1NCHZ5qG0nfkHA6duaD6sam/CF9OXh4rt+zjU91XPNAyGOG1nsUnEX+P1v4I/+1OW9/hrNp6EGteKTl0XMJkZOWw/cBxPg4Zxb0tghCa+JTM/OSLuUcTP7p8MZ1D568Vy6FTjfKN25aDXTxL1o45pM7xIWF0cwz6BxHDaiBG1UKKrl8KHuxlIYpe+GSnA2daPNkH1pD2fSQJX7XB0O8/iCE1ECNrKNuh0fVKwViUdDRA1NdBjKqBGFEDsVcNjAOeIXFce9IWRpK1az6OpGvKWb8iQhO+4iErJ5cjpy8wfNRCnv+kL0JzX+U41O0ulnkGIrzuxVPvRhI0bDo/7TuuHJtS6fp+Fz67w8Hl2Dg+9B5GvZbKw7xEROLvN9+wJyFfzuTXS9dUuuWyS57NztFTl+gWNIbab/mV/By1D0Ro64/Q0o+vF23AmJRS0kOkURaRZWVFL+EqOYdWkPZDNAnDmyCFVkGMqIqor1MKHtplLYpW+Nw5GeRdPkjGhtEkjHkbQ1QDZZtdVxOxXK7eqRdidANF/sKrYoiqT8KwRphXDsF6agvOtPj8MjDqoglf8eGWZeISk/nq+w28HT6Gpz+MQmjoXbCzfc19eODtED7pN54Vu4+SnJ6hytGp34UvNT2DFRv3UO+RbsrFlbTs3YgWvjTs3JfpC9bicJZsH7qS5poxiTHTViHU/EhJAy/pubkh5Y28eL/Xl/y080hJD5FGGUN2OXFlpWK7egDzypHEx7ygJF9EVlUSLErBA7psRtEJn9uahfXsLlJm+iIFVyI2vFL+1npJ33MZDH1tJRHErxKJo98mc8dMnMlX8s/4qbedpwlf8WNzODn26yUGjZ3H4w2D8WgTWLC2bK39qNTKjwc6RbNkyy/EmdLuOJnjd+E7d1UieMQ0qrcJKNiBw2KIik9245PPRhGbYLqrS4Es3Lyfxzvq85eIS2ir/WbRPpBKD33MF8O+1zJ2NQqEM91E1u7ZxOk8EMPvQYyqhaivT/k841WcUXTCl31oHUkj2yEFV8+XB22u7niu9PURIzwwRlclddZ7OE2xqhbL1oSvZHC73aSmZ/DznqO84TuIak18lHJ0t/tsbRdAhZZ+VG3sx+RFP5GQfGfJHL8L37aj53jgIz0Vi/Pw/+1GEx9e69iP2cs33rWrfPGmVIZMXEKVVwtwELQ449FORPSbQWJqekkPlUYZwS7+SvrywcQPeAYpqiqSrra2qqemRKgsfK4sMxm7lpDwZSsk3QOIUZrsqRr6eki6qhhj6pI86W3yrp7AnadOIwJN+EoOl8uFJTObo+ev8vX8NTT/uC/CIx8itLqNhZv2QcqKYCs/nmwdwbBxS5ESCj/mAigZJqt/Pozwny5KVm5Jy8NNLLdeu2A+9BuBGG/C7ri7pE+WYfX2A/wvdKTSGaOk5+Nm8XxX/PpM4berYkkPl0Zpx+3CFvsr5h9iiB/4EmJYDSWrUZMHFUNd4XOmxZO5exHxw1sgRd2bL3slfY/lMPR1kXTVMejrkjzxM6ynt+POybjj/+U04St5nC4X14yJrFq/l+ghM2nkPRCP13oqHbD+bZvXMxChoTcveOoYPHweV6W4Qi1+CQBZ1jwWLt2JUP0DJTu2pOXhZtHUh0dbhLBq637SLJmqT0ZpRZZlzBlZ9Bk9jwc7hCjlV0p6Lm4Wb/agc/Q4Dp48V9JDplGKkV1OXJZkzEsGExfzHGJoeTjkf7MabfXzizzXzy8aXO9PJTtqI+lr/RG6v4aoq6VsbUfVQroRkbcREX+K8JqIodUw+grknlx3R8Lnykon++AqEka/TWxwVUSdlnlb1J8nMao2kl8VUr7zJvfsdmTbndWj1YSv9GCzO7giJTBz+c90CR7LIx/qqdhGabf2j0kd7YMQXuvOE42CGDb6By5cFgtcDk0ASE7PYNr8TQj1PymdK3wdghDaBlDHMxjfvhO5cNVw15zlc7vd7Dt+Fs9uXyC83KPk5+GWQu7NO+Gj2LD7cEkPmUYpxp2TgfXUVuL0jyKG1SqBLhYNkKLrKaG/RehuElH1EPNDiqqLFFUXMT9+rwuoq6NsS/8ubzURdTWQ9DWQ9NWQoj2Qoqsh9a6OoXcNDL1rYuhTG0Pfuhj61sfQ916M/e7H0O9BDDEPY4h5BEPMoxhiHsMQ8zjGmMcx9n+cuPyI7/+fv0RczBPExzxBfMyTxMU8SVzfp0gIf4q8s9uQbYXbGpSddnLP7iR5Wg/EoCrlQM7LToj6uhiC7yFtbgB2w9k76s6hCV/pw+V2cznWSNi3S3ih20DuaxmE0NI/P5v3H1b8GvlQ84FujJy4mHMXr5Nnu/0i3gJAQnIak+avR3iyc6lL2PiL3Tbzo5LHJ2z8+chdU+jX4XTSe8I8/vOpTuk/XNLzcKto6UOzgCEsWLu9pIdMoxRjN14geVJPpOjaiLpaRf/QjL7RYiu/XZauFqLuHkRdBcQoATFSQIwQEMPzI0xADBEQgwWkYAEpSEAKEBD9BK77Clz3EYj1FZD8BAwBAsZAgbhggfgQgYQwgcQIgcRIAWOYgBQuYNAJGPsIxMcIJAyqTOLQBiSNeBbTqEakjHublMkdSZnmQ+qsMMzz+5H+wxdYln+N5ceppK+fTdpP35O2ZQnm7StJ37kay64fydijROa+NWT9spbsg+vJPrKB7GObyDmxGevp7eT+uovc83vJu7AfV1ZqoRMAHCaR1FleSOEeWnmcEggxqgrG/o9iXtYP2VX4zF1N+EonsiyTa3dw+uI1Bk9YiPBEZ6WFaSu/W0tf+0AqtPan8mOd6T9qDucKULJOAIhLSmbCnB8Rnu1cercMOwQpq48vdGPQpIWcvwvOiuXZ7Fy8ZqBRi2iqNixlmbl/j1Z+vOrVn0k/rCvpYdMopbitWeQcXUNc5H35/VHVTdAQ9Q2UOnCRlRHDKyOGVkYKrYwUUhmxl/Lv8dGViI95AuPg5hiHv0vCqPcxjf+Y1KldSZ0ZQMoCHanLhmBeNx7Lz9+QtX0G2Xvmkb1vIVkHlpB1aDnZR1eRc3wN1pPrsJ7ZSO65n8n7bRu2S7uwXd2L7fov2K4fVCL2IDbxIHbpIHbDIeyGYziMp3DEncUR/xuOxEs4kq7iNMXiTJZwphhxpiXgNCfhTE/GmZ6C05KKM8OsRKYZ158jKx1XdjqubAuuHAvunAzc1gzc1kzcuVm487KU3q0FFQVZRnbYMH/vRdyAe5WkmmJa3RN/n8/6iLoaSju2yMqIEfnzGqZEbGh+hPx7iH+K//fn+a8jhv7x2mJ4/vvdiMjKSmu4fGES9Q3+3/UWSejrIUXUInFse6znDyI7HYX6f08TvtKLLIM1z4YYZ+Lnvafo/fUcnnw3EqFRT4TWtyi/1j4QobkvD78aSGSfaRw9e+G23ksRvoQkJsxahfBcl9ItfO0DEVr68vKHvVm8dg/2cp6xm5RiZuqiNTzUJBihiW/Jj/8/RWs//tu1D1/OWVnSw6ZRSnEkXceyfixScAUknZqH/hsgRlZHCvXA2OcR4kc2w/RNR0wzfUlbGI55RX/S1w7Hsmk0WTvGkr1vHtmH15F9fDvWkzvIPbsb22/7sV0+Qt7109gMF7AnxuJIMeIyJ+CymHBlpuLKMuPKSVeEKjcTty0bt92K7MhFdtqQXQ5k2UVxtMoqatzWTHJObiHhi/8qslfUq3v6uoi6mkgRHkghHohBHhjCq2Ls9wBxX7xBwph2mCa8h2nKp5i+7Uzy9O6YZvTENNMH00xfTDP9MM26Ef6YZvtjmh2AaU4AyXMDSZkbRMrcIJLnBpI821/5ezN9lf9+hjem73pi+q6H8rrfdsX0zWeYJn9M0oT3SRz7NvEjWxA35CXiYh7AqKuC1MsDKcgDKdgDKdQDMcIDMerGKqi6YixGVidu4H9IX94Pd27hzq9rwlf6ccsyuTY7Zy5eY9aKbXh/PpVnP9AhPNlVya242fm+1715smkoEb2/5fSFq9gd//yDQACQjPF89d0yhBe7IrQrxatIN6TvhW4M+HoRcaby29nB7nBy9Mwl2nQbQA3PIATPUiziHYIQ2vjzeEc9A6YtKemh0yiVyORePEDyTH/EsAr5/VTVEIX6SLo6xA1+gZSpH5O+YhCZO+djPbGV3AsHsYm/4jCJOC0puHIycOdlIzvzQNbaAN4StwtH4iWSp3TF0Pt+pR9skYheAyWBJbIWUlQ14gY8ROLopiRP/pDkaT0wz/fGsqovls3Tydy7jJzD67FPXxIoAAAgAElEQVSe2IL19E5yz+4h9/wvWH87iPXCIawXD/8Rl46Qe+kouZePknv5GLlXjpN35Ti5V46Te+UYuZeOKn/vwiGsvx0k97cD5J7fT+6v+8g9uwfrmV1YT27Deuxncg6tJ3v/ajJ2LsSyaRKW1f1J/8GH1Nk+pEzrQfKUjpgmvEPCmBbEDX4Kg74eUmRN5TynWsKnr40huhZJXzbEaTYWanteE76yRVaOlV9OnufLb5bR4cMhVGsbrHTWanMT8Xu9J481CqbPiNmcuXCVnNxbt+gTAC5dExky+XuE17rffhXoggia2nLR2IsPdV+xcd9R3O6y/2v6ZphS05m7chvCk58htCrFZ/duRLsA7v8wnPBxcymnU6JxJ7idZB9YTvzQxohRlVGnJ64ie4be95O+cjj2hMvKw/AuSegqKtx52VjPbMYYUFGRsSLZyq2fn61cGWPMYySNfAHzAm+yf1mBTTqPKycD2WEDlwNkd0kPCSAr1+F2IDvtuB0OXDkZOEyx5F06Qs6hdViWD8I0rh3xg57G0PcBRLV+1ETfixhRizj9w9iun0C25xb46jXhK5tkZVvZd/xX2kZ8xZPv66jdJkhZ7fu7pzXzpeZzPRg0ei5nzl/FZr95IocAcOr8ZXRfzUJo5KWu8HkGKnvQaktkuwAqvhNCj3ELyCmnyRuHT53H//NJCG/1LP2rrh2CENoFUud/wfgMn4ZdxWbPGuUDtz2PjI1jMIRUye+kocbKRw0MfeqRNPZDnGlx4C4NYlD2cSQbsfz0LWIvtbfe/xS6mkiRFYjvX5Ws3XNxphrAnS93ZUnYZTk/3OB24c7LxHpmJ8kzAhHDKqp3TjWyNnH6+8k+sh5XlrnAl6kJX9nFLctY8+z8tOsgHwWPRHi+K0ILn78uprUPQmjpT6XqHzPky/lcvCbd9LUEgGNnLxI28juExj3VkzPPQKq93Yu2IcOo/04oQlsVV6naByK85c07vUZz+rcruMvZF31mjpVvlvzMfZ4hyrjdbsPlfx03RZaFln7qn9X0DKRSuwDe7z+JzFzbXVM2R+P2cKQlYF7WHynoHvVWPSKrEzf0JTJ2LsSdq17rsLudvCvHSP4uADG8QpH0yBWjqmPs+yDJUz/DdmUPrgxTfu/YcoDsxpVtJnv/fIyhFZTkJDVWSKNqY+h9H5ZdK3BaUgt8WZrwlW1kWcaSmc2xX68weeEG2gUMxuPlHgjNfP/yDBbe8uHhlwMYNHQ+V6W4//c6AsChU78ROGwaQpOe6m3BtvGnQftefD13BQ0DhuDxdi91V/qa+/JCpz6Mn78axx02FC5tnLpwlV5fzlSydFSTvUCE9oHc824oH/Qey+Of6tWX8FZ+tNd9TWpGdrndatcoHHmxZ0mZ2wupl0rCp6+HFOWBaUJLbHEXkV2Fy17U+Cuy24n15AYSR7yFGFlJdeET9bUw6DxInvo+uWe2KVmn5e3Hoewm78IO4gc8hqSrpsoYilG1kXo3IH39dJypCQW+JE34ygd5dgdSQjI/7T6CbsRs/tMyHOE1r7+WbHu9J8956vh8zEIMick4XX/4kQCw//iv+Az5Rmnqq5bwtfTjoba9+GnHfmK+/YEXuvdHaO6j6opS7XZBvOM3jDhTarnpsetyuZk+dwNvftpP3fFq60+dd0Np13sss1b/TDOfIQjNVHz9/DRxz9AxJKZZcJWzVVeNOyPn5BaSvvkEMUwd4RN1NTHGPEDa9/647dbyJw0lhNtmJXvfHOL63o+oq446Zy3/NG8RVUgY9QZZu6Yj2299uLysYzecJvnbjkrBbd2dJ72IutpI0XUwL+yPI/Fqga9HE77yhdPp4uyl6wz7aimePYfz2HsRCK/3VHbu2gciNPLmmTaRjBm/DENC8u9+JADsPnqG7oMmKQKglvC18OWh1sFs3X2AA8fP0rP/FIQ3e6i3YtUhCKGRN481CmLN9gOYM7JKcvxVQZbBlGahs/dXCE91VjfhpbkvL37ah+WbdrLv+Fna+w5HaOilrvA186Vd0CiMplRcLk34NP4ge8cMEkc1Qoysoo44RFYhYWQTMrfNKelbK1e4cyxkbh2PIbxSftKBigkb+vpIoZUwrxqEI/H2i8WWRZwpBizrxivlZtTIctbXRoquTvLkjtilMwW/Hk34yiXZuXnsOHyaiCHTefL1YCq39FekzzMQ4U1v6j7ajVnLt2I0peKWZUX4dhw6xWcx45UVJTWFr1Uwm3bsIynVTN+ZKxHaBal7dqxdALU6BNOp9xguxv7//eqyhsvt5sdtv9DMezBCE291ZayxN826DOaqlMDJC9d422sYwqvd1X2Pt3xo6zsCKcH0l2VkDQ3z6r4YBz6AqKuqjvCFVcE0vQfWCydK+tbKFa6MFDJ/GoMhtLLKbdSUIspx+orkHJyN7C4fOzK3wmlJwbJnKZKuAWKkWsJXlYQRjbBdK3j7Sk34yi+yLJOWnsG6bb9wf6sQJRejdX6njtZ+VHzLl2VbDpJrsyvCt+XACT7uM/b/Z36oIHw/bduHOT2Dn/Yf58PeX6t7TrB9IJVa+VPv2R5s3nUcaxnO2JVlmaxcG//rN5Ga/wtVt8VdW3/+81EEfb+ajTXPxvlrBv7X5QuEF7qqK3xv9qRN9y8QjQma8Gn8CZn0H3wwRlfPP8SugkD0qkLqbH/shoslfXPlCkdqHOYfhyMGV1ZR9u5VVroiK5M8tQt5lw5QHopT/xOubAs5J34mTncfkirCVwdRXxXjwAfJu7ynwNejCV/5xulyYbZksuvIOXp9+R1PvhOu7Ki2C0Bo5sP/IkeydtdhRfg27TvG+7rRCC1UbN+VL3wbt+0l3ZKBITGF0dNXKf161Vzla+OP8FwXRkxfxmWx7K7yWXPzOHnuMs982BuhxT/00StMNO6JZ+Bw1mz/BZfbzRVjIu92HY7wfDf13qNDEMIbXrTpMoRYQzzOcpZIo1F4ZLcL89yuGCM91CvJEliFtAVhOM3xJX175Qpb3CVSl/QjVm3h09VFCqlI+tpxOBJjS/o2ixy3zUre1aMYwx9ACldD+Ooi6j0wxlQl79K2Al+PJnzlHzm/U8fx81cYP28NbX2GIrzUDaGFL/XbBRH4xbeK8G3cc4R3IkcWqfDZHU42bD3Kc60jqHSzwoGFDc9AhOY+tAgYytpdR8rkypIsQ5wplVGzlvNAuxClbIqaIvZid/z6fsv1+CTcbhkpKYX3e4xEeEHFLd0OQQivedGm02BipThN+DR+R3baSJvRBUNoNdX6jopBVTAv6Y3bainp2ytX2K6fJnVBuNJ7WE3hi6qLFFiJrAMrcGWmlfRtFjmyy4k94QqGsIcQw9QQvnpI+mokxFTAdmkzBV0h1YTv7sKQYGLRjzt4z28k1doGIjTy4um3wxXh27D7MG9HjEBoWXTCB3Ax1kj/iQvwaOijVItWSzQ8AxAaezN85ipS0zNKdKALg83h5MDpi7zSqQ8enkHqlq9p68+9jYL4csJKnG43blkmMS2Dj3y/Qniph7rC92oP2nw6iFjRiLOcZE1r3Ckyst1K6refIfVSR/hEfQOMoVXIWNUf2VHwrgMat8Z2+Rhp84KRQlUWvsg6GAIqk3t+B7LdWtK3WeTIbjeOVCPGqIeRwmupJHzVSYqpgO3iJuQCdh/RhO/uI9uay+Ezl2gXOppH3o+g2os9FOFbX0zCl5Obx+4Dv1K7bjeEN33Uzdh9vTs9B0ziwMlfS3SQC0NiShqzl21GeLyTum3U2gcivNmD4C+mcuTUeSD/gGdmDp8Ej0d41UvdreNXetDmk0HEigZN+DTykXHnZZIytROiasJXn7iIKmSsHYDsLLvndksjeRcPkzo7AClMTeFrgKSrRUJUZezXD90dNRNlNy6zAdPghzFE1bzzowz6+ki6GiT2qUDeuQ0FTnrRhO/uxC3LZObkMnHhGl5/V/+H8HUIL3rhc7vdxCWmENpvEg++E6Zu4d/W/tT/MIre01eUuULM+4//Std+XyM09la3jZpnAMIL3Zg4fwPJZmXrS5YhJ89Op14TEF5RWfhe7UGrjwdy6cr1QtdFdDpdXDPEs33fYdZv2c3GbXtVifVb97B5zyHOXbqu5tSVGkypZg6fPMe6zeqN2Yate9i0Yz9Hjp8h9x8acv8z+St80/JX+PR3nvkp6hsQH16FzDX9kZ3lt5ZbSZB7/gDJM33VFT59HaTomsQPfgxH/NlS0hu3iJHduC3xJH/1CobetRD1d5qsVB9JX5OE6Arknl1T4B86mvDdvbjcbkxp6ew6eDpf+HYdokPY8CIXPlCWGddt28fLH/VBaKJy4d/GPnwSNQExLgm5jBRizcjOYfq8n3i0YaCSmavWqqdnIJVa+9G0x0C27D/5FwGzO110DpmovvC94UWLjgM4ff4SdkfhfsXb7A72HTtDQOgEWnccQBv/oapEa69BePWbwKKfdqs1daWK366KjJ28jFbv9FNvzHp+zqfBXzJ93jLMd3BU4i9n+FQSPmNIFTJWxWhbuipjPbsf03RvxHA1ha8Whj51SPraE4ep4EWDyySyjDvTRNKkdzH0rY+oq6mC8NUiPqoCuadXF/iHjiZ8Gtk5VkX41u06RPtiEj6n04UxKYWO4WOp3SZI3RWtxj1p2GUA36/fUWYK/x47d5nA/t8iPK1iiZQOQQit/PF4oycjZyzjquGvrXhcbpmuYZPUF75GPWnaaQCHT57DZi+c8OXa7Py89zBvevZGeLarUgxcjXi9By916sOEH9arMW2ljlO/XSE05luEBzuqN2ZvevFo6yC++Ho6yakFb9h+A9ntwjxPvSxdUd8AKagK6Uu1pA21yTm9j6SpPdUVPl1NDP3uJfU7f5yphpK+xWJCxp1tJum7YAwxD+V3LblT4atNfGQFrKdWFfiHjiZ8GpDfaWPdzoO0Dx1WLMIHSn7RxIVreLVbjJIZrJZwtAug7v9C+Dj6ayxZObhLeXsvh9PF1MUbeK17DEIrFcehfRCVW/jz0Bv+7D18lhzr//9y6BY2WX3he8ubxp8NYPfhk+TZCtcMPc9mZ8u+IzTs0l9p9aeaAPvxWs8BTFm68U6nrVRy+sJVwobPULeYdht/Hns/nC8nzLwj4QNIXxqAsW8tRJ0KB9ij88uyzA/FmWZUaQQ1ALJP7iXxGy/Vhc/Y/0HM3/fDZS54H9iyituaRfLCIRgGPokYdafC1wBJX5u4iApYT65EdhQs8UUTPg3IF761Ow/iWYzCB3D+8nW8dBOVOjGqiY7SUeLpVuEcP38Fa27pPdAtA6a0dLrqJiK83kNd8WobQP13Qvis71jik29eAqFb5GSl6bKa79vUh4Zd+rN53xFybYUbe034CkeRCd8H6gifZeNY4oY+hxilTi9dQ0gVUmf7YZMuqDSCGgBZJ/eSoLbwRdXEOOAxzCu/xmW5ewTBnZtN2sqvMX7+rDrCp6tNXHgFrCdWFDjTWRM+DfiT8LUL+UJ94Wt5a+HLtdnp/c1ShJYB6pYhaeXHg+1DGDd7KQmm1GIf0NvF7ZZZu/0XWvgOUVdsOgQhNPHmhff0LNu8h8ycm38xdOs7FaGxip1VOgQhNPPh9S79WbfzQKG7nmjCVzhKu/DlHF5L0oR3EMPVET4xvAqJ498h+9AGlUZQAyDrxF4SpqgrfGJUTQwD/kPaum9xZZTe72S1ceflYFk3hbghz6srfMdXINtzCnQtmvBpwA3h23FD+FTs8NDCl4daBd1S+ADW7DlGh4gxCA1VXGlqF4hHuyBe79yXA6cuFPosWVHidrvJzLHSY9BU7ns3TOkWotZDun0QwmteNPtgAPHJqbcsgNxtyAyElioWwO4QhNDch1c7x7Bi816shczq1ISvcJR24bNdPUHqbH+kXioJX1R14gY9SvqKKGSXnfLeqqu4KBLhi6yJYcCTpP00G+ddUHT5BrLNSubmWcR/8SJipErCF1aBnOPLcds04dMoOALAmh0HaNvrC4RWxSt8xqQURs9ejfBad3WTN9oEILzWndmrt5F0hw+qoiAnN4/j5y7z7Ee91e1uki82j3WIoPfQuf94Dd1GzUHwDFZKt6j13i18eblzP37YsIMcTfiKldIufE5zIunL+2MIvgcpWoX2avo6GHRVMU1qgT3uIrKz9P2wK4sUhfBJkTUxDnwK8+YFuDJL3/dxUSHbrGTtXEj8sFdUET5RVxtjaAVyji3Dbcsu0LVowqcBN4Rv+wHa9hpa7MLncrlZu/s4j7wfSUU12621C0B4swe+g6dy6HTpa65uTErli2lLeKBtL2UbXa0HdIcghIZefBTxFfuOn/3Ha+g2/nuEd8NUF76XPuvL/DVbyL5JosjtoAlf4Sjtwic77GRu+waj/r78xA0VyrNE1iRu8HOkrxuHI1lEdhQuUUjjD7KO7yFhco8iEb70bQtxZd1FwmfPJWvfcuKGv44YoYbw1cEYUoGco0tLifDN14SvjCEA/Lj9F9oED1V/S7dlEBu37yPdknnLC7gqxTPiuyV4NPZWr91a+xvS583UpVtL1WaPW5Y5cPYKQmM/ZSVSzdW99oFUeNmLiKFzsWT985K/15TFVPwwUhkntd6/pS8vdOrDrBUbyc7RhK84Ke3CB2A9u5ukyZ8RG15BaRV1p8IX3QAxsiZSZC0s6yfhMIngdinVxctIHc7SRtaxXSRM6ooYoaLwRdTEOPBpLDsX48pKL+lbLDZkex5ZB9cRN/xNxHA1tnTrYAipQM6RpbjzSoHwbZ93VyXhlAf+JHxD1F/huw3hy7bmsuPIWWq2DFSET633bx+E8FJXokfP5bIYV2wD+m8kpaQxZ8VmhP92UbefcPsghCbefBg+kg3bD+L6l5I0fWes4P6OenW7nbT05flOvZm+ZD1Zt0gW+Tc04SscZUH4HCYRy8ZxSEEVEHV3+NC5Efr6yoMw5lESv3iBtDkBZO1ZQt6V4ziSr+O2ZiK7HPm9RzUJ/Dcyj2wnfkJndYUvsiZxA5/GsmsJruy7SPgcNnKO/0z8l41Kh/DFqCt8GdvmasJXxlCEb1tRC9+tq/S73G7EhGS8Bk7k3ndC1U1gaOJNs4ChLNhYOroryMD2o2d5N/orhEY91V1d8wxEeKMHQ6cu5Zoh/l+vZcS8H3mqSx/Vhe+5jr2Z9sNaTfiKmbIgfLItl9yz24jr/wKSvibSnT54/iR9YlQtpIhqGPs/SsKoJiRNfI/UaZ1IndMT85IAMtb1J2vHAjIPbibr+E6sZ/aS99tBbFeOkyeew54YiyM1Hqc5CVdGCu4sM+6cDNy5WbhtVmRHHrLLjiy7KM/imHlkG/ETOqkvfIOexrJ76d0nfKe2kTDyrSIQvqwCXYsz9RrxMXWRolQUvi1zcFlMRTR6GkXB78LXOqhkhA8gKyeXNdv289Lb0QgNVXzItwugbrtgIkfNIzO7YFlNRYElK4fJizdRp12wIntqtVFrH0jFtgE880EUyzf/clsJE+MXrePFHjHqCnZLP57rGM23i37UhK+YKQvCB+BIjiVtySAMuvqIkeoUYf4j6iHqaiJGeCCGeCCFeiCFeWDQVyV+4H0kfNmM+PGfkDilK6ZpPUid6UPq3CBSvo8kbWl/zKuGYFk7jIwNX5L58ygyNn9Fxravydw9hez988g5vAzr8fXknt6K9exurOf3k3fxELarJ3EYLuBIknCkmXCmp+LKSMOdY1HqpbmdlBVJzDy8lfjx6gufcdDTZOxedtcJn/XMLhJGNVFN+KQ7ET61tnSjamHs9xAZm2fhSteErywhAKzetp/WQYNLZEsXwOlykZiazvufDKfaaz7qJW+0D0R43Yt3/Udy4tylEu+ve+q3q4QMU/mh3CEIoU0A97zpTcTI7zh7Ofa2rmXq0o287j0AobWf6sI3deFqTfiKmbIifG6blbzrp0gc2hQp8l5E3Z2f5btViNH3IukbIOnrIOqqIUZVRoyorCQkhFVGCq2MGFIZMbgyYlBlpODKGEIqYwyrjDGyMlJEZaSoShj7VCd+wGMkDHmZpBHNSBrTgcRxH5EwqQvJ07xJnRdO+rIhWNZPIn3bPDJ2LyJr/2KsR1aRe3YTtst7cIgHsRtP4Ui6hDMtDldmKu6cDGR7LrLLmX/msOSlUBG+jkWypXv3CZ8d6697SRzdFCm8uvJ5vAPhE/OFL/vwEk34NAqFInxb99MqsOSE7wbj5q3i5W79lOtQ8UH/Quc+fD1nBU7XzWvSFQeyLDNv5SaaevdXPzO3kQ/Vandi0/YjZPxLssYNZqzYRCPfQaqP9X87RvPNglVkZWvCV5yUFeEDZeUj4+c5xA19XYWVD3UFUYkGSs9ffT0kfR0kXQ1EXVXEqIqIkRUQIwUlIgTEcAExTEAMFRCDBWIDBaRAAUOggMFfQPIXMAYLJEYLJAx5nOQpH2FeNpTMHQvJPr4VW+xZXOlJyLYcpZ6g2wWyu8SSTjIPbyka4Rv0NBl77jLhc9rJ/e0XksY0U034DCEVyCmk8CUMUE/44vo9RMbPMzXhK2MIAKu27qdV4OclLnynfrtK15DxCP9Vsd2aZyBVWwfSrMdQ4pPTcDidRTqgt8KYlIqfbgrVX1e5u4VnAJU8g3jw036cj43/12SNG8xZvZkm/p8XgfDpmTJ/pSZ8xUxZEj5kNy6LibTF0RhjHkOM9Chx2bvVQ1aJ+kro6ynnDm8WuptEVF2kqDqIUbWRdDWQoqsh9amDod/9GGMeIy7mSeL7PUvioBcwfe1J6qIYMrctwHp6B/aEK7hzC3YwXw0yDm8hrkiE7xky9i7HlW0p9nsqKWSnHdulw5i+alE6hG9gXSSdh2rCZ/npO5zpSUU0ehpFQb7w7aNlQMkLX2aOldHTV/H42+HqJhO08OXJ/0Wyec8hMjKL/0tUlmWWbd5L0x6DERqr3EbtLR8e94xg1A/rSc24/S+B+Wu20jxgcJEI3+T5K8jUhK9YKVPCByC7ybtymLT53hh0FRGjPFClIHOpi3xp1NdD0tdG1NVCjKqplJOJqIkYVhMprCYGfT2MA58kYURDksa1I2XaJ5gXR5GxdS655w/gTE9EdhZ9ncGiWuGLH/QMmftW3GXC58B29TimsS2RIkqB8A1SeYVv43RcZk34yhKK8G3JF77WfuolEhRC+GRg26FTfNZ3PMIbKrZba+NP3XbB9Ow3kUux8biLcbvE7ZbJyc3DL2oCD7QPUVdk2wdSpbkfrb2GclmMw+64/dXLReu20SpoiFJ7UVXhi2byvBWFTpLRhK9wlDnhQ9nazft1I2mzP8QQXQUxqoYq9fnKWihbyHUQozyUhJNwD6RwDwy97yN+WBOSZ3hjWT2UnANLsYln81f+iuY7LPPQFuLHf1pEwrfy7hI+lwN77BlMX7dWT/h6FV74EgfVRdKrKHwbNOEra5Qq4QOlTt3keeuo9oqXeu3W2gcpNe9e7M5Pe09izbMV2YD+ndw8G2cux/Lcm0FKCzm1HsYdghBa+/HoJzp0kxbgdLkL9AhYunEHbYO/UPc8YSs//vtpNJPnLteEr5gpi8IHyiqI/fpBUqe2wTjwSSXJQlcXNTpxlNVQzhHWV1YDI+9BDL0HKbAy8Z+/RtqiPlhP/oQzWcJtsyrn/VQk89AW4sepLHwRN4Rv1V0mfE4c0nlM49qot6V7x8Kn1pbug1g2TMOpCV+ZQgBYuWUvLfwHlQrhc7rcbPrlJC9160vFNgHqZey29kd4tjPj5v5IbFzxfUjjk9MYOXMpD74Tpm6h5Q5BCI28+CBsNLuPnCrwda3YtBPPkC+UXr4qStWzn+qZOGeZJnzFTFkVPgDZ7cKVlUr6j5OJH/AqYmg1RH0d/jhDV/ISVtIh6usjRnog9qqAMfw+0hYOwnb9JG5bjqoJHhmHNhM37pOiEb79q3Dl3D3Ch8uJM+4yyePblQ7h+1xl4Vv/LU5zYhENnkZRcBPhK7kzfKBsVFyW4hn+3VI83uypniR5BiI096Gp3yA27j1WVOP5F+wOJ/tPX+L+dyKo3DZQPXm9cT/NfOg1Zi6pBRjfG6zevJu3Q4erK3ytFeEbP2uJJnzFTFkWPpCR3U5cmWlYT/xM8tTOSAGViA2uhBhZSbXeu2U+9PWRdHWVUja97yNxxDNk7ZqCKzNVtZnIPPQz8ZrwqYPLiTPhGskTPJHCqyHe0Wc4vyxLrwpkH16MO7eAwpd2jcTBdZH0VfN/TN2Z8Bn7PYhl3VRN+MoYpW6FDyAnN489B89S46HOCG/5qChJAdRu4svY2WtIMf9zMWg1SEhOY+aKzcpDWM0Cx+2DEJr50DzwCxb9tKdQ5WbWbd3Lu+EjEJqrOL6t/XjmUx1jZy4m8zbLw/wdTfgKR9kWvj9wZ6dju3KIrB3TSV2oI3F0S4zR9yGFVkUMrYoYWVUpkaKvffdKoD6/aLWuMglDX8WyegzO9ERVVvoyD20mTu0t3bs1acPlwpEYi2m8usKXc3gx7ryCPVOdaddIHKKu8KWvnYozTRO+skSpFD6AuPhUPuj0BXVbBamY6BCI8FoPfAdN5eCp31QfzD/jcrvZceIcH/SfgNCwh/pt1J7qQv+xC7kYayzU9W3cvp8PIr5EaKau8D39qY4xM3647XqAf0cTvsJRXoTvBu68bGzXz5C9fwnpKweQMqsnSZM+IGFkE4wDHsHQuxZSRHWksBpI4TWQImogRtZQEj90NZH0tfITQOpTXreGRX0txOAqJAx+hcwt43HlWJDdd1ZrtMgKLw96msy7rSyLW33hU7J0Fxd8SzftGklD6mLQhO+uRhG+zXtp7jewVGzp3iArJ5d1Ow/w4id91JWSVn680a0/037YiMNZdIWYM7OtjF++mYrte6neRq1Ca38ees6PJSv2kGsrXKmGzTt/4ePIUSoLnz9PfaJj5PRFmvAVM+VN+P6My5qFPfE61rP7yNy+gLRFkaR8+w6mr5qQMKwhCUNfIX7ISxgHP9lqld8AACAASURBVI9x4BMYY+7H0Lsmoi5f/qJqIUXVRoysgxhRBzGyDlLUn0KnhJj/T0l/s6hbOuVRXxspqgoJg5/AenYHbmvBv2v/jNJL97MiKrx8l/XSdbtwJOULX5iawlfwM3yutGskDa2LIVo94TOv+UYTvjKGALDi5z008x1QqoTP5XKTYsmgdc9hVGziq951tQ9EeKUHXSMmkpxWdL82z12JJWr4LITnuqj3AO4QhNA2gHuaeqMbNZ1fL10v9PVt232QT3Wj1ZWq1v48+YmO4d9+T0ZW4eodasJXOMqz8P0/3E5kWw7OjGRs8RfJPbeX7CNbsOxag/nHSaTN9CVp1MsY+9bGqK9OQlR1EiKqYexVjdhAD8QgD6ReHhhCPTCEVUUKr4oYXgUxooqSFRtZWYmoyohRlRB1lRB1lRF11ZWHpb6e8gD+Xf7+HsUsfbpaSNG1SRr3EXbj+Tva2s08up34iZ2LpJeuZddiTfhKSPicaddI+kJF4ev7IOYfNeEra5Ra4ZNRMnZnLd1IY68B6p41a+JNC98hrN1xALe7aOpZDV24ngc79VG3zl2HIIQWfni80J012w5iLkCh5b+zc99hPtOPUVeq2vjzxCdRfPHNAix3Knyd+yM0UXdlVxO+ciJ8yCC7kd1OZIcN2ZaDOzcbV04mrsw0XOnxOFOu4Ui6iCPxPHbjSWzXDpJ7YRfWM5uxnthAzuFVZO9bTNbO+Vg2f0famrGkLfmctHmRpEzzwTSxMwlfdSTuyw+IG9qGhIEvEt+3CnGRFTGEVELqVQkppBLijQirhBhRSRFFXS2k6Pq/t2oreulroHT1CK5N5t4fcGYUPokj8+hO4id2VV/4Bj6NZcdiXFma8JWE8LmKQvhWa8JX1ii1wneDMxeu0rXPJIRGPVUtxNygQyhde0/GarMjq1yIOc6USo8+31Cxocpt1NoGULdDL94LGsGF63E472BLes8vR+nS+yuEt9QXviFT5mMpZEeTPJudbb8cyxc+dVf4Xu05gClLNhR6zEozd5fwFQQlA1h22nDbcnDnZuLOseDKSsNlScZlTsSREoc98Tr2uIvYxbPYrh7Hdukwub8dwnruF6xndmE9sY6cQ3PJ2juDzO1Tydg0DsuaYaQt7UvK/DCSZ/phmtKJ+FEtietbDalXFaSgqkghVRHDbySaFGF9QV09YkMqkPydN3mXDhZ6tDKP7SJ+UrciEL6nsGxfpAlfCQqfaVhdpcC5CsJn6Pcgaaum4EzVhK8sUeqFLzPbyqgZq3j8vQj1Ml3bByE09eW5d6K5cE0ir5Dn4G6GLMus3rqfFt0+V7qFqPXw7RCE0MSHZ/4Xxfw1WwstVDfYf/A43ft8jfBWT1UF4T8fRzF48p0J346Dx2nUZYC6wtfaj1e8+jN5sSZ8d5fwqYAsI7scuO25ykpitgWnxYTTFIvd8Bt5V06Q+9svWE9uI2v/EjI39MO8RE/q3CCSv+1M4tdtiRv0EIbIWkjhNRCjauWfCVRT+uojRnkQF/MUWXvnITvyCnWrmcf3ED+5h6rCJ+YLX/q2hbiy7p7PUekSvuuYRjyAIdojP8P9zoUvdcUUHJrwlSlKvfAB7Dh0kq59xiO8pmK7tea+PNwulCmL15OUqs6vTrfbTVZOLsGDv+Hh98IR2qqYmds+EI8mfnTo+gVxick4nLffRu1mHDh8Aq++XyM0Vl/4Pr9D4dt5+FSRCN/LXv2Z+MP6Oxq30oomfKUFRQ5lhx1nehJ5106SfXA16UvCSZ7QgYRhr2Ec8BiSrpqSIKLmip++PoaQylh+HKyUaSkEWSf2kjDFCzFcXeEzDHgK89bvNeFTQ/iOLC248JlFkkc+jaF3DXWEr+8DpCybhCMloYhGT6MoKDrha+7LQy3UEb40SyZTpq2jYp1P1Wu35hnAPe0DebhjNMcviqr017Xm5nH8/GWe66BTtkrV3M5t7cczn0UzdPriO75OgINHSqnw2R3sOXqGxl0GqLvd3NqPl3rEMGHROlXGr7ShCV/px52TTu65XzD/0Ju4ftWRIu/Jlz61Vvnu5f/YO+/wKKq2Dy+9h6qi2L/X1/aqiIoivVgRUESlkwQS0nZD712kSpWi0mygSLGBDUF670iHzLYkuymb3U2278z9/TEbQAQlZEI2OPd1/S6CJmRyZmb3zplznkfftxyZi3rjObP/uo6xKIRPn1gV45D7yP5xKUHHv+c6Ulr49IUSPgMZ7z2OsV81BF21QguffsBtWD6bit9qLqLRUykKSsQMXzAosm7Lfh7rNIjSzSKV6VgRKm9S9n+dWbFuC9mFPEaQCy2Pm/85t78Yh6apwps1HnqHDlET2XFImfqB4Sp8Xp+fLfuO0rDTUDTPKCt8D3ceyNRP1ioyfuGGKnwlADGI5HURyDLiPrIey8zO6JNvQ0isqtjmDiGhHJbpr5K36/qWLuQe2Exakczw3UfW+n+Z8OUXXp4aBsJnM5I55TmM/SMKL3zaahgG3IJl2Xj81uurA6tSPJQI4QM4a0zj3QUrqXDnW2gaKSRTLaLQPNmFgVM/LlSJE5BFZefeEzzUoC8VmyjYA7hNbzStotA07Enfd5dcd327ywln4dt24A+e7TRU4WPrxUPvDGDysjWKjF+4oQpfCUIMIrrseM7sxvpBZwwD68k1AxWRq3KYxzfF8etn13VouQe3kDa7WxEI371kff8hAUeWwoMZxgSD+NPOhwovF76X7p+Fr2Cvr0Gbiez3W2AcEIGgK+S1pq2GYUAdMhYNx2/RF9HgqRQFJUb4XG4P2/f+wYPP9qWCUkLVOhpN0140aN+fL7/bfN1FjAEMaVZmL/sOzR0d0TRWcHavdW80z3Tj6cjRLF2/tdDjmE84C9+OQ8d59s1h8s5sBYXvv28P4L2lqxUbw3BCFb6SiETe7jWkT2+FPqE8cmHnQsqVtiKmofeRs2YMUqDgr2d5h7Zgmauw8CVVxTDkbrLXzCJozyiCcQxTggECqWexKih8xthS5O1ZjugtoPDlmMme9RLGgdUL/8uFthqGAbXIXJCEP61wEyUqN5YiXsPXRzHhkyRIzcgm/r2F1H05Hk0zpXbsRqP57zsMmfIpKeb06zq2oCjyy5YDvBw1Dk2j7grP7kVTpUFXJs5fiT7VWuhxzCdchc/n97PryEmee3MYmqeUPbYH3u7PxCWq8KnCFz4E83KwrRqGMblOqH5fIeVKF4FRV47sTzoTdBf8ddd1ZCvWed3RKy18g+/E9uW7BHMsRTCKYUowgN90Cuu0FooIn6CtjrHv9QpfKllzX8c4sFbhhU9XDUP/6lhndMZvPlVEg6dSFJSITRv5uDxetu4/Sv12Ayil5IL+ht1olzSJHzbtvq7jsufmMWXGajQ131B2o0braEo3j6RB5/78sHkPgaByreDCV/gC7Dl2mkYdh6JpoGBZm+aR/KdTfyYsWqXYGIYTqvCVXHK3ryJtYiuExDIUeteurhb6hApkfvxOqG9twTajuY9twzq/B/o4BYVPWxXD4NuxfTqUYPa/p4yHFPTjF45imdJMIeGLwBRXirw9KwoufPZ0Muf3wDjoFkWET9+vMpYJjfEZDlHQa0yl+ChRwieKErluDx0GTKNqm97y2jYljrVlFFUf6k5S8of4rqOY8a6Dx4gcNhtNfYXr7jWPpFz9roz94HNOpxgVva3CWfj2Hz9Do9eHKjuezSO5v1M/xn38tYKjGD6owldycZ/cjfXjGFLiFBC+5Nro4yqSMb8TAVt6gduseY7vIOPDXooLn3HQrWR/HE8wy1REoxh+SAE/3nP7sUxuoqjwufZ+iegt2FruoN2KdVE8hsG3KyB8NdAnVyJtWGV8KVtBEotoBFWUpsSs4ctHkmDR2l94tvtwZeu0PdaFtpETOXD8bIE6bzhdHsYsWMnd7bTy+Cl1PK2j0TSPokKTaNZvO4Aj16XYGEL4Cp8/EODw6RQavzYEzWMKykuLSO57M5mxH61UdBzDBVX4Si4+40myvxyKEFsGva5wwick10YfX5GMeW8QsBoKLHze03vIXNQHoa+CZVm0VTEMqIl15hsEMlKKaBTDDyngw3NqF+mTGiu0hi8kfPu+QvIV7P0g6MjE+ukwDEPuQkgq7AahWuh1VTD10+A9+7sqfCWIEid8AGf0Zrr1n43msS7ypgaFjvfBTgOYsGQ1geC1X8CHTpylvW4amucUbqPWPJKaL8TSYdD7nDFaCIrK3lQ7du+n68CpYSh8QU6kmGjadiiaR5UVvns7JjP6w68UHcdwQRW+kksg/Tw5a8ai76OE8NWRhe+DDvjTzxdc+M4fInNZPEKMgsKnq4a+XxVSxz+EP/04/5ZHgFLAh/v4VtLfa6Sc8MWXwrX/OoTPmU3mykkYht2ngPDJx2KIL4Xn1CYkUbmlRipFS4l6pJtPICgy+YM13NlcwXp3raKp2Ko3TfuMI8Nm/8f1cpIk4Q8EmbF0DY91Gojm+Z7KvdG26Y3m2R48/EoyP23ehTNP2dk9gB27D4Sl8AWCQc6ZLDR7bbjiwnfPGzpGLVSFTxW+8CJgEchZOw5BMeGrRMbc9vjNpwsufIYTZH7Wn5Q+SgpfDfTJFTEPKYvfdKDAx3Qpkt9D0JGJP8NIICuVQHYqgew0AtnpBGzpBGyWCwnmWOR+yTlWgjkZBO0ZBB1ZBHNtiC47oicXye8pMmGR/F5cRzaRNvE5BIWEz5xQCtf+lQUXvrwcsr/7AOOIB5QRvqTq6GNK4f7jF6SAv0jGT0V5boDwbVVc+ACOnDxD8sQP5Tc4pY65YXf+0yye33bsx/kPj1D9gSDpmTYe7zRUlj2FN2uUbdCd5u1H4nR7EEXlfyOWhW+ast0sFBC+YFDEYM2iRfuRaB7toqjw3f26lhELVtyU8wuq8JVcAukp2NeMRR+jjPAZ4iuRMec1fMYTBZYrX3oKWV8NJ6W3gsKXXAu9rhpmXVl8wm4IXn9byECWkdy968heOwvbd3Ow/TAP27oF5Pz4IfafPsb+8xLsvyzB/usSHBuW4tjwCc7fPiF30+fkbl5O7raV5O35DteRDbhPbsNrPErAZkJ0O5B8HlleRBElZiElv5e8g7+SOqEhQnxlZcYwoRTuA18j+d0FOhbR5SDn188wjXwYIVGBmo/aGphjSuE+8A1SAdcTqhQfJVb47Ll5zF35i1yEuWWUMo92m0dSq00MkaNmct709yVaMmx2Fnz5A3e/nICmicKze891p2GXoSxa+aMiLd+uxI49B+g6KAyFTxSx2By0emssmscV7J3cIoo72icx5IMvuBlXnKjCV3Lxmc+SvXKkwsLXDr/pVIGFz5+Zim3NOPRKzvAl10GfVB1jn7J4Tm5G8nuue6ykYADPuYNkfjIcQ+9bMCTfgrH/LRj734qx/60Y+t+KccCtF/5u7H8bxv63YRpwG6b+t2HsXxdjv9sx6O7AmHwnqYPuJm34vaRPaU72mjnk7f0Jv1WP5Pde9zFeOFa/l9x960kd/4xywqcthfvQKqRAwcZQdDtxbl2JedSjCAlKCF9NDNGlyN3xOcFc9bWhpFBihS8YFNl28ARvDpxGmee6y10zCnvMraMp1yyKeg2j+GXrAfJcV/4tKhAMcuDwWR57OoZKjSNl4VTqTbZ1NJoGXXmn/wxOpRgUH7d8duwJzfCF2SNdUZLIyXXzQtcJaOp3U+56bBnFrW3j6TfzE4JFJNHFiSp8JRdPyjEyPhug2KYNQ3xFMud2IJB2rsDCF8ixYv9uIobYsgiFPJY/JbEG+sgyuPZ/i+iyF2q8xDw77qObsc7qjiG+OkJcRbm/6z8lMZSEagjx1dDHyx/rE6ug71cb08hHSZ3QiIwPXsH+3Xg8J/fKM2nX+Xoh+Tw4dn6LedxThRc+XS30uqqkJpfCfWQtUrBgRbVFTx6uPd9jHvOYYsInRJbCvvFjAv+m2oolnBIrfABpGVksWf0L5Rt0U64Qc7NINA++zeQPV3LekHrF72tMz2Dup9+jub298rN7TXvxQDsd0xatxe0p/G+ZV2PHnoNhKXySJOH2+Xmp53tonuyuqPBVfSmG6MmL8F5H6Z1wp+iEL4Hx0z9Uha8IcZ/YgfXDKAQFyrLk79LNnPcGAau+wLISdGbj+GkqxvgyCLqahT6eizN8NdBHl8Hx+6cEcgpfQF50OXAf2YR1VicMA+5CSIy4/jHT1ULQVUdIqoQQVwlDUgXMox8m48MeOH+ejN90HMlb8HXUks+NY8tKzGPrIyQUVvhqotdVIa1/KTx/fIckFuyxuOR14T60AfOY+gjxCglfdCns62cRyFD76ZYUilz4fihC4fP5Axw4fp5H2/WnYoveaFoqcOytotE07snLPUbx08Y9+C+TA5/Pz/rf9/FC77HKd9UIze5FjpzLjoN/FMmY5ROuwgcQFCVeiZyEpoGCwtcqmtKto+k0bj65Hl9h1o2HJarwlVzy9q4j/f12CAkKCV9cRTLmdSSQZS6w8IkeJ46NczBoK6LXRSgnfNoa6PuWIXvtdHxpgiLjJgUDuPatwzq7I4Z+dyAkVVfkWAVdDYTEyghx5TAlV8O2ciTu41sIOrIoyNo+yevCuWGZPKuWqITwVSJtYCm8J9cVuBSK5HPjPr4d85gGCHEKCV9MKWxfjcJnPFnAM6dSXJRo4QPIynEw89M13PtqIprGCs621WzP+MkrsGb/+fGD3mxhxLTP0TzwlrIbNdr0RtMyivL/68zcT9djdxbtQthwFj6AV2OmonlGwVI3raPRNIukw7DZ2JyuAtVaLAkUqfC9rwpfkSFJODZ+jml0I4QkZQovC3EVsc7rhD+74IWXJb+H3B1LMQ2ui6CtiD65pjLCp6uBkFCazAVReM/uU3QIXfvWY53REX3fKso+htbVQkiqQkrPMqRPaUfuzjWIntxrHlPJk4d93XzMox5RQPhqoNdVJHVQKbynfirwGEl+L57zB0kd94wywqeriRBfCsu87rhPbC/w8agUDyVe+PyBIIb0DJ5unIjm4beVe7N7qitv9pvCL9suvjgFRInpy9fx4NsDlZXLNr3lGajGPWmf9C5b9h4tkp25lxL2wjfiAzSt+ig3g9o6Gk2jnrymm05aZk6RbYYpLop0DZ8qfEWG6HWRs3YQxn5VQh0QCttaLSR8C98mUMAZKQBJDOA++D3p455FSCwdKqmihDzVRNCWJ3V4BK4Dnys6hpLXhWvfOizTX0foXQZBq5CkhgRar62FPqkGqWMbkvPNVHkN4jXMsImeXGyrpmMa8V+EpMILn6CriGFgBTynfin4GAX9+NLPYJnYCH18lUKWiAmdz6SypI68F9euT6/ntKkUAyVe+CRJwhcIMHrKMv77mla5unzNI6n7agLD5nxBrlveEfXL9v20TZpExWZRyj7KbdMbTaOelLvtLT5c/hNma1aRjVc+O/YekoXv6fAUvn5zP+eON3RoWii0NrN1NJqnu/FqzCSMadYiF+obTdELn624f8SbEp/5NJmLe6CPLy8/tivkG7Ggq4EhqQJZS94hmFfwXrog4T72O+lTX0NILKWc8CXXRq+rjiGhDI5fZyDm5Sg6jkFHJq59P5A+rT36pFqKPd69EG0N9Mm1MY96kKzFXfCe34/o+bunMBJing3rxwkYBtdD0BZW+Koj6CpiGnEvnjNbCjw+khgkYLdindJUgSLQ8vkUtNUwJlTG+cv7hdp5rXLjKPHCl8/W/Ud5LWmycmVGWvdG06QXTWLG8cl3G1m/dR9dB8+g3ssJykllflpFUbVZNM+36c+Bo+fw+ou+kOWOvYfksixhKnwfrvyBhr2GKTvW9bvySs/xnNebERXuXFLcFK3wfaQKX5Egkfv7MtLeex4hoYIiYiJoq2DqXwvbF/Hy48frwHN2P9aFfRDilRS+kPTFliXrs2S8wjGFxxKCuTby9nxP+rRX0Su4pu9S6dInVcSQXJXMD3vh2r+eoD3jygcjSQQd6VimNsXQvwaCtlohv3cEel0l0t9rhvf83oIPjiQhel1YZ7bAkFQptCGnkNearhb6PmWxrRxCIPPf0yO5JHNjhM9e9MKX48xl+KwvuLV1rHKzQi2jqP1KHM/0HMorSROo3jQKTROFZS80Vve8mMCsZavItBWuZMG1clH4uoal8K3bsJVX4sejadRDueN7siutuo7m4LFTBP+hk0pJQxW+koUU9BPI0JMxvyuGAbch6BRYV5VcByGpPKYhD5CzZiJSoGClO/Lxm89g+3oCQt9SoZkt5aRJSKhA2qQWOLd+jhRU/hdbKeDHuXUlaVPaoNfWRlD4+PXJteRH79Hlscx+G+e2Ffgt50NjfclsqhgkkKUnffgdGJKqyGVVCvN9tRHok6uSMa8nPuP1beiTxCBZiztjHFC78AKafz7jymGZ2xHXoV8K1UFF5cZw0wgfwIbt+3hrwBQ0Dbsp12O3VbQ8Lk16KP8Yt03vC101nn1pEKf1phsyuwf5wjc9bIVvy879dNROUnaNYaMePN1lKF/9+Ds+//VX+w9Hikz4XlWFT2kkMUggO42cte9jHPwfhISqCjxiyxe+cphGPUvO+kXXfXyBnEwcv3+BvndpuZyKksKnq44+sRyZS7sTyC66WSHHrwtJHf8s+gQFZOuKP0cthNgKmIb9j+wvR+NPOy0/4hWDgIQU8OMzn8IQdztC3PWXjLnw/bQR6PvVwLZiPH6LcN3jYv9+PuYxTyEkKTWjXB7joDvI/nIQotvBv6VPcknlphK+9Cwbkz9ei+Z/nZUvl6L0jtz8NOvFgx2TGTvnc/yBwA3bPRruwrfz0B+81W86micVbK/WrBf/fbMfExcux+O9vtmPcKVId+nO+Bhrlip8iiCJ+MxnsH09GaPudvTamooKiZBYDvP45tg3fHHdhyi6HbgOfIc+srTyj0WTayMkVsA08iFsqyYoOLCX/wxOcrd/Teq7L5ASW0aR9ZF/lZ1a6HURGHQ1SB34EI5fF+O3pCAF/ARzbeTu+x6j9hb0hagReCFJERj61SH7x2X4s6+/0LFjy1rSJrVGr9ASAn1yLfSJVTCPqU/O97ORCtE2T6XouamEzx8IsGHHQV6KGUvpJj2LZkZOybSORvNkV9rGTmTr/qM3ZIzy2bHvcFgL34nzBiIHzlF253WraKq06kOzXmMwpWcSuIkKMKvCF8ZIElLAiy/tHM7NX5CxMArTsIfQJ1ZXfPZJSChH+vRXyd313fUfbjCA7/wOzIml0WurKC5Lgq4Gel0tzOMa4tj4KUFHZpE8DgzY0sndsZLUCS3RJ1VH0Cotr3XksUmqhj6hOqbRT2Cd/QK21aOxrf8Qy5x35HV/SnzfxAiMybfi2LqKoP36N/W5j+/CMqcjQl+lhK9O6LH5LZjHPo1t7Qy85w+FuqncXOukbwZuKuEDMKRamL3sG8rd9xaaxkWw3k7JtIjilpYxDJn2Cdk3cIwgX/jeD1vhS8vIJnHsIjSPKigwrXujaRpJ3TZxLP/uNyyZtpumPEuRruFTha+ASEjePAL2DLzG07gO/4Lzt9lkfaYlbVILDP3vCLW3UrBmXP6bb1w5rAu74z5euNpoActprNOaYOhfU36cqPRxhtbWmd9thv3HWXjP7UfMU/g1UJII5lhwbllO6vhGoe9bBNKXHHrEG18FfWJFTMP/i3lCEwwD70SfXB19sgJSnxCBSVcX99FNiK7rHyd/egqZS6LQ9y2vzHFdej61NTCNeILMj3thX/8+eXu/xXN6Lz6LkUCOFdFlD/UAVkWwuLjphM/j9bF7/0n++1hvKjwfGd6zfE90pU3MeFZt2HHDxiefnfuO0G3Q+2G7SzfX7WH0vK+p2jQaTSsFexW3jKJKy2g6JI7no9Ub2HzwJMfOGdCnWrBkZpORnUNWjoMcZx65Lg9en59AMIgoihcSDEX+u4QoyZH+Ei6GoguEhG9cOAtfUY7ANUS6UsQrRxSRxCCSKF5MMIgU8CP5vYiePIJ5doLOLAL2TAJZqfjTz+EzHMF7dhue4+tx7V6OY8NCslaOwTLrDUxD7pTrn8WXV2yDxhUTW46sz3SF7n4QtGdgXzcX4+C7ERKrFs2xamsixJXHPOxBsj5JInf7p3jPbiZgNRB0ZCJ6XUjBAJJ4ybkp8HkXEb152NfNIm1iY/T96ii88/hy8auJkFRFXiOnq4oyUl8TfWI1zIPvx5d64ro344Dcki5nzUiM/W8NbdxQulB1efRx5TANvIe0ya3JXBxH1rfv49iwgNxtn5C3bxWeP37Ad+pHvGe24D2/B5/+MD7TcfxpZwlY9QSzzASy0wjYLARyMuR7zJFJ0JFF0JlNMNeGmJeD6HIgenLl68TnQQr4kIJ++V699N69kCCSGARRvsf/fN+HXhP+8sp6c3HTCR+ANSuH0R98yp1FUUJFqbSKpnydN5gyYyXpxVDU9qLwhecMX1CUWPb9Jhr0GCoXuVZyDWWraDTPdUfzTA8efmsQPcbM4b2Pv2Lp6h9Z8cMmVv+ynfVb9rFt33GOnhA4n5KKwWDBYLRiMGWgN1nRp2agT8/CYM3GmGkjNctOWrYdS7YDi82B1eYgI8dJpt1Jlt1Jtj0Xm0NOtsLJceaxbf8xokd/gKaBgmseFRI+KehHdNsRc7MR82wXk3u1ZCPmZhO8JJf+N/njrAIkE9GZiejMQHRaCToscuzpBO2pBO1mgjkmgjlGgjYDwSwDgUw9gUw9/kwD/gwDvvQUfOZT+ITDeE7tIO/Qzzh3rSFn85fY188ne/lwrHM6kTrmEczachh6l0aIKo0QUxohoTSCtgKKda24amojxJTFtmoEgey0Qt1/os+NRzhK6vDH0McpJS5XOeakcgh9SmOIK0Xa2HuwrZ6Mc/tK3Kf34Es/RyDLIJ8XeypBpzV0TrPlayXvWpJD0JlJzjdTMY9+AiGpXBGfB4UlUlsFw4AIrLOaI+ZlUlgZydu5hrTJLyjShQ+a9AAAIABJREFUyu+q51RbCSGxNEJcaVJ6l8YQXRohsjRCVClMCaWwDC1F6uj7SZ3UFMusjmR+1BvbZ4Owr34P5w9zcPz0EbZfl2LbtBz7lq9wbFuJc8cqnLvXkrvvO1wHf8J99DfcJ7bgObMLX8ohfMY/8KWewW9JwZ9hwJ9pxJ9pJJB58X4OZOkJZhkIZhsI2oyIOSaC9jREh0V+fcjNQszLRnTZEF12RLcD0e1EdOfKcunJRfTkIeXH6wrFjeTLj0eO33vlNY2SJP9SGfoFUvJ7Ln7NpV8b8Mlff/lTKEmSxdaTJ8v/FYuAS0jBgHy8LjuSzw1i8OYUPq/Pz6kUIw1eGICmfrei23BRCOEo1bQnjXsM46ct+wkWQ024nfuO0G1w+M7wARw5dZ4BkxaheaCTMn2SL03raDQtoyjXMpoqLXtTo3k0tRtFUqdhJLc8Fcmtj/fktv/04PY7ulKvXmfq1etKvbt6Uu+BaOo1jKVeq0TqtetPvc5DuSd6NE/GT+D5pIm0SZ7Ea/2n0HHQNN4ZOp2uw6bTY8T7RI2aSZ8xs4sksWNn82a/93jk7f5omitUkuiC8CUwfuai6xY+SQziOn+CzJXjSZsXSfrCONIX9pWzoC/pC2LlzM//M0bOghjS5seQNi+GtPl9SJvXh/R5vUmb15v0eb1Jnxd9WaIuSSSWeVFY5kVi/aAXGR90J2NuFzJmv0nGrPZkzHgF6/utsU5rinXqM1gnP4p10r1YJ9bDMr4ellH1SB9Sj9T+9TDr6mFIrIc+rh7G+DswJ9yOObEupqRbMWlvQa+tg/xorDr65MrodRXQ66rJ5UzyN2ToaqHk47Orv8lWxxhfBsfPUxF9rsLdfJKE5PNgndUSQ3J+F5CiOvZa8syYthp6XWX0yTUw6epgTKiLKekOUgfWwzL2TiyTG2Cd1Q7LBz3la2BBX9IXxocS9zeJJ/3jZNJm98Q0+gn0WuXWr90Q4YurjHn0kzg2r0DyFb7Asc90muwvRyBEl0GvZCu6y65HfXKtC9e/oK2JoK2BoK0eOs+V5HsluaJ83yRXxZAcgT65BvIvRrXkY9PWwaCtg1FbB5P2Fsy6WzDpbsGsvRWz9jbMSbdhTqxLauLtmOLvwND3DvRx9TAk1MOUJN+/qf3rkTZIvqfTh8v3t2VsPSzv1sM66X6s0xpjnfEyGbPfkq+tBTGkf5yEdclAMj8dSdaKCdhWTiFn1XTsa2dg/3Y29u8/wLF+IY6fFuH4dSnOjZ/h/H05zi0rcW5bhWPbGnL3/Ygv9TSXC7rk9xKwWfCePYj7yEace9fh2PkNju2r5ez6ltz9P+M+vgOf+Qyi1/Mn6RM9eXhTDmP/4QPcx7cRzP3rhJEU8OE1nsD2zQysiwfg3PIlfotwcwqfJEl4vD6GT/2E/7TThd8sX5NelHngbaYtWUuK+fp3XBWGnftDwvdUeM7wAeS63Kz6ZQf3v5pEmeZF8Hi+dbT8b7aIkkWpSU80z/dE06gnmmd7oHmqO5onuqF5oquc+t3QNOiO5rmeaBpHomkWhaZVb0q90IcKL8ZS5aW+RLzcl5qv9KX2q3Hc0jaOW1+N47a28dR9LZ7bX0soktzRLoFb2sZR5aUYZX+5UUj4co8fIHXGG+iT66IffAeGS6K/PINuD+Xix4YrRD+o7lVjuDQDb8M48DaMA2/BMLA2hgG1MAyoKad/dQz9IzD0r4KhX0U5yZUxaKtgSKyKPqEaQnw1hLgIhL4R6OMi0MeHkhCBPjECITECISkCQStHr4sIyV1RvZFeJbqapCSUI21iS1wHfrjKb/0FPXkSjt8WkDr+KYT4Sjfg56gltxBLksf24lhXxaCrgqFfNfkcDrrtkmukHobB15Ahd2EYfCf6AbeGpKL4Re6aZE9bGYOuGhkL3sSfYQyVfSkcosdF3o7FmJJLyY9gi/AR918lMF8Ea8obWnShe0YrR0i6JKH7S3+lJIQSfzH596nQN/RxXARCfDX0CdXQJ4aSVFW+v3WVMSRXxNCvkvw6MKAmhoF1LlxbhsF3YhhyN8ah92Ec/n+YRjyAacSDmEc+iHnkQ5hHPYx59KOYR/8P8+jHMI95HPPY+pjHPolpbANMoxtgmdmevJ3L/3Ivit48PGd2kbmoL2kTmmEe+wymcU/JXze2AaZxT2Ee0xDLjNdx/DiLYN7FVn6SGMSbsoOMOc0xjXyY9InP4/h5NsGcPxcAdx/+Aev8ThiHP4hh8N2kjqqP/fupN6fw5bNl31HaJoRquSlVl6+waRlFlRa9eaZtP3YdPInb6y2WsSkJwgdwzmRh/EerqNaglyxjxTpbG32xRE9+WoXWGLb8m7S4AWlVBKWDlBC+YBDnH/swT2qNEFsWQVtZbjMVinAN0V+Wa/mav08VBG1VBG01BF01BF0Egq46gq6GPNOkq4Wgqx3KFd6EL0lxC0H+G6mQFIEQUwrb2vfwp51T5N4D8KWdJXNRLAbtLei1RbSW75+kR1c7dF4iQufu76+Pq0XQVpYlo9jP1zWeU11V9PFlsLzfnLxdnyta8sRvOkD25z3Qx5UPrdEs6hloha6Ff8ifr5v81L4ktUKpGbrfI+TXgStcV4K2MkLSVZJ4SRIuS3wlhNhSmEc8gvO3+SD9WdKlgA9/+lkcv3yAeciDCHEVEOLKIcSHvjauFPqEWmTM64L7yE/y49jQDJ/ocpC363OMCaVCn1uWtInPyN9HlK+PoNOGbc0YDIk15eNJqowQUwbLrI43t/A589yMmrmcuq1ilX3UVZg07sVdLyUw5aMVWLOU7SdZEHbuP0q3wTPCXvgCwSCC0Ur77u9Rq2Vf+TyG2yP6mzUXhG9xIYVvP6mTWyPE3YhZon9fBG0N9Ek1SBv7FJ5TWxXtaypJIrlbPiNtYlOEuLLF/rP+O1JbnvVKLEPa2P/h/G0+Yq6y7xWSz4P3/EHS322BQXeLPKt6o2elb9rURkgqQ+qY+jg3fnzl2XZJQnQ7yPokAePQOxGSKl/82oQypE1qRt6ulX/5skCmCfv6meh7lw6JaxX08WWxTGmCz3QKKeDHazhNxscxCH3KX5BgIbE85rHP3NzCB7Bx50HeGThdXsxe3LN8rXtT9pkeNGw3iJMpJry+G9NV40rsPFAyhA8gEAhyzpBK+wHvU6VVb/k6Defd1zdLLhG+DFX4wjDyjIU+oSapQ/9H7t51BBUWA4BAVio530zCEFMdIalmEa77UiPLXnX02gqYB9Ymd/Mignar4ucUQPK6cB/eRPrEZugTayAk1SiSriT/vlyD8CHXu3Qd20LapKYXXxt1tRBiSmNbMw5/2vm/fI3PdIqsr0eT0qf0hXMlJFbBOPR+sleMJejMwnPqANaFPRH6lr9wTIK2AqbBtxe18EUXu/DZHLnMmPsNmhodil8SmkVyfwctQ6cvIRAI3rCuGleiJAkfyDN9p/RmoictltfQNegiPy4tbom/mZMvfLNU4QvHCLrKCNFlSRvxLLmbv5Bbeymxdu9yxCDecwfJXNKPlB6lERJLzhq4khZBF4E+vhympDrk7fiSYE6aIuv2rogkIfm9uI9txDKpHULX0qQklEUogq4k/65cm/AhSQRdOVimdUCIqiR/na46xvjS5G5dhOh2/uVLvMJRsr4YjBCbL3y1EZJroU+qjqn/PXjO7MZ9eDPWBV0R4i4RPl11jMmVb37hCwZFdu07QWTyDMrU74qmuYI13QqS1r3RPNCZ17q9y46Dx4ttPPLZeeAY3YaUHOED8Pn9HDlnYuHqDbw9YBoVn+4hr89squB1q+ZP5/OutglMmLVEFb6wibwbV4grjyGpDNY5r5G7/SuCOZa/lm9QENGdi+fMXjIXazHq7kCILznrvkpKBF1l9AllSRtfn7xtnxHMsdyQVmWiy4735A7s30wi7b1W6GMqIcSVR0iqhqA+5r2OXKPwIW/CyF7YCWN8RXnjl64SqSMb4j664cKavEvxnj9E5qf9EGJLyWtSEyugT6qKXlsNvbYy1o/jyPpiJGlTWiAkXhQ+va4mhqSKN/8jXYAsm52vft5G+aahHZnFIQeNe/Jgay2TZ32NI7eQJRMUoCQKH8jvaZk5Dn7bdYiRM1fwRvIU7u2gQ/NcD7nETLMwL7ZdkpIvfLNV4SvuNxC9rrq8uD6+EgZdbdKmvYTtKy3uw9/LrcluAJLXhffcAbKXD8U84lH08RURkqoiqI94C31+BW0V9IllSJ/aCOemBYh5OUUzW3u1cxv0E8jQk7drNdnLB5A+7UWMg+5GH18JIbGKvKlJFfxrP5/XKHwAOZ/3xNy/KkJSRQRdBVInv43n9D6uVG/Re+4QmZ8kI8SWxtCvDukzXyZ1QkOEhMrodVUxDLkf05gnMAy9Ry4PlX9MupoYtP8S4QsGRY7rU2k2cBrVWsagaXoDN3C07i0/eny6K9Fj5rHr8IliHYt8dh48RrfBMxUv1FvUwpePKIrYnbls3HWQYXO+oE2fiTTsOJh7OiRRsXEkmoY95PIqzSLl8S+KXaw3e1ThK6bUCK3jikCfFCGXldBWwDT0HtImNibzwy7k7vyWQFYqUvDGrwP2pZ4nZ81Y0ic+J3fiiKsmH6c24gaW+LhZElqzp6tO+qRncP6+sEjWYV4rUjBAwGYhb+dasj9NIn1qC0yj/4chuRL6xKpymRRtRGi3syqAVzunBRE++5oBmIfdjpBYBkFbgbQZkXjOHr7i53pTDpP5SX+EPuVJn/Iijs1fkLE0HiGmvPx9tRURksqHuqhcPKYb+Eh3W7ELH0Cey82WvYd48qV+lHm6R9G/+beORtMymlItoqjQLJJb2sSx5Nvfi60My+XsOniM7kNKrvBdisfnx5hm5Zdtexg6YzENXuhP3cciqfNUL2o0lVupVWwVTZmW0RfLmLSMkos5t7q0zEoYSFY45YLwLVWFrwjeFP5UmDYUuT5ZFbkAsa4aBl0tTNrbSBt1B9lfJuM+vivUmL54Wz+J7lzcxzaTuSgJU2JdDNqa8jFrq4R+hksLTqszgFeNrjqCrjKmEU/j2vfDFddtFReiJxev/jg5v3yMZcJ9mPvXxaCrjT5ZLpwslzSqGbpua6nn/EIKJny29XMwjXkCIUGDXlsR69w+eM8fueLnevXHyPp0CIao6th/XoLXdJbslSMRosvxdwIuaCtjGnTLzb+GLx9JkvD5/PSbsoh7Xo1H83yPonujbBUlF/F9vDNVH+tC4x5D+H7LPjJznMW6UeNSdh38Qxa+EvZI90pIkkQwKOL1+XDkujCmZbHv2DnW/LqdaYtW0mv4DF6MHsZdL8aiebwrmv90QvPo22gefwfNU13kNmuNe8rXvzobeDHNVOFTIpfWCBNCO2sFbYT8G32C3H5KiC2NPqY0Qu/SGJPrkTahNZmL++P4bSme09sJZAmIbvvftFK6wYQW/Acdmfj0h7Cv+wDr+29hSr4XoU+opVx8aXm2QRfxp7Eo7vMRVtFGoE+uRsbifnL/4zB5fwBCLbwCiN48RKcF77m9ODYtI2NRMuZRTTAmlpWv2T7y9SvEhdoIhmaY8h/1/12tvJszBRM+5/Y1pE19CSFOgz6xElnLBl61F7bXcIKsL0Zgiq2Dz3gMMS8H+/ejMCaWRtBW5GrSJySWxzyu0b9H+PI5fOo82imLuatpDJo73pB7yTbpWbDitfkFd1te0qGhYTc0j7yNps4baJ7oRsMew9G+9xEfrviJXUdOYXPkEgyGwQt1iF2HQsLXoAiEb8aNFb7LCYoSbq+PrBwHhlQLx84I7DlyinVb9vPJt78z77N1TFiwkkHTlxA7bh7vDJ7GC3FjeKTzACq/HIemYS80//c2mjod5NzZEc0Db6F59B00j3dG80RnNE92ka+dZ7uhadQdTeMe8nXQtBea5r3k66JF5J8LMLcKXWN/mlUMY7nMn+Gbs5SM66wZ+Vfhqx1muWx24k+FWS9NjVBx5ohQ0ebKFx+fJJVHSLwk8eXlRe99yyPElkcfUx5Dn/LoI8sjRJbHEFMOc7+qmMY2JH3mG1g/7kPWiiHY103DsXkJrgPf4Tm9E5/5NAFbOqI3r+h2ahYWSUTyewhkmfGdP4hr/3fYf55D1ueDsMztRuqY/2JMrIC+V3kMUeXR95HHRIgrj5BwyZgllZf7r2qrXlYEW86fZ44KFuHy5BfhvfDfilFEQteacch/yPpsIJ7Tu8ND6K+A5HMRzLHgM53Cc3IHeXu/xPnbAmxrJpD5iQ7rgp6kTnsN84j/YNJVwxBTDiFSvu4NvctjiCmPPjZ0/vuGroH4K10H5RG0FULXQ5VQLi+QXuMv18hfU+uKufx+/+fUDpUiuvbXlIIIn+fUbqwLuiNEadD3rYpjw+Kr9sL2mU5j/2Ux2Z8NJejMBDGA98x2shb3xtCrNEJMuYv3Vn5iy6OPLE3GvG6y8H323W882UGH5p6OaB5+B80jCuT/3qDuw2/z3U+bseXYlb/6rhO/P8CuI6eYvfg7EgfOp2PyVB7rNpTqbRPQNIlCU7+L/Mb+v85onugit9R6vIv89/yfrX5XubXWy3Hc0VHHU72G0zbpPSIHzWbA4I8ZNXslK9Zv5eCJs8VaXPnv2HHgGF0TJ6Op95oy5/uRd9D8Xyfuei6agVM+xFaMwnclJMDrD+DIdWHNsnHOmMbR0ynsOXKS33cf4vtNu1jy3UYmLV/PmIVrGDN1BWPGfMrwEUtIHv4RsUPnEzVkLj2HzKbHoJl0HjCdN/tNpZ1uMi8mvEuzmLE8GzWSJ7oP5b+dB3Jnx2RqtU+kbNsENK/Go3k5Ds0LsWha9EbTJFIuLfN0d/l6e7yzfM098g6aRzvL11v9rmie7IqmQTc5T4b+/mQ3WdIbdJU3qTTsLm9Yyf+lRWnhey2Rd+d9QkZ2IYTv6F7MY1uR0rMsKTGVij1C7OWpiBBbEX3fUOJCia+IIaEihsSKGJMqYEouj3lAOcyDKmEaXAPjkLoYh9+LafTDmMc9Seq7z5I2qSmW6S9hmf0GlnldsC7sSeaiaLKXxWNbPhjb16OwfzMW588TcW5fgevQr3hO7cZr+INAppFgbo5cODlcBe/vkCQkn5uALR2vcBT30S3kbvsI+7rx2FaOwvbFALKWxGJd2BPLnI6kT3+BtImNMI99HOPw+zANqYV5oDzORl0FDEny+OvjKqKPrXjhfF3LedX3DeXSj+MqYbhC9HGV0MdVRshPfKhjQuIlHReKcM2aoKuNkFAF49D/krU0Hs/RX6+4QzOskEREr4ugPQNf2jk85w/hOb6dvP0/kbv5Q5w/vod97RhsK0djWz6Y7E8SyVrch4yPIrEs6I7lg3ewzOqAZfqLpE9uRurE50gd3wDT6Ecwjrgf49A7MA6ujXlwdcyDKmAeWA7zgPKY+pXHlFwBo1aOIakChkT5HjUkVESfIN+3F+7hS9O3IkL+PR665/85V3q9+KdURIguhXnoAzh/nfOXThuXE7Clk7P2XYzJd5E67GE8Z3Yjeq+8sTNoz8B7/hDeMweQ/PLyMNHlwHNyOzkrhsnjO6s96VNbkT6lOenTX8QypxNZn2hx7f1GFr6ftx8gZuhcXm47ipffGsvLbyuQjiPp0n0M2/ccxpmbp/DVVnhcHi+COZ2Nuw4yY/n39Jn+CR0Gz+G1qPd4+e2xvPDOGFp3HkvrLmNp03kML7w9hhffGsPL74zjtahJdBg0h9cnL2bA/BXM//pH1m/Zw5GT57Bm5+Dx+hDFMJqavwJ/nElh8owveLndEGXO99tjefn10XSLnsL8Fd/jzHMX949YYIKiRCAQxOcP4PP78fn8OPNcpGZkcVpv5sjpFA4eP8v+Y6fYefAYv+85xE/b9rF2ww4+X7eJj9b8zKzl3/Pu0tUMXvAlcbM+463py3h96lJen7SY18d/RIeR8+kweA7tk2fSLn4q7aIn0bbnu7zSZRwvvTWWF94aQ5vOY2jddSytuo6hZdcxtOwympadR9HinZEX0vydETR9ZziNOg+jYeehPP7OIOq2S1RW+pr14u7XEpm08IvrFz5RxJVyksxlQ0l772XSp4dB3n8Fy/uvYJnxKpaZbbHOaot11mtYZ7cjY047Mua2J+OD9mTOa0/m/PZkLWxP9kcdsC3pQM6nr5Oz/B1sK6LJ/lJH9uoR5Hw3GfuPc3Bs+IjczZ/h2vUN7kMbcZ/YhfvsIbz6P/BbzhN0ZiN6PUgBv7zZQhIp7rV4RY4YRAr4Eb1uAnYrPvNp3GcP4DryO66dq3FuXIx9/UyyV4/C9mUs9s/fxLa0A9mLOpD1YQcy57cnY247rLNewzLjVdKnv0L6tJdJn/YyadNeJm3aS6RNfZG0qS+SPk2OZdoLf4p1WpsLyZjemoxprcmY1oqMqa2wTm2JZUpL0ie3JHVSC8zvNcf87vOYxz2FedQjGIbeh3FwXQz9IuTyF0n5/ZKVXaMmJNdBSKiMccCdZC7siufEJkSPM2xn+/4WMQhBP1LAh+jzEHRm47cKeI0n8Jw/jPv0flx/7MB98Bdcu9aQu/lznL8twvHTXHK+n0r2mtFkr+yPbUUsOSt6YV/eCfvnr5Pz6evYlr2ObUkHsj/uQPZHoWtkoXyPZi6Q79eMefL9m/FBOzLmXpI57bDmZ/YlmSVfX39NWywzL8+r8uvG5Xn/Vfk1JZT0qa+Q+VF3XPu+/udzKAZx/7ER24rB2NeOJpibydVeF6RgAMknv4b86XPEIKLLgff8EdwHfyZv+0ryti7HtWsNrqNb8GcYkXweWfjcXh+Z9lysOU4yFIo1x0FGjpM8j49gmMtPPkFRIs/rw2JzYLBkcc5s4awpnfOpVgyWTMyZNjLtueR6fATDaa3FdeD1B8jJdWGxORQ8504y7LnY89yIJXx8igoJECUIiBK+oIjbH8Dp9pLlyCMt247RmkVKqpWzpnRO6c2cOG/g+FmBP06f54+TZ/njxGn+OH6KI8dOsPfAETbv3M9Pm3exeNV63hwwTV5aoJTwNe3FPa8lMnXRSjJt1z9LL/o9iC4bwdwMgrmZxZ+8LERXNqI7B9HjQPI5kfx5SAEPUtCLFPQhiX64kID86PJml7OwQQJEeWZE9EPQi+TPk89XXhZBZwZBh5WAw0LAnkYgJ5VAjpmAzUQg20Qg20ggy0AgUx+KQCAjhYA1hYDlHP70s/hTT+M3n8JrPIlHfwJPynFcZ46Rd+owuYe2krttLfYf5pHx6XAy5/cifWJ9zEPqYkyugz65mtzOTldTefFLqoJeW420iY1wn9qC6Lqx5VlKBvL1IUnBUAIgBZDEwIV7Vgr6kII+CP0p39depIBXvs//FDdSwIXkD8WXh+TLlePNRfI6kbwORK8D0WOXr8NL47LJyctGzMuSr9G8LMS8bCTftZZgC13vFO251oC86F2UJERR+YTLJoVrRQqNQ1AUCQYviShHlErez3QlJImiOec3yfjcCCTk83Dp/Zd/nQWCIoFgUE4gP4EL8QcC+P0BfD4/Xp+fP87q6ffeEnkdqYLCd2/bRGYuW01WTmHW4Urym1ZYRgotlL9aVIqf0Dm62jkUgwVMQJ4puTyBgDz76vfJsyheF6LbSTA3i0DGeTynd+DYsBTL7CiMfSPQ9y0tF79VVPpqh8rxVCB11L249q8Oq527JYO/u5//IdK1pICvL2GEprgPQEVFpfAcPnmOhHEL5Z3HSglfk57c1zaJD774lmy7+qaj8m8ltFvVk0fQZsEnHCNv+3Ksc9/B2P9uhLhKyrYj09UKdU4oR/qEx8ndOA/RmVXcg6ByE6AKn4rKTcDWfUfpNmyWvHNYKeFr3JP72ybx4cr12FThU1GRkSTEPDvuY5uwrRpH2nvNEOIqhordKrWxo7Zc0zChPOkTn8Wxfib+TFPJ3MyjEjaowqeichOw9redvJz0nrL1JZ/vyX/aavnkm1+LtcyOikq44rfqcWxcTPrk5hh0VdEnhQpPK7aDNwKhb0XMIx4jZ/1s/Bbhwu5MFZWCogqfispNwAerfubxnsPkOoBKCV+jHjz4qpZVP2/BEYY77VVUwgHR48J9Zh+WCU9i7FddfhyrU66Ei5BcEyGhMobEOuSsn4s//Xxol6aKSsFQhU9F5SYgfsFKueZfCwX7RD/Xg0faJrNhx35yXSWvzI6Kyg0h1HUkkHaKzKXJGAbejxBfQdnNHLpaCEkRGOIisK2aiM90prh/apUSiCp8KiolHH9AJHrEx2gaKNwj+rkePNZuALsOHcflUR8jqahcHQkp4MNnPol9/RzSJrRA6FNeLt+ilPjpaiEkRGAa9ACZy/rhPrGzuH9olRKGKnwqKiWctIwsOsfPQPNIZ+Vkr01vNM/24IkOgzh08hwer6+4f0wVlfBHEglYUsjd/DmW2W9hiKuJEF8JQRuhjPQl10aIr4Zx8ENkfNwX99Hf5f7KKirXgCp8KiolGFGS+HbjTpp1HyW3YFNY+J58fTAnU4x4feqaIRWVa0XMs+M+8juZcztjHvU/DP1uRUioJtfYK2TBZiG5DkJ8NQz97sY6vyee45sR83LCruabSvihCp+KSglEkiS8fj/pmTa6DZ/JrW3j0bRUsK1a62g0z/XgqbeGoU+34g+EeW9PFZVwQxIJOjJx/LwAy+SXMCbXRZ9cHb22KnptDfTamrL85Se5ZqisS+1ripAUgZBQBcuUtriP/IrosqtdOVT+FlX4VFRKID5/gJPnjQyYtIA72sRSupmCu3Pb9EbTKhpNi2ga9p1IliOPoKi+kaioFBhJRPJ78KefJ3f7KqwL+mAaUBV9n1IIvUuhjy2FEF8KIaEUKUmlELTlELSVEbRVEbTVELQRV0k1OUlVEOIqYB7bBOeWLxA96m56laujCp+KSgkix5nHkVPnmLH8B57r+y53vhJHuZbRsqApKXwto6j2UixvDJ+FPxBUnxapqBQCKeAj6MjCZzqB++gPODcvIeebyWR+NoRiP3Q+AAAKMUlEQVS0D5OwTH8dy7uNSRt5H+bBVTANLIOxfxkMyWX/FGNyWYz95P93If00mAdUwzrlEZw/DSPosquPd1WuiCp8KirFzJ/66UoSgWAQR56L1Iwszggmdh85yaqNO5m4fB3JUz6h66CZ1O86FE2LKLnunpI7c/PTrBcPvj2A8R99VdzDo6Jy8yBJSH4PQUcW/vQUvCnHcJ08gPvQBtx71uLavoTczTNx/j4F56YpOH+bguO3KTg2TsF5pWy6+Hm5v0/Bc2wVojdPFT6VK6IKn0rYEQyK+Px+vD7fX+O9GE8obo8Xt8eLy+PF5faQF0quy30hzjw3zjwXjtyLsefmYXfmkePMI8eRiy2UbIeTbLuTLLuTrBwnmTkOMm0OMmx2Mmx2rNl2rNk5WLJysGTZSM+0kZaZTao1C7MlE1N6BsY0K/pUC4I5nfPGNM4aUjkjmDiVYuTkOQNHT51n37HTbD5wnG93HWHlpn18uX4nX67eyhcrNvLh4h+ZumA1I2d+Rsy4+bRKmECN9kmUadgDTYOuckeNVgqu2bs89bvyQq9x/Lh5d3FfDioqKteMhKTKnspVUIVPJawQRZGsHAdH/zjPnoMn2XP4FLsPXZKD+TnJrgMn2HngBDv2H2fb3j/YuvcPtuw5xubdR/l911E27TzCxp2H2bDjML9uP8Qv2w7y89aD/LT1AD9u2c/6zftZ9/s+fvh9L99v2su3G3fzzcZdrP1tF2s27GT1rzv4+ucdrPx5O1/+uI0V67ewfN1mvvhhM59/v4lPv93Ism9+Y+naDSxe/Qsfff0TC1asY+4X3zP7s2+YsWwtUxZ/zcQPv2Tc/C8YNedThs1cyqBpi4gbN5e3B02mScwobnl7AGVbxaJ5pBuaW19HU/lVNJVfQ3PnG2geegtNgy6y4LWIVP7R7VU2bJS/vzPRfWdhSLUW9yWhoqKioqIAqvCphBUer4+ftu6haYv+RNzzDhGP9yDise5EPNqNiEe6EfFwNyIe6kbEQ10v/Fnt4W5Ue6R7KN3kPNqNav+7LI91p9pj3an6WHeqPh7KE92pWr87Vev3uJgnL01PqjboQZUne1Dlye5Uqd+dKk90p0r9bvLH9UMfP9mVyk92C6UrlRt0pfJT3aj0THcqNexBped6UrFRTyo+34uKjXtRoWkvyjeLpGyLSEq1iJJ32LaMkh/T5id/bV7raDSti1jyLk2TnjzYsR+zPv8BUd2soaKionJToAqfSljh9vr4cfNuGrQdgOaxzmga90Lz/JXSE02jXmga9bzy/298jWlypUSiaRopr49rGnlJLvu8pv+QZr3QNItE0/ySXJC5KPmR7AWhuwEzd9cws6dpEYXmqa4MnPEZJ86biusyUFFRUVFRGFX4VMIKj9fHT1t281SnwWie7X5jZ7b+zWkdjaZpL8o82Y1eI+ez9cAJtbuGioqKyk2EKnwqYcUF4XtrMJrnuhe/CP0b0jIKTeOe1GweQ/uYyew+fAqX21Pcl4KKioqKioKowqcSVqjCdwPTOhpNs0gqNY/mthaxtOszifOmNHx+tauGioqKys2GKnwqYcWfha9H8UvRzZrQI1zNXR15vtNg5n/5A+mZNnWThoqKispNiip8KmGFx+vjl+17earTEHkNX3GL0c2WVtFoGnan/BNdufMNHaNnL2fTzsOkZWQTCAaL+/SrqKioqBQRqvCphBUen4+Nuw/xTKchaBqqwqeY5DWPRPN4FzRNInm0+3AGvLeEj77bxMkUk7peT0VFReVfgCp8KmGF1+dn+8HjPNtxKJqnuxW/LJXUtJLX52ka96Ri8yj+7w0tzd8eyZvDPmDG6l84ZzATCAZRa/KrqKio/DtQhU8lrPD5Axw6eZ7nOwxF80SX4henkpLWoSLNzaPQNOpFxZa9qd0qhrvaxNPwraGMnLmETXsOk5XjLO5TrKKioqJSDKjCpxJWBIJBzputNH9tOJpHOhe/SJWEtI6W26417Ibm/zqhKfsqz3Tsz5CZS/jh990IqVa8Pj/BoKj22VRRUVH5l6IKn0pYIUkSuW4vL3Yaj+bRruHRgaLYRC6UVtFyrbzmkXL3jsY95cfdD7+N5o6OaOp14u4XEnlj0HSmfrSKb7/fwe7Dp0kxW8hx5OILqGVWVFRUVP7tqMKnEnaIosTACYu5q3Ucmud7XGw/VtwCVtBZt0vTKlpupXZB3C5r1fZ8D3lX8tPd0DToiuapbmie7i6XpmkeRYVX4ri/o5Ynuw2mVd9xdBk8g37jPmLIuGVMmrmapas3sWnfMVKMabjcHgJBEXUyT0VFRUUlH1X4VMKSHzbtpMfQ97nzlXg0rXqjadgDzbP56S6nUQ+5p27jnlfubdvskn62l/e0zU+zy3OFfydfyhr3lMXsuVDyj+PZHpelp/xnwx5yr9+mkWha9absS7HUfS2e/3tDy6Od+lH/7QE06DyIBl0G80zXoTzffQQteozmxcjxtI2ZRIfEaXQcMJO3Ri8g8v1PeHfR18z/8ge++nEz2/Yd4ZxgxGTNwuX1IYqq3amoqKioXB1V+FTCkqwcB+s37SRx8oc8FDWWB1vp+E+LJO5vFs+9TfpyT5MY7m4Ww10t+1KvdV/uaCPn9lDqtulL3Rf6UveFWG57oS+3vRDLrS/GcsuLsdz6Yl9ufSGW216M5bYX+3LbC/mfGyf/ecm/c3ubvtzRJo56reO4s1Vf7moZy93NYri7SQz3NInl3iax3NukL/c1jeP+ZvH8X/NE/tNKywOtdTzYUstDL/fnoU7DeCh6LE8lTyZy9BxGvL+I9xd+zsJlK1my/BuWrPyBL77bwDe/7WDj7kPsO3qKk+cNCKkW0jJtZDtyyfP4UJ1ORUVFReV6UYVPJSyRJIlgMIjb6yPbkYfZksmJ80Z2Hz3Nxt2HWbd5D99s2M5XP25m2Te/8tHX61n45ffMX/4dcz//hlmfrGbG0q+Zvugrpny0nPcWfMbYucsYNXvp/7drJ61RRFEYhn+6C0FEURwRiWJiiIqNUYIEMWBwwIBKQFFxERdpa7y35qqu6u4aXhct+QvR8nvgbM/i3s27OJy5ts7ZGxucu7XJ+dtbXFh7yMU7j7h09zGX7024svGEq/e3ub75lJsPdlib7LL+bI+t56+YvHjN9t47dvYP2H3zkZfvD9n/8IW3h984+PyDT9+P+Hp0zM+pjxNYbJwRZyVJUZFWNWUzZ75csmxb2ralbbvVdB1d19P1PX3f0w8Dw8mc9m+IiMi/TsEnf7WB1U1f23Y0iwVV3ZBXM9KiJMkKojTHxBlBlBDYBN/G+CbGMxFuGOEGFiewOL5h6oUceyFTL+SXb3B8gxNY3MDihhY3jPDCCM9E+Ga1x7cJYZRi4gyb5sRpTpIVpHlJWlRk5YyiqilmNWXdMGvmNPMFi+Uq5k4Crh/+RNxpv6iIiPyPFHwiIiIiI6fgExERERk5BZ+IiIjIyCn4REREREZOwSciIiIycr8BQtxZA9UIX+wAAAAASUVORK5CYII=;" vertex="1" parent="1">
          <mxGeometry x="-120" y="47.45" width="246" height="138.09" as="geometry" />
        </mxCell>
        <mxCell id="WCYd7PEhxb0Bcr4dKSGi-14" value="&lt;div&gt;stck_t&lt;/div&gt;&lt;div&gt;(股票清單,主表)&lt;br&gt;&lt;/div&gt;" style="rounded=0;whiteSpace=wrap;html=1;" vertex="1" parent="1">
          <mxGeometry x="270" y="51.870000000000005" width="120" height="60" as="geometry" />
        </mxCell>
        <mxCell id="WCYd7PEhxb0Bcr4dKSGi-15" value="&lt;div&gt;divd_t&lt;/div&gt;&lt;div&gt;(股利紀錄)&lt;br&gt;&lt;/div&gt;" style="rounded=0;whiteSpace=wrap;html=1;" vertex="1" parent="1">
          <mxGeometry x="690" y="121.14000000000001" width="120" height="60" as="geometry" />
        </mxCell>
        <mxCell id="WCYd7PEhxb0Bcr4dKSGi-16" value="&lt;div&gt;twse_t&lt;/div&gt;&lt;div&gt;(上市股票時價)&lt;br&gt;&lt;/div&gt;" style="rounded=0;whiteSpace=wrap;html=1;" vertex="1" parent="1">
          <mxGeometry x="550" y="51.870000000000005" width="120" height="60" as="geometry" />
        </mxCell>
        <mxCell id="WCYd7PEhxb0Bcr4dKSGi-17" value="&lt;div&gt;name_t&lt;/div&gt;&lt;div&gt;(股票名稱)&lt;br&gt;&lt;/div&gt;" style="rounded=0;whiteSpace=wrap;html=1;" vertex="1" parent="1">
          <mxGeometry x="410" y="51.870000000000005" width="120" height="60" as="geometry" />
        </mxCell>
        <mxCell id="WCYd7PEhxb0Bcr4dKSGi-18" value="&lt;div&gt;tpex_t&lt;/div&gt;&lt;div&gt;(上櫃股票時價)&lt;br&gt;&lt;/div&gt;" style="rounded=0;whiteSpace=wrap;html=1;" vertex="1" parent="1">
          <mxGeometry x="690" y="51.870000000000005" width="120" height="60" as="geometry" />
        </mxCell>
        <mxCell id="WCYd7PEhxb0Bcr4dKSGi-19" value="&lt;div&gt;epsl_t&lt;/div&gt;&lt;div&gt;(EPS紀錄)&lt;br&gt;&lt;/div&gt;" style="rounded=0;whiteSpace=wrap;html=1;" vertex="1" parent="1">
          <mxGeometry x="270" y="121.14000000000001" width="120" height="60" as="geometry" />
        </mxCell>
        <mxCell id="WCYd7PEhxb0Bcr4dKSGi-20" value="&lt;div&gt;prft_t&lt;/div&gt;&lt;div&gt;(損益)&lt;br&gt;&lt;/div&gt;" style="rounded=0;whiteSpace=wrap;html=1;" vertex="1" parent="1">
          <mxGeometry x="550" y="121.14000000000001" width="120" height="60" as="geometry" />
        </mxCell>
        <mxCell id="WCYd7PEhxb0Bcr4dKSGi-22" value="&lt;div&gt;opme_t&lt;/div&gt;&lt;div&gt;(月營收)&lt;br&gt;&lt;/div&gt;" style="rounded=0;whiteSpace=wrap;html=1;" vertex="1" parent="1">
          <mxGeometry x="410" y="121.14000000000001" width="120" height="60" as="geometry" />
        </mxCell>
        <mxCell id="WCYd7PEhxb0Bcr4dKSGi-27" style="edgeStyle=orthogonalEdgeStyle;rounded=0;orthogonalLoop=1;jettySize=auto;html=1;entryX=0.5;entryY=1;entryDx=0;entryDy=0;" edge="1" parent="1" source="WCYd7PEhxb0Bcr4dKSGi-24" target="WCYd7PEhxb0Bcr4dKSGi-26">
          <mxGeometry relative="1" as="geometry" />
        </mxCell>
        <mxCell id="WCYd7PEhxb0Bcr4dKSGi-24" value="" style="rounded=0;whiteSpace=wrap;html=1;" vertex="1" parent="1">
          <mxGeometry x="160" y="-210" width="760" height="190" as="geometry" />
        </mxCell>
        <mxCell id="WCYd7PEhxb0Bcr4dKSGi-26" value="" style="rounded=0;whiteSpace=wrap;html=1;" vertex="1" parent="1">
          <mxGeometry x="160" y="-440" width="760" height="190" as="geometry" />
        </mxCell>
        <mxCell id="WCYd7PEhxb0Bcr4dKSGi-28" value="" style="shape=image;verticalLabelPosition=bottom;labelBackgroundColor=#ffffff;verticalAlign=top;aspect=fixed;imageAspect=0;image=data:image/png,iVBORw0KGgoAAAANSUhEUgAAAWkAAAFYCAYAAACRXQ1GAAAgAElEQVR4nOyd53sTV973n39lw+beZDeEQApJAHcMpkNISO+bBAg1pICp7sbG2IBVLPdeJLl3G2PjhnvBFdu4964uzej7vJDJQoKNq2Y0Ot/r+ry4976YoNHMh6Nzfud3/h9ISEhISFib/8f0X4CEhISEZP4QSZOQkJCwOETSJCQkJCwOkTQJCQkJi0MkTWLS0dN6aORayMeUkI+poJHrQOv0gJ7pvxkJyeqESJrEJKLXA/JxFYYaxtGa1YPK0BYU3axFvmslsq+UI+NCKTIulCL7SjlynSpQcL0aDwKb0Jz2GH2VI5gZlIPS0kx/DBKSJYdImoS90QPyMRW6y4ZQHdGKu55VSD1XjLhv8xB6MB1Cu0TwLCXw3yb+G3xrKUL2pSL2qxwkny5CnnMFKkOa0VnYj+k+GfQUGWqTmEaIpElYF0pDYezRNJpTH6P4Vh2SThYieG/qvEJeDDwLMYJ2pUDyUwEKrlejQdKB4YcT0GloMjVCwuoQSZOwJjoVhYnOGbRmdiPftRJhh9LBs1ielBcUtqUEQXtSkXWpDE3JXRhpnoRWoYOeyJqEhSGSJmE8lIbCdL8cHXf7cNe9CqEH01ZdzPMRYJ+ErItlaM3sxuTjGehUFNO3g4TkmRBJkzAWPa2HclKNvqoRFN2sRdihdKPJ+a+IdiYj360K3aVDkI8pySIjCWtCJE3CSLRKHSZ7ZlEV1oLoz3MYk/NfCfsgHSV36jHcNAGNTAs9TeZASJgNkTSJUaOn9NAodGjJeIz47/PBt5YyLubnEf1ZNqojWyEbVoLWkVE1CXMhkiYxWvR6YKBmFMmniyDambwmi4KrBc9CDIFtIhK+z0dzejcoDRE1CTMhkiZZ89BaGuMd08h3rUTogTQIbKTwZ7Ggn4ZvLUXI/jSk/lKMnrJhUgFCYvQQSZOsWfSUHtO9MlQENSH2qxyIdiabjJyfwUIMoV0iIj/JQr5bJUZaJsnImsRoIZImWZPMDinQmNiJlLP3EXpwbeqdmZB1oEMyxD/cxYOgJkx2zYAmVSAkaxwiaZJVjXJSjY67fch3q0T059mGqQ2m5boGhH2QgfQ/StCY2ImZfjmpAiFZsxBJk6xKtEod+ipHUMpvgPiHuxDtSGJcpGsN30qC6C9yUOBZjY67/ZCPqZj+Gkg4GCJpkhVFT+kx2jqFuth2pJ67j6DdKYzL09gItydB/MNdlAc8RF/VCDQyLdNfCwmHQiRNsqzoaT1mBuR4lNeHXOcKhOxPW1EDJC4QuCsZKWfvo0HcgdG2KbJrkWRVQiRNsqTQ1NxW7uoRlPAaDE2QrMxbzs9gIUbQnhTkXHuAznsDmBmQgyZtUUlWECJpkkXlyQkoo22GqY2YL9mzlZuN8CwlCN6bivt+dRhsGIdyUk1kTbKsEEmTvDA6NYXZIQXasnuQdLIQPAsycl4K4R9moiaqDRNdM9AqdaQShGRJIZImmTd6Wg+tUofe8mFkXiiF0C6RceGZMgn/zUdLRjfkYyrSD4Rk0SGSJpk3o61TuOtRheB9qWT0vBpYiCG0TUTauWI8Lh4EpSa9q0leHCJpkr9ldkiB8oCHiPkyB8Lt858jSFgeAlspwj5IR55LJQZqx0g/EJIFQyRNYoge0Mh1qBd3QHr8HoL3poJPqjbWDJ6FBKKdyYj7Jg8ldxow0TXD9BNAwtIQSZt79IBGpkVHfh8yzpci4kgmZ7dysxG+lQTB+1KRdKoQtTHtUE6ooSdDa5KnQiRtxtHIteirGkGhTy3iv80jcmZS1tZSRBzJRNalcrRl9UA1pSHTICQAiKTNMjoVhZGWSVSFtSD5VCECHZIZlxTBAM9Kgvjv8nDfrw495cNQz2qYflxIGA6RtBmFpvSY7J5FU0oXsi+XM3rwK2FhAuyTkHy6CNURrRhumoBWoWP68SFhKETSZhLZiBKP7w+iyKcWUZ9mkYoNEyF4byqyLpWhOe0xJh/PkH4gZhgiaY5HPavBUOMEKkOaEfcNmXc2VcI/zMA97xp0lwxCNqIkuxbNKETSXIzesJV7qmcWzamPIfmpgOwW5AB8KwmiP8tGRVATRlunoJ4h89XmECJpjoXW0ZCPqdD7YBhpvxaTkTMHEdhIEfd1LpqSuyAbVUKnpgAysOZsiKQ5kid9NkZbp1DgWQ2BLRk5cx2+tRSSowV/VoHoSZc9ToZImiOZ7pehPOChofk+6bNhPlgYRtY5Vx8YTjEnC4ucC5G0iUc2qkRdfDsS/puPAPskUrVhpgjtEhH+QQZKbtdjonMGeuJqzoRI2kSjlmnRmtmDtF+LEbI/DXwy92z28CwkCNqdAvGPd1ET2YbpfhnTjynJKoRI2sRC6/ToLh1Cvmsloj/PRsB27p/KTVgafGspwj7IQMb5UjSnPoZigpxibsohkjaR6Ck9hpsmUMprgOSnAoh2JoNnwbwQCOxFuD0RMV/m4K5HFbqKBqBTkf7VphgiaZaH0tKY6plFbWw70n4rRtCeFDLvTFgSoh1JkB4rQLmwEYP14+RUGBMLkTRLQ1P6P88VzHerRNgHGfAnI2fCMuFZSBDokIz0P0rQIO7AROcMKA0ZWZtCiKTZFj2gmFChp3wYpbxGxH6dC39SUkdYRUL2p+GuexUe5fVhdkhBRtYsD5E0i6KWaTHaMonamHZIf75HdgsS1pToz3NQLnyIvqoRKCbVpB8IS0MkzYJQGgozA3K0Zvcg7bdiiHaQ/s4E48C3lEDy013UxbVj/NE0NHIt068DyV9CJM1g9LQeqmk1+qtHketUgeC9qYy/tATzRGiXiJQz99Ge0wv5mAqUhkyBsCVE0kxkrkvdzIAcxbfqELIvlSwKElhBoEMyMi+WYaB2DDqVjkyBsCBE0saOHlDPalEb046QA+ngkRO5CSyDZyFG0J4UFHrXQDasIGctMhwiaSNGNa1Ba2Y3xD/chWgH6bNBYC88CwkCtich4kgmqsJboJggC4tMhUjaCNHItHhcPIisS2UIPZROqjYIJgPPUoLgvamQHr+H5rTHUE6qmX6dzC5E0msYSkOjv3YURTdrEfNVLgJ2kD4bBNOEby1F5MdZyLn6AJ2F/VCRU2GMFiLpNYheD4y2TaEipBmJJwsNVRtkYZDAAUQ7khD/XT6Kb9Wjv3oUWtIPZM1DJL3KmRmU42FSJ7IulSPsgwzwycIggYME70tFytn7qI5sxWjbFDkVZg1DJL0KMdQ7a9Bxrx+FN2oQ9WkWmXcmcB6epQRhH6Qj59oDNKd1k/7VaxQi6RVErzcsCvbXjKIytBnx3+cTORPMDr61FJGfZKH4Vh0elwxBSbaYr2qIpJcZrVKH8UfTaEruQsrZ+2Rag2D28K2liP06FzVRbRhqHIdapiWyXoUQSS8xlIbC7JACnff6kXPtAemzQSD8BZ6FBMlnitCS2Y3J7lmyuLjCEEkvMnpKD9WMBoN1Yyi6WYvQg+mMvwwEApsR2iUi5+oDdJcOQTGhJieZLzNE0i+K3jB6nu6XoSKkGZGfZDH+8BMIpkTwvjQU3azDSPMkdGqKTIEsMUTSLwilpvAwqQuxX+eCb00WBQmEZWEhRuSRTFQEN0E2qmT6tTapEEnPEz2tR2fRABJPFCJodwpZGCQQVgjPUoKAHUlI+OEuGiSd0Ch0TL/mJhEi6b9Ep6Yw1DCOnKsPEP5hBgS2iWS3IIGwighspAg9lI7Uc8XovNdPju96QYik50JpaYw9mkYpvxFx3+ZBtCOJyJlAWCssDAuL0V/kIN+10tC/Wk2qQJ4Xs5e0ntZjqkeGurh2pJy9j5ADacw/wASCuWAhhmhnMiRHC/AgsAlj7VPkFPO/xKwlPTusQGtWD/KcKxD1SRbp70wgMEjowXRknC9Fg6QDUz2zoEk/EABmKmnVtAbdZUMovlOPuG/zILRLZPwBJRAIhsXFqM+yUXC9Go/y+yAbVjCtC8ZjVpKm1BSGmyZQG92GxBP3INpJdgsSCGxEYJuI+O/zUS56iP7qUaimzbd/tVlImtbpMdUzi/acXmQ6liFwVwrjDyGBQHgxoh1JSDpZiAZJB8bap8xycZHTkqZ1NORjKvRVjeKeVzUCd6WAZ0HmnQkEU0O0MxmZjqXoKhrAzKDcrMr2OClpPa2HRqY1nI4S3IzQQ6TPhllASia5zVwlyD3vGgw3TUA1pTaLxUVuSVpvqHeeHVTgYWIn4r7OY/7BIiwZnqUEAhspAuyTIHJIRuCuFATtnmPPE1IRvPcp9qUi9IP0Z/+3OYL2pBr+zO4UBO5KgcghGQE7kiDcngiBjZT8ujJBQvalojKkGVM9s6A0FPR67sqaU5LWqSh03utH0olCso3bROFbSxF2OAO51x6gLr4dvRXDGOuYxnS/HPJRFVTTGmjkWmhVFCgtDT0NQG84gEFP6wG94f8GDdCUHrSOhk5DQS3TYnZYgbH2KfRWDKM1oxsVwU3IvvIAIQfSwCPPi0kS80UOHiZ1QTnB3VPMOSFpPa1Hf+UIsi+XI2R/KmmEZAIE70tF1qUy1ES1oatwACPNk5gZkEMxYRCxWqaBVqUDpaVA6WjQ1By0Hvon6JcArQdN0aB0NCgtBZ1aB61SC7VMA9W0GvJxJSa7Z9FfNYqHSZ0o8KxC9OfZjN8nwsLwrCQQ7UhGytn76Mjvg5aD/UBMXtJjj6ZRdLMWMV/kIMA+CTwyL8k6eFYShB5Kxz3vWrRm92L44QQmu2chG1VCNaOGVmmQMU3RSxPvKkNTNHRqHdQyDeTjSkz3yTDaNoXu0iFUR7Qi9dx98K3JiJuNCO0SEf5RBnKdK9BbMQxax53pD5OUtJ7WQz6mQlVYC6THChC0J4X8XGURfGspor/IQeGNGjSndqH3wTCGH05gZkAOtUwLWsesjJckbloPrUoHxYQKE10zGKgbQ1fRAB4ENyHhv/kQbicbodgCz0IMkUMy4r/PR/Hteoy2TDKtqlWJaUl67uDX9pxeZJwvQfiHGWTumS1YipHwQz7KBI1ozexGX9UIJntmoZ7VMD5CXm10GgqzIwoM1I3hUV4vqiNakXGhlPR9YQk8KwmC96Ui5ex91Ma0QzWlhl5vuiNrk5G0Tk1htHUSZcJGxH+XT/pssISYuRFzbWw7usuGMDMo/3O13RygdTQUkyoMNY6jJbMb5aKHSDl3n4ywWQDfSoqII5kouF6N3ooR6Ez0rEWTkLRyUo2Ogn5kXylH8N5Uxr98c4ZvLUXER5nIvVaB8oCHaMvqwVTvrOFYJBZIk1FhUzSUU2r0VY+gKqIF97xqEP9dHvm1x/QzayNF8pn7aEzshHxUaXLHd7Fe0rJhBR4mdUF67B4ZPTNIgH0S4r/LQ8H1ajQkdGCic8ZQAscCObIRmqIhG1GgLacHRTdrkXymCEG7U8iGGwaJ/DgLVWEthg57JrRjkdWSnhmQoyaqDbFf5TL+BZsrgQ7JSPg+H3c9q9Ce2wvVjKHRDdMSNCUoLY3B+jEU365D8ukihB5KJwMOhgjZl4oS/waMPZo2mdPLWStp+ZgKFUHNCP8wg/Ev1hwJ3JWC2K9zcdejCt2lg9AqtIzLztShaRoTXTN4ENiExJ/vIewwWfhmgoAdSSi6WYvxzmnoTWBbOSslrZFpUR3ZisiPsxj/Qs2NQIdkRH6chYLr1RhqGCdzzWuEbESJuvh2xH+fb1hnIdMgRn/Oi2/XY2ZQDj3LPc06SdM6PZqSu8huL2NiYVgQDNqTgvu+tZjqlYEyoVpmU0Y2okBNdBtCDqaTihAjE7wvFeUBD6Ge1TKtvQXDOkkPN00g/lvSGMmYCO0SkXiyELNDCs7VNJsEtB6KcTXKRQ/JiNrIRH+WjUZpB9PaWzCskjSlopBxoRQB9kmMf3nmAM9Sgtgvc9B5r9+wE5AImjFoioZGocXMgBzZVx6Qd8BY74CVBMmnizDaOsW0/uYNqyRdF/cIoQfTSf8NIxD5cRYeBDVhqmcWWqWOcUkR/idr+ZgSXUUDiP+e1Fgbg+C9qSjyq2XtqS+skLRer4dyUo24b/NIB7s1JnBXCvLdKtFbMQL5mHLp3eQIRkGj0GK0bRLlwodkAX2N4FlKELgnGUGHkxD2VQra7nYzrcLnhhWSpjQUGqSd5GDYNSbx53toED/CRNcMdGa0ddtkofWYGZSjo6AfGRdKyan2q0jg7mSI9iXilm0MvN4PhdfWECT+kc/KTS6MS1qv10M+pkT89/nkp90aIbCRIs+lEo9LBqGcazZDMB20Kh2GGsdRfLuejKpXSMCORIj2JsJ/Rxx8toXD7c1AOL0mgPPrQvD2xqKnaohpJf4tjEtap6LQXTJEpjnWiLDDGSi+Xf/nSctMC4ewTGg9pvtkqE94hORTRYw/V6aGwEaKoP3J4NnHw88mCh5vB8HpNcEzeG0JQa5XGdNK/FsYl7RySo37fnWMf4lcg28lgfR4AWqi26CYUJG5Z46glmnRXTqE7MvlEDmQ6cEXwbOUGORsFw/+7nh4bg6G83rh3wTt9JoArhsDIDoigValMxzBxpIwK2k9MN0nQ9w3pDfHqjF3onLGhVI8Lh00q7ah5gJN0Zjuk6HQuwZhH2SQPiDPgWclgXBHIvjbEyD6QAqv90Pg/Prz5fzsaDoUg02joCn2zE0zKmlKS2OgbozMRa8SfCsJwg6lI9+9CrPDCsZlQlhbNHItKoNbEP15DpkunINnKYHAVgrhTikC9kvgaxvxQjE/jcc7QSgOrDWMplkSRiWtmtHgYVIn418sF+BbSxH1qaH2mbQQNSeAtuwexH+fD4GtGVd/WIjBt5ZAuFMK0X4p/HfHLknOf055bBIh/nQ21HINk2p8JoxKWjaqRCmvgfkv2MThW0kQ80UO6uMfGU7TZlwcBGMCAMPNE5AeL4DAxvxG1DxLCQR2UgR/kAL+3ni4vBGwLEE7vSaAywYh+PvjoJpRM6nGZ8KopKd6Zch0LGP8SzZ14r/LR1t2D+OyIDCLfFyJjD9KzGr6kGchQfiRdAj3i+Hxzt8rNpY7mpaNKVizeMiopMceTSP++3zGv2hTJvl0ER6XDILSkgVCc4emachGlchzrYTAlvsj6rDDaQg4KIHX+6Fw2SCE0/qVC9rpNQGc1wvR3zDCmkMBGJX0aOskIj8hxfnLJetSGfqrR6FVkd4bBAM0RWNmSI4i31puNmmyECNwdwpCP0nBjS1hcNsUuKiqjSWxXoDOkj7o1OxYPGRU0sNNEwg5kM78F2+CFHhWY6hxnDRHIvwNmqIx3S9DKb8RgVyppbaQQGifiLDP0nBjawSuvxcCl9WW81OSbs7tglZJJI2hxnHSr2MZFN6owUjLJNlBSJgXmjbUUpeLHiJwdwrjz+xKEG5PRPAHKbhlE4MbFuFw2bD8hcHFSro+uQ0aOTsOA2BU0oP1Y6S+c4nkXHuA0dZJ0iCJ8ELoua3kZcKHCNhhelMfwu2JEO1NAm9nPG5aRcL9rcC1lfNTkq6Ka4Jaxo4yPGYlXTcGnoX5rESvBL6VBCm/3MfQwwkygiYsmieivn+rzmQWE/k2Uoh2J0KwSww/myhcfy/EOHJ+StIV0Q+hmiWSJpJeJAIbKSRHC9BXOUKqOAhL5skcdb57JXgsLs/jWUoQuDsJ/B1i3NkRC+9tYatWsUEkvcwQSS9O0PHf5eHR3T7SJImwbGiKxsyAHBkXSsG3Yt+IOsAhCfztYgTsl8DHGPPORNKLC5H0wvCtpYj5MgcPkzoBgPEXnWDa0BQN2bAC0mMs2ZloIYbALhF8OwmCPkiCn20UXDeKmJMzkfTfQyQ9PzxLCSI/zkJVRCugJ4ImrA40rcdIyySzR9VZzHWps5ci8EAy+PsTVrSVm0h6DUMkPT8h+9NQym8gvTgIqw4AtGb2IOrTbKO3OX3SpU60LxlBnyQxO61BJP3iEEnP/yDnu1ZCIycbVQhrAwCUCRoRciDNqM918P4UhHySBI/Nq9Nng0h6jUMk/XwyHcsw2jpJFgoJa4pGoUO+a6VRto8H709F0OEk+FjOLQoyUbVBJL30EEn/nfjv89GW00t6QhOMwnS/DJkXStfseQ7cnYzgw4ZFQbdNgYZGSExLeDGSjmokkgaIpP9K0J4UVEe2QjWtYfzlJZgHNEXjcckgkk4UruqzLLRLROiRVNyyjcH1d0PgupGFc89E0i8OkfSz3Perw1SfjPEXl2BeqGVa1Ma0I+KjzBU/wzwrCcI+Tsdt21j4WEbAbZOI3VMbRNILh0j6f2ScL8VQ4zhoHZnmIBifqV4ZCn1ql10/zbeeO5V7Rzz8bKPg8XbQvKdysx4i6f+FSNpA9Oc56Czsh0ahZfxlJZgnNK1Hf+0o0n4rXrKcA3YlQrhHglu20fDeEmJ6I2ci6flDJG34eVgV1gL5mJLxF5Vg3miVOrTl9CDy4xcfxMGzlCBgRyKEu6W4sz0WvjaRzMuVSHr1QyQthuRYASYez5BNKwRWMD0gRym/ccFzEoX2iRDskEKwS4xb26NNo2KDSHp5MXdJB+xIQlfRAJnmILAHWo+hxgnEfZf3t+dVYCsF31YC0f5E3N4RY7z+zkTSzMWcJc23kiDjfClU02rmX0wC4SnUMg3acnr/3OTCt5KAbytB0IFk8PfEw2NzMPMiJZI2TsxV0jwLMYL3pWJmQA6aItUcBPYxMyBHxh+l4FtLINqdjJBPkuHJdTkTSf895irpQIdkVAQ3kwb+y4E2bMD4Ex0N6i888/+nacN8P5nzXxKUlsJYxxSivsuAx+Zg0y2nI5JeWcxR0jxLCaI/z4ZWoSPiWCTQA1qlDrNDCgw1jKM1sweVIc0oulmL3GsVSP2lGAk/5CP+2zyk/16CguvVKBc9RIO4A205veitGMZUz6zh9GfS9vWF6NQ69NYMIfTLZPb32SCSXtuYo6QjjmSis3CA8ReRzVAaCjODcnTc60O+axVivsxBxMeZCP8wA2GH0hG8LxWBu1Ig2pmMAPskCG0TwbeWgm8thdAuEQE7khC4KxlBe1IRsi8VoQfTEH44A5EfZyLh+3zc86pBW3YPxjumoVNR5B/LJ/ddR2OgcRSpVwrhazu3W5BpYRJJE0kbE4GtFKnn7kMjJ9Ucf0U9q0Vf1Qju+9VB8tNdxH+Xh8hPshDokLyqzwjfSoLAXSmIOJKJ2K9zIf7pLu5516C3YhiqGY3ZlkKOd03hnn8lhB8kwOt9Ix/8yjaIpP8Xc5N0zBc5aM/rZfyFZAtapQ5DjeOoCGpC+u8lSPhvPoL3phr9ewncnYL47/OReq4YJbwG9JQPmUWTKwCYHVXgQUQjon9Kh69thPlNbRBJLxxzkrTARoqM86VQTpl3yR0AqOVadNzrx32/OiSfLkLowXSjnxAyH8H7UiE9VoACzyq0ZnZDMa5i/J6tBRqFFg2p7Ui5dA93dsew6/gqpiGS/l/MSdLRnxsOlGX65WQKmjZ0W2vP6UWJfwPEP91FwI61bza/7H9UbaWI+yYXRTdr0ZLRzZlt+5SWQmdZH/J9HyDgsJi7G1KIpFcn5iJpnpUE2ZfLIRvhxou+VDQKHfprRlER1Iy4b/LYcVL1YmVtI0X0Fzko4zeiPbfXsJ5ggvPWOrUOw23jKAutR9SP6XAjciaSXkzMRdIRH2WiLrad8RfV+GKgMNk9g4fJnUg7t7TuamyDbyVBxEeZqI9/hLFHU9CpTaPGXaehMNk7g4bUNqRcvsfOg1/ZBpH0/2IOkuZZSJDrVIGp3lnGX1hjoprWoK9qBIU+NRBuT2T8e1hNcp0r8LhkEMopNWt3jNIUDdmYAl2lfci9UQavbaHMy89UIJL+X8xB0sH7UlET3WY2pV00RUM+pkRz6mOIf7jL+P1fK8I+SEeDpAPTfTLWjapVs2qMtI2jWFQD3t5Y5qVnahBJ/y/mIOlc5wqMP5pi/MU1BpSWxsygHCX+9Qjalcz4vTcGeS4VGGoch07DvKh1GgqyMQVqE1sR9KmUedmZKkTS/wvnJW0hRnVEq1mc/E3TNMbap5Z8sgcXSDpZiO7SIeZ+LdF60Doa3RUDCP0qhZTTrQIPIomkAXBf0rFf5aLjbh/jAl1rAKC/ehSJP99bsFk8V+FZSRD3bR5a0h5DTxu3NwgATPTOIO5EFry3hZKFQSLp1Q3XJV18ux7TA9w+/RsAHt3tg/iHuxDYcmuBcCnwraWI/jwb1ZGtRjlMmKZozI7IkeVWjNu7ouH+VqB5daojkjZOuCxpnoUEjYmdrJirXEtaMnsQ/10eBLamU/u8lqKOOJKJMkHj2oma1mN2RI6KqAaIPhLDa2sokTOR9NqFy5KW/HQXfVUjjEt0raC0NLpLhxD3bR741kTQT+BZShBxJBM1Ua2rvulFMalCY/ojxBzPxG2HaMZFxmWIpOfCZUk/CGrC7LCCcZmuBTq1DgN1Y5AcLTDLOegXwbc27FJsyehelfutVmjxqKgHGc73IfpQzMi8c45XKUqCalEaUvc3ioTVkP6ev6Trub8ViODPEp97vSekXSuC/54YImkm/+NclbTQNhEdBf2gODjVQWkojLZOmmUVx1IQ2EgR/30+esqHln0CD6Wl0FszhCJhNcK+ToHH5iBGhOX5bjCGW8ehlmmglmv/xtTALMpC65d0zRsWYcjzKX/u9Z7QlNWBwI+ZKSUkkp4LVyWd+PM9jLRMMi7U1Yam9ZjqmUWBRxXj99gU4FtLkXy6ECMtk0tbm6AN/Z2rE5oRdzIbNyzCGBGV02sCOK8XQnAoHrMj8nnf4+nBWeT5lC3pun72UahNbF3QD3VJrbi1M4pImsn/OFclXRvbDsUE91pcykaVqApvgYDMQS+JfLfKRR06TNN6yMeVaMntQqZrMXyswhmT85+S3iBEwtkcyCeU877Hox2TEP+Su6Tr8vbGortqcN5r6mk9ykLr4fEOM78eiKTnwlVJ91YMc+6QWbVci9bMboR/lMn4/TVFGhM7oZx+fi9xmqKhmlGjt3oIZaH18LGOgPPr7LHhnPcAACAASURBVKjYcHkjAHf9KqCaUc/7Hvc3jCDok6VNSwR8KMb0kGzea6rlGuT7PmDscxNJz4WLkg50SMZoK7emOmiKRn/NKFJNvJMdk4R/lIme8qFnpz1oQ/P9sc5J1CW2gr8/nnEp/xXXjQGoS26DRql9/kusB7rK+5c06nfZIETYNymgKXpeN0z0TCP1yj0iaRBJrzpZl8o4t4FFMa5CmaCR8Xtr6tz1qMJE5zT0tB46LQX5uBJtBY8R+UM64zKeD7dNIvTVD4PSPl+otI5Gc07nkmq1Pd8NRtL5/AXd0Fs7hNgTWUTSIJJedZrTuqGe5dD5eLQeD5O6EPZBBuP3lgs0SjugmtGgv34Eib/ns2ZaYz7c3w6EfNJwWMXzophSoTyiYUnXvGkTgYLbFQu6oSW3C8GfJxJJg0h61RlumuBUQ6WJxzPIc67g3PfEBHwrCRKO5SH8m1TcsAxjfSMklw0B4O+PhVapm/cdnuybQa730io7/PfGolbasqAbquKacGcXMzXSRNJPhWuS5ltLMTMgZ1ysqwVN0SgXPYTIwTzajq4l4UfSIdidAO+tYXDbJDKJrdxub4oQdyoLOjU17zs81DwG8bmlVXaIjkjQVd6/oBsKeVXwfC+YSBpE0qsGz1KCtN+KOVV6N9w8gdRfi+Fvwfz9NUV4FhIEH0iF6KAUN7aGw/3NQNZPbzyNx+Yg5PmUg9LML+nHFQMI+WJp0xJh36Rgond63mtqVTpkut5n9F4RSc+FS5IW2EjxMLkTGoWWcbmuyiiaplHKb0DwvlTG762pwbOUIMAhCcEfJuPGlnBcfy/EpOT8BK8tIahNbAGtm78KozX/MXy3Ry76ms6vCxF7Igta1fxTKFP9s5D+lsfoZyeSngunJG2biLH2Kc7UR090zSD5TBEZRS8FCzGEOxIReCAJvlZR8LEMZ+20xk2bCIR/m4LoYxnzIv0tD0PNo9DTz180hB7orhhAwpnsBa/zNPGnslEWVg/Mc0nAUH5XyK967p+P/CENbm+K4LSeSNoo4ZKkhXaJUE6pV73zGVNUBDcj7IN0xu+rqSC0T4RoTyL87ePgaxMJ143sXhSM+D4VDzMeobtycF766oahkWsXFKpsTLHgNf5Kb80QJnrmn+oAANWsBiNtE8/984+KeuBjHb7mv0yIpOfCFUnzLCQI3pcKrVLHuFxXA/WsBkknC8GzNP3vZq0R2CUiwCERgl1i3LKLhudm5ha7loL09zxM9c0w+fovK2qZBrd3RhFJGytckbTARgrp8XvQqrgh6Z7yIcR8kcP4fWUzfCuJQc4OEvjvjIP3llDGxUskTSS96uGKpEU7klDi38CNU1hoPQo8qxG4K4Xx+8pK5uad+dvFCDgggffWMJNcFCSSJpJeVLgi6aA9KWjN7gFlhLPt1hq1TIvoz7IZv6esw0IMgZ0UPBsxgj9Kho9lOOs3oxBJE0mvOFyRdMj+NAw3TbywFaUp0FsxgvDDZAv403LmWUkgsJMi5EgK/B2i4bLB9EbORNJE0ssKVyQdeigd8jElJyo7im/XI3AX2WH4RNACOymCD6VAdFjCuFhZJ2k9oF8iKw2RtJHDFUmHHc6ATm3689EAEHEkk1R1bDNs8Q8+mALR4US4mdhOQWNIWqfWQTauwFTf7KKZGZJBLVuZ+IikjRyuSDr8w8y5kQLzol02tB7qWS2C95r3DsMnW7kDDkjhvSUMrhvXfuMEE3htCYHgYDxEH4n/Rtg3ySjkVS747naV9yPhTA58bSMWTdSPaWjO6VzwuvcDahD2TfJz/16ij8QQHk6AixFq0Imk58IFSQvtEpFy9j7zkl0hlJbCQN2YWU91BO9PgeiAFL7WkXB/KwguHBs9P43zeiFcNgjh8kbA3/C1i8S9OwtLui65DfwDcUv6b4Z/k4KO+73zXlNP6xF/OhtubwU+9+/l8kaA0U5KJ5KeCxckLXJIRr5bJeOSXSlalQ61MW0IsE9i/J4a/TvcmYTgD5JxyyYa198NYf1uwbXmzq4Y1EgWbiVaGlIHb4ul1YYnnMnBUOv4vNeUjSkQ9nUKK365EEnPhQuSDtqTghL/BsYlu1LUMg2yLpZBYGM+h8zybaQI/SgVt6xjcNMyAm6bRIzLgQ0EHE5AV1nfvO8tpaWQ51MG1yWWIKZdK4R8fP4DbfsbRiA6wo4FWiLpuXBB0iH701AV1sK4ZFeKalqDsEMZZrFoyLeWIuhACu7YxuG2fQzc3gxkxeiNLYR8kYTJBVqJykYVSLm8tPMHXTeJcNfvASjt/G1PH2Z2gLc3lvHPTyT9VLgg6dCD6WiQPGJcsitFMaEy+e/ihXK2kSLAIRH8nQm4szPWZPpsGBPnDUJEH8tY8DSWwaZRxJ3MWtJ1b1iGoSy8fkEfFAfWwNdu8W1PiaSNEC5IOuxwBlozuxmX7EqgKRozA3LG7+VawbOSQGgvhXCXFP474+BjufiTrc0Nj81BSL5YsOB7217YjdCvkpd0XcGheDSkti943bRrhfDaEsL4PSCSfipckHTER5noLBxgXLQrgdLRGO+cZvxerrqcLcQQbpdCsEMCwW4x/OwiybTGC7hpG/HCyo4acfOSKzsivk9FR8nClR1RP6YbekWz4D4QSc+FC5KO/DgLfRUjjIt2RZLWUhhtnWT8Xq4mAlsp+LYSBB5MxC37aEO9MwtefrbD2x/3wsqOQn4VfKyW9mtE+nsehlrG5r2mWq6B8IMExj8/kfRfwgVJR32ahaGGccZFuxJ0GgqDDeOM38vVgGclAc9KjNAPU8HbFQf3t4IYf+FNieDPEtFRvPCIN8O5aMmVMNmeJZgZls973aHWcfjvYceiIZH0U+GCpKM/z8ZY+xTjol0JWrUOvRXDjN/LFWEhNsj5cBoCP5TC/e1Axl90UyTqx3SMdU7O+84qp1VLPh3cab0A90U10C1woG1zTif87NmxaEgk/VS4IOmYL3Iw1TPLuGhXJGmlDl1FA4zfy+XCs5RAuCcRgd8k4PauGDK1sQLEv+RCI59fTsMt44j6MX1J1/TaEoLqhOYFXVAcVIsblmGMf34i6b+EK5Ke7DZxSat06CkfYvxeLhkLMQQOEtw5HIXfNrrj1KtXceY/zrh1MBxeW0OMtoWYK7i/HYgMV0OLg/nSdq8bQZ9Kl3RdwYH4F/bsSL18D9ffY09JJJH0XLgg6ejPszH2aJpx0a4EnYbCYP0Y4/dyKQgcJLi9PwqXt/jizGtOOLbOET/94wKOvuSIM6854/xbXvBxCMX199nz4jPKegHc3wpE4MeSeYk+mo4a8cKLhjWSFggPJ8DtTdGiiTmWge7KgQWvm+VWjNAvk5779+IfiIPX+8YtzSOSngsXJB31WTZGWiYZF+1KoLQURtumGL+Xi5KzvRT+e2Lgas3DuQ1uOPGvy/jpHxf+xvH/u4Rzr7viyvt+8LIJNntZu2wQwn9vDPobRuZlqGUcs6OKBd/Z6UEZeqqH0FHSu2iGmsegmlEveN2xzkkMNI4+9+/VmNaO8G9TiKSZCCck/WkWBk28uoPW0ZjsnmX8Xi4E30YC/r54uFsH4PzbXjj9n2vPlfNfOfXvq/htowectt6Bt00IPMx0QdHljQCIPhIz+bovO8NtE0g4k0MkzUS4IOnIT7LQV2XaddKs3nFoIYZwnxjXrQJxdZsfzqx3xtGXHBcl6Kc585ozLr3rA+f3ebhhHWZ289VE0kTSywoXJB1xJBPdpUOMi3ZF0HrIRpWM38tnsBRDuFsKb5tQuNnycO4NFxz758Uly/lpjq5zxC+vu8LZ0h/O7/JxwyrMbHYgEkkTSS8rXJB0+IcZeJTXy7xoV4hiUgWBbSL8LZi9nzxLMfjbxbhlH4Xr2wPxx2bPFcv5b/PVL1/C7295wsNWCNf3hPB4N4hzx2MRSRNJr0q4IOnQg2moj29nXLIrRT2rQew3ueBbMfR9WIjBsxHjjn0svO1CcNXGd1XF/NyR9UuOuGrpC3dLITy2BMLtTRFnZU0kTSS9rHBB0kF7UlB8p45xya4UjVKLMkEjhNsTjX4PedZi3LGNg+/OCLjY++P4y5fWXNB/lbWbPQ8eFgFw3yzi5MksRNJE0ssKFyQdsD0J6edLGZfsSqE0FLrLhiByMN4ZhzwrMfytEuC/NxYeOwU4vX5xFRtrxalXr8HDXggv62C4bAqAywbujKpd3giA8FA8ZOPK56KWaUBT9ILvq2pGDfk8f/55yCeUoLQLXFMP6DTUC6/5+MEAYo5nEkkzES5ImmcpQcyXOYxLdqXQFI2ZITmC9qSs/X2zMCDcL4H3niCce9OVUTn/ld82ucPLIRA+duFwfl3AjcXF9UJ4bA5G5I/pz6U0tA7Tg7IF39e7fg8Qczxj3mv8lfjT2Qt2vtNpKPRUDSL62MLXDP480ehbxomk58IFSftvMyweMi3Z1RlN0wjem7rm90u0W4o7H0Xg97fccWzdRfz0EvNifoaXDFMgf7x9Hb77wnDDgj09JVaK8+vC55J9vRSy8fk3smgUWgR9Ip33zz8P/oE49NUOz3tNtUyD0pA6uG4UvfBaxv6Hkkh6LlyRdNjhDFBamnHJrhTogfjv8sC3XoPDaC3E4NtKIfgsDuff9sLJV6/+uZWbrRxbdxEnX7mKC2974c6haHi8zc22p86vC1EkrAatm39qYqRtfMmN/qN+TMfwAqeDKyZVSLtayMrFWiLpuXBG0ofSoZxUQ08zL9qVUi9+hOB9qzua5tmIIfwoAVe3+OGXDS44/vLqltStNcdfvoRfXnfFpXd9wDsYw7mFRW+LUFTFNS34rrbkd+G2Q/SSrpt2rRATPfMfaDs7qkDYNylwXk8kvVCIpFeBkANpGGubAk2Z/mh6ul+GyE+yVuW+8O3mtnLbCfHbJg+ceOX5fTZMgaMvOeLEK1fw+0YPuFjycHN7OGuOelopgoPxaMrqWPBdLQ2tx02biCVd976oBrIFeoFMD8zipm0EK+f8iaTnwhVJB+1JwaO8PlA605c0raORdLIQApvlT3nwrSXg7YqH945gXHjbG2ded2JcsqvJ2ded8cem6/CwCYCXRYjJ96+O/G8ausr7F3xXM1zuL/mQ2Mb0R1DP05uapvQYbh1n7a8SIum5cEXSoh1JKOU1QKehGJfsalAT2YawQ+lLvg88CzH4u8S4YR+Kq1tu4ddNbsvqs2Eq/PamBy69cxMelgG4vjWYlXOriyHxfP6CVRgAEPVTOtzfWnxzKpc3AtBdOTDvPLdWqUP7vW7GPzuR9AvCFUnzraWQHC2ATs0NSU90ziD+u/wl3QOhgwQ3bcPhZsPHH297mty883I5/s+LOP/OdThtvQO394Um2RI190YZpofmL7/TaSjwD8Qt6R+hmzbhGG6bf9FQOaXCg4gGxj87kfQLwhVJ+1uIEbgrBRqFjnHBrgY6DYXsqw8QYJ/0ws8u2C7BLbtoeNkHwfE9b5Oed14JJ1+9iovv3oCbpRBu7wXA4x3TqARxXi9EWWg9NArtc99Rvd4wd+xrt7T56NCvkjDRPf+i4cywHFnuxYx/fiLpF4Qzkt4mhtAuEfIxFWja9Oel9Xo92nJ6EPNV7rz/KPGsJfC3j4OPfSiu2dzCyVevMC5KNnD6P05wsroDD4sAeLwXCJc32Dnn+gSPd4JQn9wGvf75R2bpaT06y/rgY7W0WvHkiwULjs4neqaNvouQSHoZ4ZKkBbaJGKwf58y8tEauRa5ThaEz3lOfk2clBm97AnztouC9PwA/z3Myilnz0gWc+vc13NgTBNd3hXDfHMja+eo7e2LQdvfxvO8oTdGojHm45EXDIkEV5BPKea870j4B3v6l1V0TSTMQLkmaby1FTXQb1DIN44JdDQCgKaULMV/kGD6jpRj+1gm4vSMWNw+G4PRrV5mXIcs5+pIjfnndGX4HwuD2rgiumwJYJ+vwb1MWPH+Q0tHI9iiB5+alTd80prfPW9mh1wP99cPweIe9p+QQSc+FS5LmWUogPXYP8jEl44JdLdQzGtx1rzL0eN4lht/BcPy+2YNx+ZkiF7d4w29fOK6/b6gCYcsGDvG5XPTWDEEj1z4XxZQKUT+lL7kmvKu8H8pp1fOvOalCU3YH45+dSHoR4ZKkn4h6pl/GuFxXk+aMLkQcT8ZlCx8cXefIvj4bJsLRlxxx9CVHONvchuDjOPjaRTIuIqfXBHDeIITrxoVP+17O6N91YwDcNs1zzU0iuLJ8rp5Iei5ck7T/NjFGmidAabkxL63X66GYUkHilmX0Hs9cJeycBJ1VhhO0sz1L4fmu6ZXsmQNE0nPhoqSb0x5DPcuNeWm9Xg+aptFe3gXe9xGMC87UOf+eBypT66FRaUFpKcyOyNFe2IPE8/msmf4gEEk/Ey5KOu23Ekz1cWvKQyVXoyjqAc6/58m46EyZzDsFmBqeeebeapRajHZOoi6pFeHfpTIuJwKR9DPhoqQDd6VguHkCNAc64j3NaPc4ElzSGRedqXLnmzD0NA6A0j1nKozWQy3XoKdqEGWh9eDtjWP9nC3XIZKeCxcl7b9NjI6Cfs7sPnwCpaPQ/uAxfD8LYlx4psZvb7uhJvMhlDLVwveZ1kM1q0ZTVieyPUtxyz6KdSV75gKR9Fy4Kuni2/WYGZQzLtbVRjGtRGVKPa5tv8m4+EyCly7g5KtXkOabj9nxpU2BTQ3MojLmIRLO5iy5RSiBSHrVwlVJx3yZg8H6McaluhbMjM4iN6AIv7/jzrwEWc6JV64g8nwiZBPy5bULoPUYbBpDIb8KoV8lL3nXH4FIesXhqqT9t4nRntfLmS3izxO12CUdp/5zFUdJ3fRzOfnvK+B9HwH5pGLF/Vx0GgpdZf1IdyqC4GA8Zw4bYDNE0nPhsqTLhQ8xM8S9KY8nIzzZpAIBx6JxgjRW+hsnXr0Cn08CMdy1ur+mVLMatOR2IerHdPjZR5GyPSLptQ+XJR37VS66y4Y4ce7h86BpPVQyNbw/DMDJf18hOxGfCPqVy/D6UIjWks41u/fySSVqJC3w3xOL6++HEFkTSa9duCxp/21iNEo7ODvl8acwphS4+VkgEfU/LuD4yxdx40gAWks7AWBt7z2th2JahYJbFfC2CDO0RGXhWYGmCpH0XLgu6QKvakw8nlnbl5UFqGRqBJ2Kw+n11xgXJZP4fxuGvqZB4x1ITOtB6WhMD8ogOZdLtpgTSa9+uC7p0IPpaEnvZlyixpCFbEIOsUs6fjPDqo+j6xwR+ksCBttHoGOgbwtN0VBOq/D4wQCifkiH25vsbQFqKhBJz4XrkuZZSfAgsIlTvTwWYnpkBpn+BbhsfYNxcRqLk69eQbxTGoY7RxkR9NNoVTpM9s6gVtKCkC+SGBedKUMkPReuS9p/mxiJJ+6hu3SQcYEai6nhGVSl1uP216GMC3Stcdvrj7shpRjrmXj+dm+GUE6rMNAwgvvCaggPJTAuPFOESHou5iBp0c5kPAhq4sxJ4ouSxKwKHZXdELtm4Pz73GvKdPzlS4g8n4j6vBbDTkIWVvDQNG3osnevG9meJbhpHc64+EwJIum5mIOk/beJkf5HCYabJhh/cY0JRdEY7ZnAvfAy3PkmjHGxrgbH1jniqt1NpN+6i/7WIWjVWsbv8wu/By2FiZ5pVCc0I+n8XbhtIhthiKSXEHORdNihdFSFtRhv1Z9FqGRqtJR0IOZSMpwdbuHYPy8yLtsly/mfF3H+PU9E/C5FaUI1FDMqk+tyqNNQGG4ZR8HtCkR8l0oWF4mkFxdzkfST0fQ0x47WWiw0RUM2IUdJfBXCzonhtMMPJ15h/ynjx1++CMdtXhD9HINsfiHG+yYZv5crhdLR6CjpQ4bLfQgOxsP9LSJrIukFYk6Sjvo0C/UJj0xuBLbaKGdVKI6tRODJWFzd7ouT/2bfqePH/+8SHC28cOfbMGTy7mGsdxLAGm9OMTIapRa10haIf8nFLfsow2YYFsiRLRBJz8WcJO2/TYykk4WYHVYw/oKyAeWsCmXiagiPRsN1922cf9+T0dH1sXWO+O0dNzjv9IPfF8HIEd3HGAdGzgsBALOjCpQE1yL0yyTcsAgjuxaJpJ+NuUk6/HAGaiJbV9wVjUvotBRGusaQF1QCn08D4bjNC+fedMXP/7f2B98e++dFnH3DGRe2XIezgx9SfHLR3dAPjZL9C4KrzVjXFPJ8ynFrRxQ83gliXJJMQyQ9F3OTtP82MeK/y4NySs34S8lGKB2FsZ4J3Asrg+cBHs5scMLp16/h1H+u4sQrlw2LjsvsD3JsnSN+/tdlnPrPVZxefw1n33DGFesbSL6Ri/6WYeg03DpJZznQFI3Bh6NIPH8XHu8EwWWD+TZuIpKeizlKOnhvKsoEjYy/kKyFNshCp6WgVWkxOTiN5uIOpN+6C89DfJz6z9LnsI+/fAlOO/wQ75yO2qwmDHeNQSVXg9LRoCia/LJ5CprWQ6PQ4vGDAQQekTAuSyJpImmjw7eRIv5oLmTjClZugmAbNEVDq9ZBJVNDNiHH9MgsJgenMdYzgaGOUfQ2DaKzugetxR1outeOjopu9DQOYPDRCMZ6JjAxMIWp4RnMjsugnFVBo9IadgeSez8/tKFkb7RzEkFfSeCxOcjs2qESSc/FnCTNs5RAsEsMvwNhuLDZGyFnEhjv9WDK0LRhFKzTUtBqdNCotNAoNdCqddBpKVC6uREykfGyUM6qUJVaj19ed8HFzT64cyAa7m+bT7kekfRczEXSAgcJ/PZE4NJmH/zyuguO/fMifn3LDa2lHSaxa41gXtA0jb6WITjt9MNP/7iAE/+6jF/fcIeLpT9u2IWahayJpOfCdUkLd0rh5xAFZwt//LbJ/ZmKhWPrHHHjSACmhqbJnCiBVUwMTCHxejaOvuT4zNz+mfVO+H2jJ9ythfC2CoErh7eYE0nPhauSFmyX4M7uGLhbC3H+Ha95N2wcXeeIvMBiyCZJ7TSBHWiUWtTntuCipfe8C7G/vuGGS5tvws1CCG/LEDi/zr35aiLpuXBN0jwrMfh7E3DdOhBXLXxx+rUXn1TiZO+HRxWPoVWTEjAC8/Q+HEDQqbgXlzS+fBG/v+kB52134Pa+EN5bQxkXK5H0GoQzkrYUQ7BLDG+rELjb83H2dWccXef4wgf9CVGOSYaTpckiF4FBpoZmkH777pKOQTvxrytw3OwNdysB3N8PgOdmbmyEIZKei6lLmmcpBs9ODF/bSHjvCsKvb7rh2BLk/OeD/soV5AeXGHoTs+BlJZgfGqUWFcl1cN19e1mbhU68cgXO1rfhvk0Iz61BcN1k2gfjEknPxWQlbSEGz1qMO/ax8HEIxSWLlR8X5bTTDzWZD6FRkWoPgnGhaRqPa3sh+jlmxc/xz/93GTf2BcFtixAe7waabOMmIum5mKKkeVZi+NvFw29XJJy33/7bCvhKCD2bgJ7GflLtQTAqM2MyxF5JwfGXV6/X99nXXeCzNwSeWwPhuinA5LaYE0nPxaQkbSmGv1UC+Afi4LaThxOvXlm1B/oJR19yRLJ3DuRTpNqDYBwoLYUcYREct3mt+vP80z8uwPFdL/jsCoaXhaEKxNlEpkCIpOdiSpIOPCzF9V1CnN3gvOwmP4vh980eyA8uIaNpglF4eK8N3h8K1+x5fjL4uGLpC9+94bj+fgjjAiaSXkJMQdKi/VL47AvBb5vccfzlS6s6vfHcB3qdI9z3+eNBYi0AbjWaJ7CLka4x3P4mFMeN1Bb25CtXcW3bLdzZFwXXTezetUgkPRfWStpCDOEOCXhHovHHm9dx6t/XcGyd8c7mO/HKZdz5Ngzt5V2Mv8gEbqKcVSHgWPSyugoum5cMC4u/bnCDk8Ud+O+LYVzGRNIvCOskbSEG304C/uE4XHz7Bs5tdGXs4NQzrzsh+Ew8xnu5fToIwfjQOhqxV1JwbpMLI8/20XWOOPXqVfzx5nV42Anhuz2CdQuLRNJzYZOk+XYS+O+NhYslD3+8fd0oPwFfxK9vuSH2SipUMnJIAGF1oCga+UEl+OM9zyVtuFoLjq1zxLk3XHF+oxdu7AzB9S0hcNnAjpI9Ium5sEHSfFsJ/B3icN0uEBc331jUVm5j8vtmd6T75ZNueYQVo1Fp8SCpFlftbq5qud1KOfoPR1zY7IVL7/jC2y4YHu8y37+aSHouTEqabyUB3yEBN7aH4urWWzi30ZXxh/W5D/A6R/zxrgfyQ0qgJUc8EZaJWq5GXW4z3PbeYWwK70Wc+NdlXHrfB05b/OG5LRAeDG4xJ5KeCyOSthCDv1OMm7bhcLcV4Le33Bn/2bcoUb/ngTJJDdRyMvVBWBpquRrNRe24+WkQ48/yYjjzmhOubPGFu6UQHu8Hwu0t41eCEEnPxdiSFthL4GsTBe9dwTi/mR3zzosW9UuOOL/FAzUZjVDJVIy/+ATTQK3UoL28C4IfIxl/hpfKuY1ucLHyh/vWAHi8Z9wt5kTScxmsH4PAWrrmI2eejQS3bWNxa08Erlj64sS/LjP+AC6Xq3Y3UZ/bAiURNeEFaJQaPKp8jJAz8Yw/t8vl6EuO+G2jO7wdAuH6rtAwBbLWuxbXC1AZ2wS1jEgaQ43jCHRIXjtBW4rhb5eA27ti4LGXz9q5uKXi7HALdTnNpOqDMC8alRYdld2L6g1tChz/5yWcf+c6bh+KhPMmAVw3idZui/l6AeqT26CRa5nU459hVNIjzRMIPZi+NqNnazH8d8XhxqFg/GzCI+f5uGR1A1VpDdAoSdUH4VkoLYW2sk7wf4hg/DldbY6tu4hrtrdxe18U3N4WGU6FWW1ZrxegJbcLWqWOST3+GUYlPdo6ichPslZd0MK9EvgeCsMvG5kp1jcWF7Z4okxcDUpHTh0nGACA5qJH8P3cNBYJV8L1PSL47oyA+2ovLK4XoKO4Dzo1kTTGO6chOVawaoIO2COF3/5wXHjPGz8boc8G0xxb5wjHrddxN6QEOlKeZ/YA4GuL/gAAFZJJREFUQG1WE7yPBDxz6DFXOf7yJZz+txO8HALhYxe+eguL6wUYbp0AraOZ1OOfYVTS0/0y5DpXrFjOwp1S+B+MwpWtvjj172s4/jL3H9A/Rf3Pi3Dc6oU033woppWMi4LAELQehZEP4L5/bdrospWjLzni5CtX8fsmT1zfLsJN2/AVCdp5vQDX3wuGfFwJ6Jm04//CqKTlYyo8CGxatpz5NhIIDsfDadtt/LrRjZNzz4t6UOc2vMRcTsFo9zjzwiAYFa1ah2TvXFzd7mu278Dxf17Cmf844dK7PvCyC8INy7BlSdrljQCIPpKwpvwOYFjSGrkWbdk9y6raEB2WwM1SAMd3vXHy1Sucn9pYDL++5YqQswl4VPEYAGlzynVoisbshBzRF5Pwx3uenKleWgkn/nUZv77hjivv+uHmzrAl71p0e1OEZMe70CjYUdkBMCxpmtJjpHly0WV4PGsxBLsT4L09GFe2+uLMa06s3y1obE6vvwbe9+GoSmsATZGDA7iKTqNDT+MAws6JcXr9NTJI+QsnX7mCi+/dwJXNfvBziITrRtGiJO25OQi1khboNBSTanwmjEoaAGTDCiSdLFxYzlYS8OwT4LszAk5bb+O3t90ZfwjYzM+vXIbnQT7yAosxOyYjsuYYsgk5KlPqV+XgWC5z9CVHnPr3NThZ3YbTe/7wtgqB68b5Fxed1wtx0zoCkz3T0NMsmZAGCyStmtGgMqxl3nI6/nYx/Oyj4G4lhOMWbzJiWMIDem6jC1J8ctHT2E/qqTkApaMw3DWGHGER3PfzGH/GTIlfN7nB2fIO3LcFwPO9oOfK2u1NEcK/SWGVoAEWSJrS0hhsMOw85Fk8tShoJ8Et2xh42wfjssVNs10QWQ1CziagLqcZs+Ny6GnmZUNYOspZFTqquhF/LQ2/bHRm/JkyVS6+7w1XSx48torg/k6gYTPMnKRvWIShNKSOaSX+LYxLGjAsIKb/XgKBjRR8Gwlu28Ti1u5IOFnfwunXjHi8D4dxdriFgrAyjHaPQ6smNdWmAk3RmByaRnV6A/y/DWP8OeICx9Y54sq2m/C0FcH9XRHc3hLNVXWIMdkzw7QO/xZWSJrW0uguGULQgWT4746Fh4MAZ153YvzL5BonXrmCyPOJ6KjqhnxKQU4kZzlquRqDj0aQ6JGFC1uuM/78cI2Tr17BNctb8NkZCh/bMOR4lTGtwueGFZIGAD2lh/RaNs5tcsVPLzH/BXKZKzY3kC0oxMyYDDotGVWzDZqioZxVoTarCW57/Rl/XrjO2Q0uCD6egKGWUaY1+NywRtIA8KiiG47bvBj/0syBoy85wvvDAFJTzUJmxmQQ/BDJuqPcuMqFrdeRcaeAUfctFFZJmtJSkHpk4be33Rj/4syB4y9fwvn3PRH6ixgT/VMAiKwZg9ZDMaNEFr8Q59/3xM//uoyj5BflmnPilcsIOhmLmVEZw/abP6ySNABM9E2B930ETv7bfPoPMMnRdY44vf4artn7IsE5DVNDM6Su2sjMjstRFPUATvZ+OPemK9mgZUR8PhahqaiddWV3T4d1kqYpPdrLH8P382D8/C/zaZTENEdfcsS5N13heZCPbEEhxvuniKyNIOcySQ18PwvCxW1eZA+AkfHYz0OZpAYquZpp7S0Y1kkaALQqLWqzm3DjSADpR8AAFy28cPvrUOQFFWOoYxQ6LelXvZpMDs2gJL4KgSdj4bTDD8dfJs+4sblm74u7oaWYHWfvNMeTsFLSAKCcVaEiuQ4+H4vMojcuG7lkdQOCnyKR6V+AzuoeaFRk1+KyofUY6hhFfkgpQs4mwNnhFn5+hWzQYgLnnbeQF1SMiYEppjW3qLBW0gCgmFaiOuMh/L8Lx6n/kE0tTPH7ZnfwfohApv89NBW2Qz6lYF56JoJWpcXj+j7kiu4j9BcxLlp4k1+HDHF0nSOufyBAYUQ5JgenmdbbosNqSQOARqFBc9EjBJ+Kw+/vkMZKTHJmgxN8Pg1Emt9dlEtqMNg2DI1KC5psNX9WzGodRnsmUJPxEDkBRQg8EYuzbziT+n8GOfWfq7j1ZQgqU+ohm1QwrbUlhfWSBgyleX1Ng5C4Z8Jl120y/cEwR9c54twmF0RdSERxbCWa7z/CRP8UtCqt2fYG0WkpTI/OorO6B6XiaojdMnDFxofx78rcObbOERctvRF2Toz28sdQK9jTzH+xMQlJP4liWomq1Ab4fR6MX992I6VKLOGavS+SvXNQm9WErtpejPdNQiVXc746RKPSYmp4Br0PB9BY0IacgCLc/CyQTGewgGPrHHF2gxM8DvCRK7oP+aSC1WV2C8WkJA3A0HBmcAZSzyxc2+6L069dI7JmEZetbiD2Sipqs5rQ1zyIiYEpKGdVnDgol9JRUMnVmBqewdCjUTQX/f/27vytyjr/4/j/gkuFheVYtlmNafvUVN9qmqtvMzV9pwAFURHlsBwPIAgCIiiguACSKYq4gRIkIC4oKIIgBgjIjuyHcw5nfX5/IJvmuhrHBbjvc877cV2v3xXu++XtZ23ieGIxUe8mywoNlcTbQ4OfZzhhf0wgM/Aw7XVdSlfWI3O6kv6tjoZu9gQcZN0LMfjODZUdWipLgJeOrX/bS8UPl2m71slw7xj6YQMTBjNWi03VBzzZ7XZsFhtmoxnDqJHR/jG6bvZSdbKOzLWHJ8eYVfAzlvwrvnNCWLMgim1fZ1Jb0ojdro7bvh+VU5f0XfWlN0n6392yS1Hl8fbQEPVuCoUppTRXtTM2MI7N+ktRq2Es+5c/g91qxzBq5HZ9N6XZF0j++163uoHeGeMzK4SYD1O5cOgKE+PON+58Ly5R0laLjbE7es4dqCLu4zT5r6eK4zM7BL95WgLm61i9IJLAP0QR/cE2fgg/xoVDV2it6WCkbwyz0YLdNvklNF2FbJmwoh8y0NnYy5XC6+THnSb+0x2sfyGGNQsiWfV0BP5PavGViWpVR7sskaL0cvpa756VrnAhTTGXKGmYfJFN+gk6b/RwKrUM3ZtJij88kvuL79xQAubrCFoUjWZxHGF/TEC7NBHtskQ2vJFEyld72R96jKL0cs4fruZK4XXqfmqk8VwzzZfbaL3WQUdDD12NPbTXddJc3U7j+Raul97k6ul6KvOvUrL7HLmRJ0n9dh8b309Bu2wL2qWJhC9JIOTVzax7PobVz0T8crCRzHE4Q4IWRZMXXUhLdTuGEeOv/6i7Gpcp6btsVjujd/TcONdMbmQB61/cpPjDJHm0+D0RzupnIln/4iZCX9tM+JLJEte9kUTEW1uJfCeZqPdSiHovhch3k4l4eyu6N5PQLttC+OsJhL4WT/BLsQQujMJ/nhYfmWh23ngE4+cZzp6Ag9SVNDLUPYLVbFW6dqaVy5X0XVazlTvtg1SfrGNPwMHJs3llYlEicdr4eU5uSDmfW01XYy8Wk0XpmpkRLlvSd1kmrNy+3s2ZrAts/dse2V4ukThZ/OZpifkwlYLkMzRVtmI2Wlxu3PleXL6kAXCA2WThRkUz+XFFxPx5u5S1RKLyLH8sjA1vbGF/2DGunq5nbGBc6SZRhHuU9G+MDxmoOlFLdlAe2qWJrJCTyCQSVcVnVgiaxXHsXL6fs/sv0d82qHRtKMrtSvqugdtDlGVdJPX/sgl+KVa28kokKkjgwigSPs+gIOUMHQ09Lrti40G4bUkDOOwOuhp7OZFUQuxHaaxZECmTixKJAvF/UovuzSQOaI/TUjV5drmY5NYlfZfVbKX16m2+Dz1KyKubZeeiRDJD8Z0byroXYkj7LoeG8ibVX2WlBCnp35gwmLlxroVtX2cS4KWTIRCJZJriM0tDgJeO6D9t4+KRq/LlfA9S0r/DYrJwpaBu8v452RIskUxpfGaHEPLKZk6nlTFhdK1zNqaDlPTvcYDVbGNsYJwfd54lbEm8fFVLJFOQ9S9uIjeygJ7m/snNKG603vlhSUnfg8PBr6eh5UUXErI4TvGHXCJxxgQujGLvmkM0nG1CPziO3SqrNu6XlPR9sFntDHWPUFvSSGbgYYIWyV2LEsn9xH+elu3fZFGZd5X+tkEZe34IUtIPwGy00N3UR8WBKlL/mU2Al07xl0AiUWN8Zoew+ZMdFO+qoO1aB8ZRk9Kvr9OSkn4IhlETLdXtnEotI/6znTK5KJH8Eu9ZGjYs28KR2NNcL/2ZsYFxp71bUC2kpB+Sw+FAPzhObUkjuREniXgrCZ9ZMrkocc/4zgkh+KVYMgMPUXmkhuGeUdktOEWkpB+R3WZnpG+M87lV7PI/gOblWLlqSeI28ZmlYe2zG9n2dSbFOyvoae6XL+cpJiU9RRwOB/1tg5xKLSPpy92sfXajLNuTuHRWzY8g9qM08qJP0Xy5Tcp5mkhJT4PWmtvkRp4k+v1tBMzXyXVMEpeKn6eW8NcTyAw8TG1JI2ajrNiYTlLS08RmsVFf9jN7AnLRLI7D7wk5D0Ti3PGdE8raZzeS8tVeKo9cRT9oUPo1cwtS0tPMOGai6kQtSV/ulvNAJE4Zbw8N/vO0RLy9lZLd5xjqGVX6tXIrUtIzZPSOnvKcS2iXbcFbLkKVOEm8Z2lY5aXjyKbTDHYOy7izAqSkZ4jD4cAyYaWvbYATSSWs+UOUnF0tUXX852nZE5BL540eJsYnpKAVIiU9w+w2O+NDBtpqO8kJzmfV/AiZWJSoKiuf2kDyV3upLW5ktF+PzWpT+rVxa1LSCrFZ7Qx0DFNT1ED6dzmsejpC8ZdT4t7xeyKcuE/SKcu+SG9LP2aDHCOqBlLSCjMbLXQ0dFOadYHEv2aw8qkNir+sEveKz+wQot5N5nhiMc2XW9EPuuet3GolJa0S+iEDN8+3cCz+R6I/2Mbyx+QWc8n0J/S1eL4POcqVwusyMahSUtJq4oChrhGqT9aRo8lHuzRRVoJIpiWBCzeyw+d7yvZV0tPcj9Us485qJSWtQjarnb5bA5RlXyTtuxzWPR+j+Estcf7cXe+c8HkGJ5JKaKvtlN2CTkBKWsUsE1Y6Gno4nljM5k93EOAlW8wlDxGPYPw8w4l8J5kcTT4N5U1y+L4TkZJ2AtYJK82X28gOykP3VhL+nlopa8l9ZfljYYS8Ekf6dzlcyq/BYrIq/TiLByQl7UTsNjtXC6+z/R9ZBL+0SSYXJf8xvnNCWL0gks2f7qA4o4KxO3qlH1/xkKSknZBJP0F5TiWxH6ez8ik5D0Tyr3h7aPDzDGfDskTy407T23JH6cdVPCIpaSc21D1CQfIZwpckyCoQCd4eGlY9HUF2UB7ttZ04HLKczhVISTsxh33yPJDbdV0c1J0gcGGU4kUhUSY+s0NI/ec+Gs42YRg1ydVVLkRK2gXYLDbGBsZpONvEnoCD+HnK2dVuE49gYj9K49LRawzcHsIyYUU+oF2LlLSrcExuMe+9dYdLR2tI+nKPrABx4fjODSV8aSJF6eV01HdjHJNT6lyVlLSLcTgcmPQTtNZ0UJxRQdSfUmQViAvFZ3YImlfiOKg7QeO5Zkb79VLOLk5K2kU5HA70Qwaul97kUFQB2qWJLH9MbjF31nh7aFj3fAy7Vx6kMr+Gvlt3ZGLQTUhJu4H+9kEu5l1l7+rJ+xZ9ZsmSPWfKmgWRJP99Lz/uPEt7bSdWs2xIcSdS0m7CbrPT0dBN0Y6zJH+1l7XPblS8fCT3jp+nlk0fppIXXUjjuWaMYyalHyOhAClpN2M2Wmi61Mrh6EJi/rydAC85v1pt8ZkdgnZpIntW51JdUMfYgJzv7M6kpN2UYcRIbUkje1YdJHxJAsvnyni10vGZpSFoUTRbvthF2b6LjPSOyrizkJJ2d+PDBi4cvkLCXzJY++xG2WKuUDkHeOmIfCeZo/FFDHaNyGYU8SspafHrSpDTaWVolyay8skNss18BuLtoWHF42FoFseRHZRH181epR8FoUJS0uLfDHWPcEB7nKBF0VLU01zQAV46tn2TxY2KZqV/7ULFpKTFv7l7HkhLVRu7/H9g9TNyi/lUx3dOKPGf7aQyvwbDiFGGNsQ9SUmL32U12xjt11N9so6UrzLlPJApSuS7yZTsrqCnpZ8Jg1nO2RD/lZS0uCeTfoKum72cybpA3CfpMrH4kNEsjiM/roimS63ohwzy9Szum5S0+K8cdgf6wXFuXrjFsYRiNizbonjpOUO8PTSsmq8jOyiPmqIGBruG5VZu8cCkpMV9s1ltDHaNcKWgjhxNPmufk8nF/1TOK710bP8mi4ofLtPV2CtbucVDk5IWD8xqsdHT3E95diVp3+5j9TORUta/ZOWTG4j7n3RObv2Jpkutk+Us487iEUhJi4fmsDloqW7nWEIx8Z/tIMBLp3hJKpUVT4SjeyuJ/WFHqTldj2HEqPSvR7gIKWnxyMwGC7XFN8jR5BPxVhL+87SKl+ZMxXdOCCGvxLHD93sqDlxmsGtY6V+HcDFS0mLKjN3Rcz63mrRv9xH8ciy+rnweiEcwgQujiP9sB6e2l9LT1CfnbIhpISUtptyd9kGK0s8S+1EaqxdEutw1Xv5Pagl/PYGDESdor+vCZpEVG2L6SEmLaWG32+n+uY9DGwsIfjmWFU84/2YY37mhrFkQSbpPDk2XWjEbLUr/mIUbkJIW08pqttJe20nGiv0snxvqlF/V3h4a/DzDiX5/G9eKb2CZkOV0YuZISYtp57A7MI2ZqC/7mdiP05zqYlzfOSFolyVyJvM8xlETdqvsFBQzS0pazAiHAywmK0M9I5RmXSTi7a2qvmjA20ND6Kvx5McV0dXYh0k/IeudhSKkpMWMGx820Hatk/y4IsKWJKhuI8y6F2LICT5CfXkTI31jcs6GUJSUtFCE3WZnsHOYmqIGsoLyWPdCjOLlHDBfxw6f77mYd5W+1gEsJpkYFMqTkhaKspgsdN3spTynktRv97FmQeSMl/OKx8PY8sUufsyooPVax+TQhhAqISUtVMEwaqK5qo3TaWWkfJ3Jqqen97IBb49g/DzDSfg8g+OJxdSXNzE+bJANKUJ1pKSFqhj1E9y8eIvjicWkfJ1J6Kub8Z0zdROMvnNCCVoUTeJfM8iLKaTup0YMoyYcdilnoU5S0kKVLBNWbl1ppzijgj0BucR+nIZmcRz+87QPvNZ6xeNhBD0fQ/QH29m5Yj8nt/5EQ3mTbEYRTkFKWqieYcRIfdnPnNpeyt7Vh9jyxW42vr8N7dJEQl/dzPoXN7H2uWjWPhfN+hc3oVkcR/iSBKLeSyHhLzvZuXw/R+OLqClqYLhnVOm/jhAPREpaOBWHw8Fov57my21cOlpDadZFClPOcCTmFEdiT1GQcoaSXRWcz62i8VwLwz2jcraGcGpS0kIIoWJS0kIIoWJS0kIIoWJS0kIIoWJS0kIIoWJS0kIIoWL/D1ZQGxT6pBRvAAAAAElFTkSuQmCC;" vertex="1" parent="1">
          <mxGeometry x="-65" y="-209.99999999999997" width="201" height="191.53" as="geometry" />
        </mxCell>
        <mxCell id="WCYd7PEhxb0Bcr4dKSGi-29" value="&lt;b&gt;&lt;font style=&quot;font-size: 16px&quot;&gt;CrawlerForStockEPS&lt;/font&gt;&lt;/b&gt;" style="text;html=1;strokeColor=none;fillColor=none;align=center;verticalAlign=middle;whiteSpace=wrap;rounded=0;" vertex="1" parent="1">
          <mxGeometry x="160" y="260" width="180" height="20" as="geometry" />
        </mxCell>
        <mxCell id="WCYd7PEhxb0Bcr4dKSGi-30" value="&lt;b&gt;&lt;font style=&quot;font-size: 16px&quot;&gt;StockInfoAPI&lt;/font&gt;&lt;/b&gt;" style="text;html=1;strokeColor=none;fillColor=none;align=center;verticalAlign=middle;whiteSpace=wrap;rounded=0;" vertex="1" parent="1">
          <mxGeometry x="170" y="-200" width="110" height="20" as="geometry" />
        </mxCell>
        <mxCell id="WCYd7PEhxb0Bcr4dKSGi-32" value="&lt;b&gt;&lt;font style=&quot;font-size: 16px&quot;&gt;my-stock-info&lt;/font&gt;&lt;/b&gt;" style="text;html=1;strokeColor=none;fillColor=none;align=center;verticalAlign=middle;whiteSpace=wrap;rounded=0;" vertex="1" parent="1">
          <mxGeometry x="170" y="-435" width="110" height="20" as="geometry" />
        </mxCell>
        <mxCell id="WCYd7PEhxb0Bcr4dKSGi-34" value="&lt;div&gt;googleLogin&lt;/div&gt;&lt;div&gt;(google登入)&lt;br&gt;&lt;/div&gt;" style="rounded=0;whiteSpace=wrap;html=1;" vertex="1" parent="1">
          <mxGeometry x="170" y="-170" width="140" height="60" as="geometry" />
        </mxCell>
        <mxCell id="WCYd7PEhxb0Bcr4dKSGi-35" value="&lt;div&gt;getStockList&lt;/div&gt;&lt;div&gt;(取得股票清單)&lt;br&gt;&lt;/div&gt;" style="rounded=0;whiteSpace=wrap;html=1;" vertex="1" parent="1">
          <mxGeometry x="320" y="-170" width="140" height="60" as="geometry" />
        </mxCell>
        <mxCell id="WCYd7PEhxb0Bcr4dKSGi-36" value="&lt;div&gt;getRangePrice&lt;/div&gt;&lt;div&gt;(取得股票歷史價格)&lt;br&gt;&lt;/div&gt;" style="rounded=0;whiteSpace=wrap;html=1;" vertex="1" parent="1">
          <mxGeometry x="470" y="-170" width="140" height="60" as="geometry" />
        </mxCell>
        <mxCell id="WCYd7PEhxb0Bcr4dKSGi-37" value="&lt;div&gt;getProfit&lt;/div&gt;&lt;div&gt;(取得股票損益表)&lt;br&gt;&lt;/div&gt;" style="rounded=0;whiteSpace=wrap;html=1;" vertex="1" parent="1">
          <mxGeometry x="620" y="-170" width="140" height="60" as="geometry" />
        </mxCell>
        <mxCell id="WCYd7PEhxb0Bcr4dKSGi-38" value="&lt;div&gt;getOperatingIncomes&lt;/div&gt;&lt;div&gt;(取得股票營收)&lt;br&gt;&lt;/div&gt;" style="rounded=0;whiteSpace=wrap;html=1;" vertex="1" parent="1">
          <mxGeometry x="770" y="-170" width="140" height="60" as="geometry" />
        </mxCell>
        <mxCell id="WCYd7PEhxb0Bcr4dKSGi-39" value="&lt;div&gt;getEvaluation&lt;/div&gt;&lt;div&gt;(取得股票評估成果)&lt;br&gt;&lt;/div&gt;" style="rounded=0;whiteSpace=wrap;html=1;" vertex="1" parent="1">
          <mxGeometry x="620" y="-100" width="140" height="60" as="geometry" />
        </mxCell>
        <mxCell id="WCYd7PEhxb0Bcr4dKSGi-40" value="&lt;div&gt;getEPS&lt;/div&gt;&lt;div&gt;(取得EPS)&lt;br&gt;&lt;/div&gt;" style="rounded=0;whiteSpace=wrap;html=1;" vertex="1" parent="1">
          <mxGeometry x="470" y="-100" width="140" height="60" as="geometry" />
        </mxCell>
        <mxCell id="WCYd7PEhxb0Bcr4dKSGi-41" value="&lt;div&gt;getDividend&lt;/div&gt;&lt;div&gt;(取得股利紀錄)&lt;br&gt;&lt;/div&gt;" style="rounded=0;whiteSpace=wrap;html=1;" vertex="1" parent="1">
          <mxGeometry x="320" y="-100" width="140" height="60" as="geometry" />
        </mxCell>
        <mxCell id="WCYd7PEhxb0Bcr4dKSGi-42" value="&lt;div&gt;favorite&lt;/div&gt;&lt;div&gt;(我的最愛相關)&lt;br&gt;&lt;/div&gt;" style="rounded=0;whiteSpace=wrap;html=1;" vertex="1" parent="1">
          <mxGeometry x="170" y="-100" width="140" height="60" as="geometry" />
        </mxCell>
        <mxCell id="WCYd7PEhxb0Bcr4dKSGi-43" value="&lt;div&gt;index&lt;/div&gt;&lt;div&gt;(登入頁)&lt;br&gt;&lt;/div&gt;" style="rounded=0;whiteSpace=wrap;html=1;" vertex="1" parent="1">
          <mxGeometry x="245" y="-400" width="140" height="60" as="geometry" />
        </mxCell>
        <mxCell id="WCYd7PEhxb0Bcr4dKSGi-44" value="main&lt;br&gt;(首頁)" style="rounded=0;whiteSpace=wrap;html=1;" vertex="1" parent="1">
          <mxGeometry x="395" y="-400" width="140" height="60" as="geometry" />
        </mxCell>
        <mxCell id="WCYd7PEhxb0Bcr4dKSGi-45" value="&lt;div&gt;showStockCharts&lt;/div&gt;&lt;div&gt;(圖表呈現)&lt;/div&gt;" style="rounded=0;whiteSpace=wrap;html=1;" vertex="1" parent="1">
          <mxGeometry x="545" y="-400" width="140" height="60" as="geometry" />
        </mxCell>
        <mxCell id="WCYd7PEhxb0Bcr4dKSGi-46" value="&lt;div&gt;showStockTables&lt;/div&gt;&lt;div&gt;(表格呈現)&lt;/div&gt;" style="rounded=0;whiteSpace=wrap;html=1;" vertex="1" parent="1">
          <mxGeometry x="695" y="-400" width="140" height="60" as="geometry" />
        </mxCell>
        <mxCell id="WCYd7PEhxb0Bcr4dKSGi-47" value="&lt;div&gt;account&lt;/div&gt;&lt;div&gt;(帳號相關)&lt;br&gt;&lt;/div&gt;" style="rounded=0;whiteSpace=wrap;html=1;" vertex="1" parent="1">
          <mxGeometry x="695" y="-330" width="140" height="60" as="geometry" />
        </mxCell>
        <mxCell id="WCYd7PEhxb0Bcr4dKSGi-48" value="&lt;div&gt;getStockInfo&lt;/div&gt;&lt;div&gt;(串接後端取得資料)&lt;br&gt;&lt;/div&gt;" style="rounded=0;whiteSpace=wrap;html=1;" vertex="1" parent="1">
          <mxGeometry x="545" y="-330" width="140" height="60" as="geometry" />
        </mxCell>
        <mxCell id="WCYd7PEhxb0Bcr4dKSGi-49" value="showEvaluations&lt;br&gt;&lt;div&gt;(評估結果呈現)&lt;/div&gt;" style="rounded=0;whiteSpace=wrap;html=1;" vertex="1" parent="1">
          <mxGeometry x="245" y="-330" width="140" height="60" as="geometry" />
        </mxCell>
        <mxCell id="WCYd7PEhxb0Bcr4dKSGi-50" value="&lt;div&gt;favorite&lt;/div&gt;&lt;div&gt;(我的最愛相關)&lt;br&gt;&lt;/div&gt;" style="rounded=0;whiteSpace=wrap;html=1;" vertex="1" parent="1">
          <mxGeometry x="395" y="-328.5" width="140" height="60" as="geometry" />
        </mxCell>
      </root>
    </mxGraphModel>
  </diagram>
</mxfile>
